%TF.GenerationSoftware,KiCad,Pcbnew,(6.0.5)*%
%TF.CreationDate,2025-06-10T19:50:37+02:00*%
%TF.ProjectId,USB_Knob,5553425f-4b6e-46f6-922e-6b696361645f,rev?*%
%TF.SameCoordinates,Original*%
%TF.FileFunction,Copper,L1,Top*%
%TF.FilePolarity,Positive*%
%FSLAX46Y46*%
G04 Gerber Fmt 4.6, Leading zero omitted, Abs format (unit mm)*
G04 Created by KiCad (PCBNEW (6.0.5)) date 2025-06-10 19:50:37*
%MOMM*%
%LPD*%
G01*
G04 APERTURE LIST*
G04 Aperture macros list*
%AMRoundRect*
0 Rectangle with rounded corners*
0 $1 Rounding radius*
0 $2 $3 $4 $5 $6 $7 $8 $9 X,Y pos of 4 corners*
0 Add a 4 corners polygon primitive as box body*
4,1,4,$2,$3,$4,$5,$6,$7,$8,$9,$2,$3,0*
0 Add four circle primitives for the rounded corners*
1,1,$1+$1,$2,$3*
1,1,$1+$1,$4,$5*
1,1,$1+$1,$6,$7*
1,1,$1+$1,$8,$9*
0 Add four rect primitives between the rounded corners*
20,1,$1+$1,$2,$3,$4,$5,0*
20,1,$1+$1,$4,$5,$6,$7,0*
20,1,$1+$1,$6,$7,$8,$9,0*
20,1,$1+$1,$8,$9,$2,$3,0*%
G04 Aperture macros list end*
%TA.AperFunction,SMDPad,CuDef*%
%ADD10R,1.500000X0.650000*%
%TD*%
%TA.AperFunction,SMDPad,CuDef*%
%ADD11RoundRect,0.250000X0.262500X0.450000X-0.262500X0.450000X-0.262500X-0.450000X0.262500X-0.450000X0*%
%TD*%
%TA.AperFunction,SMDPad,CuDef*%
%ADD12RoundRect,0.250000X-0.250000X-0.475000X0.250000X-0.475000X0.250000X0.475000X-0.250000X0.475000X0*%
%TD*%
%TA.AperFunction,SMDPad,CuDef*%
%ADD13R,1.400000X1.200000*%
%TD*%
%TA.AperFunction,SMDPad,CuDef*%
%ADD14R,1.400000X2.100000*%
%TD*%
%TA.AperFunction,ComponentPad*%
%ADD15R,1.700000X1.700000*%
%TD*%
%TA.AperFunction,ComponentPad*%
%ADD16O,1.700000X1.700000*%
%TD*%
%TA.AperFunction,SMDPad,CuDef*%
%ADD17RoundRect,0.250000X-0.450000X0.262500X-0.450000X-0.262500X0.450000X-0.262500X0.450000X0.262500X0*%
%TD*%
%TA.AperFunction,SMDPad,CuDef*%
%ADD18RoundRect,0.250000X0.450000X-0.262500X0.450000X0.262500X-0.450000X0.262500X-0.450000X-0.262500X0*%
%TD*%
%TA.AperFunction,ComponentPad*%
%ADD19C,6.400000*%
%TD*%
%TA.AperFunction,SMDPad,CuDef*%
%ADD20RoundRect,0.250000X0.250000X0.475000X-0.250000X0.475000X-0.250000X-0.475000X0.250000X-0.475000X0*%
%TD*%
%TA.AperFunction,SMDPad,CuDef*%
%ADD21RoundRect,0.243750X0.456250X-0.243750X0.456250X0.243750X-0.456250X0.243750X-0.456250X-0.243750X0*%
%TD*%
%TA.AperFunction,SMDPad,CuDef*%
%ADD22R,0.600000X1.450000*%
%TD*%
%TA.AperFunction,SMDPad,CuDef*%
%ADD23R,0.300000X1.450000*%
%TD*%
%TA.AperFunction,ComponentPad*%
%ADD24O,1.000000X2.100000*%
%TD*%
%TA.AperFunction,ComponentPad*%
%ADD25O,1.000000X1.600000*%
%TD*%
%TA.AperFunction,SMDPad,CuDef*%
%ADD26RoundRect,0.250000X-0.262500X-0.450000X0.262500X-0.450000X0.262500X0.450000X-0.262500X0.450000X0*%
%TD*%
%TA.AperFunction,SMDPad,CuDef*%
%ADD27RoundRect,0.250000X-0.650000X0.325000X-0.650000X-0.325000X0.650000X-0.325000X0.650000X0.325000X0*%
%TD*%
%TA.AperFunction,SMDPad,CuDef*%
%ADD28RoundRect,0.100000X-0.637500X-0.100000X0.637500X-0.100000X0.637500X0.100000X-0.637500X0.100000X0*%
%TD*%
%TA.AperFunction,SMDPad,CuDef*%
%ADD29RoundRect,0.250000X-0.475000X0.250000X-0.475000X-0.250000X0.475000X-0.250000X0.475000X0.250000X0*%
%TD*%
%TA.AperFunction,ViaPad*%
%ADD30C,0.800000*%
%TD*%
%TA.AperFunction,Conductor*%
%ADD31C,0.400000*%
%TD*%
%TA.AperFunction,Conductor*%
%ADD32C,0.300000*%
%TD*%
%TA.AperFunction,Conductor*%
%ADD33C,0.600000*%
%TD*%
G04 APERTURE END LIST*
D10*
%TO.P,IC1,1,VDD5V*%
%TO.N,+5V*%
X146800000Y-101595000D03*
%TO.P,IC1,2,VDD3V3*%
%TO.N,Net-(C7-Pad2)*%
X146800000Y-102865000D03*
%TO.P,IC1,3,OUT*%
%TO.N,/AS_OUT*%
X146800000Y-104135000D03*
%TO.P,IC1,4,GND*%
%TO.N,GND*%
X146800000Y-105405000D03*
%TO.P,IC1,5,PGO*%
%TO.N,Net-(IC1-Pad5)*%
X152200000Y-105405000D03*
%TO.P,IC1,6,SDA*%
%TO.N,/I2C_SDA*%
X152200000Y-104135000D03*
%TO.P,IC1,7,SCL*%
%TO.N,/I2C_SCL*%
X152200000Y-102865000D03*
%TO.P,IC1,8,DIR*%
%TO.N,/DIR*%
X152200000Y-101595000D03*
%TD*%
D11*
%TO.P,R6,1*%
%TO.N,GND*%
X156662500Y-105400000D03*
%TO.P,R6,2*%
%TO.N,Net-(IC1-Pad5)*%
X154837500Y-105400000D03*
%TD*%
D12*
%TO.P,C7,1*%
%TO.N,GND*%
X142550000Y-102850000D03*
%TO.P,C7,2*%
%TO.N,Net-(C7-Pad2)*%
X144450000Y-102850000D03*
%TD*%
D13*
%TO.P,Y1,1,1*%
%TO.N,/XI*%
X158000000Y-86350000D03*
%TO.P,Y1,2,2*%
%TO.N,GND*%
X160200000Y-86350000D03*
%TO.P,Y1,3,3*%
%TO.N,/XO*%
X160200000Y-84650000D03*
%TO.P,Y1,4,4*%
%TO.N,GND*%
X158000000Y-84650000D03*
%TD*%
D14*
%TO.P,S1,1,1*%
%TO.N,unconnected-(S1-Pad1)*%
X135250000Y-142550000D03*
%TO.P,S1,2,2*%
%TO.N,/SW1*%
X135250000Y-133450000D03*
%TO.P,S1,3,3*%
%TO.N,GND*%
X139750000Y-142550000D03*
%TO.P,S1,4,4*%
%TO.N,unconnected-(S1-Pad4)*%
X139750000Y-133450000D03*
%TD*%
%TO.P,S2,1,1*%
%TO.N,unconnected-(S2-Pad1)*%
X147250000Y-142550000D03*
%TO.P,S2,2,2*%
%TO.N,/SW2*%
X147250000Y-133450000D03*
%TO.P,S2,3,3*%
%TO.N,GND*%
X151750000Y-142550000D03*
%TO.P,S2,4,4*%
%TO.N,unconnected-(S2-Pad4)*%
X151750000Y-133450000D03*
%TD*%
D15*
%TO.P,J3,1,Pin_1*%
%TO.N,Net-(J3-Pad1)*%
X149625000Y-80525000D03*
D16*
%TO.P,J3,2,Pin_2*%
%TO.N,+3V3*%
X149625000Y-77985000D03*
%TD*%
D17*
%TO.P,R2,1*%
%TO.N,Net-(J1-PadB5)*%
X147750000Y-72587500D03*
%TO.P,R2,2*%
%TO.N,GND*%
X147750000Y-74412500D03*
%TD*%
D12*
%TO.P,C6,1*%
%TO.N,GND*%
X142550000Y-100800000D03*
%TO.P,C6,2*%
%TO.N,+5V*%
X144450000Y-100800000D03*
%TD*%
D18*
%TO.P,R11,1*%
%TO.N,/LED3*%
X166950000Y-78662500D03*
%TO.P,R11,2*%
%TO.N,Net-(D3-Pad1)*%
X166950000Y-76837500D03*
%TD*%
D15*
%TO.P,J2,1,Pin_1*%
%TO.N,/RXD*%
X166250000Y-124500000D03*
D16*
%TO.P,J2,2,Pin_2*%
%TO.N,/TXD*%
X166250000Y-127040000D03*
%TO.P,J2,3,Pin_3*%
%TO.N,GND*%
X166250000Y-129580000D03*
%TD*%
D19*
%TO.P,H2,1,1*%
%TO.N,GND*%
X173000000Y-65000000D03*
%TD*%
D18*
%TO.P,R10,1*%
%TO.N,/LED2*%
X165000000Y-78662500D03*
%TO.P,R10,2*%
%TO.N,Net-(D2-Pad1)*%
X165000000Y-76837500D03*
%TD*%
D19*
%TO.P,H1,1,1*%
%TO.N,GND*%
X126000000Y-65000000D03*
%TD*%
%TO.P,H4,1,1*%
%TO.N,GND*%
X173000000Y-142000000D03*
%TD*%
D20*
%TO.P,C3,1*%
%TO.N,GND*%
X152700000Y-85750000D03*
%TO.P,C3,2*%
%TO.N,+5V*%
X150800000Y-85750000D03*
%TD*%
D18*
%TO.P,R8,1*%
%TO.N,/LED1*%
X156500000Y-78662500D03*
%TO.P,R8,2*%
%TO.N,Net-(D1-Pad1)*%
X156500000Y-76837500D03*
%TD*%
D11*
%TO.P,R7,1*%
%TO.N,+5V*%
X156662500Y-101500000D03*
%TO.P,R7,2*%
%TO.N,/I2C_SCL*%
X154837500Y-101500000D03*
%TD*%
D21*
%TO.P,D2,1,K*%
%TO.N,Net-(D2-Pad1)*%
X165000000Y-72187500D03*
%TO.P,D2,2,A*%
%TO.N,+5V*%
X165000000Y-70312500D03*
%TD*%
%TO.P,D3,1,K*%
%TO.N,Net-(D3-Pad1)*%
X173500000Y-72187500D03*
%TO.P,D3,2,A*%
%TO.N,+5V*%
X173500000Y-70312500D03*
%TD*%
D22*
%TO.P,J1,A1,GND*%
%TO.N,GND*%
X152750000Y-69045000D03*
%TO.P,J1,A4,VBUS*%
%TO.N,+5V*%
X151950000Y-69045000D03*
D23*
%TO.P,J1,A5,CC1*%
%TO.N,Net-(J1-PadA5)*%
X150750000Y-69045000D03*
%TO.P,J1,A6,D+*%
%TO.N,/USB1DP*%
X149750000Y-69045000D03*
%TO.P,J1,A7,D-*%
%TO.N,/USB1DM*%
X149250000Y-69045000D03*
%TO.P,J1,A8,SBU1*%
%TO.N,unconnected-(J1-PadA8)*%
X148250000Y-69045000D03*
D22*
%TO.P,J1,A9,VBUS*%
%TO.N,+5V*%
X147050000Y-69045000D03*
%TO.P,J1,A12,GND*%
%TO.N,GND*%
X146250000Y-69045000D03*
%TO.P,J1,B1,GND*%
X146250000Y-69045000D03*
%TO.P,J1,B4,VBUS*%
%TO.N,+5V*%
X147050000Y-69045000D03*
D23*
%TO.P,J1,B5,CC2*%
%TO.N,Net-(J1-PadB5)*%
X147750000Y-69045000D03*
%TO.P,J1,B6,D+*%
%TO.N,/USB1DP*%
X148750000Y-69045000D03*
%TO.P,J1,B7,D-*%
%TO.N,/USB1DM*%
X150250000Y-69045000D03*
%TO.P,J1,B8,SBU2*%
%TO.N,unconnected-(J1-PadB8)*%
X151250000Y-69045000D03*
D22*
%TO.P,J1,B9,VBUS*%
%TO.N,+5V*%
X151950000Y-69045000D03*
%TO.P,J1,B12,GND*%
%TO.N,GND*%
X152750000Y-69045000D03*
D24*
%TO.P,J1,S1,SHIELD*%
X153820000Y-68130000D03*
D25*
X153820000Y-63950000D03*
X145180000Y-63950000D03*
D24*
X145180000Y-68130000D03*
%TD*%
D26*
%TO.P,R12,1*%
%TO.N,/USB1DP*%
X145575000Y-83700000D03*
%TO.P,R12,2*%
%TO.N,Net-(J3-Pad1)*%
X147400000Y-83700000D03*
%TD*%
D18*
%TO.P,R4,1*%
%TO.N,+5V*%
X143500000Y-133912500D03*
%TO.P,R4,2*%
%TO.N,/SW2*%
X143500000Y-132087500D03*
%TD*%
D17*
%TO.P,R1,1*%
%TO.N,Net-(J1-PadA5)*%
X150750000Y-72587500D03*
%TO.P,R1,2*%
%TO.N,GND*%
X150750000Y-74412500D03*
%TD*%
D18*
%TO.P,R5,1*%
%TO.N,+5V*%
X155500000Y-133912500D03*
%TO.P,R5,2*%
%TO.N,/SW3*%
X155500000Y-132087500D03*
%TD*%
D19*
%TO.P,H3,1,1*%
%TO.N,GND*%
X126000000Y-142000000D03*
%TD*%
D27*
%TO.P,C1,1*%
%TO.N,+5V*%
X138750000Y-67525000D03*
%TO.P,C1,2*%
%TO.N,GND*%
X138750000Y-70475000D03*
%TD*%
D12*
%TO.P,C5,1*%
%TO.N,GND*%
X158150000Y-82750000D03*
%TO.P,C5,2*%
%TO.N,/XO*%
X160050000Y-82750000D03*
%TD*%
D21*
%TO.P,D1,1,K*%
%TO.N,Net-(D1-Pad1)*%
X156500000Y-72187500D03*
%TO.P,D1,2,A*%
%TO.N,+5V*%
X156500000Y-70312500D03*
%TD*%
D26*
%TO.P,R3,1*%
%TO.N,+5V*%
X131587500Y-130000000D03*
%TO.P,R3,2*%
%TO.N,/SW1*%
X133412500Y-130000000D03*
%TD*%
D28*
%TO.P,U1,1,P3.2/TXD1_/INT0/VBUS1/AIN3*%
%TO.N,/DIR*%
X142137500Y-85575000D03*
%TO.P,U1,2,P1.4/T2_/CAP1/SCS/TIN2/UCC1/AIN1*%
%TO.N,/I2C_SCL*%
X142137500Y-86225000D03*
%TO.P,U1,3,P1.5/MOSI/PWM1/TIN3/UCC2/AIN2*%
%TO.N,/SW1*%
X142137500Y-86875000D03*
%TO.P,U1,4,P1.6/MISO/RXD1/TIN4*%
%TO.N,/SW2*%
X142137500Y-87525000D03*
%TO.P,U1,5,P1.7/SCK/TXD1/TIN5*%
%TO.N,/SW3*%
X142137500Y-88175000D03*
%TO.P,U1,6,RST/T2EX_/CAP2_*%
%TO.N,unconnected-(U1-Pad6)*%
X142137500Y-88825000D03*
%TO.P,U1,7,P1.0/T2/CAP1/TIN0*%
%TO.N,/I2C_SDA*%
X142137500Y-89475000D03*
%TO.P,U1,8,P1.1/T2EX/CAP2/TIN1/VBUS2/AIN0*%
%TO.N,/AS_OUT*%
X142137500Y-90125000D03*
%TO.P,U1,9,P3.1/PWM2_/TXD*%
%TO.N,/TXD*%
X142137500Y-90775000D03*
%TO.P,U1,10,P3.0/PWM1_/RXD*%
%TO.N,/RXD*%
X142137500Y-91425000D03*
%TO.P,U1,11,P3.3/INT1*%
%TO.N,/LED3*%
X147862500Y-91425000D03*
%TO.P,U1,12,P3.4/PWM2/RXD1_/T0*%
%TO.N,/LED2*%
X147862500Y-90775000D03*
%TO.P,U1,13,P3.5/T1*%
%TO.N,/LED1*%
X147862500Y-90125000D03*
%TO.P,U1,14,P3.6/UDP*%
%TO.N,/USB1DP*%
X147862500Y-89475000D03*
%TO.P,U1,15,P3.7/UDM*%
%TO.N,/USB1DM*%
X147862500Y-88825000D03*
%TO.P,U1,16,P1.3/XO/TXD_*%
%TO.N,/XO*%
X147862500Y-88175000D03*
%TO.P,U1,17,P1.2/XI/RXD_*%
%TO.N,/XI*%
X147862500Y-87525000D03*
%TO.P,U1,18,GND/VSS*%
%TO.N,GND*%
X147862500Y-86875000D03*
%TO.P,U1,19,VCC/VDD*%
%TO.N,+5V*%
X147862500Y-86225000D03*
%TO.P,U1,20,V33*%
%TO.N,+3V3*%
X147862500Y-85575000D03*
%TD*%
D11*
%TO.P,R9,1*%
%TO.N,+5V*%
X156662500Y-103450000D03*
%TO.P,R9,2*%
%TO.N,/I2C_SDA*%
X154837500Y-103450000D03*
%TD*%
D14*
%TO.P,S3,1,1*%
%TO.N,unconnected-(S3-Pad1)*%
X159250000Y-142550000D03*
%TO.P,S3,2,2*%
%TO.N,/SW3*%
X159250000Y-133450000D03*
%TO.P,S3,3,3*%
%TO.N,GND*%
X163750000Y-142550000D03*
%TO.P,S3,4,4*%
%TO.N,unconnected-(S3-Pad4)*%
X163750000Y-133450000D03*
%TD*%
D29*
%TO.P,C4,1*%
%TO.N,GND*%
X155850000Y-84550000D03*
%TO.P,C4,2*%
%TO.N,/XI*%
X155850000Y-86450000D03*
%TD*%
D12*
%TO.P,C2,1*%
%TO.N,+3V3*%
X150800000Y-83500000D03*
%TO.P,C2,2*%
%TO.N,GND*%
X152700000Y-83500000D03*
%TD*%
D30*
%TO.N,GND*%
X165100000Y-81300000D03*
X145200000Y-105450000D03*
X141500000Y-100800000D03*
X149500000Y-93050000D03*
X163750000Y-139250000D03*
X139750000Y-139250000D03*
X165250000Y-103500000D03*
X138150000Y-123900000D03*
X148500000Y-100100000D03*
X151750000Y-139250000D03*
X162750000Y-71000000D03*
X156600000Y-83000000D03*
X138250000Y-93250000D03*
X138750000Y-72250000D03*
X165000000Y-121750000D03*
X138500000Y-84750000D03*
X149500000Y-130000000D03*
X141500000Y-102850000D03*
X154000000Y-85000000D03*
X160250000Y-87750000D03*
X163650000Y-91100000D03*
X153500000Y-70750000D03*
X137750000Y-130250000D03*
X157750000Y-105400000D03*
X146250000Y-74500000D03*
X150750000Y-75750000D03*
%TD*%
D31*
%TO.N,+5V*%
X160350000Y-107700000D02*
X168450000Y-107700000D01*
D32*
X147750000Y-67597766D02*
X147750000Y-67000000D01*
D31*
X146800000Y-101595000D02*
X147695000Y-101595000D01*
X149525000Y-86225000D02*
X150000000Y-85750000D01*
X159950000Y-107300000D02*
X160350000Y-107700000D01*
X151950000Y-69045000D02*
X151950000Y-82300000D01*
D32*
X151950000Y-68297766D02*
X151950000Y-69045000D01*
D31*
X146800000Y-101595000D02*
X145245000Y-101595000D01*
X159550000Y-106900000D02*
X159950000Y-107300000D01*
D32*
X151250000Y-67597766D02*
X151950000Y-68297766D01*
X156500000Y-66500000D02*
X151750000Y-66500000D01*
X156500000Y-70312500D02*
X156500000Y-66500000D01*
X164250000Y-66500000D02*
X156500000Y-66500000D01*
D31*
X148200000Y-102100000D02*
X148200000Y-104600000D01*
X148200000Y-104600000D02*
X151300000Y-107700000D01*
X151300000Y-107700000D02*
X160350000Y-107700000D01*
D32*
X147050000Y-68297766D02*
X147750000Y-67597766D01*
D31*
X147695000Y-101595000D02*
X148200000Y-102100000D01*
X151950000Y-82300000D02*
X151750000Y-82500000D01*
X151750000Y-84800000D02*
X150800000Y-85750000D01*
X156662500Y-101500000D02*
X158350000Y-101500000D01*
X159550000Y-102700000D02*
X159550000Y-104050000D01*
X150000000Y-85750000D02*
X150800000Y-85750000D01*
D32*
X148000000Y-66750000D02*
X151500000Y-66750000D01*
D31*
X159550000Y-104050000D02*
X159550000Y-106900000D01*
D32*
X165000000Y-67250000D02*
X164250000Y-66500000D01*
D31*
X145245000Y-101595000D02*
X144450000Y-100800000D01*
X151750000Y-82500000D02*
X151750000Y-84800000D01*
D32*
X147750000Y-67000000D02*
X148000000Y-66750000D01*
X165000000Y-70312500D02*
X165000000Y-67250000D01*
X151500000Y-66750000D02*
X151750000Y-66500000D01*
X147050000Y-69045000D02*
X147050000Y-68297766D01*
D31*
X156662500Y-103450000D02*
X158950000Y-103450000D01*
X147862500Y-86225000D02*
X149525000Y-86225000D01*
D32*
X151250000Y-67000000D02*
X151250000Y-67597766D01*
D31*
X158950000Y-103450000D02*
X159550000Y-104050000D01*
D32*
X151750000Y-66500000D02*
X151250000Y-67000000D01*
D31*
X158350000Y-101500000D02*
X159550000Y-102700000D01*
%TO.N,GND*%
X156850000Y-82750000D02*
X156600000Y-83000000D01*
X155850000Y-83750000D02*
X156600000Y-83000000D01*
X142550000Y-102850000D02*
X141500000Y-102850000D01*
X151575480Y-86874520D02*
X147862980Y-86874520D01*
D33*
X146337500Y-74412500D02*
X146250000Y-74500000D01*
D31*
X147862980Y-86874520D02*
X147862500Y-86875000D01*
D33*
X152750000Y-70000000D02*
X153500000Y-70750000D01*
D31*
X152700000Y-83700000D02*
X154000000Y-85000000D01*
X152700000Y-85750000D02*
X151575480Y-86874520D01*
D33*
X151750000Y-142550000D02*
X151750000Y-139250000D01*
D31*
X146250000Y-70500000D02*
X146000000Y-70750000D01*
X142550000Y-100800000D02*
X141500000Y-100800000D01*
D33*
X139750000Y-142550000D02*
X139750000Y-139250000D01*
D31*
X152700000Y-83500000D02*
X152700000Y-83700000D01*
X152700000Y-85750000D02*
X153250000Y-85750000D01*
D33*
X163750000Y-142550000D02*
X163750000Y-139250000D01*
D31*
X153820000Y-68130000D02*
X153820000Y-70430000D01*
X156662500Y-105400000D02*
X157750000Y-105400000D01*
X146250000Y-69045000D02*
X146250000Y-70500000D01*
D33*
X138750000Y-70475000D02*
X138750000Y-72250000D01*
D31*
X145180000Y-70320000D02*
X145000000Y-70500000D01*
X153820000Y-70430000D02*
X153500000Y-70750000D01*
X158150000Y-82750000D02*
X156850000Y-82750000D01*
D33*
X147750000Y-74412500D02*
X146337500Y-74412500D01*
D31*
X153250000Y-85750000D02*
X154000000Y-85000000D01*
D33*
X150750000Y-74412500D02*
X150750000Y-75750000D01*
D31*
X146800000Y-105405000D02*
X145245000Y-105405000D01*
X155850000Y-84550000D02*
X155850000Y-83750000D01*
X145245000Y-105405000D02*
X145200000Y-105450000D01*
D33*
X152750000Y-69045000D02*
X152750000Y-70000000D01*
D31*
X145180000Y-68130000D02*
X145180000Y-70320000D01*
%TO.N,+3V3*%
X150800000Y-82200000D02*
X151250000Y-81750000D01*
X150800000Y-83500000D02*
X150800000Y-82200000D01*
X150250000Y-84050000D02*
X150800000Y-83500000D01*
X151250000Y-81750000D02*
X151250000Y-78500000D01*
X150250000Y-84250000D02*
X150250000Y-84050000D01*
X147862500Y-85575000D02*
X148925000Y-85575000D01*
X148925000Y-85575000D02*
X150250000Y-84250000D01*
X149640000Y-78000000D02*
X149625000Y-77985000D01*
X150750000Y-78000000D02*
X149640000Y-78000000D01*
X151250000Y-78500000D02*
X150750000Y-78000000D01*
%TO.N,Net-(D1-Pad1)*%
X156500000Y-72187500D02*
X156500000Y-76837500D01*
%TO.N,Net-(D2-Pad1)*%
X165000000Y-72187500D02*
X165000000Y-76837500D01*
%TO.N,Net-(D3-Pad1)*%
X173500000Y-72187500D02*
X172612500Y-72187500D01*
X172612500Y-72187500D02*
X167962500Y-76837500D01*
X167962500Y-76837500D02*
X166950000Y-76837500D01*
D32*
%TO.N,Net-(J1-PadA5)*%
X150750000Y-69045000D02*
X150750000Y-72587500D01*
%TO.N,/USB1DP*%
X149750000Y-70000000D02*
X149500000Y-70250000D01*
X148750000Y-69045000D02*
X148750000Y-70000000D01*
X146000000Y-78500000D02*
X149000000Y-75500000D01*
X149000000Y-70250000D02*
X149500000Y-70250000D01*
X149750000Y-69045000D02*
X149750000Y-70000000D01*
X146975000Y-89475000D02*
X146000000Y-88500000D01*
X148750000Y-70000000D02*
X149000000Y-70250000D01*
X149000000Y-75500000D02*
X149000000Y-70250000D01*
X147862500Y-89475000D02*
X146975000Y-89475000D01*
X146000000Y-88500000D02*
X146000000Y-78500000D01*
%TO.N,/USB1DM*%
X147075000Y-88825000D02*
X147862500Y-88825000D01*
X146500000Y-78750000D02*
X146500000Y-88250000D01*
X150250000Y-67970978D02*
X150250000Y-69045000D01*
X150250000Y-70500000D02*
X149500000Y-71250000D01*
X149250000Y-68000000D02*
X149500000Y-67750000D01*
X149500000Y-67750000D02*
X150029022Y-67750000D01*
X146500000Y-88250000D02*
X147075000Y-88825000D01*
X150250000Y-69045000D02*
X150250000Y-70500000D01*
X149500000Y-71250000D02*
X149500000Y-75750000D01*
X149500000Y-75750000D02*
X146500000Y-78750000D01*
X149250000Y-69045000D02*
X149250000Y-68000000D01*
X150029022Y-67750000D02*
X150250000Y-67970978D01*
%TO.N,Net-(J1-PadB5)*%
X147750000Y-69045000D02*
X147750000Y-72587500D01*
D31*
%TO.N,/SW1*%
X133412500Y-90087500D02*
X136625000Y-86875000D01*
X133412500Y-130000000D02*
X133412500Y-90087500D01*
X133412500Y-131612500D02*
X135250000Y-133450000D01*
X136625000Y-86875000D02*
X142137500Y-86875000D01*
X133412500Y-130000000D02*
X133412500Y-131612500D01*
%TO.N,/SW2*%
X141500000Y-128750000D02*
X143500000Y-130750000D01*
X134012020Y-126512020D02*
X136250000Y-128750000D01*
X136250000Y-128750000D02*
X141500000Y-128750000D01*
X134012020Y-90335830D02*
X134012020Y-126512020D01*
X143500000Y-130750000D02*
X143500000Y-132087500D01*
X143500000Y-132087500D02*
X145887500Y-132087500D01*
X145887500Y-132087500D02*
X147250000Y-133450000D01*
X142137500Y-87525000D02*
X136822850Y-87525000D01*
X136822850Y-87525000D02*
X134012020Y-90335830D01*
%TO.N,/SW3*%
X153650480Y-128150480D02*
X155500000Y-130000000D01*
X134611540Y-90584160D02*
X134611540Y-125861540D01*
X142137500Y-88175000D02*
X137020700Y-88175000D01*
X134611540Y-125861540D02*
X136900480Y-128150480D01*
X157887500Y-132087500D02*
X159250000Y-133450000D01*
X155500000Y-130000000D02*
X155500000Y-132087500D01*
X136900480Y-128150480D02*
X153650480Y-128150480D01*
X155500000Y-132087500D02*
X157887500Y-132087500D01*
X137020700Y-88175000D02*
X134611540Y-90584160D01*
%TO.N,Net-(IC1-Pad5)*%
X152200000Y-105405000D02*
X154832500Y-105405000D01*
X154832500Y-105405000D02*
X154837500Y-105400000D01*
%TO.N,/LED1*%
X159625000Y-90125000D02*
X161750000Y-88000000D01*
X160000000Y-78750000D02*
X156587500Y-78750000D01*
X161750000Y-80500000D02*
X160000000Y-78750000D01*
X161750000Y-88000000D02*
X161750000Y-80500000D01*
X147862500Y-90125000D02*
X159625000Y-90125000D01*
X156587500Y-78750000D02*
X156500000Y-78662500D01*
%TO.N,/I2C_SDA*%
X144200000Y-93000000D02*
X144200000Y-90400000D01*
X150050000Y-98850000D02*
X144200000Y-93000000D01*
X143275000Y-89475000D02*
X142137500Y-89475000D01*
X152200000Y-104135000D02*
X151135000Y-104135000D01*
X150050000Y-103050000D02*
X150050000Y-98850000D01*
X154152500Y-104135000D02*
X154837500Y-103450000D01*
X144200000Y-90400000D02*
X143275000Y-89475000D01*
X152200000Y-104135000D02*
X154152500Y-104135000D01*
X151135000Y-104135000D02*
X150050000Y-103050000D01*
%TO.N,/LED2*%
X162500000Y-80500000D02*
X162500000Y-88300000D01*
X164337500Y-78662500D02*
X162500000Y-80500000D01*
X162500000Y-88300000D02*
X160025000Y-90775000D01*
X160025000Y-90775000D02*
X147862500Y-90775000D01*
X165000000Y-78662500D02*
X164337500Y-78662500D01*
%TO.N,/LED3*%
X163250000Y-88600000D02*
X160425000Y-91425000D01*
X166200000Y-79900000D02*
X164400000Y-79900000D01*
X163250000Y-81050000D02*
X163250000Y-88600000D01*
X164400000Y-79900000D02*
X163250000Y-81050000D01*
X160425000Y-91425000D02*
X147862500Y-91425000D01*
X166950000Y-78662500D02*
X166950000Y-79150000D01*
X166950000Y-79150000D02*
X166200000Y-79900000D01*
%TO.N,/XO*%
X158274022Y-88175000D02*
X159100000Y-87349022D01*
X159100000Y-85350978D02*
X159800978Y-84650000D01*
X147862500Y-88175000D02*
X158274022Y-88175000D01*
X159800978Y-84650000D02*
X160200000Y-84650000D01*
X160050000Y-84500000D02*
X160200000Y-84650000D01*
X159100000Y-87349022D02*
X159100000Y-85350978D01*
X160050000Y-82750000D02*
X160050000Y-84500000D01*
%TO.N,/XI*%
X157750000Y-87250000D02*
X157750000Y-86600000D01*
X157750000Y-86600000D02*
X158000000Y-86350000D01*
X157475000Y-87525000D02*
X157750000Y-87250000D01*
X155775000Y-87525000D02*
X157475000Y-87525000D01*
X155850000Y-86450000D02*
X155850000Y-87450000D01*
X155850000Y-87450000D02*
X155775000Y-87525000D01*
X147862500Y-87525000D02*
X155775000Y-87525000D01*
%TO.N,/TXD*%
X135300000Y-93047850D02*
X135300000Y-125100000D01*
X137240000Y-127040000D02*
X166250000Y-127040000D01*
X135300000Y-125100000D02*
X137240000Y-127040000D01*
X142137500Y-90775000D02*
X137572850Y-90775000D01*
X137572850Y-90775000D02*
X135300000Y-93047850D01*
%TO.N,/RXD*%
X135900000Y-124450000D02*
X137700000Y-126250000D01*
X164500000Y-126250000D02*
X166250000Y-124500000D01*
X135900000Y-93295700D02*
X135900000Y-124450000D01*
X142137500Y-91425000D02*
X137770700Y-91425000D01*
X137700000Y-126250000D02*
X164500000Y-126250000D01*
X137770700Y-91425000D02*
X135900000Y-93295700D01*
%TO.N,/I2C_SCL*%
X151365000Y-102865000D02*
X150850000Y-102350000D01*
X150850000Y-102350000D02*
X150850000Y-98600000D01*
X150850000Y-98600000D02*
X144900000Y-92650000D01*
X143500000Y-88700000D02*
X143500000Y-86750000D01*
X152200000Y-102865000D02*
X151365000Y-102865000D01*
X153472500Y-102865000D02*
X154837500Y-101500000D01*
X142975000Y-86225000D02*
X142137500Y-86225000D01*
X144900000Y-90100000D02*
X143500000Y-88700000D01*
X144900000Y-92650000D02*
X144900000Y-90100000D01*
X152200000Y-102865000D02*
X153472500Y-102865000D01*
X143500000Y-86750000D02*
X142975000Y-86225000D01*
%TO.N,Net-(C7-Pad2)*%
X146800000Y-102865000D02*
X144465000Y-102865000D01*
X144465000Y-102865000D02*
X144450000Y-102850000D01*
%TO.N,Net-(J3-Pad1)*%
X147400000Y-83700000D02*
X147800000Y-83700000D01*
X149625000Y-81875000D02*
X149625000Y-80525000D01*
X147800000Y-83700000D02*
X149625000Y-81875000D01*
%TO.N,/DIR*%
X151650000Y-98250000D02*
X145600000Y-92200000D01*
X145600000Y-89750000D02*
X144200000Y-88350000D01*
X152200000Y-101595000D02*
X151650000Y-101045000D01*
X143400000Y-85575000D02*
X142137500Y-85575000D01*
X151650000Y-101045000D02*
X151650000Y-98250000D01*
X145600000Y-92200000D02*
X145600000Y-89750000D01*
X144200000Y-86375000D02*
X143400000Y-85575000D01*
X144200000Y-88350000D02*
X144200000Y-86375000D01*
%TO.N,/AS_OUT*%
X143885000Y-104135000D02*
X143500000Y-103750000D01*
X146800000Y-104135000D02*
X143885000Y-104135000D01*
X143500000Y-103750000D02*
X143500000Y-90650000D01*
X143500000Y-90650000D02*
X142975000Y-90125000D01*
X142975000Y-90125000D02*
X142137500Y-90125000D01*
%TD*%
%TA.AperFunction,Conductor*%
%TO.N,+5V*%
G36*
X171227076Y-61528502D02*
G01*
X171273569Y-61582158D01*
X171283673Y-61652432D01*
X171254179Y-61717012D01*
X171216158Y-61746767D01*
X171146147Y-61782439D01*
X171146140Y-61782443D01*
X171143206Y-61783938D01*
X170817207Y-61995643D01*
X170515124Y-62240266D01*
X170240266Y-62515124D01*
X169995643Y-62817207D01*
X169993848Y-62819970D01*
X169993848Y-62819971D01*
X169822109Y-63084428D01*
X169783938Y-63143206D01*
X169782443Y-63146140D01*
X169782439Y-63146147D01*
X169622879Y-63459301D01*
X169607468Y-63489547D01*
X169468167Y-63852438D01*
X169367562Y-64227901D01*
X169306754Y-64611824D01*
X169286411Y-65000000D01*
X169306754Y-65388176D01*
X169367562Y-65772099D01*
X169468167Y-66147562D01*
X169607468Y-66510453D01*
X169608966Y-66513393D01*
X169774824Y-66838906D01*
X169783938Y-66856794D01*
X169785734Y-66859560D01*
X169785736Y-66859563D01*
X169946499Y-67107118D01*
X169995643Y-67182793D01*
X170056448Y-67257881D01*
X170162871Y-67389301D01*
X170240266Y-67484876D01*
X170515124Y-67759734D01*
X170517682Y-67761806D01*
X170517686Y-67761809D01*
X170586007Y-67817134D01*
X170817207Y-68004357D01*
X171143205Y-68216062D01*
X171146139Y-68217557D01*
X171146146Y-68217561D01*
X171486607Y-68391034D01*
X171489547Y-68392532D01*
X171852438Y-68531833D01*
X172227901Y-68632438D01*
X172431793Y-68664732D01*
X172608576Y-68692732D01*
X172608584Y-68692733D01*
X172611824Y-68693246D01*
X173000000Y-68713589D01*
X173388176Y-68693246D01*
X173391416Y-68692733D01*
X173391424Y-68692732D01*
X173568207Y-68664732D01*
X173772099Y-68632438D01*
X174147562Y-68531833D01*
X174510453Y-68392532D01*
X174513393Y-68391034D01*
X174853854Y-68217561D01*
X174853861Y-68217557D01*
X174856795Y-68216062D01*
X175182793Y-68004357D01*
X175413993Y-67817134D01*
X175482314Y-67761809D01*
X175482318Y-67761806D01*
X175484876Y-67759734D01*
X175759734Y-67484876D01*
X175837130Y-67389301D01*
X175943552Y-67257881D01*
X176004357Y-67182793D01*
X176053501Y-67107118D01*
X176214264Y-66859563D01*
X176214266Y-66859560D01*
X176216062Y-66856794D01*
X176225177Y-66838906D01*
X176253233Y-66783842D01*
X176301981Y-66732227D01*
X176370896Y-66715161D01*
X176438098Y-66738062D01*
X176482250Y-66793659D01*
X176491500Y-66841045D01*
X176491500Y-140158955D01*
X176471498Y-140227076D01*
X176417842Y-140273569D01*
X176347568Y-140283673D01*
X176282988Y-140254179D01*
X176253233Y-140216158D01*
X176217561Y-140146147D01*
X176217557Y-140146140D01*
X176216062Y-140143206D01*
X176004357Y-139817207D01*
X175759734Y-139515124D01*
X175484876Y-139240266D01*
X175182793Y-138995643D01*
X174856795Y-138783938D01*
X174853861Y-138782443D01*
X174853854Y-138782439D01*
X174513393Y-138608966D01*
X174510453Y-138607468D01*
X174147562Y-138468167D01*
X173772099Y-138367562D01*
X173568207Y-138335268D01*
X173391424Y-138307268D01*
X173391416Y-138307267D01*
X173388176Y-138306754D01*
X173000000Y-138286411D01*
X172611824Y-138306754D01*
X172608584Y-138307267D01*
X172608576Y-138307268D01*
X172431793Y-138335268D01*
X172227901Y-138367562D01*
X171852438Y-138468167D01*
X171489547Y-138607468D01*
X171486607Y-138608966D01*
X171146147Y-138782439D01*
X171146140Y-138782443D01*
X171143206Y-138783938D01*
X171140440Y-138785734D01*
X171140437Y-138785736D01*
X170819971Y-138993848D01*
X170817207Y-138995643D01*
X170515124Y-139240266D01*
X170240266Y-139515124D01*
X169995643Y-139817207D01*
X169783938Y-140143206D01*
X169782443Y-140146140D01*
X169782439Y-140146147D01*
X169712366Y-140283673D01*
X169607468Y-140489547D01*
X169468167Y-140852438D01*
X169367562Y-141227901D01*
X169306754Y-141611824D01*
X169286411Y-142000000D01*
X169306754Y-142388176D01*
X169367562Y-142772099D01*
X169468167Y-143147562D01*
X169607468Y-143510453D01*
X169608966Y-143513393D01*
X169713074Y-143717715D01*
X169783938Y-143856794D01*
X169785734Y-143859560D01*
X169785736Y-143859563D01*
X169906308Y-144045229D01*
X169995643Y-144182793D01*
X170240266Y-144484876D01*
X170515124Y-144759734D01*
X170817207Y-145004357D01*
X171143205Y-145216062D01*
X171146139Y-145217557D01*
X171146146Y-145217561D01*
X171216157Y-145253233D01*
X171267772Y-145301981D01*
X171284838Y-145370896D01*
X171261937Y-145438098D01*
X171206340Y-145482250D01*
X171158954Y-145491500D01*
X127841046Y-145491500D01*
X127772925Y-145471498D01*
X127726432Y-145417842D01*
X127716328Y-145347568D01*
X127745822Y-145282988D01*
X127783843Y-145253233D01*
X127853854Y-145217561D01*
X127853861Y-145217557D01*
X127856795Y-145216062D01*
X128182793Y-145004357D01*
X128484876Y-144759734D01*
X128759734Y-144484876D01*
X129004357Y-144182793D01*
X129093692Y-144045229D01*
X129214264Y-143859563D01*
X129214266Y-143859560D01*
X129216062Y-143856794D01*
X129286927Y-143717715D01*
X129322380Y-143648134D01*
X134041500Y-143648134D01*
X134048255Y-143710316D01*
X134099385Y-143846705D01*
X134186739Y-143963261D01*
X134303295Y-144050615D01*
X134439684Y-144101745D01*
X134501866Y-144108500D01*
X135998134Y-144108500D01*
X136060316Y-144101745D01*
X136196705Y-144050615D01*
X136313261Y-143963261D01*
X136400615Y-143846705D01*
X136451745Y-143710316D01*
X136458500Y-143648134D01*
X138541500Y-143648134D01*
X138548255Y-143710316D01*
X138599385Y-143846705D01*
X138686739Y-143963261D01*
X138803295Y-144050615D01*
X138939684Y-144101745D01*
X139001866Y-144108500D01*
X140498134Y-144108500D01*
X140560316Y-144101745D01*
X140696705Y-144050615D01*
X140813261Y-143963261D01*
X140900615Y-143846705D01*
X140951745Y-143710316D01*
X140958500Y-143648134D01*
X146041500Y-143648134D01*
X146048255Y-143710316D01*
X146099385Y-143846705D01*
X146186739Y-143963261D01*
X146303295Y-144050615D01*
X146439684Y-144101745D01*
X146501866Y-144108500D01*
X147998134Y-144108500D01*
X148060316Y-144101745D01*
X148196705Y-144050615D01*
X148313261Y-143963261D01*
X148400615Y-143846705D01*
X148451745Y-143710316D01*
X148458500Y-143648134D01*
X150541500Y-143648134D01*
X150548255Y-143710316D01*
X150599385Y-143846705D01*
X150686739Y-143963261D01*
X150803295Y-144050615D01*
X150939684Y-144101745D01*
X151001866Y-144108500D01*
X152498134Y-144108500D01*
X152560316Y-144101745D01*
X152696705Y-144050615D01*
X152813261Y-143963261D01*
X152900615Y-143846705D01*
X152951745Y-143710316D01*
X152958500Y-143648134D01*
X158041500Y-143648134D01*
X158048255Y-143710316D01*
X158099385Y-143846705D01*
X158186739Y-143963261D01*
X158303295Y-144050615D01*
X158439684Y-144101745D01*
X158501866Y-144108500D01*
X159998134Y-144108500D01*
X160060316Y-144101745D01*
X160196705Y-144050615D01*
X160313261Y-143963261D01*
X160400615Y-143846705D01*
X160451745Y-143710316D01*
X160458500Y-143648134D01*
X162541500Y-143648134D01*
X162548255Y-143710316D01*
X162599385Y-143846705D01*
X162686739Y-143963261D01*
X162803295Y-144050615D01*
X162939684Y-144101745D01*
X163001866Y-144108500D01*
X164498134Y-144108500D01*
X164560316Y-144101745D01*
X164696705Y-144050615D01*
X164813261Y-143963261D01*
X164900615Y-143846705D01*
X164951745Y-143710316D01*
X164958500Y-143648134D01*
X164958500Y-141451866D01*
X164951745Y-141389684D01*
X164900615Y-141253295D01*
X164813261Y-141136739D01*
X164696705Y-141049385D01*
X164686092Y-141045406D01*
X164640270Y-141028228D01*
X164583505Y-140985586D01*
X164558806Y-140919024D01*
X164558500Y-140910246D01*
X164558500Y-139700397D01*
X164575380Y-139637398D01*
X164584527Y-139621556D01*
X164643542Y-139439928D01*
X164663504Y-139250000D01*
X164643542Y-139060072D01*
X164584527Y-138878444D01*
X164489040Y-138713056D01*
X164361253Y-138571134D01*
X164206752Y-138458882D01*
X164200724Y-138456198D01*
X164200722Y-138456197D01*
X164038319Y-138383891D01*
X164038318Y-138383891D01*
X164032288Y-138381206D01*
X163938887Y-138361353D01*
X163851944Y-138342872D01*
X163851939Y-138342872D01*
X163845487Y-138341500D01*
X163654513Y-138341500D01*
X163648061Y-138342872D01*
X163648056Y-138342872D01*
X163561113Y-138361353D01*
X163467712Y-138381206D01*
X163461682Y-138383891D01*
X163461681Y-138383891D01*
X163299278Y-138456197D01*
X163299276Y-138456198D01*
X163293248Y-138458882D01*
X163138747Y-138571134D01*
X163010960Y-138713056D01*
X162915473Y-138878444D01*
X162856458Y-139060072D01*
X162836496Y-139250000D01*
X162856458Y-139439928D01*
X162915473Y-139621556D01*
X162924620Y-139637398D01*
X162941500Y-139700397D01*
X162941500Y-140910246D01*
X162921498Y-140978367D01*
X162867842Y-141024860D01*
X162859730Y-141028228D01*
X162813908Y-141045406D01*
X162803295Y-141049385D01*
X162686739Y-141136739D01*
X162599385Y-141253295D01*
X162548255Y-141389684D01*
X162541500Y-141451866D01*
X162541500Y-143648134D01*
X160458500Y-143648134D01*
X160458500Y-141451866D01*
X160451745Y-141389684D01*
X160400615Y-141253295D01*
X160313261Y-141136739D01*
X160196705Y-141049385D01*
X160060316Y-140998255D01*
X159998134Y-140991500D01*
X158501866Y-140991500D01*
X158439684Y-140998255D01*
X158303295Y-141049385D01*
X158186739Y-141136739D01*
X158099385Y-141253295D01*
X158048255Y-141389684D01*
X158041500Y-141451866D01*
X158041500Y-143648134D01*
X152958500Y-143648134D01*
X152958500Y-141451866D01*
X152951745Y-141389684D01*
X152900615Y-141253295D01*
X152813261Y-141136739D01*
X152696705Y-141049385D01*
X152686092Y-141045406D01*
X152640270Y-141028228D01*
X152583505Y-140985586D01*
X152558806Y-140919024D01*
X152558500Y-140910246D01*
X152558500Y-139700397D01*
X152575380Y-139637398D01*
X152584527Y-139621556D01*
X152643542Y-139439928D01*
X152663504Y-139250000D01*
X152643542Y-139060072D01*
X152584527Y-138878444D01*
X152489040Y-138713056D01*
X152361253Y-138571134D01*
X152206752Y-138458882D01*
X152200724Y-138456198D01*
X152200722Y-138456197D01*
X152038319Y-138383891D01*
X152038318Y-138383891D01*
X152032288Y-138381206D01*
X151938887Y-138361353D01*
X151851944Y-138342872D01*
X151851939Y-138342872D01*
X151845487Y-138341500D01*
X151654513Y-138341500D01*
X151648061Y-138342872D01*
X151648056Y-138342872D01*
X151561113Y-138361353D01*
X151467712Y-138381206D01*
X151461682Y-138383891D01*
X151461681Y-138383891D01*
X151299278Y-138456197D01*
X151299276Y-138456198D01*
X151293248Y-138458882D01*
X151138747Y-138571134D01*
X151010960Y-138713056D01*
X150915473Y-138878444D01*
X150856458Y-139060072D01*
X150836496Y-139250000D01*
X150856458Y-139439928D01*
X150915473Y-139621556D01*
X150924620Y-139637398D01*
X150941500Y-139700397D01*
X150941500Y-140910246D01*
X150921498Y-140978367D01*
X150867842Y-141024860D01*
X150859730Y-141028228D01*
X150813908Y-141045406D01*
X150803295Y-141049385D01*
X150686739Y-141136739D01*
X150599385Y-141253295D01*
X150548255Y-141389684D01*
X150541500Y-141451866D01*
X150541500Y-143648134D01*
X148458500Y-143648134D01*
X148458500Y-141451866D01*
X148451745Y-141389684D01*
X148400615Y-141253295D01*
X148313261Y-141136739D01*
X148196705Y-141049385D01*
X148060316Y-140998255D01*
X147998134Y-140991500D01*
X146501866Y-140991500D01*
X146439684Y-140998255D01*
X146303295Y-141049385D01*
X146186739Y-141136739D01*
X146099385Y-141253295D01*
X146048255Y-141389684D01*
X146041500Y-141451866D01*
X146041500Y-143648134D01*
X140958500Y-143648134D01*
X140958500Y-141451866D01*
X140951745Y-141389684D01*
X140900615Y-141253295D01*
X140813261Y-141136739D01*
X140696705Y-141049385D01*
X140686092Y-141045406D01*
X140640270Y-141028228D01*
X140583505Y-140985586D01*
X140558806Y-140919024D01*
X140558500Y-140910246D01*
X140558500Y-139700397D01*
X140575380Y-139637398D01*
X140584527Y-139621556D01*
X140643542Y-139439928D01*
X140663504Y-139250000D01*
X140643542Y-139060072D01*
X140584527Y-138878444D01*
X140489040Y-138713056D01*
X140361253Y-138571134D01*
X140206752Y-138458882D01*
X140200724Y-138456198D01*
X140200722Y-138456197D01*
X140038319Y-138383891D01*
X140038318Y-138383891D01*
X140032288Y-138381206D01*
X139938887Y-138361353D01*
X139851944Y-138342872D01*
X139851939Y-138342872D01*
X139845487Y-138341500D01*
X139654513Y-138341500D01*
X139648061Y-138342872D01*
X139648056Y-138342872D01*
X139561113Y-138361353D01*
X139467712Y-138381206D01*
X139461682Y-138383891D01*
X139461681Y-138383891D01*
X139299278Y-138456197D01*
X139299276Y-138456198D01*
X139293248Y-138458882D01*
X139138747Y-138571134D01*
X139010960Y-138713056D01*
X138915473Y-138878444D01*
X138856458Y-139060072D01*
X138836496Y-139250000D01*
X138856458Y-139439928D01*
X138915473Y-139621556D01*
X138924620Y-139637398D01*
X138941500Y-139700397D01*
X138941500Y-140910246D01*
X138921498Y-140978367D01*
X138867842Y-141024860D01*
X138859730Y-141028228D01*
X138813908Y-141045406D01*
X138803295Y-141049385D01*
X138686739Y-141136739D01*
X138599385Y-141253295D01*
X138548255Y-141389684D01*
X138541500Y-141451866D01*
X138541500Y-143648134D01*
X136458500Y-143648134D01*
X136458500Y-141451866D01*
X136451745Y-141389684D01*
X136400615Y-141253295D01*
X136313261Y-141136739D01*
X136196705Y-141049385D01*
X136060316Y-140998255D01*
X135998134Y-140991500D01*
X134501866Y-140991500D01*
X134439684Y-140998255D01*
X134303295Y-141049385D01*
X134186739Y-141136739D01*
X134099385Y-141253295D01*
X134048255Y-141389684D01*
X134041500Y-141451866D01*
X134041500Y-143648134D01*
X129322380Y-143648134D01*
X129391034Y-143513393D01*
X129392532Y-143510453D01*
X129531833Y-143147562D01*
X129632438Y-142772099D01*
X129693246Y-142388176D01*
X129713589Y-142000000D01*
X129693246Y-141611824D01*
X129632438Y-141227901D01*
X129531833Y-140852438D01*
X129392532Y-140489547D01*
X129287634Y-140283673D01*
X129217561Y-140146147D01*
X129217557Y-140146140D01*
X129216062Y-140143206D01*
X129004357Y-139817207D01*
X128759734Y-139515124D01*
X128484876Y-139240266D01*
X128182793Y-138995643D01*
X127856795Y-138783938D01*
X127853861Y-138782443D01*
X127853854Y-138782439D01*
X127513393Y-138608966D01*
X127510453Y-138607468D01*
X127147562Y-138468167D01*
X126772099Y-138367562D01*
X126568207Y-138335268D01*
X126391424Y-138307268D01*
X126391416Y-138307267D01*
X126388176Y-138306754D01*
X126000000Y-138286411D01*
X125611824Y-138306754D01*
X125608584Y-138307267D01*
X125608576Y-138307268D01*
X125431793Y-138335268D01*
X125227901Y-138367562D01*
X124852438Y-138468167D01*
X124489547Y-138607468D01*
X124486607Y-138608966D01*
X124146147Y-138782439D01*
X124146140Y-138782443D01*
X124143206Y-138783938D01*
X124140440Y-138785734D01*
X124140437Y-138785736D01*
X123819971Y-138993848D01*
X123817207Y-138995643D01*
X123515124Y-139240266D01*
X123240266Y-139515124D01*
X122995643Y-139817207D01*
X122783938Y-140143206D01*
X122782443Y-140146140D01*
X122782439Y-140146147D01*
X122746767Y-140216158D01*
X122698019Y-140267773D01*
X122629104Y-140284839D01*
X122561902Y-140261938D01*
X122517750Y-140206341D01*
X122508500Y-140158955D01*
X122508500Y-71250000D01*
X132250000Y-71250000D01*
X132250000Y-133250000D01*
X133915500Y-133250000D01*
X133983621Y-133270002D01*
X134030114Y-133323658D01*
X134041500Y-133376000D01*
X134041500Y-134548134D01*
X134048255Y-134610316D01*
X134099385Y-134746705D01*
X134186739Y-134863261D01*
X134303295Y-134950615D01*
X134439684Y-135001745D01*
X134501866Y-135008500D01*
X135998134Y-135008500D01*
X136060316Y-135001745D01*
X136196705Y-134950615D01*
X136313261Y-134863261D01*
X136400615Y-134746705D01*
X136451745Y-134610316D01*
X136458500Y-134548134D01*
X136458500Y-133376000D01*
X136478502Y-133307879D01*
X136532158Y-133261386D01*
X136584500Y-133250000D01*
X138415500Y-133250000D01*
X138483621Y-133270002D01*
X138530114Y-133323658D01*
X138541500Y-133376000D01*
X138541500Y-134548134D01*
X138548255Y-134610316D01*
X138599385Y-134746705D01*
X138686739Y-134863261D01*
X138803295Y-134950615D01*
X138939684Y-135001745D01*
X139001866Y-135008500D01*
X140498134Y-135008500D01*
X140560316Y-135001745D01*
X140696705Y-134950615D01*
X140813261Y-134863261D01*
X140900615Y-134746705D01*
X140951745Y-134610316D01*
X140958500Y-134548134D01*
X140958500Y-133376000D01*
X140978502Y-133307879D01*
X141032158Y-133261386D01*
X141084500Y-133250000D01*
X145915500Y-133250000D01*
X145983621Y-133270002D01*
X146030114Y-133323658D01*
X146041500Y-133376000D01*
X146041500Y-134548134D01*
X146048255Y-134610316D01*
X146099385Y-134746705D01*
X146186739Y-134863261D01*
X146303295Y-134950615D01*
X146439684Y-135001745D01*
X146501866Y-135008500D01*
X147998134Y-135008500D01*
X148060316Y-135001745D01*
X148196705Y-134950615D01*
X148313261Y-134863261D01*
X148400615Y-134746705D01*
X148451745Y-134610316D01*
X148458500Y-134548134D01*
X148458500Y-133376000D01*
X148478502Y-133307879D01*
X148532158Y-133261386D01*
X148584500Y-133250000D01*
X150415500Y-133250000D01*
X150483621Y-133270002D01*
X150530114Y-133323658D01*
X150541500Y-133376000D01*
X150541500Y-134548134D01*
X150548255Y-134610316D01*
X150599385Y-134746705D01*
X150686739Y-134863261D01*
X150803295Y-134950615D01*
X150939684Y-135001745D01*
X151001866Y-135008500D01*
X152498134Y-135008500D01*
X152560316Y-135001745D01*
X152696705Y-134950615D01*
X152813261Y-134863261D01*
X152900615Y-134746705D01*
X152951745Y-134610316D01*
X152958500Y-134548134D01*
X152958500Y-133376000D01*
X152978502Y-133307879D01*
X153032158Y-133261386D01*
X153084500Y-133250000D01*
X157915500Y-133250000D01*
X157983621Y-133270002D01*
X158030114Y-133323658D01*
X158041500Y-133376000D01*
X158041500Y-134548134D01*
X158048255Y-134610316D01*
X158099385Y-134746705D01*
X158186739Y-134863261D01*
X158303295Y-134950615D01*
X158439684Y-135001745D01*
X158501866Y-135008500D01*
X159998134Y-135008500D01*
X160060316Y-135001745D01*
X160196705Y-134950615D01*
X160313261Y-134863261D01*
X160400615Y-134746705D01*
X160451745Y-134610316D01*
X160458500Y-134548134D01*
X160458500Y-133376000D01*
X160478502Y-133307879D01*
X160532158Y-133261386D01*
X160584500Y-133250000D01*
X162415500Y-133250000D01*
X162483621Y-133270002D01*
X162530114Y-133323658D01*
X162541500Y-133376000D01*
X162541500Y-134548134D01*
X162548255Y-134610316D01*
X162599385Y-134746705D01*
X162686739Y-134863261D01*
X162803295Y-134950615D01*
X162939684Y-135001745D01*
X163001866Y-135008500D01*
X164498134Y-135008500D01*
X164560316Y-135001745D01*
X164696705Y-134950615D01*
X164813261Y-134863261D01*
X164900615Y-134746705D01*
X164951745Y-134610316D01*
X164958500Y-134548134D01*
X164958500Y-133376000D01*
X164978502Y-133307879D01*
X165032158Y-133261386D01*
X165084500Y-133250000D01*
X167000000Y-133250000D01*
X167000000Y-130778695D01*
X167020002Y-130710574D01*
X167052832Y-130676116D01*
X167129860Y-130621173D01*
X167288096Y-130463489D01*
X167418453Y-130282077D01*
X167434307Y-130250000D01*
X167515136Y-130086453D01*
X167515137Y-130086451D01*
X167517430Y-130081811D01*
X167582370Y-129868069D01*
X167611529Y-129646590D01*
X167611771Y-129636695D01*
X167613074Y-129583365D01*
X167613074Y-129583361D01*
X167613156Y-129580000D01*
X167594852Y-129357361D01*
X167540431Y-129140702D01*
X167451354Y-128935840D01*
X167330014Y-128748277D01*
X167179670Y-128583051D01*
X167175619Y-128579852D01*
X167175615Y-128579848D01*
X167047908Y-128478991D01*
X167006845Y-128421074D01*
X167000000Y-128380109D01*
X167000000Y-128238695D01*
X167020002Y-128170574D01*
X167052832Y-128136116D01*
X167129860Y-128081173D01*
X167288096Y-127923489D01*
X167418453Y-127742077D01*
X167517430Y-127541811D01*
X167582370Y-127328069D01*
X167611529Y-127106590D01*
X167613156Y-127040000D01*
X167594852Y-126817361D01*
X167540431Y-126600702D01*
X167451354Y-126395840D01*
X167330014Y-126208277D01*
X167326532Y-126204450D01*
X167182798Y-126046488D01*
X167151746Y-125982642D01*
X167160141Y-125912143D01*
X167205317Y-125857375D01*
X167231761Y-125843706D01*
X167338297Y-125803767D01*
X167346705Y-125800615D01*
X167463261Y-125713261D01*
X167550615Y-125596705D01*
X167601745Y-125460316D01*
X167608500Y-125398134D01*
X167608500Y-123601866D01*
X167601745Y-123539684D01*
X167550615Y-123403295D01*
X167463261Y-123286739D01*
X167346705Y-123199385D01*
X167210316Y-123148255D01*
X167148134Y-123141500D01*
X167126000Y-123141500D01*
X167057879Y-123121498D01*
X167011386Y-123067842D01*
X167000000Y-123015500D01*
X167000000Y-80154161D01*
X167020002Y-80086040D01*
X167036905Y-80065065D01*
X167383158Y-79718813D01*
X167445470Y-79684788D01*
X167459249Y-79682582D01*
X167549308Y-79673238D01*
X167549312Y-79673237D01*
X167556166Y-79672526D01*
X167562702Y-79670345D01*
X167562704Y-79670345D01*
X167716998Y-79618868D01*
X167723946Y-79616550D01*
X167874348Y-79523478D01*
X167999305Y-79398303D01*
X168092115Y-79247738D01*
X168147797Y-79079861D01*
X168158500Y-78975400D01*
X168158500Y-78349600D01*
X168149871Y-78266435D01*
X168148238Y-78250692D01*
X168148237Y-78250688D01*
X168147526Y-78243834D01*
X168111782Y-78136695D01*
X168093868Y-78083002D01*
X168091550Y-78076054D01*
X167998478Y-77925652D01*
X167911891Y-77839216D01*
X167877812Y-77776934D01*
X167882815Y-77706114D01*
X167911736Y-77661025D01*
X167998674Y-77573936D01*
X168060957Y-77539857D01*
X168072709Y-77537867D01*
X168102201Y-77534298D01*
X168132742Y-77530602D01*
X168139843Y-77527919D01*
X168142452Y-77527278D01*
X168158762Y-77522815D01*
X168161298Y-77522050D01*
X168168784Y-77520743D01*
X168227300Y-77495056D01*
X168233404Y-77492565D01*
X168286048Y-77472673D01*
X168286049Y-77472672D01*
X168293156Y-77469987D01*
X168299419Y-77465683D01*
X168301785Y-77464446D01*
X168316597Y-77456201D01*
X168318851Y-77454868D01*
X168325805Y-77451815D01*
X168376502Y-77412913D01*
X168381832Y-77409041D01*
X168428220Y-77377161D01*
X168428225Y-77377156D01*
X168434481Y-77372857D01*
X168475936Y-77326329D01*
X168480916Y-77321054D01*
X172639140Y-73162830D01*
X172701452Y-73128804D01*
X172767902Y-73132332D01*
X172791500Y-73140159D01*
X172883634Y-73170719D01*
X172883636Y-73170719D01*
X172890165Y-73172885D01*
X172993769Y-73183500D01*
X173496096Y-73183500D01*
X174006230Y-73183499D01*
X174111129Y-73172616D01*
X174117660Y-73170437D01*
X174117665Y-73170436D01*
X174270578Y-73119420D01*
X174277526Y-73117102D01*
X174426689Y-73024797D01*
X174550617Y-72900653D01*
X174642661Y-72751329D01*
X174697885Y-72584835D01*
X174708500Y-72481231D01*
X174708499Y-71893770D01*
X174697616Y-71788871D01*
X174695437Y-71782340D01*
X174695436Y-71782335D01*
X174644420Y-71629422D01*
X174642102Y-71622474D01*
X174549797Y-71473311D01*
X174425653Y-71349383D01*
X174276329Y-71257339D01*
X174254203Y-71250000D01*
X174116366Y-71204281D01*
X174116364Y-71204281D01*
X174109835Y-71202115D01*
X174006231Y-71191500D01*
X173503904Y-71191500D01*
X172993770Y-71191501D01*
X172888871Y-71202384D01*
X172882340Y-71204563D01*
X172882335Y-71204564D01*
X172746147Y-71250000D01*
X172722474Y-71257898D01*
X172573311Y-71350203D01*
X172449383Y-71474347D01*
X172447590Y-71472557D01*
X172405022Y-71501537D01*
X172406216Y-71504257D01*
X172347705Y-71529942D01*
X172341601Y-71532433D01*
X172313937Y-71542886D01*
X172303720Y-71546747D01*
X172281844Y-71555013D01*
X172275581Y-71559317D01*
X172273215Y-71560554D01*
X172258403Y-71568799D01*
X172256149Y-71570132D01*
X172249195Y-71573185D01*
X172198498Y-71612087D01*
X172193168Y-71615959D01*
X172146780Y-71647839D01*
X172146775Y-71647844D01*
X172140519Y-71652143D01*
X172135468Y-71657813D01*
X172135466Y-71657814D01*
X172099065Y-71698670D01*
X172094084Y-71703946D01*
X167912198Y-75885832D01*
X167849886Y-75919858D01*
X167779071Y-75914793D01*
X167756990Y-75903998D01*
X167722738Y-75882885D01*
X167658611Y-75861615D01*
X167561389Y-75829368D01*
X167561387Y-75829368D01*
X167554861Y-75827203D01*
X167548025Y-75826503D01*
X167548022Y-75826502D01*
X167504969Y-75822091D01*
X167450400Y-75816500D01*
X167126000Y-75816500D01*
X167057879Y-75796498D01*
X167011386Y-75742842D01*
X167000000Y-75690500D01*
X167000000Y-68000000D01*
X154954500Y-68000000D01*
X154886379Y-67979998D01*
X154839886Y-67926342D01*
X154828500Y-67874000D01*
X154828500Y-67530231D01*
X154827814Y-67523227D01*
X154814681Y-67389301D01*
X154814080Y-67383167D01*
X154795460Y-67321493D01*
X154781616Y-67275641D01*
X154756916Y-67193831D01*
X154664066Y-67019204D01*
X154556238Y-66886994D01*
X154542960Y-66870713D01*
X154542957Y-66870710D01*
X154539065Y-66865938D01*
X154528012Y-66856794D01*
X154391425Y-66743799D01*
X154391421Y-66743797D01*
X154386675Y-66739870D01*
X154212701Y-66645802D01*
X154023768Y-66587318D01*
X154017643Y-66586674D01*
X154017642Y-66586674D01*
X153833204Y-66567289D01*
X153833202Y-66567289D01*
X153827075Y-66566645D01*
X153744576Y-66574153D01*
X153636251Y-66584011D01*
X153636248Y-66584012D01*
X153630112Y-66584570D01*
X153624206Y-66586308D01*
X153624202Y-66586309D01*
X153519076Y-66617249D01*
X153440381Y-66640410D01*
X153434923Y-66643263D01*
X153434919Y-66643265D01*
X153344147Y-66690720D01*
X153265110Y-66732040D01*
X153110975Y-66855968D01*
X153062600Y-66913619D01*
X153003493Y-66952944D01*
X152932506Y-66954070D01*
X152889552Y-66932722D01*
X152829743Y-66886994D01*
X152829739Y-66886991D01*
X152824322Y-66882850D01*
X152719186Y-66833825D01*
X152666369Y-66809195D01*
X152666366Y-66809194D01*
X152660192Y-66806315D01*
X152653544Y-66804829D01*
X152653541Y-66804828D01*
X152488494Y-66767936D01*
X152488495Y-66767936D01*
X152483457Y-66766810D01*
X152477912Y-66766500D01*
X152344756Y-66766500D01*
X152209963Y-66781143D01*
X152126609Y-66809195D01*
X152044796Y-66836728D01*
X152044794Y-66836729D01*
X152038325Y-66838906D01*
X151883095Y-66932177D01*
X151878138Y-66936865D01*
X151878135Y-66936867D01*
X151756473Y-67051918D01*
X151751515Y-67056607D01*
X151747683Y-67062245D01*
X151747680Y-67062249D01*
X151665758Y-67182793D01*
X151649723Y-67206388D01*
X151582470Y-67374534D01*
X151581356Y-67381262D01*
X151581355Y-67381266D01*
X151554007Y-67546461D01*
X151552892Y-67553198D01*
X151553249Y-67560015D01*
X151553249Y-67560019D01*
X151559480Y-67678906D01*
X151543071Y-67747980D01*
X151491922Y-67797217D01*
X151433653Y-67811500D01*
X151051866Y-67811500D01*
X151048471Y-67811869D01*
X151048467Y-67811869D01*
X151022469Y-67814693D01*
X151013606Y-67815656D01*
X150986396Y-67815656D01*
X150976064Y-67814534D01*
X150971341Y-67814021D01*
X150905778Y-67786782D01*
X150863948Y-67723911D01*
X150861356Y-67714988D01*
X150861356Y-67714987D01*
X150859145Y-67707378D01*
X150848225Y-67688913D01*
X150839534Y-67671173D01*
X150831635Y-67651222D01*
X150804482Y-67613849D01*
X150797967Y-67603930D01*
X150778493Y-67571001D01*
X150778490Y-67570997D01*
X150774453Y-67564171D01*
X150759289Y-67549007D01*
X150746448Y-67533973D01*
X150733841Y-67516621D01*
X150698247Y-67487175D01*
X150689468Y-67479186D01*
X150552677Y-67342395D01*
X150544687Y-67333615D01*
X150544685Y-67333613D01*
X150540438Y-67326920D01*
X150488764Y-67278395D01*
X150485923Y-67275641D01*
X150465355Y-67255073D01*
X150461848Y-67252353D01*
X150452826Y-67244647D01*
X150419155Y-67213028D01*
X150407077Y-67206388D01*
X150400364Y-67202697D01*
X150383840Y-67191843D01*
X150373154Y-67183555D01*
X150366890Y-67178696D01*
X150359618Y-67175549D01*
X150359616Y-67175548D01*
X150324487Y-67160346D01*
X150313827Y-67155124D01*
X150280306Y-67136695D01*
X150280304Y-67136694D01*
X150273359Y-67132876D01*
X150252581Y-67127541D01*
X150233891Y-67121142D01*
X150214198Y-67112620D01*
X150168574Y-67105394D01*
X150156951Y-67102987D01*
X150122683Y-67094189D01*
X150112210Y-67091500D01*
X150090763Y-67091500D01*
X150071053Y-67089949D01*
X150057699Y-67087834D01*
X150049870Y-67086594D01*
X150003881Y-67090941D01*
X149992026Y-67091500D01*
X149582056Y-67091500D01*
X149570200Y-67090941D01*
X149570197Y-67090941D01*
X149562463Y-67089212D01*
X149507446Y-67090941D01*
X149491631Y-67091438D01*
X149487673Y-67091500D01*
X149458568Y-67091500D01*
X149454168Y-67092056D01*
X149442336Y-67092988D01*
X149396169Y-67094438D01*
X149375579Y-67100420D01*
X149356218Y-67104430D01*
X149349230Y-67105312D01*
X149342796Y-67106125D01*
X149342795Y-67106125D01*
X149334936Y-67107118D01*
X149327571Y-67110034D01*
X149327567Y-67110035D01*
X149291979Y-67124126D01*
X149280769Y-67127965D01*
X149236400Y-67140855D01*
X149217943Y-67151771D01*
X149200193Y-67160466D01*
X149180244Y-67168365D01*
X149173833Y-67173023D01*
X149173831Y-67173024D01*
X149142864Y-67195523D01*
X149132946Y-67202038D01*
X149093193Y-67225548D01*
X149078032Y-67240709D01*
X149063000Y-67253548D01*
X149045643Y-67266159D01*
X149040589Y-67272268D01*
X149016194Y-67301756D01*
X149008205Y-67310535D01*
X148842397Y-67476343D01*
X148833618Y-67484332D01*
X148833612Y-67484337D01*
X148826920Y-67488584D01*
X148821495Y-67494361D01*
X148778395Y-67540258D01*
X148775640Y-67543100D01*
X148755073Y-67563667D01*
X148752356Y-67567170D01*
X148744648Y-67576195D01*
X148713028Y-67609867D01*
X148709207Y-67616818D01*
X148709206Y-67616819D01*
X148702697Y-67628658D01*
X148691843Y-67645182D01*
X148685365Y-67653534D01*
X148678696Y-67662132D01*
X148675549Y-67669404D01*
X148675548Y-67669406D01*
X148660346Y-67704535D01*
X148655123Y-67715196D01*
X148636973Y-67748210D01*
X148586627Y-67798268D01*
X148540166Y-67812771D01*
X148513606Y-67815656D01*
X148486394Y-67815656D01*
X148477531Y-67814693D01*
X148451533Y-67811869D01*
X148451529Y-67811869D01*
X148448134Y-67811500D01*
X148051866Y-67811500D01*
X148048471Y-67811869D01*
X148048467Y-67811869D01*
X148022469Y-67814693D01*
X148013606Y-67815656D01*
X147986394Y-67815656D01*
X147977531Y-67814693D01*
X147951533Y-67811869D01*
X147951529Y-67811869D01*
X147948134Y-67811500D01*
X147568416Y-67811500D01*
X147500295Y-67791498D01*
X147453802Y-67737842D01*
X147444108Y-67664921D01*
X147447108Y-67646802D01*
X147446158Y-67628658D01*
X147438487Y-67482314D01*
X147437630Y-67465953D01*
X147414304Y-67381266D01*
X147391352Y-67297941D01*
X147389539Y-67291359D01*
X147305078Y-67131164D01*
X147300673Y-67125951D01*
X147300670Y-67125947D01*
X147192594Y-66998057D01*
X147192590Y-66998053D01*
X147188187Y-66992843D01*
X147182762Y-66988695D01*
X147049743Y-66886994D01*
X147049739Y-66886991D01*
X147044322Y-66882850D01*
X146939186Y-66833825D01*
X146886369Y-66809195D01*
X146886366Y-66809194D01*
X146880192Y-66806315D01*
X146873544Y-66804829D01*
X146873541Y-66804828D01*
X146708494Y-66767936D01*
X146708495Y-66767936D01*
X146703457Y-66766810D01*
X146697912Y-66766500D01*
X146564756Y-66766500D01*
X146429963Y-66781143D01*
X146346609Y-66809195D01*
X146264796Y-66836728D01*
X146264794Y-66836729D01*
X146258325Y-66838906D01*
X146103095Y-66932177D01*
X146102671Y-66931472D01*
X146041480Y-66954762D01*
X145972007Y-66940135D01*
X145934008Y-66908782D01*
X145912858Y-66882850D01*
X145899065Y-66865938D01*
X145888012Y-66856794D01*
X145751425Y-66743799D01*
X145751421Y-66743797D01*
X145746675Y-66739870D01*
X145572701Y-66645802D01*
X145383768Y-66587318D01*
X145377643Y-66586674D01*
X145377642Y-66586674D01*
X145193204Y-66567289D01*
X145193202Y-66567289D01*
X145187075Y-66566645D01*
X145104576Y-66574153D01*
X144996251Y-66584011D01*
X144996248Y-66584012D01*
X144990112Y-66584570D01*
X144984206Y-66586308D01*
X144984202Y-66586309D01*
X144879076Y-66617249D01*
X144800381Y-66640410D01*
X144794923Y-66643263D01*
X144794919Y-66643265D01*
X144704147Y-66690720D01*
X144625110Y-66732040D01*
X144470975Y-66855968D01*
X144343846Y-67007474D01*
X144340879Y-67012872D01*
X144340875Y-67012877D01*
X144275990Y-67130905D01*
X144248567Y-67180787D01*
X144246706Y-67186654D01*
X144246705Y-67186656D01*
X144225485Y-67253551D01*
X144188765Y-67369306D01*
X144171500Y-67523227D01*
X144171500Y-67874000D01*
X144151498Y-67942121D01*
X144097842Y-67988614D01*
X144045500Y-68000000D01*
X144000000Y-68000000D01*
X144000000Y-64299769D01*
X144171500Y-64299769D01*
X144171800Y-64302825D01*
X144171800Y-64302832D01*
X144172530Y-64310273D01*
X144185920Y-64446833D01*
X144243084Y-64636169D01*
X144335934Y-64810796D01*
X144406291Y-64897062D01*
X144457040Y-64959287D01*
X144457043Y-64959290D01*
X144460935Y-64964062D01*
X144465682Y-64967989D01*
X144465684Y-64967991D01*
X144608575Y-65086201D01*
X144608579Y-65086203D01*
X144613325Y-65090130D01*
X144787299Y-65184198D01*
X144976232Y-65242682D01*
X144982357Y-65243326D01*
X144982358Y-65243326D01*
X145166796Y-65262711D01*
X145166798Y-65262711D01*
X145172925Y-65263355D01*
X145255424Y-65255847D01*
X145363749Y-65245989D01*
X145363752Y-65245988D01*
X145369888Y-65245430D01*
X145375794Y-65243692D01*
X145375798Y-65243691D01*
X145480924Y-65212751D01*
X145559619Y-65189590D01*
X145565077Y-65186737D01*
X145565081Y-65186735D01*
X145655853Y-65139280D01*
X145734890Y-65097960D01*
X145889025Y-64974032D01*
X146016154Y-64822526D01*
X146019121Y-64817128D01*
X146019125Y-64817123D01*
X146108467Y-64654608D01*
X146111433Y-64649213D01*
X146113846Y-64641608D01*
X146169373Y-64466564D01*
X146169373Y-64466563D01*
X146171235Y-64460694D01*
X146188500Y-64306773D01*
X146188500Y-64299769D01*
X152811500Y-64299769D01*
X152811800Y-64302825D01*
X152811800Y-64302832D01*
X152812530Y-64310273D01*
X152825920Y-64446833D01*
X152883084Y-64636169D01*
X152975934Y-64810796D01*
X153046291Y-64897062D01*
X153097040Y-64959287D01*
X153097043Y-64959290D01*
X153100935Y-64964062D01*
X153105682Y-64967989D01*
X153105684Y-64967991D01*
X153248575Y-65086201D01*
X153248579Y-65086203D01*
X153253325Y-65090130D01*
X153427299Y-65184198D01*
X153616232Y-65242682D01*
X153622357Y-65243326D01*
X153622358Y-65243326D01*
X153806796Y-65262711D01*
X153806798Y-65262711D01*
X153812925Y-65263355D01*
X153895424Y-65255847D01*
X154003749Y-65245989D01*
X154003752Y-65245988D01*
X154009888Y-65245430D01*
X154015794Y-65243692D01*
X154015798Y-65243691D01*
X154120924Y-65212751D01*
X154199619Y-65189590D01*
X154205077Y-65186737D01*
X154205081Y-65186735D01*
X154295853Y-65139280D01*
X154374890Y-65097960D01*
X154529025Y-64974032D01*
X154656154Y-64822526D01*
X154659121Y-64817128D01*
X154659125Y-64817123D01*
X154748467Y-64654608D01*
X154751433Y-64649213D01*
X154753846Y-64641608D01*
X154809373Y-64466564D01*
X154809373Y-64466563D01*
X154811235Y-64460694D01*
X154828500Y-64306773D01*
X154828500Y-63600231D01*
X154827814Y-63593227D01*
X154822463Y-63538660D01*
X154814080Y-63453167D01*
X154756916Y-63263831D01*
X154664066Y-63089204D01*
X154593709Y-63002938D01*
X154542960Y-62940713D01*
X154542957Y-62940710D01*
X154539065Y-62935938D01*
X154532724Y-62930692D01*
X154391425Y-62813799D01*
X154391421Y-62813797D01*
X154386675Y-62809870D01*
X154212701Y-62715802D01*
X154023768Y-62657318D01*
X154017643Y-62656674D01*
X154017642Y-62656674D01*
X153833204Y-62637289D01*
X153833202Y-62637289D01*
X153827075Y-62636645D01*
X153744576Y-62644153D01*
X153636251Y-62654011D01*
X153636248Y-62654012D01*
X153630112Y-62654570D01*
X153624206Y-62656308D01*
X153624202Y-62656309D01*
X153519076Y-62687249D01*
X153440381Y-62710410D01*
X153434923Y-62713263D01*
X153434919Y-62713265D01*
X153376889Y-62743603D01*
X153265110Y-62802040D01*
X153110975Y-62925968D01*
X152983846Y-63077474D01*
X152980879Y-63082872D01*
X152980875Y-63082877D01*
X152946093Y-63146147D01*
X152888567Y-63250787D01*
X152886706Y-63256654D01*
X152886705Y-63256656D01*
X152830627Y-63433436D01*
X152828765Y-63439306D01*
X152811500Y-63593227D01*
X152811500Y-64299769D01*
X146188500Y-64299769D01*
X146188500Y-63600231D01*
X146187814Y-63593227D01*
X146182463Y-63538660D01*
X146174080Y-63453167D01*
X146116916Y-63263831D01*
X146024066Y-63089204D01*
X145953709Y-63002938D01*
X145902960Y-62940713D01*
X145902957Y-62940710D01*
X145899065Y-62935938D01*
X145892724Y-62930692D01*
X145751425Y-62813799D01*
X145751421Y-62813797D01*
X145746675Y-62809870D01*
X145572701Y-62715802D01*
X145383768Y-62657318D01*
X145377643Y-62656674D01*
X145377642Y-62656674D01*
X145193204Y-62637289D01*
X145193202Y-62637289D01*
X145187075Y-62636645D01*
X145104576Y-62644153D01*
X144996251Y-62654011D01*
X144996248Y-62654012D01*
X144990112Y-62654570D01*
X144984206Y-62656308D01*
X144984202Y-62656309D01*
X144879076Y-62687249D01*
X144800381Y-62710410D01*
X144794923Y-62713263D01*
X144794919Y-62713265D01*
X144736889Y-62743603D01*
X144625110Y-62802040D01*
X144470975Y-62925968D01*
X144343846Y-63077474D01*
X144340879Y-63082872D01*
X144340875Y-63082877D01*
X144306093Y-63146147D01*
X144248567Y-63250787D01*
X144246706Y-63256654D01*
X144246705Y-63256656D01*
X144190627Y-63433436D01*
X144188765Y-63439306D01*
X144171500Y-63593227D01*
X144171500Y-64299769D01*
X144000000Y-64299769D01*
X144000000Y-61508500D01*
X171158955Y-61508500D01*
X171227076Y-61528502D01*
G37*
%TD.AperFunction*%
%TD*%
%TA.AperFunction,Conductor*%
%TO.N,GND*%
G36*
X134329512Y-127831936D02*
G01*
X134336095Y-127838065D01*
X135728550Y-129230520D01*
X135734404Y-129236785D01*
X135772439Y-129280385D01*
X135778657Y-129284755D01*
X135824697Y-129317112D01*
X135829993Y-129321045D01*
X135880282Y-129360477D01*
X135887204Y-129363602D01*
X135889452Y-129364964D01*
X135904185Y-129373368D01*
X135906524Y-129374622D01*
X135912739Y-129378990D01*
X135919815Y-129381749D01*
X135919819Y-129381751D01*
X135972269Y-129402200D01*
X135978334Y-129404749D01*
X136036573Y-129431045D01*
X136044038Y-129432429D01*
X136046582Y-129433226D01*
X136062848Y-129437859D01*
X136065428Y-129438521D01*
X136072509Y-129441282D01*
X136080042Y-129442274D01*
X136080043Y-129442274D01*
X136112699Y-129446573D01*
X136135857Y-129449622D01*
X136142355Y-129450650D01*
X136205187Y-129462296D01*
X136212767Y-129461859D01*
X136212768Y-129461859D01*
X136267398Y-129458709D01*
X136274651Y-129458500D01*
X141154340Y-129458500D01*
X141222461Y-129478502D01*
X141243435Y-129495405D01*
X142709554Y-130961525D01*
X142743580Y-131023837D01*
X142738515Y-131094653D01*
X142695968Y-131151488D01*
X142686763Y-131157764D01*
X142575652Y-131226522D01*
X142450695Y-131351697D01*
X142446855Y-131357927D01*
X142446854Y-131357928D01*
X142400739Y-131432741D01*
X142357885Y-131502262D01*
X142355581Y-131509209D01*
X142304350Y-131663667D01*
X142263920Y-131722027D01*
X142198356Y-131749264D01*
X142184757Y-131750000D01*
X134604160Y-131750000D01*
X134536039Y-131729998D01*
X134515065Y-131713095D01*
X134157905Y-131355935D01*
X134123879Y-131293623D01*
X134121000Y-131266840D01*
X134121000Y-131129002D01*
X134141002Y-131060881D01*
X134157827Y-131039984D01*
X134174188Y-131023595D01*
X134274305Y-130923303D01*
X134367115Y-130772738D01*
X134422797Y-130604861D01*
X134424597Y-130587298D01*
X134433172Y-130503598D01*
X134433500Y-130500400D01*
X134433500Y-129499600D01*
X134432148Y-129486565D01*
X134423238Y-129400692D01*
X134423237Y-129400688D01*
X134422526Y-129393834D01*
X134396930Y-129317112D01*
X134368868Y-129233002D01*
X134366550Y-129226054D01*
X134273478Y-129075652D01*
X134157982Y-128960357D01*
X134123903Y-128898074D01*
X134121000Y-128871184D01*
X134121000Y-127927160D01*
X134141002Y-127859039D01*
X134194658Y-127812546D01*
X134264932Y-127802442D01*
X134329512Y-127831936D01*
G37*
%TD.AperFunction*%
%TA.AperFunction,Conductor*%
G36*
X153372941Y-128878982D02*
G01*
X153393915Y-128895885D01*
X154754595Y-130256566D01*
X154788621Y-130318878D01*
X154791500Y-130345661D01*
X154791500Y-131023613D01*
X154771498Y-131091734D01*
X154725270Y-131132184D01*
X154726054Y-131133450D01*
X154575652Y-131226522D01*
X154450695Y-131351697D01*
X154446855Y-131357927D01*
X154446854Y-131357928D01*
X154400739Y-131432741D01*
X154357885Y-131502262D01*
X154355581Y-131509209D01*
X154304350Y-131663667D01*
X154263920Y-131722027D01*
X154198356Y-131749264D01*
X154184757Y-131750000D01*
X146604160Y-131750000D01*
X146536039Y-131729998D01*
X146515065Y-131713095D01*
X146408950Y-131606980D01*
X146403096Y-131600715D01*
X146391895Y-131587875D01*
X146365061Y-131557115D01*
X146312780Y-131520371D01*
X146307486Y-131516439D01*
X146263193Y-131481709D01*
X146257218Y-131477024D01*
X146250302Y-131473901D01*
X146248016Y-131472517D01*
X146233335Y-131464143D01*
X146230975Y-131462878D01*
X146224761Y-131458510D01*
X146217682Y-131455750D01*
X146217680Y-131455749D01*
X146165225Y-131435298D01*
X146159156Y-131432747D01*
X146100927Y-131406455D01*
X146093460Y-131405071D01*
X146090905Y-131404270D01*
X146074652Y-131399641D01*
X146072072Y-131398978D01*
X146064991Y-131396218D01*
X146057460Y-131395227D01*
X146057458Y-131395226D01*
X146027839Y-131391327D01*
X146001639Y-131387878D01*
X145995141Y-131386848D01*
X145932314Y-131375204D01*
X145924734Y-131375641D01*
X145924733Y-131375641D01*
X145870108Y-131378791D01*
X145862854Y-131379000D01*
X144629002Y-131379000D01*
X144560881Y-131358998D01*
X144539984Y-131342173D01*
X144491350Y-131293623D01*
X144423303Y-131225695D01*
X144272738Y-131132885D01*
X144273774Y-131131205D01*
X144227969Y-131090879D01*
X144208500Y-131023595D01*
X144208500Y-130778912D01*
X144208792Y-130770342D01*
X144212209Y-130720224D01*
X144212209Y-130720220D01*
X144212725Y-130712648D01*
X144201738Y-130649697D01*
X144200776Y-130643175D01*
X144193102Y-130579758D01*
X144190419Y-130572657D01*
X144189778Y-130570048D01*
X144185315Y-130553738D01*
X144184550Y-130551202D01*
X144183243Y-130543716D01*
X144157556Y-130485200D01*
X144155065Y-130479096D01*
X144135173Y-130426452D01*
X144135172Y-130426451D01*
X144132487Y-130419344D01*
X144128183Y-130413081D01*
X144126946Y-130410715D01*
X144118701Y-130395903D01*
X144117368Y-130393649D01*
X144114315Y-130386695D01*
X144075413Y-130335998D01*
X144071541Y-130330668D01*
X144039661Y-130284280D01*
X144039656Y-130284275D01*
X144035357Y-130278019D01*
X143988829Y-130236564D01*
X143983554Y-130231584D01*
X142826045Y-129074075D01*
X142792019Y-129011763D01*
X142797084Y-128940948D01*
X142839631Y-128884112D01*
X142906151Y-128859301D01*
X142915140Y-128858980D01*
X153304820Y-128858980D01*
X153372941Y-128878982D01*
G37*
%TD.AperFunction*%
%TA.AperFunction,Conductor*%
G36*
X165088355Y-127768502D02*
G01*
X165127667Y-127808665D01*
X165149987Y-127845088D01*
X165296250Y-128013938D01*
X165468126Y-128156632D01*
X165541955Y-128199774D01*
X165590679Y-128251412D01*
X165603750Y-128321195D01*
X165577019Y-128386967D01*
X165536562Y-128420327D01*
X165528457Y-128424546D01*
X165519738Y-128430036D01*
X165349433Y-128557905D01*
X165341726Y-128564748D01*
X165194590Y-128718717D01*
X165188104Y-128726727D01*
X165068098Y-128902649D01*
X165063000Y-128911623D01*
X164973338Y-129104783D01*
X164969775Y-129114470D01*
X164914389Y-129314183D01*
X164915912Y-129322607D01*
X164928292Y-129326000D01*
X166000000Y-129326000D01*
X166000000Y-129834000D01*
X164933225Y-129834000D01*
X164919694Y-129837973D01*
X164918257Y-129847966D01*
X164948565Y-129982446D01*
X164951645Y-129992275D01*
X165031770Y-130189603D01*
X165036413Y-130198794D01*
X165147694Y-130380388D01*
X165153777Y-130388699D01*
X165293213Y-130549667D01*
X165300580Y-130556883D01*
X165464434Y-130692916D01*
X165472881Y-130698831D01*
X165656756Y-130806279D01*
X165666042Y-130810729D01*
X165865001Y-130886703D01*
X165874906Y-130889581D01*
X165899122Y-130894508D01*
X165961887Y-130927690D01*
X165996748Y-130989538D01*
X166000000Y-131017978D01*
X166000000Y-131624000D01*
X165979998Y-131692121D01*
X165926342Y-131738614D01*
X165874000Y-131750000D01*
X158604160Y-131750000D01*
X158536039Y-131729998D01*
X158515065Y-131713095D01*
X158408950Y-131606980D01*
X158403096Y-131600715D01*
X158391895Y-131587875D01*
X158365061Y-131557115D01*
X158312780Y-131520371D01*
X158307486Y-131516439D01*
X158263193Y-131481709D01*
X158257218Y-131477024D01*
X158250302Y-131473901D01*
X158248016Y-131472517D01*
X158233335Y-131464143D01*
X158230975Y-131462878D01*
X158224761Y-131458510D01*
X158217682Y-131455750D01*
X158217680Y-131455749D01*
X158165225Y-131435298D01*
X158159156Y-131432747D01*
X158100927Y-131406455D01*
X158093460Y-131405071D01*
X158090905Y-131404270D01*
X158074652Y-131399641D01*
X158072072Y-131398978D01*
X158064991Y-131396218D01*
X158057460Y-131395227D01*
X158057458Y-131395226D01*
X158027839Y-131391327D01*
X158001639Y-131387878D01*
X157995141Y-131386848D01*
X157932314Y-131375204D01*
X157924734Y-131375641D01*
X157924733Y-131375641D01*
X157870108Y-131378791D01*
X157862854Y-131379000D01*
X156629002Y-131379000D01*
X156560881Y-131358998D01*
X156539984Y-131342173D01*
X156491350Y-131293623D01*
X156423303Y-131225695D01*
X156272738Y-131132885D01*
X156273774Y-131131205D01*
X156227969Y-131090879D01*
X156208500Y-131023595D01*
X156208500Y-130028912D01*
X156208792Y-130020342D01*
X156212209Y-129970224D01*
X156212209Y-129970220D01*
X156212725Y-129962648D01*
X156201739Y-129899703D01*
X156200777Y-129893182D01*
X156194015Y-129837304D01*
X156193102Y-129829758D01*
X156190416Y-129822650D01*
X156189779Y-129820056D01*
X156185318Y-129803750D01*
X156184548Y-129801199D01*
X156183242Y-129793716D01*
X156157561Y-129735212D01*
X156155069Y-129729105D01*
X156135173Y-129676452D01*
X156135173Y-129676451D01*
X156132487Y-129669344D01*
X156128184Y-129663083D01*
X156126947Y-129660717D01*
X156118720Y-129645937D01*
X156117369Y-129643652D01*
X156114315Y-129636695D01*
X156109695Y-129630675D01*
X156109692Y-129630669D01*
X156075421Y-129586009D01*
X156071541Y-129580668D01*
X156039661Y-129534280D01*
X156039656Y-129534275D01*
X156035357Y-129528019D01*
X155999813Y-129496350D01*
X155988830Y-129486565D01*
X155983554Y-129481584D01*
X154465565Y-127963595D01*
X154431539Y-127901283D01*
X154436604Y-127830468D01*
X154479151Y-127773632D01*
X154545671Y-127748821D01*
X154554660Y-127748500D01*
X165020234Y-127748500D01*
X165088355Y-127768502D01*
G37*
%TD.AperFunction*%
%TA.AperFunction,Conductor*%
G36*
X142733621Y-92153501D02*
G01*
X142780114Y-92207157D01*
X142791500Y-92259499D01*
X142791500Y-103721088D01*
X142791208Y-103729658D01*
X142787275Y-103787352D01*
X142788580Y-103794829D01*
X142788580Y-103794830D01*
X142798261Y-103850299D01*
X142799223Y-103856821D01*
X142806898Y-103920242D01*
X142809581Y-103927343D01*
X142810222Y-103929952D01*
X142814685Y-103946262D01*
X142815450Y-103948798D01*
X142816757Y-103956284D01*
X142841500Y-104012648D01*
X142842442Y-104014795D01*
X142844933Y-104020899D01*
X142867513Y-104080656D01*
X142871817Y-104086919D01*
X142873054Y-104089285D01*
X142881299Y-104104097D01*
X142882632Y-104106351D01*
X142885685Y-104113305D01*
X142890307Y-104119328D01*
X142924579Y-104163991D01*
X142928459Y-104169332D01*
X142960339Y-104215720D01*
X142960344Y-104215725D01*
X142964643Y-104221981D01*
X142970312Y-104227031D01*
X142970312Y-104227032D01*
X143011169Y-104263434D01*
X143016446Y-104268416D01*
X143363564Y-104615535D01*
X143369417Y-104621800D01*
X143401147Y-104658172D01*
X143407439Y-104665385D01*
X143459729Y-104702136D01*
X143464971Y-104706028D01*
X143515282Y-104745476D01*
X143522201Y-104748600D01*
X143524493Y-104749988D01*
X143539165Y-104758357D01*
X143541525Y-104759622D01*
X143547739Y-104763990D01*
X143554818Y-104766750D01*
X143554820Y-104766751D01*
X143607275Y-104787202D01*
X143613344Y-104789753D01*
X143671573Y-104816045D01*
X143679046Y-104817430D01*
X143681612Y-104818234D01*
X143697835Y-104822855D01*
X143700427Y-104823520D01*
X143707509Y-104826282D01*
X143715044Y-104827274D01*
X143770861Y-104834622D01*
X143777377Y-104835654D01*
X143815770Y-104842770D01*
X143840186Y-104847295D01*
X143847766Y-104846858D01*
X143847767Y-104846858D01*
X143902380Y-104843709D01*
X143909633Y-104843500D01*
X145671768Y-104843500D01*
X145739889Y-104863502D01*
X145747333Y-104868674D01*
X145796108Y-104905229D01*
X145796110Y-104905230D01*
X145803295Y-104910615D01*
X145939684Y-104961745D01*
X146001866Y-104968500D01*
X147527231Y-104968500D01*
X147595352Y-104988502D01*
X147631072Y-105023134D01*
X147664643Y-105071981D01*
X147670313Y-105077032D01*
X147670314Y-105077034D01*
X147711170Y-105113435D01*
X147716446Y-105118416D01*
X150778550Y-108180520D01*
X150784404Y-108186785D01*
X150822439Y-108230385D01*
X150874719Y-108267128D01*
X150880014Y-108271061D01*
X150930282Y-108310476D01*
X150937198Y-108313599D01*
X150939484Y-108314983D01*
X150954165Y-108323357D01*
X150956525Y-108324622D01*
X150962739Y-108328990D01*
X150969818Y-108331750D01*
X150969820Y-108331751D01*
X151022275Y-108352202D01*
X151028344Y-108354753D01*
X151086573Y-108381045D01*
X151094040Y-108382429D01*
X151096595Y-108383230D01*
X151112848Y-108387859D01*
X151115428Y-108388522D01*
X151122509Y-108391282D01*
X151130040Y-108392273D01*
X151130042Y-108392274D01*
X151159661Y-108396173D01*
X151185861Y-108399622D01*
X151192359Y-108400652D01*
X151255186Y-108412296D01*
X151262766Y-108411859D01*
X151262767Y-108411859D01*
X151317392Y-108408709D01*
X151324646Y-108408500D01*
X160273133Y-108408500D01*
X160296093Y-108410610D01*
X160305186Y-108412295D01*
X160312766Y-108411858D01*
X160312767Y-108411858D01*
X160367380Y-108408709D01*
X160374633Y-108408500D01*
X165874000Y-108408500D01*
X165942121Y-108428502D01*
X165988614Y-108482158D01*
X166000000Y-108534500D01*
X166000000Y-123015500D01*
X165979998Y-123083621D01*
X165926342Y-123130114D01*
X165874000Y-123141500D01*
X165351866Y-123141500D01*
X165289684Y-123148255D01*
X165153295Y-123199385D01*
X165036739Y-123286739D01*
X164949385Y-123403295D01*
X164898255Y-123539684D01*
X164891500Y-123601866D01*
X164891500Y-124804340D01*
X164871498Y-124872461D01*
X164854595Y-124893435D01*
X164243435Y-125504595D01*
X164181123Y-125538621D01*
X164154340Y-125541500D01*
X138045660Y-125541500D01*
X137977539Y-125521498D01*
X137956565Y-125504595D01*
X136645405Y-124193435D01*
X136611379Y-124131123D01*
X136608500Y-124104340D01*
X136608500Y-93641360D01*
X136628502Y-93573239D01*
X136645405Y-93552265D01*
X138027266Y-92170405D01*
X138089578Y-92136379D01*
X138116361Y-92133500D01*
X142180503Y-92133500D01*
X142180506Y-92133499D01*
X142665500Y-92133499D01*
X142733621Y-92153501D01*
G37*
%TD.AperFunction*%
%TA.AperFunction,Conductor*%
G36*
X165942121Y-80628502D02*
G01*
X165988614Y-80682158D01*
X166000000Y-80734500D01*
X166000000Y-106865500D01*
X165979998Y-106933621D01*
X165926342Y-106980114D01*
X165874000Y-106991500D01*
X160695660Y-106991500D01*
X160627539Y-106971498D01*
X160606565Y-106954595D01*
X160295405Y-106643435D01*
X160261379Y-106581123D01*
X160258500Y-106554340D01*
X160258500Y-104078912D01*
X160258792Y-104070342D01*
X160262209Y-104020225D01*
X160262209Y-104020221D01*
X160262725Y-104012648D01*
X160260376Y-103999188D01*
X160258500Y-103977526D01*
X160258500Y-102728912D01*
X160258792Y-102720342D01*
X160262209Y-102670224D01*
X160262209Y-102670220D01*
X160262725Y-102662648D01*
X160251739Y-102599703D01*
X160250777Y-102593182D01*
X160244015Y-102537304D01*
X160243102Y-102529758D01*
X160240416Y-102522650D01*
X160239779Y-102520056D01*
X160235318Y-102503750D01*
X160234548Y-102501199D01*
X160233242Y-102493716D01*
X160207561Y-102435212D01*
X160205069Y-102429105D01*
X160185173Y-102376452D01*
X160185173Y-102376451D01*
X160182487Y-102369344D01*
X160178184Y-102363083D01*
X160176947Y-102360717D01*
X160168720Y-102345937D01*
X160167369Y-102343652D01*
X160164315Y-102336695D01*
X160159695Y-102330675D01*
X160159692Y-102330669D01*
X160125421Y-102286009D01*
X160121541Y-102280668D01*
X160089661Y-102234280D01*
X160089656Y-102234275D01*
X160085357Y-102228019D01*
X160063450Y-102208500D01*
X160038830Y-102186565D01*
X160033554Y-102181584D01*
X158871450Y-101019480D01*
X158865596Y-101013215D01*
X158836635Y-100980017D01*
X158827561Y-100969615D01*
X158775280Y-100932871D01*
X158769986Y-100928939D01*
X158734812Y-100901359D01*
X158719718Y-100889524D01*
X158712802Y-100886401D01*
X158710516Y-100885017D01*
X158695835Y-100876643D01*
X158693475Y-100875378D01*
X158687261Y-100871010D01*
X158680182Y-100868250D01*
X158680180Y-100868249D01*
X158627725Y-100847798D01*
X158621656Y-100845247D01*
X158563427Y-100818955D01*
X158555960Y-100817571D01*
X158553405Y-100816770D01*
X158537152Y-100812141D01*
X158534572Y-100811478D01*
X158527491Y-100808718D01*
X158519960Y-100807727D01*
X158519958Y-100807726D01*
X158490339Y-100803827D01*
X158464139Y-100800378D01*
X158457641Y-100799348D01*
X158394814Y-100787704D01*
X158387234Y-100788141D01*
X158387233Y-100788141D01*
X158332608Y-100791291D01*
X158325354Y-100791500D01*
X157726387Y-100791500D01*
X157658266Y-100771498D01*
X157617816Y-100725270D01*
X157616550Y-100726054D01*
X157527332Y-100581880D01*
X157523478Y-100575652D01*
X157398303Y-100450695D01*
X157392072Y-100446854D01*
X157253968Y-100361725D01*
X157253966Y-100361724D01*
X157247738Y-100357885D01*
X157087254Y-100304655D01*
X157086389Y-100304368D01*
X157086387Y-100304368D01*
X157079861Y-100302203D01*
X157073025Y-100301503D01*
X157073022Y-100301502D01*
X157029969Y-100297091D01*
X156975400Y-100291500D01*
X156349600Y-100291500D01*
X156346354Y-100291837D01*
X156346350Y-100291837D01*
X156250692Y-100301762D01*
X156250688Y-100301763D01*
X156243834Y-100302474D01*
X156237298Y-100304655D01*
X156237296Y-100304655D01*
X156105194Y-100348728D01*
X156076054Y-100358450D01*
X155925652Y-100451522D01*
X155920479Y-100456704D01*
X155839216Y-100538109D01*
X155776934Y-100572188D01*
X155706114Y-100567185D01*
X155661025Y-100538264D01*
X155578483Y-100455866D01*
X155573303Y-100450695D01*
X155567072Y-100446854D01*
X155428968Y-100361725D01*
X155428966Y-100361724D01*
X155422738Y-100357885D01*
X155262254Y-100304655D01*
X155261389Y-100304368D01*
X155261387Y-100304368D01*
X155254861Y-100302203D01*
X155248025Y-100301503D01*
X155248022Y-100301502D01*
X155204969Y-100297091D01*
X155150400Y-100291500D01*
X154524600Y-100291500D01*
X154521354Y-100291837D01*
X154521350Y-100291837D01*
X154425692Y-100301762D01*
X154425688Y-100301763D01*
X154418834Y-100302474D01*
X154412298Y-100304655D01*
X154412296Y-100304655D01*
X154280194Y-100348728D01*
X154251054Y-100358450D01*
X154100652Y-100451522D01*
X153975695Y-100576697D01*
X153882885Y-100727262D01*
X153862378Y-100789088D01*
X153830177Y-100886174D01*
X153827203Y-100895139D01*
X153816500Y-100999600D01*
X153816500Y-101466838D01*
X153796498Y-101534959D01*
X153779595Y-101555933D01*
X153673595Y-101661933D01*
X153611283Y-101695959D01*
X153540468Y-101690894D01*
X153483632Y-101648347D01*
X153458821Y-101581827D01*
X153458500Y-101572838D01*
X153458500Y-101221866D01*
X153451745Y-101159684D01*
X153400615Y-101023295D01*
X153313261Y-100906739D01*
X153196705Y-100819385D01*
X153060316Y-100768255D01*
X152998134Y-100761500D01*
X152484500Y-100761500D01*
X152416379Y-100741498D01*
X152369886Y-100687842D01*
X152358500Y-100635500D01*
X152358500Y-98278912D01*
X152358792Y-98270342D01*
X152362209Y-98220224D01*
X152362209Y-98220220D01*
X152362725Y-98212648D01*
X152351738Y-98149697D01*
X152350776Y-98143175D01*
X152344014Y-98087298D01*
X152343102Y-98079758D01*
X152340419Y-98072657D01*
X152339778Y-98070048D01*
X152335315Y-98053738D01*
X152334550Y-98051202D01*
X152333243Y-98043716D01*
X152307556Y-97985200D01*
X152305065Y-97979096D01*
X152285173Y-97926452D01*
X152285172Y-97926451D01*
X152282487Y-97919344D01*
X152278183Y-97913081D01*
X152276946Y-97910715D01*
X152268701Y-97895903D01*
X152267368Y-97893649D01*
X152264315Y-97886695D01*
X152225413Y-97835998D01*
X152221541Y-97830668D01*
X152189661Y-97784280D01*
X152189656Y-97784275D01*
X152185357Y-97778019D01*
X152138829Y-97736564D01*
X152133554Y-97731584D01*
X146345405Y-91943435D01*
X146311379Y-91881123D01*
X146308500Y-91854340D01*
X146308500Y-90043950D01*
X146328502Y-89975829D01*
X146382158Y-89929336D01*
X146452432Y-89919232D01*
X146517012Y-89948726D01*
X146523595Y-89954855D01*
X146538667Y-89969927D01*
X146542170Y-89972644D01*
X146551197Y-89980354D01*
X146576754Y-90004354D01*
X146612719Y-90065567D01*
X146616500Y-90096202D01*
X146616501Y-90199579D01*
X146616501Y-90264884D01*
X146617039Y-90268969D01*
X146617039Y-90268973D01*
X146631084Y-90375663D01*
X146632162Y-90383850D01*
X146635322Y-90391478D01*
X146639589Y-90401780D01*
X146647179Y-90472370D01*
X146639590Y-90498218D01*
X146632162Y-90516150D01*
X146616500Y-90635115D01*
X146616501Y-90914884D01*
X146632162Y-91033850D01*
X146635322Y-91041478D01*
X146639589Y-91051780D01*
X146647179Y-91122370D01*
X146639590Y-91148218D01*
X146632162Y-91166150D01*
X146616500Y-91285115D01*
X146616501Y-91564884D01*
X146632162Y-91683850D01*
X146693476Y-91831876D01*
X146791013Y-91958987D01*
X146797563Y-91964013D01*
X146797566Y-91964016D01*
X146854569Y-92007755D01*
X146918125Y-92056524D01*
X147066150Y-92117838D01*
X147074338Y-92118916D01*
X147075083Y-92119014D01*
X147185115Y-92133500D01*
X160396088Y-92133500D01*
X160404658Y-92133792D01*
X160454776Y-92137209D01*
X160454780Y-92137209D01*
X160462352Y-92137725D01*
X160469829Y-92136420D01*
X160469830Y-92136420D01*
X160496308Y-92131799D01*
X160525303Y-92126738D01*
X160531821Y-92125777D01*
X160595242Y-92118102D01*
X160602343Y-92115419D01*
X160604952Y-92114778D01*
X160621262Y-92110315D01*
X160623798Y-92109550D01*
X160631284Y-92108243D01*
X160689800Y-92082556D01*
X160695904Y-92080065D01*
X160748548Y-92060173D01*
X160748549Y-92060172D01*
X160755656Y-92057487D01*
X160761919Y-92053183D01*
X160764285Y-92051946D01*
X160779097Y-92043701D01*
X160781351Y-92042368D01*
X160788305Y-92039315D01*
X160839002Y-92000413D01*
X160844332Y-91996541D01*
X160890720Y-91964661D01*
X160890725Y-91964656D01*
X160896981Y-91960357D01*
X160904039Y-91952436D01*
X160938435Y-91913830D01*
X160943416Y-91908554D01*
X163730528Y-89121443D01*
X163736793Y-89115589D01*
X163774664Y-89082552D01*
X163774665Y-89082551D01*
X163780385Y-89077561D01*
X163817136Y-89025271D01*
X163821028Y-89020029D01*
X163860476Y-88969718D01*
X163863600Y-88962799D01*
X163864988Y-88960507D01*
X163873357Y-88945835D01*
X163874622Y-88943475D01*
X163878990Y-88937261D01*
X163902203Y-88877723D01*
X163904759Y-88871642D01*
X163906358Y-88868102D01*
X163931045Y-88813427D01*
X163932430Y-88805954D01*
X163933234Y-88803388D01*
X163937855Y-88787165D01*
X163938520Y-88784573D01*
X163941282Y-88777491D01*
X163949622Y-88714139D01*
X163950654Y-88707623D01*
X163960911Y-88652281D01*
X163962295Y-88644814D01*
X163958709Y-88582620D01*
X163958500Y-88575367D01*
X163958500Y-81395660D01*
X163978502Y-81327539D01*
X163995405Y-81306565D01*
X164656565Y-80645405D01*
X164718877Y-80611379D01*
X164745660Y-80608500D01*
X165874000Y-80608500D01*
X165942121Y-80628502D01*
G37*
%TD.AperFunction*%
%TA.AperFunction,Conductor*%
G36*
X144417012Y-94219436D02*
G01*
X144423595Y-94225565D01*
X149304595Y-99106566D01*
X149338621Y-99168878D01*
X149341500Y-99195661D01*
X149341500Y-103021088D01*
X149341208Y-103029658D01*
X149337275Y-103087352D01*
X149338580Y-103094829D01*
X149338580Y-103094830D01*
X149348261Y-103150299D01*
X149349223Y-103156821D01*
X149356898Y-103220242D01*
X149359581Y-103227343D01*
X149360222Y-103229952D01*
X149364685Y-103246262D01*
X149365450Y-103248798D01*
X149366757Y-103256284D01*
X149369811Y-103263241D01*
X149392442Y-103314795D01*
X149394933Y-103320899D01*
X149417513Y-103380656D01*
X149421817Y-103386919D01*
X149423054Y-103389285D01*
X149431299Y-103404097D01*
X149432632Y-103406351D01*
X149435685Y-103413305D01*
X149440307Y-103419328D01*
X149474579Y-103463991D01*
X149478459Y-103469332D01*
X149510339Y-103515720D01*
X149510344Y-103515725D01*
X149514643Y-103521981D01*
X149520313Y-103527032D01*
X149520314Y-103527034D01*
X149561170Y-103563435D01*
X149566446Y-103568416D01*
X150613550Y-104615520D01*
X150619404Y-104621785D01*
X150657439Y-104665385D01*
X150663657Y-104669755D01*
X150709697Y-104702112D01*
X150714993Y-104706045D01*
X150765282Y-104745477D01*
X150772204Y-104748602D01*
X150774452Y-104749964D01*
X150789185Y-104758368D01*
X150791524Y-104759622D01*
X150797739Y-104763990D01*
X150804815Y-104766749D01*
X150804819Y-104766751D01*
X150857269Y-104787200D01*
X150863351Y-104789757D01*
X150886096Y-104800027D01*
X150939950Y-104846290D01*
X150960243Y-104914324D01*
X150952224Y-104959096D01*
X150948255Y-104969684D01*
X150941500Y-105031866D01*
X150941500Y-105778134D01*
X150948255Y-105840316D01*
X150999385Y-105976705D01*
X151086739Y-106093261D01*
X151203295Y-106180615D01*
X151339684Y-106231745D01*
X151401866Y-106238500D01*
X152998134Y-106238500D01*
X153060316Y-106231745D01*
X153196705Y-106180615D01*
X153203890Y-106175230D01*
X153203892Y-106175229D01*
X153252667Y-106138674D01*
X153319174Y-106113826D01*
X153328232Y-106113500D01*
X153775955Y-106113500D01*
X153844076Y-106133502D01*
X153880868Y-106175544D01*
X153883450Y-106173946D01*
X153976522Y-106324348D01*
X154101697Y-106449305D01*
X154107927Y-106453145D01*
X154107928Y-106453146D01*
X154245090Y-106537694D01*
X154252262Y-106542115D01*
X154332005Y-106568564D01*
X154413611Y-106595632D01*
X154413613Y-106595632D01*
X154420139Y-106597797D01*
X154426975Y-106598497D01*
X154426978Y-106598498D01*
X154470031Y-106602909D01*
X154524600Y-106608500D01*
X155150400Y-106608500D01*
X155153646Y-106608163D01*
X155153650Y-106608163D01*
X155249308Y-106598238D01*
X155249312Y-106598237D01*
X155256166Y-106597526D01*
X155262702Y-106595345D01*
X155262704Y-106595345D01*
X155394806Y-106551272D01*
X155423946Y-106541550D01*
X155574348Y-106448478D01*
X155699305Y-106323303D01*
X155755217Y-106232598D01*
X155788275Y-106178968D01*
X155788276Y-106178966D01*
X155792115Y-106172738D01*
X155847797Y-106004861D01*
X155858500Y-105900400D01*
X155858500Y-104899600D01*
X155852969Y-104846290D01*
X155848238Y-104800692D01*
X155848237Y-104800688D01*
X155847526Y-104793834D01*
X155845345Y-104787296D01*
X155813185Y-104690901D01*
X155810601Y-104619952D01*
X155846785Y-104558868D01*
X155910249Y-104527043D01*
X155980844Y-104534582D01*
X155998826Y-104543766D01*
X156071030Y-104588274D01*
X156071033Y-104588275D01*
X156077262Y-104592115D01*
X156147826Y-104615520D01*
X156238611Y-104645632D01*
X156238613Y-104645632D01*
X156245139Y-104647797D01*
X156251975Y-104648497D01*
X156251978Y-104648498D01*
X156295031Y-104652909D01*
X156349600Y-104658500D01*
X156975400Y-104658500D01*
X156978646Y-104658163D01*
X156978650Y-104658163D01*
X157074308Y-104648238D01*
X157074312Y-104648237D01*
X157081166Y-104647526D01*
X157087702Y-104645345D01*
X157087704Y-104645345D01*
X157219806Y-104601272D01*
X157248946Y-104591550D01*
X157399348Y-104498478D01*
X157524305Y-104373303D01*
X157617115Y-104222738D01*
X157618795Y-104223774D01*
X157659121Y-104177969D01*
X157726405Y-104158500D01*
X158604339Y-104158500D01*
X158672460Y-104178502D01*
X158693435Y-104195405D01*
X158804596Y-104306567D01*
X158838621Y-104368879D01*
X158841500Y-104395662D01*
X158841500Y-106865500D01*
X158821498Y-106933621D01*
X158767842Y-106980114D01*
X158715500Y-106991500D01*
X151645660Y-106991500D01*
X151577539Y-106971498D01*
X151556565Y-106954595D01*
X148945405Y-104343435D01*
X148911379Y-104281123D01*
X148908500Y-104254340D01*
X148908500Y-102128927D01*
X148908792Y-102120358D01*
X148912210Y-102070225D01*
X148912210Y-102070221D01*
X148912726Y-102062648D01*
X148901736Y-101999681D01*
X148900775Y-101993165D01*
X148894014Y-101937298D01*
X148893102Y-101929758D01*
X148890419Y-101922657D01*
X148889778Y-101920048D01*
X148885309Y-101903715D01*
X148884548Y-101901195D01*
X148883243Y-101893717D01*
X148875918Y-101877030D01*
X148857559Y-101835204D01*
X148855068Y-101829099D01*
X148835175Y-101776456D01*
X148835173Y-101776452D01*
X148832487Y-101769344D01*
X148828184Y-101763083D01*
X148826947Y-101760717D01*
X148818720Y-101745937D01*
X148817369Y-101743652D01*
X148814315Y-101736695D01*
X148809695Y-101730675D01*
X148809692Y-101730669D01*
X148785806Y-101699542D01*
X148775413Y-101685998D01*
X148771541Y-101680668D01*
X148739661Y-101634280D01*
X148739656Y-101634275D01*
X148735357Y-101628019D01*
X148688829Y-101586564D01*
X148683554Y-101581584D01*
X148216450Y-101114480D01*
X148210596Y-101108215D01*
X148210201Y-101107762D01*
X148172561Y-101064615D01*
X148120280Y-101027871D01*
X148114986Y-101023939D01*
X148070693Y-100989209D01*
X148064718Y-100984524D01*
X148057802Y-100981401D01*
X148055516Y-100980017D01*
X148040835Y-100971643D01*
X148038475Y-100970378D01*
X148032261Y-100966010D01*
X148025182Y-100963250D01*
X148025180Y-100963249D01*
X147972725Y-100942798D01*
X147966646Y-100940242D01*
X147960846Y-100937623D01*
X147948085Y-100931861D01*
X147914899Y-100908924D01*
X147913261Y-100906739D01*
X147906085Y-100901361D01*
X147906083Y-100901359D01*
X147833019Y-100846601D01*
X147796705Y-100819385D01*
X147660316Y-100768255D01*
X147598134Y-100761500D01*
X146001866Y-100761500D01*
X145939684Y-100768255D01*
X145803295Y-100819385D01*
X145796110Y-100824770D01*
X145796108Y-100824771D01*
X145747333Y-100861326D01*
X145680826Y-100886174D01*
X145671768Y-100886500D01*
X145590660Y-100886500D01*
X145522539Y-100866498D01*
X145501565Y-100849595D01*
X145495405Y-100843435D01*
X145461379Y-100781123D01*
X145458500Y-100754340D01*
X145458500Y-100274600D01*
X145447526Y-100168834D01*
X145391550Y-100001054D01*
X145298478Y-99850652D01*
X145173303Y-99725695D01*
X145022738Y-99632885D01*
X144942995Y-99606436D01*
X144861389Y-99579368D01*
X144861387Y-99579368D01*
X144854861Y-99577203D01*
X144848025Y-99576503D01*
X144848022Y-99576502D01*
X144804969Y-99572091D01*
X144750400Y-99566500D01*
X144334500Y-99566500D01*
X144266379Y-99546498D01*
X144219886Y-99492842D01*
X144208500Y-99440500D01*
X144208500Y-94314660D01*
X144228502Y-94246539D01*
X144282158Y-94200046D01*
X144352432Y-94189942D01*
X144417012Y-94219436D01*
G37*
%TD.AperFunction*%
%TA.AperFunction,Conductor*%
G36*
X160983621Y-85778502D02*
G01*
X161030114Y-85832158D01*
X161041500Y-85884500D01*
X161041500Y-87654340D01*
X161021498Y-87722461D01*
X161004595Y-87743435D01*
X159368435Y-89379595D01*
X159306123Y-89413621D01*
X159279340Y-89416500D01*
X149229712Y-89416500D01*
X149161591Y-89396498D01*
X149115098Y-89342842D01*
X149104790Y-89306944D01*
X149093916Y-89224338D01*
X149093916Y-89224337D01*
X149092838Y-89216150D01*
X149085411Y-89198219D01*
X149077821Y-89127630D01*
X149085411Y-89101780D01*
X149089678Y-89091480D01*
X149089679Y-89091477D01*
X149092838Y-89083850D01*
X149104792Y-88993052D01*
X149133513Y-88928127D01*
X149192778Y-88889035D01*
X149229713Y-88883500D01*
X158245110Y-88883500D01*
X158253680Y-88883792D01*
X158303798Y-88887209D01*
X158303802Y-88887209D01*
X158311374Y-88887725D01*
X158318851Y-88886420D01*
X158318852Y-88886420D01*
X158368672Y-88877725D01*
X158374325Y-88876738D01*
X158380843Y-88875777D01*
X158444264Y-88868102D01*
X158451365Y-88865419D01*
X158453974Y-88864778D01*
X158470284Y-88860315D01*
X158472820Y-88859550D01*
X158480306Y-88858243D01*
X158538822Y-88832556D01*
X158544926Y-88830065D01*
X158597570Y-88810173D01*
X158597571Y-88810172D01*
X158604678Y-88807487D01*
X158610941Y-88803183D01*
X158613307Y-88801946D01*
X158628119Y-88793701D01*
X158630373Y-88792368D01*
X158637327Y-88789315D01*
X158688024Y-88750413D01*
X158693354Y-88746541D01*
X158739742Y-88714661D01*
X158739747Y-88714656D01*
X158746003Y-88710357D01*
X158787449Y-88663839D01*
X158792430Y-88658562D01*
X159580536Y-87870457D01*
X159586801Y-87864604D01*
X159624664Y-87831574D01*
X159624665Y-87831573D01*
X159630385Y-87826583D01*
X159667136Y-87774293D01*
X159671028Y-87769051D01*
X159710476Y-87718740D01*
X159713600Y-87711821D01*
X159714988Y-87709529D01*
X159723357Y-87694857D01*
X159724622Y-87692497D01*
X159728990Y-87686283D01*
X159752203Y-87626745D01*
X159754759Y-87620664D01*
X159777918Y-87569374D01*
X159781045Y-87562449D01*
X159782430Y-87554976D01*
X159783234Y-87552410D01*
X159787855Y-87536187D01*
X159788520Y-87533595D01*
X159791282Y-87526513D01*
X159799622Y-87463161D01*
X159800654Y-87456645D01*
X159810911Y-87401303D01*
X159812295Y-87393836D01*
X159808709Y-87331642D01*
X159808500Y-87324389D01*
X159808500Y-85884500D01*
X159828502Y-85816379D01*
X159882158Y-85769886D01*
X159934500Y-85758500D01*
X160915500Y-85758500D01*
X160983621Y-85778502D01*
G37*
%TD.AperFunction*%
%TA.AperFunction,Conductor*%
G36*
X146189166Y-69770002D02*
G01*
X146235659Y-69823658D01*
X146246308Y-69862393D01*
X146248255Y-69880316D01*
X146299385Y-70016705D01*
X146386739Y-70133261D01*
X146503295Y-70220615D01*
X146639684Y-70271745D01*
X146701866Y-70278500D01*
X146965500Y-70278500D01*
X147033621Y-70298502D01*
X147080114Y-70352158D01*
X147091500Y-70404500D01*
X147091500Y-71504143D01*
X147071498Y-71572264D01*
X147017842Y-71618757D01*
X147005378Y-71623666D01*
X146983005Y-71631130D01*
X146982998Y-71631133D01*
X146976054Y-71633450D01*
X146825652Y-71726522D01*
X146700695Y-71851697D01*
X146607885Y-72002262D01*
X146552203Y-72170139D01*
X146541500Y-72274600D01*
X146541500Y-72900400D01*
X146541837Y-72903646D01*
X146541837Y-72903650D01*
X146542064Y-72905833D01*
X146552474Y-73006166D01*
X146554655Y-73012702D01*
X146554655Y-73012704D01*
X146588622Y-73114514D01*
X146608450Y-73173946D01*
X146701522Y-73324348D01*
X146826697Y-73449305D01*
X146977262Y-73542115D01*
X147057005Y-73568564D01*
X147138611Y-73595632D01*
X147138613Y-73595632D01*
X147145139Y-73597797D01*
X147151975Y-73598497D01*
X147151978Y-73598498D01*
X147195031Y-73602909D01*
X147249600Y-73608500D01*
X148215500Y-73608500D01*
X148283621Y-73628502D01*
X148330114Y-73682158D01*
X148341500Y-73734500D01*
X148341500Y-75175050D01*
X148321498Y-75243171D01*
X148304595Y-75264145D01*
X145592395Y-77976345D01*
X145583615Y-77984335D01*
X145583613Y-77984337D01*
X145576920Y-77988584D01*
X145571494Y-77994362D01*
X145571493Y-77994363D01*
X145528396Y-78040257D01*
X145525641Y-78043099D01*
X145505073Y-78063667D01*
X145502356Y-78067170D01*
X145494648Y-78076195D01*
X145463028Y-78109867D01*
X145459207Y-78116818D01*
X145459206Y-78116819D01*
X145452697Y-78128658D01*
X145441843Y-78145182D01*
X145434018Y-78155271D01*
X145428696Y-78162132D01*
X145425549Y-78169404D01*
X145425548Y-78169406D01*
X145410346Y-78204535D01*
X145405124Y-78215195D01*
X145392251Y-78238611D01*
X145382876Y-78255663D01*
X145377541Y-78276441D01*
X145371142Y-78295131D01*
X145362620Y-78314824D01*
X145361380Y-78322655D01*
X145355394Y-78360448D01*
X145352987Y-78372071D01*
X145346478Y-78397425D01*
X145341500Y-78416812D01*
X145341500Y-78438259D01*
X145339949Y-78457969D01*
X145336594Y-78479152D01*
X145337340Y-78487043D01*
X145340941Y-78525138D01*
X145341500Y-78536996D01*
X145341500Y-82369659D01*
X145321498Y-82437780D01*
X145267842Y-82484273D01*
X145228503Y-82494986D01*
X145217811Y-82496095D01*
X145163193Y-82501762D01*
X145163190Y-82501763D01*
X145156334Y-82502474D01*
X145149798Y-82504655D01*
X145149796Y-82504655D01*
X145102768Y-82520345D01*
X144988554Y-82558450D01*
X144838152Y-82651522D01*
X144713195Y-82776697D01*
X144620385Y-82927262D01*
X144564703Y-83095139D01*
X144554000Y-83199600D01*
X144554000Y-84200400D01*
X144564974Y-84306166D01*
X144620950Y-84473946D01*
X144714022Y-84624348D01*
X144839197Y-84749305D01*
X144845427Y-84753145D01*
X144845428Y-84753146D01*
X144974284Y-84832574D01*
X144989762Y-84842115D01*
X145020409Y-84852280D01*
X145151111Y-84895632D01*
X145151113Y-84895632D01*
X145157639Y-84897797D01*
X145164477Y-84898498D01*
X145164479Y-84898498D01*
X145196339Y-84901762D01*
X145228343Y-84905041D01*
X145294069Y-84931882D01*
X145334852Y-84989997D01*
X145341500Y-85030385D01*
X145341500Y-88185340D01*
X145321498Y-88253461D01*
X145267842Y-88299954D01*
X145197568Y-88310058D01*
X145132988Y-88280564D01*
X145126405Y-88274435D01*
X144945405Y-88093435D01*
X144911379Y-88031123D01*
X144908500Y-88004340D01*
X144908500Y-86403927D01*
X144908792Y-86395358D01*
X144912210Y-86345225D01*
X144912210Y-86345221D01*
X144912726Y-86337648D01*
X144901736Y-86274681D01*
X144900775Y-86268165D01*
X144897346Y-86239827D01*
X144893102Y-86204758D01*
X144890419Y-86197657D01*
X144889778Y-86195048D01*
X144885309Y-86178715D01*
X144884548Y-86176195D01*
X144883243Y-86168717D01*
X144879840Y-86160965D01*
X144857559Y-86110204D01*
X144855068Y-86104099D01*
X144835175Y-86051456D01*
X144835173Y-86051452D01*
X144832487Y-86044344D01*
X144828184Y-86038083D01*
X144826947Y-86035717D01*
X144818720Y-86020937D01*
X144817369Y-86018652D01*
X144814315Y-86011695D01*
X144809695Y-86005675D01*
X144809692Y-86005669D01*
X144775421Y-85961009D01*
X144771541Y-85955668D01*
X144739661Y-85909280D01*
X144739656Y-85909275D01*
X144735357Y-85903019D01*
X144688829Y-85861564D01*
X144683554Y-85856584D01*
X143921450Y-85094480D01*
X143915596Y-85088215D01*
X143901138Y-85071642D01*
X143877561Y-85044615D01*
X143825280Y-85007871D01*
X143819986Y-85003939D01*
X143775693Y-84969209D01*
X143769718Y-84964524D01*
X143762802Y-84961401D01*
X143760516Y-84960017D01*
X143745835Y-84951643D01*
X143743475Y-84950378D01*
X143737261Y-84946010D01*
X143730182Y-84943250D01*
X143730180Y-84943249D01*
X143677725Y-84922798D01*
X143671656Y-84920247D01*
X143613427Y-84893955D01*
X143605960Y-84892571D01*
X143603405Y-84891770D01*
X143587152Y-84887141D01*
X143584572Y-84886478D01*
X143577491Y-84883718D01*
X143569960Y-84882727D01*
X143569958Y-84882726D01*
X143540339Y-84878827D01*
X143514139Y-84875378D01*
X143507641Y-84874348D01*
X143444814Y-84862704D01*
X143437234Y-84863141D01*
X143437233Y-84863141D01*
X143382608Y-84866291D01*
X143375354Y-84866500D01*
X142094497Y-84866500D01*
X142094494Y-84866501D01*
X141460116Y-84866501D01*
X141456031Y-84867039D01*
X141456027Y-84867039D01*
X141349337Y-84881084D01*
X141349335Y-84881084D01*
X141341150Y-84882162D01*
X141285915Y-84905041D01*
X141200752Y-84940316D01*
X141200750Y-84940317D01*
X141193124Y-84943476D01*
X141186574Y-84948502D01*
X141092939Y-85020352D01*
X141066013Y-85041013D01*
X141060987Y-85047563D01*
X141060984Y-85047566D01*
X141024986Y-85094480D01*
X140968476Y-85168125D01*
X140907162Y-85316150D01*
X140891500Y-85435115D01*
X140891501Y-85714884D01*
X140892039Y-85718969D01*
X140892039Y-85718973D01*
X140904862Y-85816379D01*
X140907162Y-85833850D01*
X140910322Y-85841478D01*
X140914589Y-85851780D01*
X140922179Y-85922370D01*
X140914589Y-85948220D01*
X140910377Y-85958389D01*
X140907162Y-85966150D01*
X140895932Y-86051456D01*
X140895209Y-86056946D01*
X140866487Y-86121873D01*
X140807222Y-86160965D01*
X140770287Y-86166500D01*
X136653912Y-86166500D01*
X136645342Y-86166208D01*
X136595224Y-86162791D01*
X136595220Y-86162791D01*
X136587648Y-86162275D01*
X136580171Y-86163580D01*
X136580170Y-86163580D01*
X136553692Y-86168201D01*
X136524697Y-86173262D01*
X136518179Y-86174223D01*
X136454758Y-86181898D01*
X136447657Y-86184581D01*
X136445048Y-86185222D01*
X136428738Y-86189685D01*
X136426202Y-86190450D01*
X136418716Y-86191757D01*
X136411759Y-86194811D01*
X136360205Y-86217442D01*
X136354101Y-86219933D01*
X136294344Y-86242513D01*
X136288081Y-86246817D01*
X136285715Y-86248054D01*
X136270903Y-86256299D01*
X136268649Y-86257632D01*
X136261695Y-86260685D01*
X136210998Y-86299587D01*
X136205668Y-86303459D01*
X136159280Y-86335339D01*
X136159275Y-86335344D01*
X136153019Y-86339643D01*
X136147968Y-86345313D01*
X136147966Y-86345314D01*
X136111565Y-86386170D01*
X136106584Y-86391446D01*
X133465095Y-89032935D01*
X133402783Y-89066961D01*
X133331968Y-89061896D01*
X133275132Y-89019349D01*
X133250321Y-88952829D01*
X133250000Y-88943840D01*
X133250000Y-69876000D01*
X133270002Y-69807879D01*
X133323658Y-69761386D01*
X133376000Y-69750000D01*
X146121045Y-69750000D01*
X146189166Y-69770002D01*
G37*
%TD.AperFunction*%
%TA.AperFunction,Conductor*%
G36*
X155250535Y-69770002D02*
G01*
X155297028Y-69823658D01*
X155307132Y-69893932D01*
X155305615Y-69902411D01*
X155304280Y-69908636D01*
X155302115Y-69915165D01*
X155291500Y-70018769D01*
X155291501Y-70606230D01*
X155302384Y-70711129D01*
X155304563Y-70717660D01*
X155304564Y-70717665D01*
X155353990Y-70865811D01*
X155357898Y-70877526D01*
X155450203Y-71026689D01*
X155574347Y-71150617D01*
X155577270Y-71152419D01*
X155617408Y-71209029D01*
X155620642Y-71279952D01*
X155585018Y-71341364D01*
X155578622Y-71346916D01*
X155573311Y-71350203D01*
X155449383Y-71474347D01*
X155357339Y-71623671D01*
X155355034Y-71630619D01*
X155355034Y-71630620D01*
X155323225Y-71726522D01*
X155302115Y-71790165D01*
X155291500Y-71893769D01*
X155291501Y-72481230D01*
X155302384Y-72586129D01*
X155304563Y-72592660D01*
X155304564Y-72592665D01*
X155353990Y-72740811D01*
X155357898Y-72752526D01*
X155450203Y-72901689D01*
X155574347Y-73025617D01*
X155722763Y-73117101D01*
X155723671Y-73117661D01*
X155723231Y-73118376D01*
X155772036Y-73161350D01*
X155791500Y-73228626D01*
X155791500Y-75773613D01*
X155771498Y-75841734D01*
X155725270Y-75882184D01*
X155726054Y-75883450D01*
X155575652Y-75976522D01*
X155570479Y-75981704D01*
X155512267Y-76040018D01*
X155450695Y-76101697D01*
X155446855Y-76107927D01*
X155446854Y-76107928D01*
X155396794Y-76189141D01*
X155357885Y-76252262D01*
X155302203Y-76420139D01*
X155291500Y-76524600D01*
X155291500Y-77150400D01*
X155302474Y-77256166D01*
X155304655Y-77262702D01*
X155304655Y-77262704D01*
X155333045Y-77347799D01*
X155358450Y-77423946D01*
X155451522Y-77574348D01*
X155456704Y-77579521D01*
X155538109Y-77660784D01*
X155572188Y-77723066D01*
X155567185Y-77793886D01*
X155538264Y-77838975D01*
X155524980Y-77852282D01*
X155450695Y-77926697D01*
X155446855Y-77932927D01*
X155446854Y-77932928D01*
X155363006Y-78068955D01*
X155357885Y-78077262D01*
X155344765Y-78116819D01*
X155308771Y-78225338D01*
X155302203Y-78245139D01*
X155301503Y-78251975D01*
X155301502Y-78251978D01*
X155300351Y-78263215D01*
X155291500Y-78349600D01*
X155291500Y-78975400D01*
X155291837Y-78978646D01*
X155291837Y-78978650D01*
X155296656Y-79025090D01*
X155302474Y-79081166D01*
X155304655Y-79087702D01*
X155304655Y-79087704D01*
X155330944Y-79166500D01*
X155358450Y-79248946D01*
X155451522Y-79399348D01*
X155456704Y-79404521D01*
X155488942Y-79436703D01*
X155576697Y-79524305D01*
X155582927Y-79528145D01*
X155582928Y-79528146D01*
X155720090Y-79612694D01*
X155727262Y-79617115D01*
X155746419Y-79623469D01*
X155888611Y-79670632D01*
X155888613Y-79670632D01*
X155895139Y-79672797D01*
X155901975Y-79673497D01*
X155901978Y-79673498D01*
X155945031Y-79677909D01*
X155999600Y-79683500D01*
X157000400Y-79683500D01*
X157003646Y-79683163D01*
X157003650Y-79683163D01*
X157099308Y-79673238D01*
X157099312Y-79673237D01*
X157106166Y-79672526D01*
X157112702Y-79670345D01*
X157112704Y-79670345D01*
X157253207Y-79623469D01*
X157273946Y-79616550D01*
X157424348Y-79523478D01*
X157429521Y-79518296D01*
X157429526Y-79518292D01*
X157452295Y-79495483D01*
X157514577Y-79461403D01*
X157541468Y-79458500D01*
X159654340Y-79458500D01*
X159722461Y-79478502D01*
X159743435Y-79495405D01*
X161004595Y-80756565D01*
X161038621Y-80818877D01*
X161041500Y-80845660D01*
X161041500Y-81639608D01*
X161021498Y-81707729D01*
X160967842Y-81754222D01*
X160897568Y-81764326D01*
X160832988Y-81734832D01*
X160826483Y-81728781D01*
X160778488Y-81680870D01*
X160778483Y-81680866D01*
X160773303Y-81675695D01*
X160767072Y-81671854D01*
X160628968Y-81586725D01*
X160628966Y-81586724D01*
X160622738Y-81582885D01*
X160462254Y-81529655D01*
X160461389Y-81529368D01*
X160461387Y-81529368D01*
X160454861Y-81527203D01*
X160448025Y-81526503D01*
X160448022Y-81526502D01*
X160404969Y-81522091D01*
X160350400Y-81516500D01*
X159749600Y-81516500D01*
X159746354Y-81516837D01*
X159746350Y-81516837D01*
X159650692Y-81526762D01*
X159650688Y-81526763D01*
X159643834Y-81527474D01*
X159637298Y-81529655D01*
X159637296Y-81529655D01*
X159505194Y-81573728D01*
X159476054Y-81583450D01*
X159325652Y-81676522D01*
X159200695Y-81801697D01*
X159196855Y-81807927D01*
X159196854Y-81807928D01*
X159161729Y-81864912D01*
X159107885Y-81952262D01*
X159052203Y-82120139D01*
X159041500Y-82224600D01*
X159041500Y-83275400D01*
X159052474Y-83381166D01*
X159054655Y-83387702D01*
X159054655Y-83387704D01*
X159076253Y-83452440D01*
X159108450Y-83548946D01*
X159119896Y-83567442D01*
X159122720Y-83572006D01*
X159141558Y-83640458D01*
X159116402Y-83713874D01*
X159049385Y-83803295D01*
X158998255Y-83939684D01*
X158991500Y-84001866D01*
X158991500Y-84405316D01*
X158971498Y-84473437D01*
X158954596Y-84494411D01*
X158619465Y-84829543D01*
X158613198Y-84835397D01*
X158575340Y-84868422D01*
X158575337Y-84868425D01*
X158569615Y-84873417D01*
X158551988Y-84898498D01*
X158532872Y-84925697D01*
X158528939Y-84930992D01*
X158489524Y-84981260D01*
X158486401Y-84988176D01*
X158485017Y-84990462D01*
X158476643Y-85005143D01*
X158475378Y-85007503D01*
X158471010Y-85013717D01*
X158468250Y-85020796D01*
X158468249Y-85020798D01*
X158447798Y-85073253D01*
X158445247Y-85079322D01*
X158418955Y-85137551D01*
X158417571Y-85145019D01*
X158415298Y-85152270D01*
X158412264Y-85151319D01*
X158386741Y-85201758D01*
X158325527Y-85237720D01*
X158294896Y-85241500D01*
X157251866Y-85241500D01*
X157189684Y-85248255D01*
X157053295Y-85299385D01*
X156936739Y-85386739D01*
X156931358Y-85393919D01*
X156931357Y-85393920D01*
X156852313Y-85499388D01*
X156795454Y-85541903D01*
X156724635Y-85546929D01*
X156685370Y-85531082D01*
X156653970Y-85511726D01*
X156653967Y-85511725D01*
X156647738Y-85507885D01*
X156487254Y-85454655D01*
X156486389Y-85454368D01*
X156486387Y-85454368D01*
X156479861Y-85452203D01*
X156473025Y-85451503D01*
X156473022Y-85451502D01*
X156429969Y-85447091D01*
X156375400Y-85441500D01*
X155324600Y-85441500D01*
X155321354Y-85441837D01*
X155321350Y-85441837D01*
X155225692Y-85451762D01*
X155225688Y-85451763D01*
X155218834Y-85452474D01*
X155212298Y-85454655D01*
X155212296Y-85454655D01*
X155080194Y-85498728D01*
X155051054Y-85508450D01*
X154900652Y-85601522D01*
X154775695Y-85726697D01*
X154771855Y-85732927D01*
X154771854Y-85732928D01*
X154704943Y-85841478D01*
X154682885Y-85877262D01*
X154659349Y-85948220D01*
X154640295Y-86005669D01*
X154627203Y-86045139D01*
X154616500Y-86149600D01*
X154616500Y-86690500D01*
X154596498Y-86758621D01*
X154542842Y-86805114D01*
X154490500Y-86816500D01*
X151802130Y-86816500D01*
X151734009Y-86796498D01*
X151687516Y-86742842D01*
X151677412Y-86672568D01*
X151694870Y-86624384D01*
X151738275Y-86553968D01*
X151738276Y-86553966D01*
X151742115Y-86547738D01*
X151792657Y-86395358D01*
X151795632Y-86386389D01*
X151795632Y-86386387D01*
X151797797Y-86379861D01*
X151808500Y-86275400D01*
X151808500Y-85795660D01*
X151828502Y-85727539D01*
X151845405Y-85706565D01*
X152230520Y-85321450D01*
X152236785Y-85315596D01*
X152258981Y-85296233D01*
X152280385Y-85277561D01*
X152317129Y-85225280D01*
X152321061Y-85219986D01*
X152355791Y-85175693D01*
X152360476Y-85169718D01*
X152363599Y-85162802D01*
X152364983Y-85160516D01*
X152373357Y-85145835D01*
X152374622Y-85143475D01*
X152378990Y-85137261D01*
X152402203Y-85077723D01*
X152404759Y-85071642D01*
X152414379Y-85050338D01*
X152431045Y-85013427D01*
X152432429Y-85005960D01*
X152433230Y-85003405D01*
X152437859Y-84987152D01*
X152438522Y-84984572D01*
X152441282Y-84977491D01*
X152442373Y-84969209D01*
X152446176Y-84940316D01*
X152449622Y-84914139D01*
X152450653Y-84907632D01*
X152452609Y-84897082D01*
X152462296Y-84844814D01*
X152461419Y-84829595D01*
X152458709Y-84782608D01*
X152458500Y-84775354D01*
X152458500Y-82848548D01*
X152481413Y-82776098D01*
X152517112Y-82725303D01*
X152521046Y-82720005D01*
X152555791Y-82675694D01*
X152560477Y-82669718D01*
X152563602Y-82662796D01*
X152564964Y-82660548D01*
X152573368Y-82645815D01*
X152574622Y-82643476D01*
X152578990Y-82637261D01*
X152581749Y-82630185D01*
X152581751Y-82630181D01*
X152602200Y-82577731D01*
X152604749Y-82571666D01*
X152631045Y-82513427D01*
X152632429Y-82505962D01*
X152633226Y-82503418D01*
X152637859Y-82487152D01*
X152638521Y-82484572D01*
X152641282Y-82477491D01*
X152649622Y-82414143D01*
X152650653Y-82407629D01*
X152658462Y-82365500D01*
X152662296Y-82344813D01*
X152658709Y-82282602D01*
X152658500Y-82275349D01*
X152658500Y-70114874D01*
X152678502Y-70046753D01*
X152683661Y-70039327D01*
X152700615Y-70016705D01*
X152751745Y-69880316D01*
X152753692Y-69862393D01*
X152780933Y-69796831D01*
X152839296Y-69756404D01*
X152878955Y-69750000D01*
X155182414Y-69750000D01*
X155250535Y-69770002D01*
G37*
%TD.AperFunction*%
%TA.AperFunction,Conductor*%
G36*
X163750535Y-69770002D02*
G01*
X163797028Y-69823658D01*
X163807132Y-69893932D01*
X163805615Y-69902411D01*
X163804280Y-69908636D01*
X163802115Y-69915165D01*
X163791500Y-70018769D01*
X163791501Y-70606230D01*
X163802384Y-70711129D01*
X163804563Y-70717660D01*
X163804564Y-70717665D01*
X163853990Y-70865811D01*
X163857898Y-70877526D01*
X163950203Y-71026689D01*
X164074347Y-71150617D01*
X164077270Y-71152419D01*
X164117408Y-71209029D01*
X164120642Y-71279952D01*
X164085018Y-71341364D01*
X164078622Y-71346916D01*
X164073311Y-71350203D01*
X163949383Y-71474347D01*
X163857339Y-71623671D01*
X163855034Y-71630619D01*
X163855034Y-71630620D01*
X163823225Y-71726522D01*
X163802115Y-71790165D01*
X163791500Y-71893769D01*
X163791501Y-72481230D01*
X163802384Y-72586129D01*
X163804563Y-72592660D01*
X163804564Y-72592665D01*
X163853990Y-72740811D01*
X163857898Y-72752526D01*
X163950203Y-72901689D01*
X164074347Y-73025617D01*
X164222763Y-73117101D01*
X164223671Y-73117661D01*
X164223231Y-73118376D01*
X164272036Y-73161350D01*
X164291500Y-73228626D01*
X164291500Y-75773613D01*
X164271498Y-75841734D01*
X164225270Y-75882184D01*
X164226054Y-75883450D01*
X164075652Y-75976522D01*
X164070479Y-75981704D01*
X164012267Y-76040018D01*
X163950695Y-76101697D01*
X163946855Y-76107927D01*
X163946854Y-76107928D01*
X163896794Y-76189141D01*
X163857885Y-76252262D01*
X163802203Y-76420139D01*
X163791500Y-76524600D01*
X163791500Y-77150400D01*
X163802474Y-77256166D01*
X163804655Y-77262702D01*
X163804655Y-77262704D01*
X163833045Y-77347799D01*
X163858450Y-77423946D01*
X163951522Y-77574348D01*
X163956704Y-77579521D01*
X164038109Y-77660784D01*
X164072188Y-77723066D01*
X164067185Y-77793886D01*
X164038264Y-77838975D01*
X164024980Y-77852282D01*
X163950695Y-77926697D01*
X163946855Y-77932927D01*
X163946854Y-77932928D01*
X163863006Y-78068955D01*
X163857885Y-78077262D01*
X163837955Y-78137349D01*
X163836071Y-78143029D01*
X163805573Y-78192457D01*
X162214095Y-79783935D01*
X162151783Y-79817961D01*
X162080968Y-79812896D01*
X162035905Y-79783935D01*
X160521450Y-78269480D01*
X160515596Y-78263215D01*
X160505793Y-78251978D01*
X160477561Y-78219615D01*
X160425280Y-78182871D01*
X160419986Y-78178939D01*
X160375693Y-78144209D01*
X160369718Y-78139524D01*
X160362802Y-78136401D01*
X160360516Y-78135017D01*
X160345835Y-78126643D01*
X160343475Y-78125378D01*
X160337261Y-78121010D01*
X160330182Y-78118250D01*
X160330180Y-78118249D01*
X160277725Y-78097798D01*
X160271656Y-78095247D01*
X160213427Y-78068955D01*
X160205960Y-78067571D01*
X160203405Y-78066770D01*
X160187152Y-78062141D01*
X160184572Y-78061478D01*
X160177491Y-78058718D01*
X160169960Y-78057727D01*
X160169958Y-78057726D01*
X160140339Y-78053827D01*
X160114139Y-78050378D01*
X160107641Y-78049348D01*
X160044814Y-78037704D01*
X160037234Y-78038141D01*
X160037233Y-78038141D01*
X159982608Y-78041291D01*
X159975354Y-78041500D01*
X157690369Y-78041500D01*
X157622248Y-78021498D01*
X157583228Y-77981807D01*
X157548478Y-77925652D01*
X157461891Y-77839216D01*
X157427812Y-77776934D01*
X157432815Y-77706114D01*
X157461736Y-77661025D01*
X157544134Y-77578483D01*
X157549305Y-77573303D01*
X157553146Y-77567072D01*
X157638275Y-77428968D01*
X157638276Y-77428966D01*
X157642115Y-77422738D01*
X157677263Y-77316770D01*
X157695632Y-77261389D01*
X157695632Y-77261387D01*
X157697797Y-77254861D01*
X157708500Y-77150400D01*
X157708500Y-76524600D01*
X157708163Y-76521350D01*
X157698238Y-76425692D01*
X157698237Y-76425688D01*
X157697526Y-76418834D01*
X157641550Y-76251054D01*
X157548478Y-76100652D01*
X157423303Y-75975695D01*
X157272738Y-75882885D01*
X157273774Y-75881205D01*
X157227969Y-75840879D01*
X157208500Y-75773595D01*
X157208500Y-73228616D01*
X157228502Y-73160495D01*
X157277725Y-73117424D01*
X157277526Y-73117102D01*
X157279464Y-73115903D01*
X157279465Y-73115902D01*
X157426689Y-73024797D01*
X157550617Y-72900653D01*
X157642661Y-72751329D01*
X157697885Y-72584835D01*
X157708500Y-72481231D01*
X157708499Y-71893770D01*
X157697616Y-71788871D01*
X157695437Y-71782340D01*
X157695436Y-71782335D01*
X157644420Y-71629422D01*
X157642102Y-71622474D01*
X157549797Y-71473311D01*
X157425653Y-71349383D01*
X157422730Y-71347581D01*
X157382592Y-71290971D01*
X157379358Y-71220048D01*
X157414982Y-71158636D01*
X157421378Y-71153084D01*
X157426689Y-71149797D01*
X157550617Y-71025653D01*
X157642661Y-70876329D01*
X157697885Y-70709835D01*
X157708500Y-70606231D01*
X157708499Y-70018770D01*
X157697616Y-69913871D01*
X157695436Y-69907337D01*
X157694412Y-69902594D01*
X157699585Y-69831787D01*
X157742219Y-69775016D01*
X157808777Y-69750307D01*
X157817573Y-69750000D01*
X163682414Y-69750000D01*
X163750535Y-69770002D01*
G37*
%TD.AperFunction*%
%TA.AperFunction,Conductor*%
G36*
X151183621Y-73628502D02*
G01*
X151230114Y-73682158D01*
X151241500Y-73734500D01*
X151241500Y-77246782D01*
X151221498Y-77314903D01*
X151167842Y-77361396D01*
X151097568Y-77371500D01*
X151069736Y-77364177D01*
X151027690Y-77347784D01*
X151021656Y-77345247D01*
X150963427Y-77318955D01*
X150955960Y-77317571D01*
X150953405Y-77316770D01*
X150937152Y-77312141D01*
X150934572Y-77311478D01*
X150927491Y-77308718D01*
X150919960Y-77307727D01*
X150919958Y-77307726D01*
X150890339Y-77303827D01*
X150864139Y-77300378D01*
X150857647Y-77299350D01*
X150844946Y-77296996D01*
X150781612Y-77264914D01*
X150762118Y-77241546D01*
X150707822Y-77157617D01*
X150707820Y-77157614D01*
X150705014Y-77153277D01*
X150554670Y-76988051D01*
X150550619Y-76984852D01*
X150550615Y-76984848D01*
X150383414Y-76852800D01*
X150383410Y-76852798D01*
X150379359Y-76849598D01*
X150183789Y-76741638D01*
X150178920Y-76739914D01*
X150178916Y-76739912D01*
X149978087Y-76668795D01*
X149978083Y-76668794D01*
X149973212Y-76667069D01*
X149968119Y-76666162D01*
X149968116Y-76666161D01*
X149821378Y-76640023D01*
X149757820Y-76608385D01*
X149721457Y-76547408D01*
X149723834Y-76476451D01*
X149754379Y-76426881D01*
X149907605Y-76273655D01*
X149916385Y-76265665D01*
X149916387Y-76265663D01*
X149923080Y-76261416D01*
X149937527Y-76246032D01*
X149971604Y-76209743D01*
X149974359Y-76206901D01*
X149994927Y-76186333D01*
X149997647Y-76182826D01*
X150005353Y-76173804D01*
X150031544Y-76145913D01*
X150036972Y-76140133D01*
X150040794Y-76133181D01*
X150047303Y-76121342D01*
X150058157Y-76104818D01*
X150066445Y-76094132D01*
X150071304Y-76087868D01*
X150074452Y-76080594D01*
X150089654Y-76045465D01*
X150094876Y-76034805D01*
X150113305Y-76001284D01*
X150113306Y-76001282D01*
X150117124Y-75994337D01*
X150122459Y-75973559D01*
X150128858Y-75954869D01*
X150137380Y-75935176D01*
X150144606Y-75889552D01*
X150147013Y-75877929D01*
X150156528Y-75840868D01*
X150158500Y-75833188D01*
X150158500Y-75811741D01*
X150160051Y-75792031D01*
X150162166Y-75778677D01*
X150163406Y-75770848D01*
X150159059Y-75724859D01*
X150158500Y-75713004D01*
X150158500Y-73734500D01*
X150178502Y-73666379D01*
X150232158Y-73619886D01*
X150284500Y-73608500D01*
X151115500Y-73608500D01*
X151183621Y-73628502D01*
G37*
%TD.AperFunction*%
%TD*%
%TA.AperFunction,Conductor*%
%TO.N,+5V*%
G36*
X144000000Y-68000000D02*
G01*
X132250000Y-68000000D01*
X132250000Y-71250000D01*
X122508500Y-71250000D01*
X122508500Y-66841045D01*
X122528502Y-66772924D01*
X122582158Y-66726431D01*
X122652432Y-66716327D01*
X122717012Y-66745821D01*
X122746767Y-66783842D01*
X122783938Y-66856794D01*
X122995643Y-67182793D01*
X123240266Y-67484876D01*
X123515124Y-67759734D01*
X123817207Y-68004357D01*
X124143205Y-68216062D01*
X124146139Y-68217557D01*
X124146146Y-68217561D01*
X124486607Y-68391034D01*
X124489547Y-68392532D01*
X124852438Y-68531833D01*
X125227901Y-68632438D01*
X125431793Y-68664732D01*
X125608576Y-68692732D01*
X125608584Y-68692733D01*
X125611824Y-68693246D01*
X126000000Y-68713589D01*
X126388176Y-68693246D01*
X126391416Y-68692733D01*
X126391424Y-68692732D01*
X126568207Y-68664732D01*
X126772099Y-68632438D01*
X127147562Y-68531833D01*
X127510453Y-68392532D01*
X127513393Y-68391034D01*
X127853854Y-68217561D01*
X127853861Y-68217557D01*
X127856795Y-68216062D01*
X128182793Y-68004357D01*
X128484876Y-67759734D01*
X128759734Y-67484876D01*
X129004357Y-67182793D01*
X129216062Y-66856794D01*
X129282486Y-66726431D01*
X129391034Y-66513393D01*
X129392532Y-66510453D01*
X129531833Y-66147562D01*
X129632438Y-65772099D01*
X129693246Y-65388176D01*
X129713589Y-65000000D01*
X129693246Y-64611824D01*
X129632438Y-64227901D01*
X129531833Y-63852438D01*
X129392532Y-63489547D01*
X129391034Y-63486607D01*
X129217561Y-63146147D01*
X129217557Y-63146140D01*
X129216062Y-63143206D01*
X129004357Y-62817207D01*
X128759734Y-62515124D01*
X128484876Y-62240266D01*
X128182793Y-61995643D01*
X127856795Y-61783938D01*
X127853861Y-61782443D01*
X127853854Y-61782439D01*
X127783843Y-61746767D01*
X127732228Y-61698019D01*
X127715162Y-61629104D01*
X127738063Y-61561902D01*
X127793660Y-61517750D01*
X127841046Y-61508500D01*
X144000000Y-61508500D01*
X144000000Y-68000000D01*
G37*
%TD.AperFunction*%
%TD*%
M02*
