%TF.GenerationSoftware,KiCad,Pcbnew,(6.0.5)*%
%TF.CreationDate,2025-06-10T19:50:37+02:00*%
%TF.ProjectId,USB_Knob,5553425f-4b6e-46f6-922e-6b696361645f,rev?*%
%TF.SameCoordinates,Original*%
%TF.FileFunction,Legend,Top*%
%TF.FilePolarity,Positive*%
%FSLAX46Y46*%
G04 Gerber Fmt 4.6, Leading zero omitted, Abs format (unit mm)*
G04 Created by KiCad (PCBNEW (6.0.5)) date 2025-06-10 19:50:37*
%MOMM*%
%LPD*%
G01*
G04 APERTURE LIST*
G04 Aperture macros list*
%AMRoundRect*
0 Rectangle with rounded corners*
0 $1 Rounding radius*
0 $2 $3 $4 $5 $6 $7 $8 $9 X,Y pos of 4 corners*
0 Add a 4 corners polygon primitive as box body*
4,1,4,$2,$3,$4,$5,$6,$7,$8,$9,$2,$3,0*
0 Add four circle primitives for the rounded corners*
1,1,$1+$1,$2,$3*
1,1,$1+$1,$4,$5*
1,1,$1+$1,$6,$7*
1,1,$1+$1,$8,$9*
0 Add four rect primitives between the rounded corners*
20,1,$1+$1,$2,$3,$4,$5,0*
20,1,$1+$1,$4,$5,$6,$7,0*
20,1,$1+$1,$6,$7,$8,$9,0*
20,1,$1+$1,$8,$9,$2,$3,0*%
G04 Aperture macros list end*
%ADD10C,0.150000*%
%ADD11C,0.254000*%
%ADD12C,0.200000*%
%ADD13C,0.120000*%
%ADD14C,0.100000*%
%ADD15R,1.500000X0.650000*%
%ADD16RoundRect,0.250000X0.262500X0.450000X-0.262500X0.450000X-0.262500X-0.450000X0.262500X-0.450000X0*%
%ADD17RoundRect,0.250000X-0.250000X-0.475000X0.250000X-0.475000X0.250000X0.475000X-0.250000X0.475000X0*%
%ADD18R,1.400000X1.200000*%
%ADD19R,1.400000X2.100000*%
%ADD20R,1.700000X1.700000*%
%ADD21O,1.700000X1.700000*%
%ADD22RoundRect,0.250000X-0.450000X0.262500X-0.450000X-0.262500X0.450000X-0.262500X0.450000X0.262500X0*%
%ADD23RoundRect,0.250000X0.450000X-0.262500X0.450000X0.262500X-0.450000X0.262500X-0.450000X-0.262500X0*%
%ADD24C,6.400000*%
%ADD25RoundRect,0.250000X0.250000X0.475000X-0.250000X0.475000X-0.250000X-0.475000X0.250000X-0.475000X0*%
%ADD26RoundRect,0.243750X0.456250X-0.243750X0.456250X0.243750X-0.456250X0.243750X-0.456250X-0.243750X0*%
%ADD27C,0.650000*%
%ADD28R,0.600000X1.450000*%
%ADD29R,0.300000X1.450000*%
%ADD30O,1.000000X2.100000*%
%ADD31O,1.000000X1.600000*%
%ADD32RoundRect,0.250000X-0.262500X-0.450000X0.262500X-0.450000X0.262500X0.450000X-0.262500X0.450000X0*%
%ADD33RoundRect,0.250000X-0.650000X0.325000X-0.650000X-0.325000X0.650000X-0.325000X0.650000X0.325000X0*%
%ADD34RoundRect,0.100000X-0.637500X-0.100000X0.637500X-0.100000X0.637500X0.100000X-0.637500X0.100000X0*%
%ADD35RoundRect,0.250000X-0.475000X0.250000X-0.475000X-0.250000X0.475000X-0.250000X0.475000X0.250000X0*%
G04 APERTURE END LIST*
D10*
X124797619Y-74011904D02*
X123988095Y-74011904D01*
X123892857Y-74059523D01*
X123845238Y-74107142D01*
X123797619Y-74202380D01*
X123797619Y-74392857D01*
X123845238Y-74488095D01*
X123892857Y-74535714D01*
X123988095Y-74583333D01*
X124797619Y-74583333D01*
X123845238Y-75011904D02*
X123797619Y-75154761D01*
X123797619Y-75392857D01*
X123845238Y-75488095D01*
X123892857Y-75535714D01*
X123988095Y-75583333D01*
X124083333Y-75583333D01*
X124178571Y-75535714D01*
X124226190Y-75488095D01*
X124273809Y-75392857D01*
X124321428Y-75202380D01*
X124369047Y-75107142D01*
X124416666Y-75059523D01*
X124511904Y-75011904D01*
X124607142Y-75011904D01*
X124702380Y-75059523D01*
X124750000Y-75107142D01*
X124797619Y-75202380D01*
X124797619Y-75440476D01*
X124750000Y-75583333D01*
X124321428Y-76345238D02*
X124273809Y-76488095D01*
X124226190Y-76535714D01*
X124130952Y-76583333D01*
X123988095Y-76583333D01*
X123892857Y-76535714D01*
X123845238Y-76488095D01*
X123797619Y-76392857D01*
X123797619Y-76011904D01*
X124797619Y-76011904D01*
X124797619Y-76345238D01*
X124750000Y-76440476D01*
X124702380Y-76488095D01*
X124607142Y-76535714D01*
X124511904Y-76535714D01*
X124416666Y-76488095D01*
X124369047Y-76440476D01*
X124321428Y-76345238D01*
X124321428Y-76011904D01*
X123797619Y-77773809D02*
X124797619Y-77773809D01*
X123797619Y-78345238D02*
X124369047Y-77916666D01*
X124797619Y-78345238D02*
X124226190Y-77773809D01*
X124464285Y-78773809D02*
X123797619Y-78773809D01*
X124369047Y-78773809D02*
X124416666Y-78821428D01*
X124464285Y-78916666D01*
X124464285Y-79059523D01*
X124416666Y-79154761D01*
X124321428Y-79202380D01*
X123797619Y-79202380D01*
X123797619Y-79821428D02*
X123845238Y-79726190D01*
X123892857Y-79678571D01*
X123988095Y-79630952D01*
X124273809Y-79630952D01*
X124369047Y-79678571D01*
X124416666Y-79726190D01*
X124464285Y-79821428D01*
X124464285Y-79964285D01*
X124416666Y-80059523D01*
X124369047Y-80107142D01*
X124273809Y-80154761D01*
X123988095Y-80154761D01*
X123892857Y-80107142D01*
X123845238Y-80059523D01*
X123797619Y-79964285D01*
X123797619Y-79821428D01*
X123797619Y-80583333D02*
X124797619Y-80583333D01*
X124416666Y-80583333D02*
X124464285Y-80678571D01*
X124464285Y-80869047D01*
X124416666Y-80964285D01*
X124369047Y-81011904D01*
X124273809Y-81059523D01*
X123988095Y-81059523D01*
X123892857Y-81011904D01*
X123845238Y-80964285D01*
X123797619Y-80869047D01*
X123797619Y-80678571D01*
X123845238Y-80583333D01*
X124797619Y-82107142D02*
X123797619Y-82440476D01*
X124797619Y-82773809D01*
X124702380Y-83059523D02*
X124750000Y-83107142D01*
X124797619Y-83202380D01*
X124797619Y-83440476D01*
X124750000Y-83535714D01*
X124702380Y-83583333D01*
X124607142Y-83630952D01*
X124511904Y-83630952D01*
X124369047Y-83583333D01*
X123797619Y-83011904D01*
X123797619Y-83630952D01*
X123892857Y-84059523D02*
X123845238Y-84107142D01*
X123797619Y-84059523D01*
X123845238Y-84011904D01*
X123892857Y-84059523D01*
X123797619Y-84059523D01*
X124797619Y-84726190D02*
X124797619Y-84821428D01*
X124750000Y-84916666D01*
X124702380Y-84964285D01*
X124607142Y-85011904D01*
X124416666Y-85059523D01*
X124178571Y-85059523D01*
X123988095Y-85011904D01*
X123892857Y-84964285D01*
X123845238Y-84916666D01*
X123797619Y-84821428D01*
X123797619Y-84726190D01*
X123845238Y-84630952D01*
X123892857Y-84583333D01*
X123988095Y-84535714D01*
X124178571Y-84488095D01*
X124416666Y-84488095D01*
X124607142Y-84535714D01*
X124702380Y-84583333D01*
X124750000Y-84630952D01*
X124797619Y-84726190D01*
X124178571Y-86250000D02*
X124178571Y-87011904D01*
X124321428Y-88250000D02*
X124321428Y-88583333D01*
X123797619Y-88726190D02*
X123797619Y-88250000D01*
X124797619Y-88250000D01*
X124797619Y-88726190D01*
X123797619Y-89630952D02*
X123797619Y-89154761D01*
X124797619Y-89154761D01*
X123797619Y-90535714D02*
X124273809Y-90202380D01*
X123797619Y-89964285D02*
X124797619Y-89964285D01*
X124797619Y-90345238D01*
X124750000Y-90440476D01*
X124702380Y-90488095D01*
X124607142Y-90535714D01*
X124464285Y-90535714D01*
X124369047Y-90488095D01*
X124321428Y-90440476D01*
X124273809Y-90345238D01*
X124273809Y-89964285D01*
D11*
%TO.C,IC1*%
X148260238Y-104074523D02*
X148260238Y-102804523D01*
X149590714Y-103953571D02*
X149530238Y-104014047D01*
X149348809Y-104074523D01*
X149227857Y-104074523D01*
X149046428Y-104014047D01*
X148925476Y-103893095D01*
X148865000Y-103772142D01*
X148804523Y-103530238D01*
X148804523Y-103348809D01*
X148865000Y-103106904D01*
X148925476Y-102985952D01*
X149046428Y-102865000D01*
X149227857Y-102804523D01*
X149348809Y-102804523D01*
X149530238Y-102865000D01*
X149590714Y-102925476D01*
X150800238Y-104074523D02*
X150074523Y-104074523D01*
X150437380Y-104074523D02*
X150437380Y-102804523D01*
X150316428Y-102985952D01*
X150195476Y-103106904D01*
X150074523Y-103167380D01*
D10*
%TO.C,R6*%
X158833333Y-105852380D02*
X158500000Y-105376190D01*
X158261904Y-105852380D02*
X158261904Y-104852380D01*
X158642857Y-104852380D01*
X158738095Y-104900000D01*
X158785714Y-104947619D01*
X158833333Y-105042857D01*
X158833333Y-105185714D01*
X158785714Y-105280952D01*
X158738095Y-105328571D01*
X158642857Y-105376190D01*
X158261904Y-105376190D01*
X159690476Y-104852380D02*
X159500000Y-104852380D01*
X159404761Y-104900000D01*
X159357142Y-104947619D01*
X159261904Y-105090476D01*
X159214285Y-105280952D01*
X159214285Y-105661904D01*
X159261904Y-105757142D01*
X159309523Y-105804761D01*
X159404761Y-105852380D01*
X159595238Y-105852380D01*
X159690476Y-105804761D01*
X159738095Y-105757142D01*
X159785714Y-105661904D01*
X159785714Y-105423809D01*
X159738095Y-105328571D01*
X159690476Y-105280952D01*
X159595238Y-105233333D01*
X159404761Y-105233333D01*
X159309523Y-105280952D01*
X159261904Y-105328571D01*
X159214285Y-105423809D01*
%TO.C,C7*%
X140033333Y-103207142D02*
X139985714Y-103254761D01*
X139842857Y-103302380D01*
X139747619Y-103302380D01*
X139604761Y-103254761D01*
X139509523Y-103159523D01*
X139461904Y-103064285D01*
X139414285Y-102873809D01*
X139414285Y-102730952D01*
X139461904Y-102540476D01*
X139509523Y-102445238D01*
X139604761Y-102350000D01*
X139747619Y-102302380D01*
X139842857Y-102302380D01*
X139985714Y-102350000D01*
X140033333Y-102397619D01*
X140366666Y-102302380D02*
X141033333Y-102302380D01*
X140604761Y-103302380D01*
%TO.C,Y1*%
X158623809Y-87976190D02*
X158623809Y-88452380D01*
X158290476Y-87452380D02*
X158623809Y-87976190D01*
X158957142Y-87452380D01*
X159814285Y-88452380D02*
X159242857Y-88452380D01*
X159528571Y-88452380D02*
X159528571Y-87452380D01*
X159433333Y-87595238D01*
X159338095Y-87690476D01*
X159242857Y-87738095D01*
D11*
%TO.C,S1*%
X138014047Y-139267619D02*
X138074523Y-139086190D01*
X138074523Y-138783809D01*
X138014047Y-138662857D01*
X137953571Y-138602380D01*
X137832619Y-138541904D01*
X137711666Y-138541904D01*
X137590714Y-138602380D01*
X137530238Y-138662857D01*
X137469761Y-138783809D01*
X137409285Y-139025714D01*
X137348809Y-139146666D01*
X137288333Y-139207142D01*
X137167380Y-139267619D01*
X137046428Y-139267619D01*
X136925476Y-139207142D01*
X136865000Y-139146666D01*
X136804523Y-139025714D01*
X136804523Y-138723333D01*
X136865000Y-138541904D01*
X138074523Y-137332380D02*
X138074523Y-138058095D01*
X138074523Y-137695238D02*
X136804523Y-137695238D01*
X136985952Y-137816190D01*
X137106904Y-137937142D01*
X137167380Y-138058095D01*
%TO.C,S2*%
X150014047Y-139267619D02*
X150074523Y-139086190D01*
X150074523Y-138783809D01*
X150014047Y-138662857D01*
X149953571Y-138602380D01*
X149832619Y-138541904D01*
X149711666Y-138541904D01*
X149590714Y-138602380D01*
X149530238Y-138662857D01*
X149469761Y-138783809D01*
X149409285Y-139025714D01*
X149348809Y-139146666D01*
X149288333Y-139207142D01*
X149167380Y-139267619D01*
X149046428Y-139267619D01*
X148925476Y-139207142D01*
X148865000Y-139146666D01*
X148804523Y-139025714D01*
X148804523Y-138723333D01*
X148865000Y-138541904D01*
X148925476Y-138058095D02*
X148865000Y-137997619D01*
X148804523Y-137876666D01*
X148804523Y-137574285D01*
X148865000Y-137453333D01*
X148925476Y-137392857D01*
X149046428Y-137332380D01*
X149167380Y-137332380D01*
X149348809Y-137392857D01*
X150074523Y-138118571D01*
X150074523Y-137332380D01*
D10*
%TO.C,J3*%
X151166666Y-79202380D02*
X151166666Y-79916666D01*
X151119047Y-80059523D01*
X151023809Y-80154761D01*
X150880952Y-80202380D01*
X150785714Y-80202380D01*
X151547619Y-79202380D02*
X152166666Y-79202380D01*
X151833333Y-79583333D01*
X151976190Y-79583333D01*
X152071428Y-79630952D01*
X152119047Y-79678571D01*
X152166666Y-79773809D01*
X152166666Y-80011904D01*
X152119047Y-80107142D01*
X152071428Y-80154761D01*
X151976190Y-80202380D01*
X151690476Y-80202380D01*
X151595238Y-80154761D01*
X151547619Y-80107142D01*
%TO.C,R2*%
X145583333Y-73952380D02*
X145250000Y-73476190D01*
X145011904Y-73952380D02*
X145011904Y-72952380D01*
X145392857Y-72952380D01*
X145488095Y-73000000D01*
X145535714Y-73047619D01*
X145583333Y-73142857D01*
X145583333Y-73285714D01*
X145535714Y-73380952D01*
X145488095Y-73428571D01*
X145392857Y-73476190D01*
X145011904Y-73476190D01*
X145964285Y-73047619D02*
X146011904Y-73000000D01*
X146107142Y-72952380D01*
X146345238Y-72952380D01*
X146440476Y-73000000D01*
X146488095Y-73047619D01*
X146535714Y-73142857D01*
X146535714Y-73238095D01*
X146488095Y-73380952D01*
X145916666Y-73952380D01*
X146535714Y-73952380D01*
%TO.C,C6*%
X140033333Y-101157142D02*
X139985714Y-101204761D01*
X139842857Y-101252380D01*
X139747619Y-101252380D01*
X139604761Y-101204761D01*
X139509523Y-101109523D01*
X139461904Y-101014285D01*
X139414285Y-100823809D01*
X139414285Y-100680952D01*
X139461904Y-100490476D01*
X139509523Y-100395238D01*
X139604761Y-100300000D01*
X139747619Y-100252380D01*
X139842857Y-100252380D01*
X139985714Y-100300000D01*
X140033333Y-100347619D01*
X140890476Y-100252380D02*
X140700000Y-100252380D01*
X140604761Y-100300000D01*
X140557142Y-100347619D01*
X140461904Y-100490476D01*
X140414285Y-100680952D01*
X140414285Y-101061904D01*
X140461904Y-101157142D01*
X140509523Y-101204761D01*
X140604761Y-101252380D01*
X140795238Y-101252380D01*
X140890476Y-101204761D01*
X140938095Y-101157142D01*
X140985714Y-101061904D01*
X140985714Y-100823809D01*
X140938095Y-100728571D01*
X140890476Y-100680952D01*
X140795238Y-100633333D01*
X140604761Y-100633333D01*
X140509523Y-100680952D01*
X140461904Y-100728571D01*
X140414285Y-100823809D01*
%TO.C,R11*%
X166307142Y-75702380D02*
X165973809Y-75226190D01*
X165735714Y-75702380D02*
X165735714Y-74702380D01*
X166116666Y-74702380D01*
X166211904Y-74750000D01*
X166259523Y-74797619D01*
X166307142Y-74892857D01*
X166307142Y-75035714D01*
X166259523Y-75130952D01*
X166211904Y-75178571D01*
X166116666Y-75226190D01*
X165735714Y-75226190D01*
X167259523Y-75702380D02*
X166688095Y-75702380D01*
X166973809Y-75702380D02*
X166973809Y-74702380D01*
X166878571Y-74845238D01*
X166783333Y-74940476D01*
X166688095Y-74988095D01*
X168211904Y-75702380D02*
X167640476Y-75702380D01*
X167926190Y-75702380D02*
X167926190Y-74702380D01*
X167830952Y-74845238D01*
X167735714Y-74940476D01*
X167640476Y-74988095D01*
%TO.C,J2*%
X170301666Y-121682380D02*
X170301666Y-122396666D01*
X170254047Y-122539523D01*
X170158809Y-122634761D01*
X170015952Y-122682380D01*
X169920714Y-122682380D01*
X170730238Y-121777619D02*
X170777857Y-121730000D01*
X170873095Y-121682380D01*
X171111190Y-121682380D01*
X171206428Y-121730000D01*
X171254047Y-121777619D01*
X171301666Y-121872857D01*
X171301666Y-121968095D01*
X171254047Y-122110952D01*
X170682619Y-122682380D01*
X171301666Y-122682380D01*
%TO.C,H2*%
X167238095Y-65452380D02*
X167238095Y-64452380D01*
X167238095Y-64928571D02*
X167809523Y-64928571D01*
X167809523Y-65452380D02*
X167809523Y-64452380D01*
X168238095Y-64547619D02*
X168285714Y-64500000D01*
X168380952Y-64452380D01*
X168619047Y-64452380D01*
X168714285Y-64500000D01*
X168761904Y-64547619D01*
X168809523Y-64642857D01*
X168809523Y-64738095D01*
X168761904Y-64880952D01*
X168190476Y-65452380D01*
X168809523Y-65452380D01*
%TO.C,R10*%
X164357142Y-80702380D02*
X164023809Y-80226190D01*
X163785714Y-80702380D02*
X163785714Y-79702380D01*
X164166666Y-79702380D01*
X164261904Y-79750000D01*
X164309523Y-79797619D01*
X164357142Y-79892857D01*
X164357142Y-80035714D01*
X164309523Y-80130952D01*
X164261904Y-80178571D01*
X164166666Y-80226190D01*
X163785714Y-80226190D01*
X165309523Y-80702380D02*
X164738095Y-80702380D01*
X165023809Y-80702380D02*
X165023809Y-79702380D01*
X164928571Y-79845238D01*
X164833333Y-79940476D01*
X164738095Y-79988095D01*
X165928571Y-79702380D02*
X166023809Y-79702380D01*
X166119047Y-79750000D01*
X166166666Y-79797619D01*
X166214285Y-79892857D01*
X166261904Y-80083333D01*
X166261904Y-80321428D01*
X166214285Y-80511904D01*
X166166666Y-80607142D01*
X166119047Y-80654761D01*
X166023809Y-80702380D01*
X165928571Y-80702380D01*
X165833333Y-80654761D01*
X165785714Y-80607142D01*
X165738095Y-80511904D01*
X165690476Y-80321428D01*
X165690476Y-80083333D01*
X165738095Y-79892857D01*
X165785714Y-79797619D01*
X165833333Y-79750000D01*
X165928571Y-79702380D01*
%TO.C,H1*%
X130238095Y-65452380D02*
X130238095Y-64452380D01*
X130238095Y-64928571D02*
X130809523Y-64928571D01*
X130809523Y-65452380D02*
X130809523Y-64452380D01*
X131809523Y-65452380D02*
X131238095Y-65452380D01*
X131523809Y-65452380D02*
X131523809Y-64452380D01*
X131428571Y-64595238D01*
X131333333Y-64690476D01*
X131238095Y-64738095D01*
%TO.C,H4*%
X167238095Y-142452380D02*
X167238095Y-141452380D01*
X167238095Y-141928571D02*
X167809523Y-141928571D01*
X167809523Y-142452380D02*
X167809523Y-141452380D01*
X168714285Y-141785714D02*
X168714285Y-142452380D01*
X168476190Y-141404761D02*
X168238095Y-142119047D01*
X168857142Y-142119047D01*
%TO.C,C3*%
X152833333Y-87857142D02*
X152785714Y-87904761D01*
X152642857Y-87952380D01*
X152547619Y-87952380D01*
X152404761Y-87904761D01*
X152309523Y-87809523D01*
X152261904Y-87714285D01*
X152214285Y-87523809D01*
X152214285Y-87380952D01*
X152261904Y-87190476D01*
X152309523Y-87095238D01*
X152404761Y-87000000D01*
X152547619Y-86952380D01*
X152642857Y-86952380D01*
X152785714Y-87000000D01*
X152833333Y-87047619D01*
X153166666Y-86952380D02*
X153785714Y-86952380D01*
X153452380Y-87333333D01*
X153595238Y-87333333D01*
X153690476Y-87380952D01*
X153738095Y-87428571D01*
X153785714Y-87523809D01*
X153785714Y-87761904D01*
X153738095Y-87857142D01*
X153690476Y-87904761D01*
X153595238Y-87952380D01*
X153309523Y-87952380D01*
X153214285Y-87904761D01*
X153166666Y-87857142D01*
%TO.C,R8*%
X156333333Y-80702380D02*
X156000000Y-80226190D01*
X155761904Y-80702380D02*
X155761904Y-79702380D01*
X156142857Y-79702380D01*
X156238095Y-79750000D01*
X156285714Y-79797619D01*
X156333333Y-79892857D01*
X156333333Y-80035714D01*
X156285714Y-80130952D01*
X156238095Y-80178571D01*
X156142857Y-80226190D01*
X155761904Y-80226190D01*
X156904761Y-80130952D02*
X156809523Y-80083333D01*
X156761904Y-80035714D01*
X156714285Y-79940476D01*
X156714285Y-79892857D01*
X156761904Y-79797619D01*
X156809523Y-79750000D01*
X156904761Y-79702380D01*
X157095238Y-79702380D01*
X157190476Y-79750000D01*
X157238095Y-79797619D01*
X157285714Y-79892857D01*
X157285714Y-79940476D01*
X157238095Y-80035714D01*
X157190476Y-80083333D01*
X157095238Y-80130952D01*
X156904761Y-80130952D01*
X156809523Y-80178571D01*
X156761904Y-80226190D01*
X156714285Y-80321428D01*
X156714285Y-80511904D01*
X156761904Y-80607142D01*
X156809523Y-80654761D01*
X156904761Y-80702380D01*
X157095238Y-80702380D01*
X157190476Y-80654761D01*
X157238095Y-80607142D01*
X157285714Y-80511904D01*
X157285714Y-80321428D01*
X157238095Y-80226190D01*
X157190476Y-80178571D01*
X157095238Y-80130952D01*
%TO.C,R7*%
X158183333Y-101952380D02*
X157850000Y-101476190D01*
X157611904Y-101952380D02*
X157611904Y-100952380D01*
X157992857Y-100952380D01*
X158088095Y-101000000D01*
X158135714Y-101047619D01*
X158183333Y-101142857D01*
X158183333Y-101285714D01*
X158135714Y-101380952D01*
X158088095Y-101428571D01*
X157992857Y-101476190D01*
X157611904Y-101476190D01*
X158516666Y-100952380D02*
X159183333Y-100952380D01*
X158754761Y-101952380D01*
%TO.C,D2*%
X164261904Y-74202380D02*
X164261904Y-73202380D01*
X164500000Y-73202380D01*
X164642857Y-73250000D01*
X164738095Y-73345238D01*
X164785714Y-73440476D01*
X164833333Y-73630952D01*
X164833333Y-73773809D01*
X164785714Y-73964285D01*
X164738095Y-74059523D01*
X164642857Y-74154761D01*
X164500000Y-74202380D01*
X164261904Y-74202380D01*
X165214285Y-73297619D02*
X165261904Y-73250000D01*
X165357142Y-73202380D01*
X165595238Y-73202380D01*
X165690476Y-73250000D01*
X165738095Y-73297619D01*
X165785714Y-73392857D01*
X165785714Y-73488095D01*
X165738095Y-73630952D01*
X165166666Y-74202380D01*
X165785714Y-74202380D01*
%TO.C,D3*%
X172761904Y-74202380D02*
X172761904Y-73202380D01*
X173000000Y-73202380D01*
X173142857Y-73250000D01*
X173238095Y-73345238D01*
X173285714Y-73440476D01*
X173333333Y-73630952D01*
X173333333Y-73773809D01*
X173285714Y-73964285D01*
X173238095Y-74059523D01*
X173142857Y-74154761D01*
X173000000Y-74202380D01*
X172761904Y-74202380D01*
X173666666Y-73202380D02*
X174285714Y-73202380D01*
X173952380Y-73583333D01*
X174095238Y-73583333D01*
X174190476Y-73630952D01*
X174238095Y-73678571D01*
X174285714Y-73773809D01*
X174285714Y-74011904D01*
X174238095Y-74107142D01*
X174190476Y-74154761D01*
X174095238Y-74202380D01*
X173809523Y-74202380D01*
X173714285Y-74154761D01*
X173666666Y-74107142D01*
%TO.C,J1*%
X149166666Y-70452380D02*
X149166666Y-71166666D01*
X149119047Y-71309523D01*
X149023809Y-71404761D01*
X148880952Y-71452380D01*
X148785714Y-71452380D01*
X150166666Y-71452380D02*
X149595238Y-71452380D01*
X149880952Y-71452380D02*
X149880952Y-70452380D01*
X149785714Y-70595238D01*
X149690476Y-70690476D01*
X149595238Y-70738095D01*
%TO.C,R12*%
X143107142Y-82452380D02*
X142773809Y-81976190D01*
X142535714Y-82452380D02*
X142535714Y-81452380D01*
X142916666Y-81452380D01*
X143011904Y-81500000D01*
X143059523Y-81547619D01*
X143107142Y-81642857D01*
X143107142Y-81785714D01*
X143059523Y-81880952D01*
X143011904Y-81928571D01*
X142916666Y-81976190D01*
X142535714Y-81976190D01*
X144059523Y-82452380D02*
X143488095Y-82452380D01*
X143773809Y-82452380D02*
X143773809Y-81452380D01*
X143678571Y-81595238D01*
X143583333Y-81690476D01*
X143488095Y-81738095D01*
X144440476Y-81547619D02*
X144488095Y-81500000D01*
X144583333Y-81452380D01*
X144821428Y-81452380D01*
X144916666Y-81500000D01*
X144964285Y-81547619D01*
X145011904Y-81642857D01*
X145011904Y-81738095D01*
X144964285Y-81880952D01*
X144392857Y-82452380D01*
X145011904Y-82452380D01*
%TO.C,R4*%
X143333333Y-130952380D02*
X143000000Y-130476190D01*
X142761904Y-130952380D02*
X142761904Y-129952380D01*
X143142857Y-129952380D01*
X143238095Y-130000000D01*
X143285714Y-130047619D01*
X143333333Y-130142857D01*
X143333333Y-130285714D01*
X143285714Y-130380952D01*
X143238095Y-130428571D01*
X143142857Y-130476190D01*
X142761904Y-130476190D01*
X144190476Y-130285714D02*
X144190476Y-130952380D01*
X143952380Y-129904761D02*
X143714285Y-130619047D01*
X144333333Y-130619047D01*
%TO.C,R1*%
X152583333Y-73952380D02*
X152250000Y-73476190D01*
X152011904Y-73952380D02*
X152011904Y-72952380D01*
X152392857Y-72952380D01*
X152488095Y-73000000D01*
X152535714Y-73047619D01*
X152583333Y-73142857D01*
X152583333Y-73285714D01*
X152535714Y-73380952D01*
X152488095Y-73428571D01*
X152392857Y-73476190D01*
X152011904Y-73476190D01*
X153535714Y-73952380D02*
X152964285Y-73952380D01*
X153250000Y-73952380D02*
X153250000Y-72952380D01*
X153154761Y-73095238D01*
X153059523Y-73190476D01*
X152964285Y-73238095D01*
%TO.C,R5*%
X155333333Y-130952380D02*
X155000000Y-130476190D01*
X154761904Y-130952380D02*
X154761904Y-129952380D01*
X155142857Y-129952380D01*
X155238095Y-130000000D01*
X155285714Y-130047619D01*
X155333333Y-130142857D01*
X155333333Y-130285714D01*
X155285714Y-130380952D01*
X155238095Y-130428571D01*
X155142857Y-130476190D01*
X154761904Y-130476190D01*
X156238095Y-129952380D02*
X155761904Y-129952380D01*
X155714285Y-130428571D01*
X155761904Y-130380952D01*
X155857142Y-130333333D01*
X156095238Y-130333333D01*
X156190476Y-130380952D01*
X156238095Y-130428571D01*
X156285714Y-130523809D01*
X156285714Y-130761904D01*
X156238095Y-130857142D01*
X156190476Y-130904761D01*
X156095238Y-130952380D01*
X155857142Y-130952380D01*
X155761904Y-130904761D01*
X155714285Y-130857142D01*
%TO.C,H3*%
X130238095Y-142452380D02*
X130238095Y-141452380D01*
X130238095Y-141928571D02*
X130809523Y-141928571D01*
X130809523Y-142452380D02*
X130809523Y-141452380D01*
X131190476Y-141452380D02*
X131809523Y-141452380D01*
X131476190Y-141833333D01*
X131619047Y-141833333D01*
X131714285Y-141880952D01*
X131761904Y-141928571D01*
X131809523Y-142023809D01*
X131809523Y-142261904D01*
X131761904Y-142357142D01*
X131714285Y-142404761D01*
X131619047Y-142452380D01*
X131333333Y-142452380D01*
X131238095Y-142404761D01*
X131190476Y-142357142D01*
%TO.C,C1*%
X138583333Y-66357142D02*
X138535714Y-66404761D01*
X138392857Y-66452380D01*
X138297619Y-66452380D01*
X138154761Y-66404761D01*
X138059523Y-66309523D01*
X138011904Y-66214285D01*
X137964285Y-66023809D01*
X137964285Y-65880952D01*
X138011904Y-65690476D01*
X138059523Y-65595238D01*
X138154761Y-65500000D01*
X138297619Y-65452380D01*
X138392857Y-65452380D01*
X138535714Y-65500000D01*
X138583333Y-65547619D01*
X139535714Y-66452380D02*
X138964285Y-66452380D01*
X139250000Y-66452380D02*
X139250000Y-65452380D01*
X139154761Y-65595238D01*
X139059523Y-65690476D01*
X138964285Y-65738095D01*
%TO.C,C5*%
X158933333Y-81427142D02*
X158885714Y-81474761D01*
X158742857Y-81522380D01*
X158647619Y-81522380D01*
X158504761Y-81474761D01*
X158409523Y-81379523D01*
X158361904Y-81284285D01*
X158314285Y-81093809D01*
X158314285Y-80950952D01*
X158361904Y-80760476D01*
X158409523Y-80665238D01*
X158504761Y-80570000D01*
X158647619Y-80522380D01*
X158742857Y-80522380D01*
X158885714Y-80570000D01*
X158933333Y-80617619D01*
X159838095Y-80522380D02*
X159361904Y-80522380D01*
X159314285Y-80998571D01*
X159361904Y-80950952D01*
X159457142Y-80903333D01*
X159695238Y-80903333D01*
X159790476Y-80950952D01*
X159838095Y-80998571D01*
X159885714Y-81093809D01*
X159885714Y-81331904D01*
X159838095Y-81427142D01*
X159790476Y-81474761D01*
X159695238Y-81522380D01*
X159457142Y-81522380D01*
X159361904Y-81474761D01*
X159314285Y-81427142D01*
%TO.C,D1*%
X155761904Y-74202380D02*
X155761904Y-73202380D01*
X156000000Y-73202380D01*
X156142857Y-73250000D01*
X156238095Y-73345238D01*
X156285714Y-73440476D01*
X156333333Y-73630952D01*
X156333333Y-73773809D01*
X156285714Y-73964285D01*
X156238095Y-74059523D01*
X156142857Y-74154761D01*
X156000000Y-74202380D01*
X155761904Y-74202380D01*
X157285714Y-74202380D02*
X156714285Y-74202380D01*
X157000000Y-74202380D02*
X157000000Y-73202380D01*
X156904761Y-73345238D01*
X156809523Y-73440476D01*
X156714285Y-73488095D01*
%TO.C,R3*%
X132333333Y-128802380D02*
X132000000Y-128326190D01*
X131761904Y-128802380D02*
X131761904Y-127802380D01*
X132142857Y-127802380D01*
X132238095Y-127850000D01*
X132285714Y-127897619D01*
X132333333Y-127992857D01*
X132333333Y-128135714D01*
X132285714Y-128230952D01*
X132238095Y-128278571D01*
X132142857Y-128326190D01*
X131761904Y-128326190D01*
X132666666Y-127802380D02*
X133285714Y-127802380D01*
X132952380Y-128183333D01*
X133095238Y-128183333D01*
X133190476Y-128230952D01*
X133238095Y-128278571D01*
X133285714Y-128373809D01*
X133285714Y-128611904D01*
X133238095Y-128707142D01*
X133190476Y-128754761D01*
X133095238Y-128802380D01*
X132809523Y-128802380D01*
X132714285Y-128754761D01*
X132666666Y-128707142D01*
%TO.C,U1*%
X141488095Y-83752380D02*
X141488095Y-84561904D01*
X141535714Y-84657142D01*
X141583333Y-84704761D01*
X141678571Y-84752380D01*
X141869047Y-84752380D01*
X141964285Y-84704761D01*
X142011904Y-84657142D01*
X142059523Y-84561904D01*
X142059523Y-83752380D01*
X143059523Y-84752380D02*
X142488095Y-84752380D01*
X142773809Y-84752380D02*
X142773809Y-83752380D01*
X142678571Y-83895238D01*
X142583333Y-83990476D01*
X142488095Y-84038095D01*
%TO.C,R9*%
X158183333Y-103902380D02*
X157850000Y-103426190D01*
X157611904Y-103902380D02*
X157611904Y-102902380D01*
X157992857Y-102902380D01*
X158088095Y-102950000D01*
X158135714Y-102997619D01*
X158183333Y-103092857D01*
X158183333Y-103235714D01*
X158135714Y-103330952D01*
X158088095Y-103378571D01*
X157992857Y-103426190D01*
X157611904Y-103426190D01*
X158659523Y-103902380D02*
X158850000Y-103902380D01*
X158945238Y-103854761D01*
X158992857Y-103807142D01*
X159088095Y-103664285D01*
X159135714Y-103473809D01*
X159135714Y-103092857D01*
X159088095Y-102997619D01*
X159040476Y-102950000D01*
X158945238Y-102902380D01*
X158754761Y-102902380D01*
X158659523Y-102950000D01*
X158611904Y-102997619D01*
X158564285Y-103092857D01*
X158564285Y-103330952D01*
X158611904Y-103426190D01*
X158659523Y-103473809D01*
X158754761Y-103521428D01*
X158945238Y-103521428D01*
X159040476Y-103473809D01*
X159088095Y-103426190D01*
X159135714Y-103330952D01*
D11*
%TO.C,S3*%
X162014047Y-139267619D02*
X162074523Y-139086190D01*
X162074523Y-138783809D01*
X162014047Y-138662857D01*
X161953571Y-138602380D01*
X161832619Y-138541904D01*
X161711666Y-138541904D01*
X161590714Y-138602380D01*
X161530238Y-138662857D01*
X161469761Y-138783809D01*
X161409285Y-139025714D01*
X161348809Y-139146666D01*
X161288333Y-139207142D01*
X161167380Y-139267619D01*
X161046428Y-139267619D01*
X160925476Y-139207142D01*
X160865000Y-139146666D01*
X160804523Y-139025714D01*
X160804523Y-138723333D01*
X160865000Y-138541904D01*
X160804523Y-138118571D02*
X160804523Y-137332380D01*
X161288333Y-137755714D01*
X161288333Y-137574285D01*
X161348809Y-137453333D01*
X161409285Y-137392857D01*
X161530238Y-137332380D01*
X161832619Y-137332380D01*
X161953571Y-137392857D01*
X162014047Y-137453333D01*
X162074523Y-137574285D01*
X162074523Y-137937142D01*
X162014047Y-138058095D01*
X161953571Y-138118571D01*
D10*
%TO.C,C4*%
X155683333Y-88357142D02*
X155635714Y-88404761D01*
X155492857Y-88452380D01*
X155397619Y-88452380D01*
X155254761Y-88404761D01*
X155159523Y-88309523D01*
X155111904Y-88214285D01*
X155064285Y-88023809D01*
X155064285Y-87880952D01*
X155111904Y-87690476D01*
X155159523Y-87595238D01*
X155254761Y-87500000D01*
X155397619Y-87452380D01*
X155492857Y-87452380D01*
X155635714Y-87500000D01*
X155683333Y-87547619D01*
X156540476Y-87785714D02*
X156540476Y-88452380D01*
X156302380Y-87404761D02*
X156064285Y-88119047D01*
X156683333Y-88119047D01*
%TO.C,C2*%
X153083333Y-82357142D02*
X153035714Y-82404761D01*
X152892857Y-82452380D01*
X152797619Y-82452380D01*
X152654761Y-82404761D01*
X152559523Y-82309523D01*
X152511904Y-82214285D01*
X152464285Y-82023809D01*
X152464285Y-81880952D01*
X152511904Y-81690476D01*
X152559523Y-81595238D01*
X152654761Y-81500000D01*
X152797619Y-81452380D01*
X152892857Y-81452380D01*
X153035714Y-81500000D01*
X153083333Y-81547619D01*
X153464285Y-81547619D02*
X153511904Y-81500000D01*
X153607142Y-81452380D01*
X153845238Y-81452380D01*
X153940476Y-81500000D01*
X153988095Y-81547619D01*
X154035714Y-81642857D01*
X154035714Y-81738095D01*
X153988095Y-81880952D01*
X153416666Y-82452380D01*
X154035714Y-82452380D01*
D12*
%TO.C,IC1*%
X151100000Y-101050000D02*
X151100000Y-105950000D01*
X147900000Y-105950000D02*
X147900000Y-101050000D01*
X147900000Y-101050000D02*
X151100000Y-101050000D01*
X146050000Y-100920000D02*
X147550000Y-100920000D01*
X151100000Y-105950000D02*
X147900000Y-105950000D01*
D13*
%TO.C,R6*%
X155977064Y-106135000D02*
X155522936Y-106135000D01*
X155977064Y-104665000D02*
X155522936Y-104665000D01*
%TO.C,C7*%
X143238748Y-102115000D02*
X143761252Y-102115000D01*
X143238748Y-103585000D02*
X143761252Y-103585000D01*
%TO.C,Y1*%
X157100000Y-87150000D02*
X161100000Y-87150000D01*
X157100000Y-83850000D02*
X157100000Y-87150000D01*
D14*
%TO.C,S1*%
X134500000Y-135000000D02*
X140500000Y-135000000D01*
D12*
X135200000Y-144100000D02*
X135200000Y-144100000D01*
X135400000Y-144100000D02*
X135400000Y-144100000D01*
D14*
X140500000Y-141000000D02*
X134500000Y-141000000D01*
X134500000Y-141000000D02*
X134500000Y-135000000D01*
X140500000Y-135000000D02*
X140500000Y-141000000D01*
D12*
X135400000Y-144100000D02*
G75*
G03*
X135200000Y-144100000I-100000J0D01*
G01*
X135200000Y-144100000D02*
G75*
G03*
X135400000Y-144100000I100000J0D01*
G01*
%TO.C,S2*%
X147400000Y-144100000D02*
X147400000Y-144100000D01*
D14*
X146500000Y-135000000D02*
X152500000Y-135000000D01*
X152500000Y-135000000D02*
X152500000Y-141000000D01*
D12*
X147200000Y-144100000D02*
X147200000Y-144100000D01*
D14*
X152500000Y-141000000D02*
X146500000Y-141000000D01*
X146500000Y-141000000D02*
X146500000Y-135000000D01*
D12*
X147200000Y-144100000D02*
G75*
G03*
X147400000Y-144100000I100000J0D01*
G01*
X147400000Y-144100000D02*
G75*
G03*
X147200000Y-144100000I-100000J0D01*
G01*
D13*
%TO.C,J3*%
X150895000Y-81795000D02*
X149625000Y-81795000D01*
X145525000Y-80485000D02*
X139525000Y-80485000D01*
X145525000Y-80905000D02*
X139525000Y-80905000D01*
X145525000Y-80365000D02*
X139525000Y-80365000D01*
X148515000Y-80145000D02*
X148185000Y-80145000D01*
X150895000Y-80525000D02*
X150895000Y-81795000D01*
X145525000Y-81855000D02*
X148185000Y-81855000D01*
X145525000Y-76655000D02*
X145525000Y-81855000D01*
X139525000Y-78365000D02*
X139525000Y-77605000D01*
X139525000Y-80905000D02*
X139525000Y-80145000D01*
X148582071Y-78365000D02*
X148185000Y-78365000D01*
X139525000Y-80145000D02*
X145525000Y-80145000D01*
X148185000Y-79255000D02*
X145525000Y-79255000D01*
X139525000Y-77605000D02*
X145525000Y-77605000D01*
X145525000Y-78365000D02*
X139525000Y-78365000D01*
X148515000Y-80905000D02*
X148185000Y-80905000D01*
X148185000Y-76655000D02*
X145525000Y-76655000D01*
X148185000Y-81855000D02*
X148185000Y-76655000D01*
X145525000Y-80845000D02*
X139525000Y-80845000D01*
X145525000Y-80605000D02*
X139525000Y-80605000D01*
X145525000Y-80245000D02*
X139525000Y-80245000D01*
X148582071Y-77605000D02*
X148185000Y-77605000D01*
X145525000Y-80725000D02*
X139525000Y-80725000D01*
%TO.C,R2*%
X148485000Y-73272936D02*
X148485000Y-73727064D01*
X147015000Y-73272936D02*
X147015000Y-73727064D01*
%TO.C,C6*%
X143238748Y-101535000D02*
X143761252Y-101535000D01*
X143238748Y-100065000D02*
X143761252Y-100065000D01*
%TO.C,R11*%
X167685000Y-77977064D02*
X167685000Y-77522936D01*
X166215000Y-77977064D02*
X166215000Y-77522936D01*
%TO.C,J2*%
X170350000Y-123170000D02*
X167690000Y-123170000D01*
X170350000Y-124120000D02*
X176350000Y-124120000D01*
X170350000Y-124300000D02*
X176350000Y-124300000D01*
X170350000Y-124780000D02*
X176350000Y-124780000D01*
X164980000Y-124500000D02*
X164980000Y-123230000D01*
X170350000Y-126660000D02*
X176350000Y-126660000D01*
X167292929Y-126660000D02*
X167690000Y-126660000D01*
X176350000Y-129200000D02*
X176350000Y-129960000D01*
X167690000Y-130910000D02*
X170350000Y-130910000D01*
X176350000Y-124120000D02*
X176350000Y-124880000D01*
X170350000Y-124660000D02*
X176350000Y-124660000D01*
X164980000Y-123230000D02*
X166250000Y-123230000D01*
X167690000Y-123170000D02*
X167690000Y-130910000D01*
X176350000Y-127420000D02*
X170350000Y-127420000D01*
X170350000Y-130910000D02*
X170350000Y-123170000D01*
X176350000Y-126660000D02*
X176350000Y-127420000D01*
X176350000Y-129960000D02*
X170350000Y-129960000D01*
X167292929Y-129200000D02*
X167690000Y-129200000D01*
X167690000Y-128310000D02*
X170350000Y-128310000D01*
X170350000Y-124180000D02*
X176350000Y-124180000D01*
X167292929Y-129960000D02*
X167690000Y-129960000D01*
X167292929Y-127420000D02*
X167690000Y-127420000D01*
X170350000Y-124420000D02*
X176350000Y-124420000D01*
X170350000Y-129200000D02*
X176350000Y-129200000D01*
X167360000Y-124120000D02*
X167690000Y-124120000D01*
X170350000Y-124540000D02*
X176350000Y-124540000D01*
X167690000Y-125770000D02*
X170350000Y-125770000D01*
X176350000Y-124880000D02*
X170350000Y-124880000D01*
X167360000Y-124880000D02*
X167690000Y-124880000D01*
%TO.C,R10*%
X164265000Y-77977064D02*
X164265000Y-77522936D01*
X165735000Y-77977064D02*
X165735000Y-77522936D01*
%TO.C,C3*%
X152011252Y-86485000D02*
X151488748Y-86485000D01*
X152011252Y-85015000D02*
X151488748Y-85015000D01*
%TO.C,R8*%
X157235000Y-77977064D02*
X157235000Y-77522936D01*
X155765000Y-77977064D02*
X155765000Y-77522936D01*
%TO.C,R7*%
X155977064Y-100765000D02*
X155522936Y-100765000D01*
X155977064Y-102235000D02*
X155522936Y-102235000D01*
%TO.C,D2*%
X164040000Y-72935000D02*
X165960000Y-72935000D01*
X165960000Y-72935000D02*
X165960000Y-70250000D01*
X164040000Y-70250000D02*
X164040000Y-72935000D01*
%TO.C,D3*%
X172540000Y-70250000D02*
X172540000Y-72935000D01*
X174460000Y-72935000D02*
X174460000Y-70250000D01*
X172540000Y-72935000D02*
X174460000Y-72935000D01*
%TO.C,J1*%
X154200000Y-63000000D02*
X154200000Y-61100000D01*
X144800000Y-66900000D02*
X144800000Y-64900000D01*
X154200000Y-61100000D02*
X144800000Y-61100000D01*
X144800000Y-63000000D02*
X144800000Y-61100000D01*
X154200000Y-66900000D02*
X154200000Y-64900000D01*
%TO.C,R12*%
X146260436Y-82965000D02*
X146714564Y-82965000D01*
X146260436Y-84435000D02*
X146714564Y-84435000D01*
%TO.C,R4*%
X142765000Y-133227064D02*
X142765000Y-132772936D01*
X144235000Y-133227064D02*
X144235000Y-132772936D01*
%TO.C,R1*%
X151485000Y-73272936D02*
X151485000Y-73727064D01*
X150015000Y-73272936D02*
X150015000Y-73727064D01*
%TO.C,R5*%
X154765000Y-133227064D02*
X154765000Y-132772936D01*
X156235000Y-133227064D02*
X156235000Y-132772936D01*
%TO.C,C1*%
X137840000Y-68288748D02*
X137840000Y-69711252D01*
X139660000Y-68288748D02*
X139660000Y-69711252D01*
%TO.C,C5*%
X158838748Y-82015000D02*
X159361252Y-82015000D01*
X158838748Y-83485000D02*
X159361252Y-83485000D01*
%TO.C,D1*%
X157460000Y-72935000D02*
X157460000Y-70250000D01*
X155540000Y-70250000D02*
X155540000Y-72935000D01*
X155540000Y-72935000D02*
X157460000Y-72935000D01*
%TO.C,R3*%
X132272936Y-130735000D02*
X132727064Y-130735000D01*
X132272936Y-129265000D02*
X132727064Y-129265000D01*
%TO.C,U1*%
X145000000Y-85115000D02*
X147200000Y-85115000D01*
X145000000Y-85115000D02*
X141400000Y-85115000D01*
X145000000Y-91885000D02*
X147200000Y-91885000D01*
X145000000Y-91885000D02*
X142800000Y-91885000D01*
%TO.C,R9*%
X155977064Y-104185000D02*
X155522936Y-104185000D01*
X155977064Y-102715000D02*
X155522936Y-102715000D01*
D14*
%TO.C,S3*%
X158500000Y-141000000D02*
X158500000Y-135000000D01*
X158500000Y-135000000D02*
X164500000Y-135000000D01*
D12*
X159200000Y-144100000D02*
X159200000Y-144100000D01*
D14*
X164500000Y-135000000D02*
X164500000Y-141000000D01*
D12*
X159400000Y-144100000D02*
X159400000Y-144100000D01*
D14*
X164500000Y-141000000D02*
X158500000Y-141000000D01*
D12*
X159200000Y-144100000D02*
G75*
G03*
X159400000Y-144100000I100000J0D01*
G01*
X159400000Y-144100000D02*
G75*
G03*
X159200000Y-144100000I-100000J0D01*
G01*
D13*
%TO.C,C4*%
X155115000Y-85238748D02*
X155115000Y-85761252D01*
X156585000Y-85238748D02*
X156585000Y-85761252D01*
%TO.C,C2*%
X151488748Y-84235000D02*
X152011252Y-84235000D01*
X151488748Y-82765000D02*
X152011252Y-82765000D01*
%TD*%
%LPC*%
D15*
%TO.C,IC1*%
X146800000Y-101595000D03*
X146800000Y-102865000D03*
X146800000Y-104135000D03*
X146800000Y-105405000D03*
X152200000Y-105405000D03*
X152200000Y-104135000D03*
X152200000Y-102865000D03*
X152200000Y-101595000D03*
%TD*%
D16*
%TO.C,R6*%
X156662500Y-105400000D03*
X154837500Y-105400000D03*
%TD*%
D17*
%TO.C,C7*%
X142550000Y-102850000D03*
X144450000Y-102850000D03*
%TD*%
D18*
%TO.C,Y1*%
X158000000Y-86350000D03*
X160200000Y-86350000D03*
X160200000Y-84650000D03*
X158000000Y-84650000D03*
%TD*%
D19*
%TO.C,S1*%
X135250000Y-142550000D03*
X135250000Y-133450000D03*
X139750000Y-142550000D03*
X139750000Y-133450000D03*
%TD*%
%TO.C,S2*%
X147250000Y-142550000D03*
X147250000Y-133450000D03*
X151750000Y-142550000D03*
X151750000Y-133450000D03*
%TD*%
D20*
%TO.C,J3*%
X149625000Y-80525000D03*
D21*
X149625000Y-77985000D03*
%TD*%
D22*
%TO.C,R2*%
X147750000Y-72587500D03*
X147750000Y-74412500D03*
%TD*%
D17*
%TO.C,C6*%
X142550000Y-100800000D03*
X144450000Y-100800000D03*
%TD*%
D23*
%TO.C,R11*%
X166950000Y-78662500D03*
X166950000Y-76837500D03*
%TD*%
D20*
%TO.C,J2*%
X166250000Y-124500000D03*
D21*
X166250000Y-127040000D03*
X166250000Y-129580000D03*
%TD*%
D24*
%TO.C,H2*%
X173000000Y-65000000D03*
%TD*%
D23*
%TO.C,R10*%
X165000000Y-78662500D03*
X165000000Y-76837500D03*
%TD*%
D24*
%TO.C,H1*%
X126000000Y-65000000D03*
%TD*%
%TO.C,H4*%
X173000000Y-142000000D03*
%TD*%
D25*
%TO.C,C3*%
X152700000Y-85750000D03*
X150800000Y-85750000D03*
%TD*%
D23*
%TO.C,R8*%
X156500000Y-78662500D03*
X156500000Y-76837500D03*
%TD*%
D16*
%TO.C,R7*%
X156662500Y-101500000D03*
X154837500Y-101500000D03*
%TD*%
D26*
%TO.C,D2*%
X165000000Y-72187500D03*
X165000000Y-70312500D03*
%TD*%
%TO.C,D3*%
X173500000Y-72187500D03*
X173500000Y-70312500D03*
%TD*%
D27*
%TO.C,J1*%
X146610000Y-67600000D03*
X152390000Y-67600000D03*
D28*
X152750000Y-69045000D03*
X151950000Y-69045000D03*
D29*
X150750000Y-69045000D03*
X149750000Y-69045000D03*
X149250000Y-69045000D03*
X148250000Y-69045000D03*
D28*
X147050000Y-69045000D03*
X146250000Y-69045000D03*
X146250000Y-69045000D03*
X147050000Y-69045000D03*
D29*
X147750000Y-69045000D03*
X148750000Y-69045000D03*
X150250000Y-69045000D03*
X151250000Y-69045000D03*
D28*
X151950000Y-69045000D03*
X152750000Y-69045000D03*
D30*
X153820000Y-68130000D03*
D31*
X153820000Y-63950000D03*
X145180000Y-63950000D03*
D30*
X145180000Y-68130000D03*
%TD*%
D32*
%TO.C,R12*%
X145575000Y-83700000D03*
X147400000Y-83700000D03*
%TD*%
D23*
%TO.C,R4*%
X143500000Y-133912500D03*
X143500000Y-132087500D03*
%TD*%
D22*
%TO.C,R1*%
X150750000Y-72587500D03*
X150750000Y-74412500D03*
%TD*%
D23*
%TO.C,R5*%
X155500000Y-133912500D03*
X155500000Y-132087500D03*
%TD*%
D24*
%TO.C,H3*%
X126000000Y-142000000D03*
%TD*%
D33*
%TO.C,C1*%
X138750000Y-67525000D03*
X138750000Y-70475000D03*
%TD*%
D17*
%TO.C,C5*%
X158150000Y-82750000D03*
X160050000Y-82750000D03*
%TD*%
D26*
%TO.C,D1*%
X156500000Y-72187500D03*
X156500000Y-70312500D03*
%TD*%
D32*
%TO.C,R3*%
X131587500Y-130000000D03*
X133412500Y-130000000D03*
%TD*%
D34*
%TO.C,U1*%
X142137500Y-85575000D03*
X142137500Y-86225000D03*
X142137500Y-86875000D03*
X142137500Y-87525000D03*
X142137500Y-88175000D03*
X142137500Y-88825000D03*
X142137500Y-89475000D03*
X142137500Y-90125000D03*
X142137500Y-90775000D03*
X142137500Y-91425000D03*
X147862500Y-91425000D03*
X147862500Y-90775000D03*
X147862500Y-90125000D03*
X147862500Y-89475000D03*
X147862500Y-88825000D03*
X147862500Y-88175000D03*
X147862500Y-87525000D03*
X147862500Y-86875000D03*
X147862500Y-86225000D03*
X147862500Y-85575000D03*
%TD*%
D16*
%TO.C,R9*%
X156662500Y-103450000D03*
X154837500Y-103450000D03*
%TD*%
D19*
%TO.C,S3*%
X159250000Y-142550000D03*
X159250000Y-133450000D03*
X163750000Y-142550000D03*
X163750000Y-133450000D03*
%TD*%
D35*
%TO.C,C4*%
X155850000Y-84550000D03*
X155850000Y-86450000D03*
%TD*%
D17*
%TO.C,C2*%
X150800000Y-83500000D03*
X152700000Y-83500000D03*
%TD*%
M02*
