M48
; DRILL file {KiCad (6.0.5)} date Tue Jun 10 19:51:35 2025
; FORMAT={-:-/ absolute / metric / decimal}
; #@! TF.CreationDate,2025-06-10T19:51:35+02:00
; #@! TF.GenerationSoftware,Kicad,Pcbnew,(6.0.5)
; #@! TF.FileFunction,Plated,1,2,PTH
FMAT,2
METRIC
; #@! TA.AperFunction,Plated,PTH,ViaDrill
T1C0.400
; #@! TA.AperFunction,Plated,PTH,ComponentDrill
T2C0.600
; #@! TA.AperFunction,Plated,PTH,ComponentDrill
T3C1.000
; #@! TA.AperFunction,Plated,PTH,ComponentDrill
T4C3.200
%
G90
G05
T1
X137.75Y-130.25
X138.15Y-123.9
X138.25Y-93.25
X138.5Y-84.75
X138.75Y-72.25
X139.75Y-139.25
X141.5Y-100.8
X141.5Y-102.85
X145.2Y-105.45
X146.25Y-74.5
X148.5Y-100.1
X149.5Y-93.05
X149.5Y-130.0
X150.75Y-75.75
X151.75Y-139.25
X153.5Y-70.75
X154.0Y-85.0
X156.6Y-83.0
X157.75Y-105.4
X160.25Y-87.75
X162.75Y-71.0
X163.65Y-91.1
X163.75Y-139.25
X165.0Y-121.75
X165.1Y-81.3
X165.25Y-103.5
T3
X149.625Y-77.985
X149.625Y-80.525
X166.25Y-124.5
X166.25Y-127.04
X166.25Y-129.58
T4
X126.0Y-65.0
X126.0Y-142.0
X173.0Y-65.0
X173.0Y-142.0
T2
X145.18Y-64.25G85X145.18Y-63.65
G05
X145.18Y-68.68G85X145.18Y-67.58
G05
X153.82Y-64.25G85X153.82Y-63.65
G05
X153.82Y-68.68G85X153.82Y-67.58
G05
T0
M30
