%TF.GenerationSoftware,KiCad,Pcbnew,(6.0.5)*%
%TF.CreationDate,2024-07-23T11:02:46+02:00*%
%TF.ProjectId,USB_Knob,5553425f-4b6e-46f6-922e-6b696361645f,rev?*%
%TF.SameCoordinates,Original*%
%TF.FileFunction,Copper,L1,Top*%
%TF.FilePolarity,Positive*%
%FSLAX46Y46*%
G04 Gerber Fmt 4.6, Leading zero omitted, Abs format (unit mm)*
G04 Created by KiCad (PCBNEW (6.0.5)) date 2024-07-23 11:02:46*
%MOMM*%
%LPD*%
G01*
G04 APERTURE LIST*
G04 Aperture macros list*
%AMRoundRect*
0 Rectangle with rounded corners*
0 $1 Rounding radius*
0 $2 $3 $4 $5 $6 $7 $8 $9 X,Y pos of 4 corners*
0 Add a 4 corners polygon primitive as box body*
4,1,4,$2,$3,$4,$5,$6,$7,$8,$9,$2,$3,0*
0 Add four circle primitives for the rounded corners*
1,1,$1+$1,$2,$3*
1,1,$1+$1,$4,$5*
1,1,$1+$1,$6,$7*
1,1,$1+$1,$8,$9*
0 Add four rect primitives between the rounded corners*
20,1,$1+$1,$2,$3,$4,$5,0*
20,1,$1+$1,$4,$5,$6,$7,0*
20,1,$1+$1,$6,$7,$8,$9,0*
20,1,$1+$1,$8,$9,$2,$3,0*%
G04 Aperture macros list end*
%TA.AperFunction,SMDPad,CuDef*%
%ADD10RoundRect,0.250000X0.262500X0.450000X-0.262500X0.450000X-0.262500X-0.450000X0.262500X-0.450000X0*%
%TD*%
%TA.AperFunction,SMDPad,CuDef*%
%ADD11RoundRect,0.250000X-0.262500X-0.450000X0.262500X-0.450000X0.262500X0.450000X-0.262500X0.450000X0*%
%TD*%
%TA.AperFunction,SMDPad,CuDef*%
%ADD12R,1.400000X1.200000*%
%TD*%
%TA.AperFunction,SMDPad,CuDef*%
%ADD13R,1.400000X2.100000*%
%TD*%
%TA.AperFunction,SMDPad,CuDef*%
%ADD14RoundRect,0.250000X-0.250000X-0.475000X0.250000X-0.475000X0.250000X0.475000X-0.250000X0.475000X0*%
%TD*%
%TA.AperFunction,ComponentPad*%
%ADD15R,1.700000X1.700000*%
%TD*%
%TA.AperFunction,ComponentPad*%
%ADD16O,1.700000X1.700000*%
%TD*%
%TA.AperFunction,SMDPad,CuDef*%
%ADD17RoundRect,0.250000X-0.450000X0.262500X-0.450000X-0.262500X0.450000X-0.262500X0.450000X0.262500X0*%
%TD*%
%TA.AperFunction,SMDPad,CuDef*%
%ADD18R,0.650000X0.400000*%
%TD*%
%TA.AperFunction,SMDPad,CuDef*%
%ADD19RoundRect,0.250000X0.450000X-0.262500X0.450000X0.262500X-0.450000X0.262500X-0.450000X-0.262500X0*%
%TD*%
%TA.AperFunction,ComponentPad*%
%ADD20C,6.400000*%
%TD*%
%TA.AperFunction,SMDPad,CuDef*%
%ADD21RoundRect,0.250000X0.250000X0.475000X-0.250000X0.475000X-0.250000X-0.475000X0.250000X-0.475000X0*%
%TD*%
%TA.AperFunction,SMDPad,CuDef*%
%ADD22RoundRect,0.243750X0.456250X-0.243750X0.456250X0.243750X-0.456250X0.243750X-0.456250X-0.243750X0*%
%TD*%
%TA.AperFunction,SMDPad,CuDef*%
%ADD23R,0.600000X1.450000*%
%TD*%
%TA.AperFunction,SMDPad,CuDef*%
%ADD24R,0.300000X1.450000*%
%TD*%
%TA.AperFunction,ComponentPad*%
%ADD25O,1.000000X2.100000*%
%TD*%
%TA.AperFunction,ComponentPad*%
%ADD26O,1.000000X1.600000*%
%TD*%
%TA.AperFunction,SMDPad,CuDef*%
%ADD27RoundRect,0.250000X-0.650000X0.325000X-0.650000X-0.325000X0.650000X-0.325000X0.650000X0.325000X0*%
%TD*%
%TA.AperFunction,SMDPad,CuDef*%
%ADD28RoundRect,0.100000X-0.637500X-0.100000X0.637500X-0.100000X0.637500X0.100000X-0.637500X0.100000X0*%
%TD*%
%TA.AperFunction,ComponentPad*%
%ADD29R,2.000000X2.000000*%
%TD*%
%TA.AperFunction,ComponentPad*%
%ADD30C,2.000000*%
%TD*%
%TA.AperFunction,ComponentPad*%
%ADD31R,2.000000X3.200000*%
%TD*%
%TA.AperFunction,SMDPad,CuDef*%
%ADD32RoundRect,0.250000X-0.475000X0.250000X-0.475000X-0.250000X0.475000X-0.250000X0.475000X0.250000X0*%
%TD*%
%TA.AperFunction,ViaPad*%
%ADD33C,0.800000*%
%TD*%
%TA.AperFunction,Conductor*%
%ADD34C,0.400000*%
%TD*%
%TA.AperFunction,Conductor*%
%ADD35C,0.300000*%
%TD*%
%TA.AperFunction,Conductor*%
%ADD36C,0.600000*%
%TD*%
G04 APERTURE END LIST*
D10*
%TO.P,R13,1*%
%TO.N,Net-(C6-Pad2)*%
X159662500Y-97000000D03*
%TO.P,R13,2*%
%TO.N,Net-(R6-Pad1)*%
X157837500Y-97000000D03*
%TD*%
D11*
%TO.P,R6,1*%
%TO.N,Net-(R6-Pad1)*%
X165587500Y-93250000D03*
%TO.P,R6,2*%
%TO.N,VCC*%
X167412500Y-93250000D03*
%TD*%
D12*
%TO.P,Y1,1,1*%
%TO.N,/XI*%
X158000000Y-86350000D03*
%TO.P,Y1,2,2*%
%TO.N,GND*%
X160200000Y-86350000D03*
%TO.P,Y1,3,3*%
%TO.N,/XO*%
X160200000Y-84650000D03*
%TO.P,Y1,4,4*%
%TO.N,GND*%
X158000000Y-84650000D03*
%TD*%
D13*
%TO.P,S1,1,1*%
%TO.N,unconnected-(S1-Pad1)*%
X135250000Y-142550000D03*
%TO.P,S1,2,2*%
%TO.N,/SW1*%
X135250000Y-133450000D03*
%TO.P,S1,3,3*%
%TO.N,GND*%
X139750000Y-142550000D03*
%TO.P,S1,4,4*%
%TO.N,unconnected-(S1-Pad4)*%
X139750000Y-133450000D03*
%TD*%
D14*
%TO.P,C7,1*%
%TO.N,GND*%
X157800000Y-101000000D03*
%TO.P,C7,2*%
%TO.N,Net-(C7-Pad2)*%
X159700000Y-101000000D03*
%TD*%
D10*
%TO.P,R9,1*%
%TO.N,/ENC_SW*%
X133412500Y-84750000D03*
%TO.P,R9,2*%
%TO.N,VCC*%
X131587500Y-84750000D03*
%TD*%
D13*
%TO.P,S2,1,1*%
%TO.N,unconnected-(S2-Pad1)*%
X147250000Y-142550000D03*
%TO.P,S2,2,2*%
%TO.N,/SW2*%
X147250000Y-133450000D03*
%TO.P,S2,3,3*%
%TO.N,GND*%
X151750000Y-142550000D03*
%TO.P,S2,4,4*%
%TO.N,unconnected-(S2-Pad4)*%
X151750000Y-133450000D03*
%TD*%
D15*
%TO.P,J3,1,Pin_1*%
%TO.N,Net-(J3-Pad1)*%
X149625000Y-80525000D03*
D16*
%TO.P,J3,2,Pin_2*%
%TO.N,+3V3*%
X149625000Y-77985000D03*
%TD*%
D17*
%TO.P,R2,1*%
%TO.N,Net-(J1-PadB5)*%
X147750000Y-72587500D03*
%TO.P,R2,2*%
%TO.N,GND*%
X147750000Y-74412500D03*
%TD*%
D18*
%TO.P,U3,1*%
%TO.N,N/C*%
X161050000Y-113350000D03*
%TO.P,U3,2*%
%TO.N,Net-(C7-Pad2)*%
X161050000Y-114000000D03*
%TO.P,U3,3,GND*%
%TO.N,GND*%
X161050000Y-114650000D03*
%TO.P,U3,4*%
%TO.N,/ENC_B*%
X162950000Y-114650000D03*
%TO.P,U3,5,VCC*%
%TO.N,VCC*%
X162950000Y-113350000D03*
%TD*%
D14*
%TO.P,C9,1*%
%TO.N,GND*%
X161050000Y-111500000D03*
%TO.P,C9,2*%
%TO.N,VCC*%
X162950000Y-111500000D03*
%TD*%
%TO.P,C8,1*%
%TO.N,GND*%
X161050000Y-104500000D03*
%TO.P,C8,2*%
%TO.N,VCC*%
X162950000Y-104500000D03*
%TD*%
D19*
%TO.P,R11,1*%
%TO.N,/LED3*%
X165750000Y-105412500D03*
%TO.P,R11,2*%
%TO.N,Net-(D3-Pad1)*%
X165750000Y-103587500D03*
%TD*%
D15*
%TO.P,J2,1,Pin_1*%
%TO.N,/RXD*%
X166250000Y-124500000D03*
D16*
%TO.P,J2,2,Pin_2*%
%TO.N,/TXD*%
X166250000Y-127040000D03*
%TO.P,J2,3,Pin_3*%
%TO.N,GND*%
X166250000Y-129580000D03*
%TD*%
D20*
%TO.P,H2,1,1*%
%TO.N,GND*%
X173000000Y-65000000D03*
%TD*%
D19*
%TO.P,R10,1*%
%TO.N,/LED2*%
X165000000Y-78662500D03*
%TO.P,R10,2*%
%TO.N,Net-(D2-Pad1)*%
X165000000Y-76837500D03*
%TD*%
D20*
%TO.P,H1,1,1*%
%TO.N,GND*%
X126000000Y-65000000D03*
%TD*%
%TO.P,H4,1,1*%
%TO.N,GND*%
X173000000Y-142000000D03*
%TD*%
D21*
%TO.P,C3,1*%
%TO.N,GND*%
X152700000Y-85750000D03*
%TO.P,C3,2*%
%TO.N,VCC*%
X150800000Y-85750000D03*
%TD*%
D14*
%TO.P,C6,1*%
%TO.N,GND*%
X157800000Y-95000000D03*
%TO.P,C6,2*%
%TO.N,Net-(C6-Pad2)*%
X159700000Y-95000000D03*
%TD*%
D19*
%TO.P,R8,1*%
%TO.N,/LED1*%
X156500000Y-78662500D03*
%TO.P,R8,2*%
%TO.N,Net-(D1-Pad1)*%
X156500000Y-76837500D03*
%TD*%
D22*
%TO.P,D2,1,K*%
%TO.N,Net-(D2-Pad1)*%
X165000000Y-72187500D03*
%TO.P,D2,2,A*%
%TO.N,VCC*%
X165000000Y-70312500D03*
%TD*%
%TO.P,D3,1,K*%
%TO.N,Net-(D3-Pad1)*%
X173500000Y-72187500D03*
%TO.P,D3,2,A*%
%TO.N,VCC*%
X173500000Y-70312500D03*
%TD*%
D23*
%TO.P,J1,A1,GND*%
%TO.N,GND*%
X152750000Y-69045000D03*
%TO.P,J1,A4,VBUS*%
%TO.N,VCC*%
X151950000Y-69045000D03*
D24*
%TO.P,J1,A5,CC1*%
%TO.N,Net-(J1-PadA5)*%
X150750000Y-69045000D03*
%TO.P,J1,A6,D+*%
%TO.N,/USB1DP*%
X149750000Y-69045000D03*
%TO.P,J1,A7,D-*%
%TO.N,/USB1DM*%
X149250000Y-69045000D03*
%TO.P,J1,A8,SBU1*%
%TO.N,unconnected-(J1-PadA8)*%
X148250000Y-69045000D03*
D23*
%TO.P,J1,A9,VBUS*%
%TO.N,VCC*%
X147050000Y-69045000D03*
%TO.P,J1,A12,GND*%
%TO.N,GND*%
X146250000Y-69045000D03*
%TO.P,J1,B1,GND*%
X146250000Y-69045000D03*
%TO.P,J1,B4,VBUS*%
%TO.N,VCC*%
X147050000Y-69045000D03*
D24*
%TO.P,J1,B5,CC2*%
%TO.N,Net-(J1-PadB5)*%
X147750000Y-69045000D03*
%TO.P,J1,B6,D+*%
%TO.N,/USB1DP*%
X148750000Y-69045000D03*
%TO.P,J1,B7,D-*%
%TO.N,/USB1DM*%
X150250000Y-69045000D03*
%TO.P,J1,B8,SBU2*%
%TO.N,unconnected-(J1-PadB8)*%
X151250000Y-69045000D03*
D23*
%TO.P,J1,B9,VBUS*%
%TO.N,VCC*%
X151950000Y-69045000D03*
%TO.P,J1,B12,GND*%
%TO.N,GND*%
X152750000Y-69045000D03*
D25*
%TO.P,J1,S1,SHIELD*%
X153820000Y-68130000D03*
D26*
X153820000Y-63950000D03*
X145180000Y-63950000D03*
D25*
X145180000Y-68130000D03*
%TD*%
D10*
%TO.P,R15,1*%
%TO.N,/ENC_A*%
X162912500Y-109500000D03*
%TO.P,R15,2*%
%TO.N,Net-(C6-Pad2)*%
X161087500Y-109500000D03*
%TD*%
%TO.P,R16,1*%
%TO.N,/ENC_B*%
X162912500Y-116500000D03*
%TO.P,R16,2*%
%TO.N,Net-(C7-Pad2)*%
X161087500Y-116500000D03*
%TD*%
D11*
%TO.P,R7,1*%
%TO.N,Net-(R7-Pad1)*%
X165587500Y-91250000D03*
%TO.P,R7,2*%
%TO.N,VCC*%
X167412500Y-91250000D03*
%TD*%
%TO.P,R12,1*%
%TO.N,/USB1DP*%
X145575000Y-83700000D03*
%TO.P,R12,2*%
%TO.N,Net-(J3-Pad1)*%
X147400000Y-83700000D03*
%TD*%
D19*
%TO.P,R4,1*%
%TO.N,VCC*%
X143500000Y-133912500D03*
%TO.P,R4,2*%
%TO.N,/SW2*%
X143500000Y-132087500D03*
%TD*%
D17*
%TO.P,R1,1*%
%TO.N,Net-(J1-PadA5)*%
X150750000Y-72587500D03*
%TO.P,R1,2*%
%TO.N,GND*%
X150750000Y-74412500D03*
%TD*%
D10*
%TO.P,R14,1*%
%TO.N,Net-(C7-Pad2)*%
X159662500Y-99000000D03*
%TO.P,R14,2*%
%TO.N,Net-(R7-Pad1)*%
X157837500Y-99000000D03*
%TD*%
D19*
%TO.P,R5,1*%
%TO.N,VCC*%
X155500000Y-133912500D03*
%TO.P,R5,2*%
%TO.N,/SW3*%
X155500000Y-132087500D03*
%TD*%
D20*
%TO.P,H3,1,1*%
%TO.N,GND*%
X126000000Y-142000000D03*
%TD*%
D27*
%TO.P,C1,1*%
%TO.N,VCC*%
X138750000Y-67525000D03*
%TO.P,C1,2*%
%TO.N,GND*%
X138750000Y-70475000D03*
%TD*%
D14*
%TO.P,C5,1*%
%TO.N,GND*%
X158150000Y-82750000D03*
%TO.P,C5,2*%
%TO.N,/XO*%
X160050000Y-82750000D03*
%TD*%
D22*
%TO.P,D1,1,K*%
%TO.N,Net-(D1-Pad1)*%
X156500000Y-72187500D03*
%TO.P,D1,2,A*%
%TO.N,VCC*%
X156500000Y-70312500D03*
%TD*%
D11*
%TO.P,R3,1*%
%TO.N,VCC*%
X131587500Y-130000000D03*
%TO.P,R3,2*%
%TO.N,/SW1*%
X133412500Y-130000000D03*
%TD*%
D28*
%TO.P,U1,1,P3.2/TXD1_/INT0/VBUS1/AIN3*%
%TO.N,/ENC_A*%
X142137500Y-85575000D03*
%TO.P,U1,2,P1.4/T2_/CAP1/SCS/TIN2/UCC1/AIN1*%
%TO.N,/ENC_SW*%
X142137500Y-86225000D03*
%TO.P,U1,3,P1.5/MOSI/PWM1/TIN3/UCC2/AIN2*%
%TO.N,/SW1*%
X142137500Y-86875000D03*
%TO.P,U1,4,P1.6/MISO/RXD1/TIN4*%
%TO.N,/SW2*%
X142137500Y-87525000D03*
%TO.P,U1,5,P1.7/SCK/TXD1/TIN5*%
%TO.N,/SW3*%
X142137500Y-88175000D03*
%TO.P,U1,6,RST/T2EX_/CAP2_*%
%TO.N,unconnected-(U1-Pad6)*%
X142137500Y-88825000D03*
%TO.P,U1,7,P1.0/T2/CAP1/TIN0*%
%TO.N,unconnected-(U1-Pad7)*%
X142137500Y-89475000D03*
%TO.P,U1,8,P1.1/T2EX/CAP2/TIN1/VBUS2/AIN0*%
%TO.N,/LED3*%
X142137500Y-90125000D03*
%TO.P,U1,9,P3.1/PWM2_/TXD*%
%TO.N,/TXD*%
X142137500Y-90775000D03*
%TO.P,U1,10,P3.0/PWM1_/RXD*%
%TO.N,/RXD*%
X142137500Y-91425000D03*
%TO.P,U1,11,P3.3/INT1*%
%TO.N,/ENC_B*%
X147862500Y-91425000D03*
%TO.P,U1,12,P3.4/PWM2/RXD1_/T0*%
%TO.N,/LED2*%
X147862500Y-90775000D03*
%TO.P,U1,13,P3.5/T1*%
%TO.N,/LED1*%
X147862500Y-90125000D03*
%TO.P,U1,14,P3.6/UDP*%
%TO.N,/USB1DP*%
X147862500Y-89475000D03*
%TO.P,U1,15,P3.7/UDM*%
%TO.N,/USB1DM*%
X147862500Y-88825000D03*
%TO.P,U1,16,P1.3/XO/TXD_*%
%TO.N,/XO*%
X147862500Y-88175000D03*
%TO.P,U1,17,P1.2/XI/RXD_*%
%TO.N,/XI*%
X147862500Y-87525000D03*
%TO.P,U1,18,GND/VSS*%
%TO.N,GND*%
X147862500Y-86875000D03*
%TO.P,U1,19,VCC/VDD*%
%TO.N,VCC*%
X147862500Y-86225000D03*
%TO.P,U1,20,V33*%
%TO.N,+3V3*%
X147862500Y-85575000D03*
%TD*%
D29*
%TO.P,SW1,A,A*%
%TO.N,Net-(R6-Pad1)*%
X152000000Y-96000000D03*
D30*
%TO.P,SW1,B,B*%
%TO.N,Net-(R7-Pad1)*%
X147000000Y-96000000D03*
%TO.P,SW1,C,C*%
%TO.N,GND*%
X149500000Y-96000000D03*
D31*
%TO.P,SW1,MP,MP*%
X155100000Y-103500000D03*
X143900000Y-103500000D03*
D30*
%TO.P,SW1,S1,S1*%
%TO.N,/ENC_SW*%
X147000000Y-110500000D03*
%TO.P,SW1,S2,S2*%
%TO.N,GND*%
X152000000Y-110500000D03*
%TD*%
D13*
%TO.P,S3,1,1*%
%TO.N,unconnected-(S3-Pad1)*%
X159250000Y-142550000D03*
%TO.P,S3,2,2*%
%TO.N,/SW3*%
X159250000Y-133450000D03*
%TO.P,S3,3,3*%
%TO.N,GND*%
X163750000Y-142550000D03*
%TO.P,S3,4,4*%
%TO.N,unconnected-(S3-Pad4)*%
X163750000Y-133450000D03*
%TD*%
D18*
%TO.P,U2,1*%
%TO.N,N/C*%
X161050000Y-106350000D03*
%TO.P,U2,2*%
%TO.N,Net-(C6-Pad2)*%
X161050000Y-107000000D03*
%TO.P,U2,3,GND*%
%TO.N,GND*%
X161050000Y-107650000D03*
%TO.P,U2,4*%
%TO.N,/ENC_A*%
X162950000Y-107650000D03*
%TO.P,U2,5,VCC*%
%TO.N,VCC*%
X162950000Y-106350000D03*
%TD*%
D32*
%TO.P,C4,1*%
%TO.N,GND*%
X155850000Y-84550000D03*
%TO.P,C4,2*%
%TO.N,/XI*%
X155850000Y-86450000D03*
%TD*%
D14*
%TO.P,C2,1*%
%TO.N,+3V3*%
X150800000Y-83500000D03*
%TO.P,C2,2*%
%TO.N,GND*%
X152700000Y-83500000D03*
%TD*%
D33*
%TO.N,GND*%
X164750000Y-81000000D03*
X159750000Y-114750000D03*
X159750000Y-104500000D03*
X163750000Y-139250000D03*
X156000000Y-95500000D03*
X139750000Y-139250000D03*
X165250000Y-98500000D03*
X151750000Y-139250000D03*
X162750000Y-71000000D03*
X156600000Y-83000000D03*
X138250000Y-93250000D03*
X138750000Y-72250000D03*
X165000000Y-121750000D03*
X159750000Y-107750000D03*
X138500000Y-84750000D03*
X149500000Y-130000000D03*
X159750000Y-111500000D03*
X154000000Y-85000000D03*
X160250000Y-87750000D03*
X162250000Y-90500000D03*
X153500000Y-70750000D03*
X137750000Y-130250000D03*
X146250000Y-74500000D03*
X150750000Y-75750000D03*
%TD*%
D34*
%TO.N,VCC*%
X162950000Y-104500000D02*
X162950000Y-106350000D01*
D35*
X147750000Y-67597766D02*
X147750000Y-67000000D01*
D34*
X149525000Y-86225000D02*
X150000000Y-85750000D01*
X151950000Y-69045000D02*
X151950000Y-82300000D01*
D35*
X151950000Y-68297766D02*
X151950000Y-69045000D01*
X151250000Y-67597766D02*
X151950000Y-68297766D01*
X156500000Y-66500000D02*
X151750000Y-66500000D01*
X156500000Y-70312500D02*
X156500000Y-66500000D01*
X164250000Y-66500000D02*
X156500000Y-66500000D01*
X147050000Y-68297766D02*
X147750000Y-67597766D01*
D34*
X151950000Y-82300000D02*
X151750000Y-82500000D01*
X151750000Y-84800000D02*
X150800000Y-85750000D01*
X150000000Y-85750000D02*
X150800000Y-85750000D01*
D35*
X148000000Y-66750000D02*
X151500000Y-66750000D01*
X165000000Y-67250000D02*
X164250000Y-66500000D01*
D34*
X151750000Y-82500000D02*
X151750000Y-84800000D01*
D35*
X147750000Y-67000000D02*
X148000000Y-66750000D01*
X165000000Y-70312500D02*
X165000000Y-67250000D01*
X151500000Y-66750000D02*
X151750000Y-66500000D01*
X147050000Y-69045000D02*
X147050000Y-68297766D01*
D34*
X162950000Y-113350000D02*
X162950000Y-111500000D01*
X162900000Y-106350000D02*
X162000000Y-107250000D01*
X147862500Y-86225000D02*
X149525000Y-86225000D01*
D35*
X151250000Y-67000000D02*
X151250000Y-67597766D01*
D34*
X162950000Y-104500000D02*
X169000000Y-104500000D01*
D35*
X151750000Y-66500000D02*
X151250000Y-67000000D01*
D34*
X162000000Y-107250000D02*
X162000000Y-110550000D01*
X162950000Y-106350000D02*
X162900000Y-106350000D01*
X162000000Y-110550000D02*
X162950000Y-111500000D01*
%TO.N,GND*%
X156850000Y-82750000D02*
X156600000Y-83000000D01*
X155850000Y-83750000D02*
X156600000Y-83000000D01*
X151575480Y-86874520D02*
X147862980Y-86874520D01*
D36*
X146337500Y-74412500D02*
X146250000Y-74500000D01*
D34*
X147862980Y-86874520D02*
X147862500Y-86875000D01*
X161050000Y-114650000D02*
X159850000Y-114650000D01*
X161050000Y-104500000D02*
X159750000Y-104500000D01*
D36*
X152750000Y-70000000D02*
X153500000Y-70750000D01*
D34*
X152700000Y-83700000D02*
X154000000Y-85000000D01*
X152700000Y-85750000D02*
X151575480Y-86874520D01*
X159850000Y-114650000D02*
X159750000Y-114750000D01*
D36*
X151750000Y-142550000D02*
X151750000Y-139250000D01*
D34*
X146250000Y-70500000D02*
X146000000Y-70750000D01*
D36*
X139750000Y-142550000D02*
X139750000Y-139250000D01*
D34*
X152700000Y-83500000D02*
X152700000Y-83700000D01*
X152700000Y-85750000D02*
X153250000Y-85750000D01*
D36*
X163750000Y-142550000D02*
X163750000Y-139250000D01*
D34*
X157600000Y-101000000D02*
X155100000Y-103500000D01*
X161050000Y-107650000D02*
X159850000Y-107650000D01*
X146250000Y-69045000D02*
X146250000Y-70500000D01*
X157800000Y-101000000D02*
X157600000Y-101000000D01*
D36*
X138750000Y-70475000D02*
X138750000Y-72250000D01*
D34*
X145180000Y-70320000D02*
X145000000Y-70500000D01*
X161050000Y-111500000D02*
X159750000Y-111500000D01*
X156500000Y-95000000D02*
X156000000Y-95500000D01*
X158150000Y-82750000D02*
X156850000Y-82750000D01*
D36*
X147750000Y-74412500D02*
X146337500Y-74412500D01*
D34*
X157800000Y-95000000D02*
X156500000Y-95000000D01*
X159850000Y-107650000D02*
X159750000Y-107750000D01*
X153250000Y-85750000D02*
X154000000Y-85000000D01*
D36*
X150750000Y-74412500D02*
X150750000Y-75750000D01*
D34*
X155850000Y-84550000D02*
X155850000Y-83750000D01*
D36*
X152750000Y-69045000D02*
X152750000Y-70000000D01*
D34*
X145180000Y-68130000D02*
X145180000Y-70320000D01*
%TO.N,+3V3*%
X150800000Y-82200000D02*
X151250000Y-81750000D01*
X150800000Y-83500000D02*
X150800000Y-82200000D01*
X150250000Y-84050000D02*
X150800000Y-83500000D01*
X151250000Y-81750000D02*
X151250000Y-78500000D01*
X150250000Y-84250000D02*
X150250000Y-84050000D01*
X147862500Y-85575000D02*
X148925000Y-85575000D01*
X148925000Y-85575000D02*
X150250000Y-84250000D01*
X149640000Y-78000000D02*
X149625000Y-77985000D01*
X150750000Y-78000000D02*
X149640000Y-78000000D01*
X151250000Y-78500000D02*
X150750000Y-78000000D01*
%TO.N,Net-(D1-Pad1)*%
X156500000Y-72187500D02*
X156500000Y-76837500D01*
%TO.N,Net-(D2-Pad1)*%
X165000000Y-72187500D02*
X165000000Y-76837500D01*
%TO.N,Net-(D3-Pad1)*%
X166500480Y-102837020D02*
X165750000Y-103587500D01*
X166500480Y-79187020D02*
X173500000Y-72187500D01*
X166500480Y-79187020D02*
X166500480Y-102837020D01*
D35*
%TO.N,Net-(J1-PadA5)*%
X150750000Y-69045000D02*
X150750000Y-72587500D01*
%TO.N,/USB1DP*%
X149750000Y-70000000D02*
X149500000Y-70250000D01*
X148750000Y-69045000D02*
X148750000Y-70000000D01*
X146000000Y-78500000D02*
X149000000Y-75500000D01*
X149000000Y-70250000D02*
X149500000Y-70250000D01*
X149750000Y-69045000D02*
X149750000Y-70000000D01*
X146975000Y-89475000D02*
X146000000Y-88500000D01*
X148750000Y-70000000D02*
X149000000Y-70250000D01*
X149000000Y-75500000D02*
X149000000Y-70250000D01*
X147862500Y-89475000D02*
X146975000Y-89475000D01*
X146000000Y-88500000D02*
X146000000Y-78500000D01*
%TO.N,/USB1DM*%
X147075000Y-88825000D02*
X147862500Y-88825000D01*
X146500000Y-78750000D02*
X146500000Y-88250000D01*
X150250000Y-67970978D02*
X150250000Y-69045000D01*
X150250000Y-70500000D02*
X149500000Y-71250000D01*
X149250000Y-68000000D02*
X149500000Y-67750000D01*
X149500000Y-67750000D02*
X150029022Y-67750000D01*
X146500000Y-88250000D02*
X147075000Y-88825000D01*
X150250000Y-69045000D02*
X150250000Y-70500000D01*
X149500000Y-71250000D02*
X149500000Y-75750000D01*
X149500000Y-75750000D02*
X146500000Y-78750000D01*
X149250000Y-69045000D02*
X149250000Y-68000000D01*
X150029022Y-67750000D02*
X150250000Y-67970978D01*
%TO.N,Net-(J1-PadB5)*%
X147750000Y-69045000D02*
X147750000Y-72587500D01*
D34*
%TO.N,/SW1*%
X133412500Y-90087500D02*
X136625000Y-86875000D01*
X133412500Y-130000000D02*
X133412500Y-90087500D01*
X133412500Y-131612500D02*
X135250000Y-133450000D01*
X136625000Y-86875000D02*
X142137500Y-86875000D01*
X133412500Y-130000000D02*
X133412500Y-131612500D01*
%TO.N,/SW2*%
X141500000Y-128750000D02*
X143500000Y-130750000D01*
X134012020Y-126512020D02*
X136250000Y-128750000D01*
X136250000Y-128750000D02*
X141500000Y-128750000D01*
X134012020Y-90335830D02*
X134012020Y-126512020D01*
X143500000Y-130750000D02*
X143500000Y-132087500D01*
X143500000Y-132087500D02*
X145887500Y-132087500D01*
X145887500Y-132087500D02*
X147250000Y-133450000D01*
X142137500Y-87525000D02*
X136822850Y-87525000D01*
X136822850Y-87525000D02*
X134012020Y-90335830D01*
%TO.N,/SW3*%
X153650480Y-128150480D02*
X155500000Y-130000000D01*
X134611540Y-90584160D02*
X134611540Y-125861540D01*
X142137500Y-88175000D02*
X137020700Y-88175000D01*
X134611540Y-125861540D02*
X136900480Y-128150480D01*
X157887500Y-132087500D02*
X159250000Y-133450000D01*
X155500000Y-130000000D02*
X155500000Y-132087500D01*
X136900480Y-128150480D02*
X153650480Y-128150480D01*
X155500000Y-132087500D02*
X157887500Y-132087500D01*
X137020700Y-88175000D02*
X134611540Y-90584160D01*
%TO.N,/ENC_B*%
X156000000Y-108250000D02*
X156000000Y-116000000D01*
X162750000Y-117500000D02*
X162750000Y-116662500D01*
X156000000Y-116000000D02*
X158000000Y-118000000D01*
X147862500Y-91425000D02*
X146325000Y-91425000D01*
X145250000Y-92500000D02*
X145250000Y-97500000D01*
X145250000Y-97500000D02*
X156000000Y-108250000D01*
X162750000Y-116662500D02*
X162912500Y-116500000D01*
X162950000Y-116462500D02*
X162912500Y-116500000D01*
X162950000Y-114650000D02*
X162950000Y-116462500D01*
X146325000Y-91425000D02*
X145250000Y-92500000D01*
X158000000Y-118000000D02*
X162250000Y-118000000D01*
X162250000Y-118000000D02*
X162750000Y-117500000D01*
%TO.N,/ENC_A*%
X163250000Y-118750000D02*
X164500000Y-117500000D01*
X163750000Y-109500000D02*
X162912500Y-109500000D01*
X144500000Y-98000000D02*
X155250000Y-108750000D01*
X142137500Y-85575000D02*
X143575000Y-85575000D01*
X155250000Y-116500000D02*
X157500000Y-118750000D01*
X143575000Y-85575000D02*
X144500000Y-86500000D01*
X162912500Y-107687500D02*
X162950000Y-107650000D01*
X144500000Y-86500000D02*
X144500000Y-98000000D01*
X157500000Y-118750000D02*
X163250000Y-118750000D01*
X164500000Y-117500000D02*
X164500000Y-110250000D01*
X164500000Y-110250000D02*
X163750000Y-109500000D01*
X162912500Y-109500000D02*
X162912500Y-107687500D01*
X155250000Y-108750000D02*
X155250000Y-116500000D01*
%TO.N,/LED1*%
X159625000Y-90125000D02*
X161750000Y-88000000D01*
X160000000Y-78750000D02*
X156587500Y-78750000D01*
X161750000Y-80500000D02*
X160000000Y-78750000D01*
X161750000Y-88000000D02*
X161750000Y-80500000D01*
X147862500Y-90125000D02*
X159625000Y-90125000D01*
X156587500Y-78750000D02*
X156500000Y-78662500D01*
%TO.N,/ENC_SW*%
X147000000Y-110500000D02*
X147000000Y-101750000D01*
X142137500Y-86225000D02*
X142931427Y-86225000D01*
X143750000Y-87043573D02*
X143750000Y-98500000D01*
X147000000Y-101750000D02*
X143750000Y-98500000D01*
X134887500Y-86225000D02*
X133412500Y-84750000D01*
X142931427Y-86225000D02*
X143750000Y-87043573D01*
X142137500Y-86225000D02*
X134887500Y-86225000D01*
%TO.N,/LED2*%
X162500000Y-80500000D02*
X162500000Y-88250000D01*
X159975000Y-90775000D02*
X147862500Y-90775000D01*
X165000000Y-78662500D02*
X164337500Y-78662500D01*
X162500000Y-88250000D02*
X159975000Y-90775000D01*
X164337500Y-78662500D02*
X162500000Y-80500000D01*
%TO.N,/LED3*%
X165510973Y-128289511D02*
X167210489Y-128289511D01*
X142137500Y-90125000D02*
X137375000Y-90125000D01*
X166500000Y-120250000D02*
X166500000Y-106162500D01*
X137500000Y-127500000D02*
X164721462Y-127500000D01*
X166500000Y-106162500D02*
X165750000Y-105412500D01*
X164721462Y-127500000D02*
X165510973Y-128289511D01*
X135250000Y-92250000D02*
X135250000Y-125250000D01*
X167750000Y-127750000D02*
X167750000Y-121500000D01*
X167210489Y-128289511D02*
X167750000Y-127750000D01*
X167750000Y-121500000D02*
X166500000Y-120250000D01*
X135250000Y-125250000D02*
X137500000Y-127500000D01*
X137375000Y-90125000D02*
X135250000Y-92250000D01*
%TO.N,/XO*%
X158274022Y-88175000D02*
X159100000Y-87349022D01*
X159100000Y-85350978D02*
X159800978Y-84650000D01*
X147862500Y-88175000D02*
X158274022Y-88175000D01*
X159800978Y-84650000D02*
X160200000Y-84650000D01*
X160050000Y-84500000D02*
X160200000Y-84650000D01*
X159100000Y-87349022D02*
X159100000Y-85350978D01*
X160050000Y-82750000D02*
X160050000Y-84500000D01*
%TO.N,/XI*%
X157750000Y-87250000D02*
X157750000Y-86600000D01*
X157750000Y-86600000D02*
X158000000Y-86350000D01*
X157475000Y-87525000D02*
X157750000Y-87250000D01*
X155775000Y-87525000D02*
X157475000Y-87525000D01*
X155850000Y-86450000D02*
X155850000Y-87450000D01*
X155850000Y-87450000D02*
X155775000Y-87525000D01*
X147862500Y-87525000D02*
X155775000Y-87525000D01*
%TO.N,/TXD*%
X135849520Y-124599520D02*
X138150480Y-126900480D01*
X137572850Y-90775000D02*
X135849520Y-92498330D01*
X138150480Y-126900480D02*
X166110480Y-126900480D01*
X142137500Y-90775000D02*
X137572850Y-90775000D01*
X166110480Y-126900480D02*
X166250000Y-127040000D01*
X135849520Y-92498330D02*
X135849520Y-124599520D01*
%TO.N,/RXD*%
X137770700Y-91425000D02*
X136472850Y-92722850D01*
X136472850Y-92722850D02*
X136472850Y-123972850D01*
X136472850Y-123972850D02*
X138750000Y-126250000D01*
X142137500Y-91425000D02*
X137770700Y-91425000D01*
X164500000Y-126250000D02*
X166250000Y-124500000D01*
X138750000Y-126250000D02*
X164500000Y-126250000D01*
%TO.N,Net-(C6-Pad2)*%
X160250000Y-103250000D02*
X161000000Y-102500000D01*
X159250000Y-103250000D02*
X160250000Y-103250000D01*
X159500000Y-109500000D02*
X158750000Y-108750000D01*
X159700000Y-96962500D02*
X159662500Y-97000000D01*
X161087500Y-109500000D02*
X159500000Y-109500000D01*
X158750000Y-106750000D02*
X158750000Y-103750000D01*
X161000000Y-97750000D02*
X160250000Y-97000000D01*
X160500000Y-107000000D02*
X160250000Y-106750000D01*
X158750000Y-103750000D02*
X159250000Y-103250000D01*
X161000000Y-102500000D02*
X161000000Y-97750000D01*
X159700000Y-95000000D02*
X159700000Y-96962500D01*
X161050000Y-107000000D02*
X160500000Y-107000000D01*
X158750000Y-108750000D02*
X158750000Y-106750000D01*
X160250000Y-97000000D02*
X159662500Y-97000000D01*
X160250000Y-106750000D02*
X158750000Y-106750000D01*
%TO.N,Net-(C7-Pad2)*%
X159662500Y-99000000D02*
X159662500Y-100962500D01*
X158000000Y-115500000D02*
X159000000Y-116500000D01*
X161050000Y-114000000D02*
X160575000Y-114000000D01*
X160325000Y-113750000D02*
X158000000Y-113750000D01*
X159700000Y-101000000D02*
X159700000Y-101800000D01*
X159700000Y-101800000D02*
X158000000Y-103500000D01*
X158000000Y-103500000D02*
X158000000Y-113750000D01*
X160575000Y-114000000D02*
X160325000Y-113750000D01*
X159000000Y-116500000D02*
X161087500Y-116500000D01*
X159662500Y-100962500D02*
X159700000Y-101000000D01*
X158000000Y-113750000D02*
X158000000Y-115500000D01*
%TO.N,Net-(J3-Pad1)*%
X147400000Y-83700000D02*
X147800000Y-83700000D01*
X149625000Y-81875000D02*
X149625000Y-80525000D01*
X147800000Y-83700000D02*
X149625000Y-81875000D01*
%TO.N,Net-(R6-Pad1)*%
X153000000Y-97000000D02*
X152000000Y-96000000D01*
X165587500Y-93250000D02*
X154750000Y-93250000D01*
X154750000Y-93250000D02*
X152000000Y-96000000D01*
X157837500Y-97000000D02*
X153000000Y-97000000D01*
%TO.N,Net-(R7-Pad1)*%
X165587500Y-91250000D02*
X165087500Y-91750000D01*
X147000000Y-94750000D02*
X147000000Y-96000000D01*
X165087500Y-91750000D02*
X150000000Y-91750000D01*
X150000000Y-91750000D02*
X147000000Y-94750000D01*
X147000000Y-97000000D02*
X147000000Y-96000000D01*
X157837500Y-99000000D02*
X149000000Y-99000000D01*
X149000000Y-99000000D02*
X147000000Y-97000000D01*
%TD*%
%TA.AperFunction,Conductor*%
%TO.N,VCC*%
G36*
X171227076Y-61528502D02*
G01*
X171273569Y-61582158D01*
X171283673Y-61652432D01*
X171254179Y-61717012D01*
X171216158Y-61746767D01*
X171146147Y-61782439D01*
X171146140Y-61782443D01*
X171143206Y-61783938D01*
X170817207Y-61995643D01*
X170515124Y-62240266D01*
X170240266Y-62515124D01*
X169995643Y-62817207D01*
X169993848Y-62819970D01*
X169993848Y-62819971D01*
X169822109Y-63084428D01*
X169783938Y-63143206D01*
X169782443Y-63146140D01*
X169782439Y-63146147D01*
X169622879Y-63459301D01*
X169607468Y-63489547D01*
X169468167Y-63852438D01*
X169367562Y-64227901D01*
X169306754Y-64611824D01*
X169286411Y-65000000D01*
X169306754Y-65388176D01*
X169367562Y-65772099D01*
X169468167Y-66147562D01*
X169607468Y-66510453D01*
X169608966Y-66513393D01*
X169774824Y-66838906D01*
X169783938Y-66856794D01*
X169785734Y-66859560D01*
X169785736Y-66859563D01*
X169946499Y-67107118D01*
X169995643Y-67182793D01*
X170056448Y-67257881D01*
X170162871Y-67389301D01*
X170240266Y-67484876D01*
X170515124Y-67759734D01*
X170517682Y-67761806D01*
X170517686Y-67761809D01*
X170586007Y-67817134D01*
X170817207Y-68004357D01*
X171143205Y-68216062D01*
X171146139Y-68217557D01*
X171146146Y-68217561D01*
X171486607Y-68391034D01*
X171489547Y-68392532D01*
X171852438Y-68531833D01*
X172227901Y-68632438D01*
X172431793Y-68664732D01*
X172608576Y-68692732D01*
X172608584Y-68692733D01*
X172611824Y-68693246D01*
X173000000Y-68713589D01*
X173388176Y-68693246D01*
X173391416Y-68692733D01*
X173391424Y-68692732D01*
X173568207Y-68664732D01*
X173772099Y-68632438D01*
X174147562Y-68531833D01*
X174510453Y-68392532D01*
X174513393Y-68391034D01*
X174853854Y-68217561D01*
X174853861Y-68217557D01*
X174856795Y-68216062D01*
X175182793Y-68004357D01*
X175413993Y-67817134D01*
X175482314Y-67761809D01*
X175482318Y-67761806D01*
X175484876Y-67759734D01*
X175759734Y-67484876D01*
X175837130Y-67389301D01*
X175943552Y-67257881D01*
X176004357Y-67182793D01*
X176053501Y-67107118D01*
X176214264Y-66859563D01*
X176214266Y-66859560D01*
X176216062Y-66856794D01*
X176225177Y-66838906D01*
X176253233Y-66783842D01*
X176301981Y-66732227D01*
X176370896Y-66715161D01*
X176438098Y-66738062D01*
X176482250Y-66793659D01*
X176491500Y-66841045D01*
X176491500Y-140158955D01*
X176471498Y-140227076D01*
X176417842Y-140273569D01*
X176347568Y-140283673D01*
X176282988Y-140254179D01*
X176253233Y-140216158D01*
X176217561Y-140146147D01*
X176217557Y-140146140D01*
X176216062Y-140143206D01*
X176004357Y-139817207D01*
X175759734Y-139515124D01*
X175484876Y-139240266D01*
X175182793Y-138995643D01*
X174856795Y-138783938D01*
X174853861Y-138782443D01*
X174853854Y-138782439D01*
X174513393Y-138608966D01*
X174510453Y-138607468D01*
X174147562Y-138468167D01*
X173772099Y-138367562D01*
X173568207Y-138335268D01*
X173391424Y-138307268D01*
X173391416Y-138307267D01*
X173388176Y-138306754D01*
X173000000Y-138286411D01*
X172611824Y-138306754D01*
X172608584Y-138307267D01*
X172608576Y-138307268D01*
X172431793Y-138335268D01*
X172227901Y-138367562D01*
X171852438Y-138468167D01*
X171489547Y-138607468D01*
X171486607Y-138608966D01*
X171146147Y-138782439D01*
X171146140Y-138782443D01*
X171143206Y-138783938D01*
X171140440Y-138785734D01*
X171140437Y-138785736D01*
X170819971Y-138993848D01*
X170817207Y-138995643D01*
X170515124Y-139240266D01*
X170240266Y-139515124D01*
X169995643Y-139817207D01*
X169783938Y-140143206D01*
X169782443Y-140146140D01*
X169782439Y-140146147D01*
X169712366Y-140283673D01*
X169607468Y-140489547D01*
X169468167Y-140852438D01*
X169367562Y-141227901D01*
X169306754Y-141611824D01*
X169286411Y-142000000D01*
X169306754Y-142388176D01*
X169367562Y-142772099D01*
X169468167Y-143147562D01*
X169607468Y-143510453D01*
X169608966Y-143513393D01*
X169713074Y-143717715D01*
X169783938Y-143856794D01*
X169785734Y-143859560D01*
X169785736Y-143859563D01*
X169906308Y-144045229D01*
X169995643Y-144182793D01*
X170240266Y-144484876D01*
X170515124Y-144759734D01*
X170817207Y-145004357D01*
X171143205Y-145216062D01*
X171146139Y-145217557D01*
X171146146Y-145217561D01*
X171216157Y-145253233D01*
X171267772Y-145301981D01*
X171284838Y-145370896D01*
X171261937Y-145438098D01*
X171206340Y-145482250D01*
X171158954Y-145491500D01*
X127841046Y-145491500D01*
X127772925Y-145471498D01*
X127726432Y-145417842D01*
X127716328Y-145347568D01*
X127745822Y-145282988D01*
X127783843Y-145253233D01*
X127853854Y-145217561D01*
X127853861Y-145217557D01*
X127856795Y-145216062D01*
X128182793Y-145004357D01*
X128484876Y-144759734D01*
X128759734Y-144484876D01*
X129004357Y-144182793D01*
X129093692Y-144045229D01*
X129214264Y-143859563D01*
X129214266Y-143859560D01*
X129216062Y-143856794D01*
X129286927Y-143717715D01*
X129322380Y-143648134D01*
X134041500Y-143648134D01*
X134048255Y-143710316D01*
X134099385Y-143846705D01*
X134186739Y-143963261D01*
X134303295Y-144050615D01*
X134439684Y-144101745D01*
X134501866Y-144108500D01*
X135998134Y-144108500D01*
X136060316Y-144101745D01*
X136196705Y-144050615D01*
X136313261Y-143963261D01*
X136400615Y-143846705D01*
X136451745Y-143710316D01*
X136458500Y-143648134D01*
X138541500Y-143648134D01*
X138548255Y-143710316D01*
X138599385Y-143846705D01*
X138686739Y-143963261D01*
X138803295Y-144050615D01*
X138939684Y-144101745D01*
X139001866Y-144108500D01*
X140498134Y-144108500D01*
X140560316Y-144101745D01*
X140696705Y-144050615D01*
X140813261Y-143963261D01*
X140900615Y-143846705D01*
X140951745Y-143710316D01*
X140958500Y-143648134D01*
X146041500Y-143648134D01*
X146048255Y-143710316D01*
X146099385Y-143846705D01*
X146186739Y-143963261D01*
X146303295Y-144050615D01*
X146439684Y-144101745D01*
X146501866Y-144108500D01*
X147998134Y-144108500D01*
X148060316Y-144101745D01*
X148196705Y-144050615D01*
X148313261Y-143963261D01*
X148400615Y-143846705D01*
X148451745Y-143710316D01*
X148458500Y-143648134D01*
X150541500Y-143648134D01*
X150548255Y-143710316D01*
X150599385Y-143846705D01*
X150686739Y-143963261D01*
X150803295Y-144050615D01*
X150939684Y-144101745D01*
X151001866Y-144108500D01*
X152498134Y-144108500D01*
X152560316Y-144101745D01*
X152696705Y-144050615D01*
X152813261Y-143963261D01*
X152900615Y-143846705D01*
X152951745Y-143710316D01*
X152958500Y-143648134D01*
X158041500Y-143648134D01*
X158048255Y-143710316D01*
X158099385Y-143846705D01*
X158186739Y-143963261D01*
X158303295Y-144050615D01*
X158439684Y-144101745D01*
X158501866Y-144108500D01*
X159998134Y-144108500D01*
X160060316Y-144101745D01*
X160196705Y-144050615D01*
X160313261Y-143963261D01*
X160400615Y-143846705D01*
X160451745Y-143710316D01*
X160458500Y-143648134D01*
X162541500Y-143648134D01*
X162548255Y-143710316D01*
X162599385Y-143846705D01*
X162686739Y-143963261D01*
X162803295Y-144050615D01*
X162939684Y-144101745D01*
X163001866Y-144108500D01*
X164498134Y-144108500D01*
X164560316Y-144101745D01*
X164696705Y-144050615D01*
X164813261Y-143963261D01*
X164900615Y-143846705D01*
X164951745Y-143710316D01*
X164958500Y-143648134D01*
X164958500Y-141451866D01*
X164951745Y-141389684D01*
X164900615Y-141253295D01*
X164813261Y-141136739D01*
X164696705Y-141049385D01*
X164686092Y-141045406D01*
X164640270Y-141028228D01*
X164583505Y-140985586D01*
X164558806Y-140919024D01*
X164558500Y-140910246D01*
X164558500Y-139700397D01*
X164575380Y-139637398D01*
X164584527Y-139621556D01*
X164643542Y-139439928D01*
X164663504Y-139250000D01*
X164643542Y-139060072D01*
X164584527Y-138878444D01*
X164489040Y-138713056D01*
X164361253Y-138571134D01*
X164206752Y-138458882D01*
X164200724Y-138456198D01*
X164200722Y-138456197D01*
X164038319Y-138383891D01*
X164038318Y-138383891D01*
X164032288Y-138381206D01*
X163938887Y-138361353D01*
X163851944Y-138342872D01*
X163851939Y-138342872D01*
X163845487Y-138341500D01*
X163654513Y-138341500D01*
X163648061Y-138342872D01*
X163648056Y-138342872D01*
X163561113Y-138361353D01*
X163467712Y-138381206D01*
X163461682Y-138383891D01*
X163461681Y-138383891D01*
X163299278Y-138456197D01*
X163299276Y-138456198D01*
X163293248Y-138458882D01*
X163138747Y-138571134D01*
X163010960Y-138713056D01*
X162915473Y-138878444D01*
X162856458Y-139060072D01*
X162836496Y-139250000D01*
X162856458Y-139439928D01*
X162915473Y-139621556D01*
X162924620Y-139637398D01*
X162941500Y-139700397D01*
X162941500Y-140910246D01*
X162921498Y-140978367D01*
X162867842Y-141024860D01*
X162859730Y-141028228D01*
X162813908Y-141045406D01*
X162803295Y-141049385D01*
X162686739Y-141136739D01*
X162599385Y-141253295D01*
X162548255Y-141389684D01*
X162541500Y-141451866D01*
X162541500Y-143648134D01*
X160458500Y-143648134D01*
X160458500Y-141451866D01*
X160451745Y-141389684D01*
X160400615Y-141253295D01*
X160313261Y-141136739D01*
X160196705Y-141049385D01*
X160060316Y-140998255D01*
X159998134Y-140991500D01*
X158501866Y-140991500D01*
X158439684Y-140998255D01*
X158303295Y-141049385D01*
X158186739Y-141136739D01*
X158099385Y-141253295D01*
X158048255Y-141389684D01*
X158041500Y-141451866D01*
X158041500Y-143648134D01*
X152958500Y-143648134D01*
X152958500Y-141451866D01*
X152951745Y-141389684D01*
X152900615Y-141253295D01*
X152813261Y-141136739D01*
X152696705Y-141049385D01*
X152686092Y-141045406D01*
X152640270Y-141028228D01*
X152583505Y-140985586D01*
X152558806Y-140919024D01*
X152558500Y-140910246D01*
X152558500Y-139700397D01*
X152575380Y-139637398D01*
X152584527Y-139621556D01*
X152643542Y-139439928D01*
X152663504Y-139250000D01*
X152643542Y-139060072D01*
X152584527Y-138878444D01*
X152489040Y-138713056D01*
X152361253Y-138571134D01*
X152206752Y-138458882D01*
X152200724Y-138456198D01*
X152200722Y-138456197D01*
X152038319Y-138383891D01*
X152038318Y-138383891D01*
X152032288Y-138381206D01*
X151938887Y-138361353D01*
X151851944Y-138342872D01*
X151851939Y-138342872D01*
X151845487Y-138341500D01*
X151654513Y-138341500D01*
X151648061Y-138342872D01*
X151648056Y-138342872D01*
X151561113Y-138361353D01*
X151467712Y-138381206D01*
X151461682Y-138383891D01*
X151461681Y-138383891D01*
X151299278Y-138456197D01*
X151299276Y-138456198D01*
X151293248Y-138458882D01*
X151138747Y-138571134D01*
X151010960Y-138713056D01*
X150915473Y-138878444D01*
X150856458Y-139060072D01*
X150836496Y-139250000D01*
X150856458Y-139439928D01*
X150915473Y-139621556D01*
X150924620Y-139637398D01*
X150941500Y-139700397D01*
X150941500Y-140910246D01*
X150921498Y-140978367D01*
X150867842Y-141024860D01*
X150859730Y-141028228D01*
X150813908Y-141045406D01*
X150803295Y-141049385D01*
X150686739Y-141136739D01*
X150599385Y-141253295D01*
X150548255Y-141389684D01*
X150541500Y-141451866D01*
X150541500Y-143648134D01*
X148458500Y-143648134D01*
X148458500Y-141451866D01*
X148451745Y-141389684D01*
X148400615Y-141253295D01*
X148313261Y-141136739D01*
X148196705Y-141049385D01*
X148060316Y-140998255D01*
X147998134Y-140991500D01*
X146501866Y-140991500D01*
X146439684Y-140998255D01*
X146303295Y-141049385D01*
X146186739Y-141136739D01*
X146099385Y-141253295D01*
X146048255Y-141389684D01*
X146041500Y-141451866D01*
X146041500Y-143648134D01*
X140958500Y-143648134D01*
X140958500Y-141451866D01*
X140951745Y-141389684D01*
X140900615Y-141253295D01*
X140813261Y-141136739D01*
X140696705Y-141049385D01*
X140686092Y-141045406D01*
X140640270Y-141028228D01*
X140583505Y-140985586D01*
X140558806Y-140919024D01*
X140558500Y-140910246D01*
X140558500Y-139700397D01*
X140575380Y-139637398D01*
X140584527Y-139621556D01*
X140643542Y-139439928D01*
X140663504Y-139250000D01*
X140643542Y-139060072D01*
X140584527Y-138878444D01*
X140489040Y-138713056D01*
X140361253Y-138571134D01*
X140206752Y-138458882D01*
X140200724Y-138456198D01*
X140200722Y-138456197D01*
X140038319Y-138383891D01*
X140038318Y-138383891D01*
X140032288Y-138381206D01*
X139938887Y-138361353D01*
X139851944Y-138342872D01*
X139851939Y-138342872D01*
X139845487Y-138341500D01*
X139654513Y-138341500D01*
X139648061Y-138342872D01*
X139648056Y-138342872D01*
X139561113Y-138361353D01*
X139467712Y-138381206D01*
X139461682Y-138383891D01*
X139461681Y-138383891D01*
X139299278Y-138456197D01*
X139299276Y-138456198D01*
X139293248Y-138458882D01*
X139138747Y-138571134D01*
X139010960Y-138713056D01*
X138915473Y-138878444D01*
X138856458Y-139060072D01*
X138836496Y-139250000D01*
X138856458Y-139439928D01*
X138915473Y-139621556D01*
X138924620Y-139637398D01*
X138941500Y-139700397D01*
X138941500Y-140910246D01*
X138921498Y-140978367D01*
X138867842Y-141024860D01*
X138859730Y-141028228D01*
X138813908Y-141045406D01*
X138803295Y-141049385D01*
X138686739Y-141136739D01*
X138599385Y-141253295D01*
X138548255Y-141389684D01*
X138541500Y-141451866D01*
X138541500Y-143648134D01*
X136458500Y-143648134D01*
X136458500Y-141451866D01*
X136451745Y-141389684D01*
X136400615Y-141253295D01*
X136313261Y-141136739D01*
X136196705Y-141049385D01*
X136060316Y-140998255D01*
X135998134Y-140991500D01*
X134501866Y-140991500D01*
X134439684Y-140998255D01*
X134303295Y-141049385D01*
X134186739Y-141136739D01*
X134099385Y-141253295D01*
X134048255Y-141389684D01*
X134041500Y-141451866D01*
X134041500Y-143648134D01*
X129322380Y-143648134D01*
X129391034Y-143513393D01*
X129392532Y-143510453D01*
X129531833Y-143147562D01*
X129632438Y-142772099D01*
X129693246Y-142388176D01*
X129713589Y-142000000D01*
X129693246Y-141611824D01*
X129632438Y-141227901D01*
X129531833Y-140852438D01*
X129392532Y-140489547D01*
X129287634Y-140283673D01*
X129217561Y-140146147D01*
X129217557Y-140146140D01*
X129216062Y-140143206D01*
X129004357Y-139817207D01*
X128759734Y-139515124D01*
X128484876Y-139240266D01*
X128182793Y-138995643D01*
X127856795Y-138783938D01*
X127853861Y-138782443D01*
X127853854Y-138782439D01*
X127513393Y-138608966D01*
X127510453Y-138607468D01*
X127147562Y-138468167D01*
X126772099Y-138367562D01*
X126568207Y-138335268D01*
X126391424Y-138307268D01*
X126391416Y-138307267D01*
X126388176Y-138306754D01*
X126000000Y-138286411D01*
X125611824Y-138306754D01*
X125608584Y-138307267D01*
X125608576Y-138307268D01*
X125431793Y-138335268D01*
X125227901Y-138367562D01*
X124852438Y-138468167D01*
X124489547Y-138607468D01*
X124486607Y-138608966D01*
X124146147Y-138782439D01*
X124146140Y-138782443D01*
X124143206Y-138783938D01*
X124140440Y-138785734D01*
X124140437Y-138785736D01*
X123819971Y-138993848D01*
X123817207Y-138995643D01*
X123515124Y-139240266D01*
X123240266Y-139515124D01*
X122995643Y-139817207D01*
X122783938Y-140143206D01*
X122782443Y-140146140D01*
X122782439Y-140146147D01*
X122746767Y-140216158D01*
X122698019Y-140267773D01*
X122629104Y-140284839D01*
X122561902Y-140261938D01*
X122517750Y-140206341D01*
X122508500Y-140158955D01*
X122508500Y-130497095D01*
X130567001Y-130497095D01*
X130567338Y-130503614D01*
X130577257Y-130599206D01*
X130580149Y-130612600D01*
X130631588Y-130766784D01*
X130637761Y-130779962D01*
X130723063Y-130917807D01*
X130732099Y-130929208D01*
X130846829Y-131043739D01*
X130858240Y-131052751D01*
X130996243Y-131137816D01*
X131009424Y-131143963D01*
X131163710Y-131195138D01*
X131177086Y-131198005D01*
X131271438Y-131207672D01*
X131277854Y-131208000D01*
X131315385Y-131208000D01*
X131330624Y-131203525D01*
X131331829Y-131202135D01*
X131333500Y-131194452D01*
X131333500Y-130272115D01*
X131329025Y-130256876D01*
X131327635Y-130255671D01*
X131319952Y-130254000D01*
X130585116Y-130254000D01*
X130569877Y-130258475D01*
X130568672Y-130259865D01*
X130567001Y-130267548D01*
X130567001Y-130497095D01*
X122508500Y-130497095D01*
X122508500Y-129727885D01*
X130567000Y-129727885D01*
X130571475Y-129743124D01*
X130572865Y-129744329D01*
X130580548Y-129746000D01*
X131315385Y-129746000D01*
X131330624Y-129741525D01*
X131331829Y-129740135D01*
X131333500Y-129732452D01*
X131333500Y-128810116D01*
X131329025Y-128794877D01*
X131327635Y-128793672D01*
X131319952Y-128792001D01*
X131277905Y-128792001D01*
X131271386Y-128792338D01*
X131175794Y-128802257D01*
X131162400Y-128805149D01*
X131008216Y-128856588D01*
X130995038Y-128862761D01*
X130857193Y-128948063D01*
X130845792Y-128957099D01*
X130731261Y-129071829D01*
X130722249Y-129083240D01*
X130637184Y-129221243D01*
X130631037Y-129234424D01*
X130579862Y-129388710D01*
X130576995Y-129402086D01*
X130567328Y-129496438D01*
X130567000Y-129502855D01*
X130567000Y-129727885D01*
X122508500Y-129727885D01*
X122508500Y-85247095D01*
X130567001Y-85247095D01*
X130567338Y-85253614D01*
X130577257Y-85349206D01*
X130580149Y-85362600D01*
X130631588Y-85516784D01*
X130637761Y-85529962D01*
X130723063Y-85667807D01*
X130732099Y-85679208D01*
X130846829Y-85793739D01*
X130858240Y-85802751D01*
X130996243Y-85887816D01*
X131009424Y-85893963D01*
X131163710Y-85945138D01*
X131177086Y-85948005D01*
X131271438Y-85957672D01*
X131277854Y-85958000D01*
X131315385Y-85958000D01*
X131330624Y-85953525D01*
X131331829Y-85952135D01*
X131333500Y-85944452D01*
X131333500Y-85022115D01*
X131329025Y-85006876D01*
X131327635Y-85005671D01*
X131319952Y-85004000D01*
X130585116Y-85004000D01*
X130569877Y-85008475D01*
X130568672Y-85009865D01*
X130567001Y-85017548D01*
X130567001Y-85247095D01*
X122508500Y-85247095D01*
X122508500Y-84477885D01*
X130567000Y-84477885D01*
X130571475Y-84493124D01*
X130572865Y-84494329D01*
X130580548Y-84496000D01*
X131315385Y-84496000D01*
X131330624Y-84491525D01*
X131331829Y-84490135D01*
X131333500Y-84482452D01*
X131333500Y-83560116D01*
X131329025Y-83544877D01*
X131327635Y-83543672D01*
X131319952Y-83542001D01*
X131277905Y-83542001D01*
X131271386Y-83542338D01*
X131175794Y-83552257D01*
X131162400Y-83555149D01*
X131008216Y-83606588D01*
X130995038Y-83612761D01*
X130857193Y-83698063D01*
X130845792Y-83707099D01*
X130731261Y-83821829D01*
X130722249Y-83833240D01*
X130637184Y-83971243D01*
X130631037Y-83984424D01*
X130579862Y-84138710D01*
X130576995Y-84152086D01*
X130567328Y-84246438D01*
X130567000Y-84252855D01*
X130567000Y-84477885D01*
X122508500Y-84477885D01*
X122508500Y-71250000D01*
X132250000Y-71250000D01*
X132250000Y-83459496D01*
X132229998Y-83527617D01*
X132176342Y-83574110D01*
X132106068Y-83584214D01*
X132084333Y-83579089D01*
X132011293Y-83554863D01*
X131997914Y-83551995D01*
X131903562Y-83542328D01*
X131897145Y-83542000D01*
X131859615Y-83542000D01*
X131844376Y-83546475D01*
X131843171Y-83547865D01*
X131841500Y-83555548D01*
X131841500Y-85939884D01*
X131845975Y-85955123D01*
X131847365Y-85956328D01*
X131855048Y-85957999D01*
X131897095Y-85957999D01*
X131903614Y-85957662D01*
X131999206Y-85947743D01*
X132012600Y-85944851D01*
X132084124Y-85920989D01*
X132155074Y-85918405D01*
X132216158Y-85954589D01*
X132247982Y-86018053D01*
X132250000Y-86040513D01*
X132250000Y-128709496D01*
X132229998Y-128777617D01*
X132176342Y-128824110D01*
X132106068Y-128834214D01*
X132084333Y-128829089D01*
X132011293Y-128804863D01*
X131997914Y-128801995D01*
X131903562Y-128792328D01*
X131897145Y-128792000D01*
X131859615Y-128792000D01*
X131844376Y-128796475D01*
X131843171Y-128797865D01*
X131841500Y-128805548D01*
X131841500Y-131189884D01*
X131845975Y-131205123D01*
X131847365Y-131206328D01*
X131855048Y-131207999D01*
X131897095Y-131207999D01*
X131903614Y-131207662D01*
X131999206Y-131197743D01*
X132012600Y-131194851D01*
X132084124Y-131170989D01*
X132155074Y-131168405D01*
X132216158Y-131204589D01*
X132247982Y-131268053D01*
X132250000Y-131290513D01*
X132250000Y-133250000D01*
X133915500Y-133250000D01*
X133983621Y-133270002D01*
X134030114Y-133323658D01*
X134041500Y-133376000D01*
X134041500Y-134548134D01*
X134048255Y-134610316D01*
X134099385Y-134746705D01*
X134186739Y-134863261D01*
X134303295Y-134950615D01*
X134439684Y-135001745D01*
X134501866Y-135008500D01*
X135998134Y-135008500D01*
X136060316Y-135001745D01*
X136196705Y-134950615D01*
X136313261Y-134863261D01*
X136400615Y-134746705D01*
X136451745Y-134610316D01*
X136458500Y-134548134D01*
X136458500Y-133376000D01*
X136478502Y-133307879D01*
X136532158Y-133261386D01*
X136584500Y-133250000D01*
X138415500Y-133250000D01*
X138483621Y-133270002D01*
X138530114Y-133323658D01*
X138541500Y-133376000D01*
X138541500Y-134548134D01*
X138548255Y-134610316D01*
X138599385Y-134746705D01*
X138686739Y-134863261D01*
X138803295Y-134950615D01*
X138939684Y-135001745D01*
X139001866Y-135008500D01*
X140498134Y-135008500D01*
X140560316Y-135001745D01*
X140696705Y-134950615D01*
X140813261Y-134863261D01*
X140900615Y-134746705D01*
X140951745Y-134610316D01*
X140958500Y-134548134D01*
X140958500Y-134222095D01*
X142292001Y-134222095D01*
X142292338Y-134228614D01*
X142302257Y-134324206D01*
X142305149Y-134337600D01*
X142356588Y-134491784D01*
X142362761Y-134504962D01*
X142448063Y-134642807D01*
X142457099Y-134654208D01*
X142571829Y-134768739D01*
X142583240Y-134777751D01*
X142721243Y-134862816D01*
X142734424Y-134868963D01*
X142888710Y-134920138D01*
X142902086Y-134923005D01*
X142996438Y-134932672D01*
X143002854Y-134933000D01*
X143227885Y-134933000D01*
X143243124Y-134928525D01*
X143244329Y-134927135D01*
X143246000Y-134919452D01*
X143246000Y-134914884D01*
X143754000Y-134914884D01*
X143758475Y-134930123D01*
X143759865Y-134931328D01*
X143767548Y-134932999D01*
X143997095Y-134932999D01*
X144003614Y-134932662D01*
X144099206Y-134922743D01*
X144112600Y-134919851D01*
X144266784Y-134868412D01*
X144279962Y-134862239D01*
X144417807Y-134776937D01*
X144429208Y-134767901D01*
X144543739Y-134653171D01*
X144552751Y-134641760D01*
X144637816Y-134503757D01*
X144643963Y-134490576D01*
X144695138Y-134336290D01*
X144698005Y-134322914D01*
X144707672Y-134228562D01*
X144708000Y-134222146D01*
X144708000Y-134184615D01*
X144703525Y-134169376D01*
X144702135Y-134168171D01*
X144694452Y-134166500D01*
X143772115Y-134166500D01*
X143756876Y-134170975D01*
X143755671Y-134172365D01*
X143754000Y-134180048D01*
X143754000Y-134914884D01*
X143246000Y-134914884D01*
X143246000Y-134184615D01*
X143241525Y-134169376D01*
X143240135Y-134168171D01*
X143232452Y-134166500D01*
X142310116Y-134166500D01*
X142294877Y-134170975D01*
X142293672Y-134172365D01*
X142292001Y-134180048D01*
X142292001Y-134222095D01*
X140958500Y-134222095D01*
X140958500Y-133376000D01*
X140978502Y-133307879D01*
X141032158Y-133261386D01*
X141084500Y-133250000D01*
X142209496Y-133250000D01*
X142277617Y-133270002D01*
X142324110Y-133323658D01*
X142334214Y-133393932D01*
X142329089Y-133415667D01*
X142304863Y-133488707D01*
X142301995Y-133502086D01*
X142292328Y-133596438D01*
X142292000Y-133602855D01*
X142292000Y-133640385D01*
X142296475Y-133655624D01*
X142297865Y-133656829D01*
X142305548Y-133658500D01*
X144689884Y-133658500D01*
X144705123Y-133654025D01*
X144706328Y-133652635D01*
X144707999Y-133644952D01*
X144707999Y-133602905D01*
X144707662Y-133596386D01*
X144697743Y-133500794D01*
X144694851Y-133487400D01*
X144670989Y-133415876D01*
X144668405Y-133344926D01*
X144704589Y-133283842D01*
X144768053Y-133252018D01*
X144790513Y-133250000D01*
X145915500Y-133250000D01*
X145983621Y-133270002D01*
X146030114Y-133323658D01*
X146041500Y-133376000D01*
X146041500Y-134548134D01*
X146048255Y-134610316D01*
X146099385Y-134746705D01*
X146186739Y-134863261D01*
X146303295Y-134950615D01*
X146439684Y-135001745D01*
X146501866Y-135008500D01*
X147998134Y-135008500D01*
X148060316Y-135001745D01*
X148196705Y-134950615D01*
X148313261Y-134863261D01*
X148400615Y-134746705D01*
X148451745Y-134610316D01*
X148458500Y-134548134D01*
X148458500Y-133376000D01*
X148478502Y-133307879D01*
X148532158Y-133261386D01*
X148584500Y-133250000D01*
X150415500Y-133250000D01*
X150483621Y-133270002D01*
X150530114Y-133323658D01*
X150541500Y-133376000D01*
X150541500Y-134548134D01*
X150548255Y-134610316D01*
X150599385Y-134746705D01*
X150686739Y-134863261D01*
X150803295Y-134950615D01*
X150939684Y-135001745D01*
X151001866Y-135008500D01*
X152498134Y-135008500D01*
X152560316Y-135001745D01*
X152696705Y-134950615D01*
X152813261Y-134863261D01*
X152900615Y-134746705D01*
X152951745Y-134610316D01*
X152958500Y-134548134D01*
X152958500Y-134222095D01*
X154292001Y-134222095D01*
X154292338Y-134228614D01*
X154302257Y-134324206D01*
X154305149Y-134337600D01*
X154356588Y-134491784D01*
X154362761Y-134504962D01*
X154448063Y-134642807D01*
X154457099Y-134654208D01*
X154571829Y-134768739D01*
X154583240Y-134777751D01*
X154721243Y-134862816D01*
X154734424Y-134868963D01*
X154888710Y-134920138D01*
X154902086Y-134923005D01*
X154996438Y-134932672D01*
X155002854Y-134933000D01*
X155227885Y-134933000D01*
X155243124Y-134928525D01*
X155244329Y-134927135D01*
X155246000Y-134919452D01*
X155246000Y-134914884D01*
X155754000Y-134914884D01*
X155758475Y-134930123D01*
X155759865Y-134931328D01*
X155767548Y-134932999D01*
X155997095Y-134932999D01*
X156003614Y-134932662D01*
X156099206Y-134922743D01*
X156112600Y-134919851D01*
X156266784Y-134868412D01*
X156279962Y-134862239D01*
X156417807Y-134776937D01*
X156429208Y-134767901D01*
X156543739Y-134653171D01*
X156552751Y-134641760D01*
X156637816Y-134503757D01*
X156643963Y-134490576D01*
X156695138Y-134336290D01*
X156698005Y-134322914D01*
X156707672Y-134228562D01*
X156708000Y-134222146D01*
X156708000Y-134184615D01*
X156703525Y-134169376D01*
X156702135Y-134168171D01*
X156694452Y-134166500D01*
X155772115Y-134166500D01*
X155756876Y-134170975D01*
X155755671Y-134172365D01*
X155754000Y-134180048D01*
X155754000Y-134914884D01*
X155246000Y-134914884D01*
X155246000Y-134184615D01*
X155241525Y-134169376D01*
X155240135Y-134168171D01*
X155232452Y-134166500D01*
X154310116Y-134166500D01*
X154294877Y-134170975D01*
X154293672Y-134172365D01*
X154292001Y-134180048D01*
X154292001Y-134222095D01*
X152958500Y-134222095D01*
X152958500Y-133376000D01*
X152978502Y-133307879D01*
X153032158Y-133261386D01*
X153084500Y-133250000D01*
X154209496Y-133250000D01*
X154277617Y-133270002D01*
X154324110Y-133323658D01*
X154334214Y-133393932D01*
X154329089Y-133415667D01*
X154304863Y-133488707D01*
X154301995Y-133502086D01*
X154292328Y-133596438D01*
X154292000Y-133602855D01*
X154292000Y-133640385D01*
X154296475Y-133655624D01*
X154297865Y-133656829D01*
X154305548Y-133658500D01*
X156689884Y-133658500D01*
X156705123Y-133654025D01*
X156706328Y-133652635D01*
X156707999Y-133644952D01*
X156707999Y-133602905D01*
X156707662Y-133596386D01*
X156697743Y-133500794D01*
X156694851Y-133487400D01*
X156670989Y-133415876D01*
X156668405Y-133344926D01*
X156704589Y-133283842D01*
X156768053Y-133252018D01*
X156790513Y-133250000D01*
X157915500Y-133250000D01*
X157983621Y-133270002D01*
X158030114Y-133323658D01*
X158041500Y-133376000D01*
X158041500Y-134548134D01*
X158048255Y-134610316D01*
X158099385Y-134746705D01*
X158186739Y-134863261D01*
X158303295Y-134950615D01*
X158439684Y-135001745D01*
X158501866Y-135008500D01*
X159998134Y-135008500D01*
X160060316Y-135001745D01*
X160196705Y-134950615D01*
X160313261Y-134863261D01*
X160400615Y-134746705D01*
X160451745Y-134610316D01*
X160458500Y-134548134D01*
X160458500Y-133376000D01*
X160478502Y-133307879D01*
X160532158Y-133261386D01*
X160584500Y-133250000D01*
X162415500Y-133250000D01*
X162483621Y-133270002D01*
X162530114Y-133323658D01*
X162541500Y-133376000D01*
X162541500Y-134548134D01*
X162548255Y-134610316D01*
X162599385Y-134746705D01*
X162686739Y-134863261D01*
X162803295Y-134950615D01*
X162939684Y-135001745D01*
X163001866Y-135008500D01*
X164498134Y-135008500D01*
X164560316Y-135001745D01*
X164696705Y-134950615D01*
X164813261Y-134863261D01*
X164900615Y-134746705D01*
X164951745Y-134610316D01*
X164958500Y-134548134D01*
X164958500Y-133376000D01*
X164978502Y-133307879D01*
X165032158Y-133261386D01*
X165084500Y-133250000D01*
X167000000Y-133250000D01*
X167000000Y-130778695D01*
X167020002Y-130710574D01*
X167052832Y-130676116D01*
X167129860Y-130621173D01*
X167288096Y-130463489D01*
X167418453Y-130282077D01*
X167423377Y-130272115D01*
X167515136Y-130086453D01*
X167515137Y-130086451D01*
X167517430Y-130081811D01*
X167582370Y-129868069D01*
X167611529Y-129646590D01*
X167611771Y-129636695D01*
X167613074Y-129583365D01*
X167613074Y-129583361D01*
X167613156Y-129580000D01*
X167594852Y-129357361D01*
X167540431Y-129140702D01*
X167509333Y-129069181D01*
X167500513Y-128998734D01*
X167531180Y-128934703D01*
X167560738Y-128910489D01*
X167566846Y-128906876D01*
X167573794Y-128903826D01*
X167624491Y-128864924D01*
X167629821Y-128861052D01*
X167676209Y-128829172D01*
X167676214Y-128829167D01*
X167682470Y-128824868D01*
X167699684Y-128805548D01*
X167723924Y-128778341D01*
X167728905Y-128773065D01*
X168230520Y-128271450D01*
X168236785Y-128265596D01*
X168274660Y-128232555D01*
X168280385Y-128227561D01*
X168317114Y-128175300D01*
X168321046Y-128170005D01*
X168355791Y-128125694D01*
X168360477Y-128119718D01*
X168363602Y-128112796D01*
X168364964Y-128110548D01*
X168373368Y-128095815D01*
X168374622Y-128093476D01*
X168378990Y-128087261D01*
X168381749Y-128080185D01*
X168381751Y-128080181D01*
X168402200Y-128027731D01*
X168404749Y-128021666D01*
X168431045Y-127963427D01*
X168432429Y-127955962D01*
X168433226Y-127953418D01*
X168437859Y-127937152D01*
X168438521Y-127934572D01*
X168441282Y-127927491D01*
X168449622Y-127864143D01*
X168450653Y-127857629D01*
X168462296Y-127794813D01*
X168458709Y-127732607D01*
X168458500Y-127725353D01*
X168458500Y-121528912D01*
X168458792Y-121520342D01*
X168462209Y-121470224D01*
X168462209Y-121470220D01*
X168462725Y-121462648D01*
X168451738Y-121399697D01*
X168450776Y-121393175D01*
X168443102Y-121329758D01*
X168440419Y-121322657D01*
X168439778Y-121320048D01*
X168435315Y-121303738D01*
X168434550Y-121301202D01*
X168433243Y-121293716D01*
X168407556Y-121235200D01*
X168405065Y-121229096D01*
X168385173Y-121176452D01*
X168385172Y-121176451D01*
X168382487Y-121169344D01*
X168378183Y-121163081D01*
X168376946Y-121160715D01*
X168368701Y-121145903D01*
X168367368Y-121143649D01*
X168364315Y-121136695D01*
X168325413Y-121085998D01*
X168321541Y-121080668D01*
X168289661Y-121034280D01*
X168289656Y-121034275D01*
X168285357Y-121028019D01*
X168238829Y-120986564D01*
X168233554Y-120981584D01*
X167245405Y-119993435D01*
X167211379Y-119931123D01*
X167208500Y-119904340D01*
X167208500Y-106191412D01*
X167208792Y-106182842D01*
X167212209Y-106132724D01*
X167212209Y-106132720D01*
X167212725Y-106125148D01*
X167201738Y-106062197D01*
X167200776Y-106055675D01*
X167194014Y-105999798D01*
X167193102Y-105992258D01*
X167190419Y-105985157D01*
X167189778Y-105982548D01*
X167185315Y-105966238D01*
X167184550Y-105963702D01*
X167183243Y-105956216D01*
X167157556Y-105897700D01*
X167155065Y-105891596D01*
X167135173Y-105838952D01*
X167135172Y-105838951D01*
X167132487Y-105831844D01*
X167128183Y-105825581D01*
X167126946Y-105823215D01*
X167118701Y-105808403D01*
X167117368Y-105806149D01*
X167114315Y-105799195D01*
X167075413Y-105748498D01*
X167071541Y-105743168D01*
X167039661Y-105696780D01*
X167039656Y-105696775D01*
X167035357Y-105690519D01*
X167031137Y-105686759D01*
X167001441Y-105623183D01*
X167000000Y-105604183D01*
X167000000Y-103395863D01*
X167020002Y-103327742D01*
X167028429Y-103316706D01*
X167030865Y-103314581D01*
X167067609Y-103262300D01*
X167071541Y-103257006D01*
X167106271Y-103212713D01*
X167110956Y-103206738D01*
X167114079Y-103199822D01*
X167115463Y-103197536D01*
X167123837Y-103182855D01*
X167125102Y-103180495D01*
X167129470Y-103174281D01*
X167152683Y-103114743D01*
X167155239Y-103108662D01*
X167178398Y-103057372D01*
X167181525Y-103050447D01*
X167182909Y-103042980D01*
X167183710Y-103040425D01*
X167188339Y-103024172D01*
X167189002Y-103021592D01*
X167191762Y-103014511D01*
X167200102Y-102951159D01*
X167201133Y-102944652D01*
X167211392Y-102889300D01*
X167212776Y-102881834D01*
X167209189Y-102819628D01*
X167208980Y-102812374D01*
X167208980Y-94439884D01*
X167666500Y-94439884D01*
X167670975Y-94455123D01*
X167672365Y-94456328D01*
X167680048Y-94457999D01*
X167722095Y-94457999D01*
X167728614Y-94457662D01*
X167824206Y-94447743D01*
X167837600Y-94444851D01*
X167991784Y-94393412D01*
X168004962Y-94387239D01*
X168142807Y-94301937D01*
X168154208Y-94292901D01*
X168268739Y-94178171D01*
X168277751Y-94166760D01*
X168362816Y-94028757D01*
X168368963Y-94015576D01*
X168420138Y-93861290D01*
X168423005Y-93847914D01*
X168432672Y-93753562D01*
X168433000Y-93747146D01*
X168433000Y-93522115D01*
X168428525Y-93506876D01*
X168427135Y-93505671D01*
X168419452Y-93504000D01*
X167684615Y-93504000D01*
X167669376Y-93508475D01*
X167668171Y-93509865D01*
X167666500Y-93517548D01*
X167666500Y-94439884D01*
X167208980Y-94439884D01*
X167208980Y-92977885D01*
X167666500Y-92977885D01*
X167670975Y-92993124D01*
X167672365Y-92994329D01*
X167680048Y-92996000D01*
X168414884Y-92996000D01*
X168430123Y-92991525D01*
X168431328Y-92990135D01*
X168432999Y-92982452D01*
X168432999Y-92752905D01*
X168432662Y-92746386D01*
X168422743Y-92650794D01*
X168419851Y-92637400D01*
X168368412Y-92483216D01*
X168362239Y-92470038D01*
X168276934Y-92332189D01*
X168273820Y-92328259D01*
X168247185Y-92262448D01*
X168260358Y-92192684D01*
X168273690Y-92171901D01*
X168277752Y-92166758D01*
X168362816Y-92028757D01*
X168368963Y-92015576D01*
X168420138Y-91861290D01*
X168423005Y-91847914D01*
X168432672Y-91753562D01*
X168433000Y-91747146D01*
X168433000Y-91522115D01*
X168428525Y-91506876D01*
X168427135Y-91505671D01*
X168419452Y-91504000D01*
X167684615Y-91504000D01*
X167669376Y-91508475D01*
X167668171Y-91509865D01*
X167666500Y-91517548D01*
X167666500Y-92977885D01*
X167208980Y-92977885D01*
X167208980Y-90977885D01*
X167666500Y-90977885D01*
X167670975Y-90993124D01*
X167672365Y-90994329D01*
X167680048Y-90996000D01*
X168414884Y-90996000D01*
X168430123Y-90991525D01*
X168431328Y-90990135D01*
X168432999Y-90982452D01*
X168432999Y-90752905D01*
X168432662Y-90746386D01*
X168422743Y-90650794D01*
X168419851Y-90637400D01*
X168368412Y-90483216D01*
X168362239Y-90470038D01*
X168276937Y-90332193D01*
X168267901Y-90320792D01*
X168153171Y-90206261D01*
X168141760Y-90197249D01*
X168003757Y-90112184D01*
X167990576Y-90106037D01*
X167836290Y-90054862D01*
X167822914Y-90051995D01*
X167728562Y-90042328D01*
X167722145Y-90042000D01*
X167684615Y-90042000D01*
X167669376Y-90046475D01*
X167668171Y-90047865D01*
X167666500Y-90055548D01*
X167666500Y-90977885D01*
X167208980Y-90977885D01*
X167208980Y-79532680D01*
X167228982Y-79464559D01*
X167245885Y-79443585D01*
X173469066Y-73220404D01*
X173531378Y-73186378D01*
X173558161Y-73183499D01*
X174006230Y-73183499D01*
X174111129Y-73172616D01*
X174117660Y-73170437D01*
X174117665Y-73170436D01*
X174270578Y-73119420D01*
X174277526Y-73117102D01*
X174426689Y-73024797D01*
X174550617Y-72900653D01*
X174642661Y-72751329D01*
X174697885Y-72584835D01*
X174708500Y-72481231D01*
X174708499Y-71893770D01*
X174697616Y-71788871D01*
X174695437Y-71782340D01*
X174695436Y-71782335D01*
X174644420Y-71629422D01*
X174642102Y-71622474D01*
X174549797Y-71473311D01*
X174425653Y-71349383D01*
X174422413Y-71347386D01*
X174382186Y-71290648D01*
X174378953Y-71219725D01*
X174414578Y-71158313D01*
X174423078Y-71150934D01*
X174431552Y-71144218D01*
X174545051Y-71030521D01*
X174554063Y-71019110D01*
X174638365Y-70882346D01*
X174644509Y-70869168D01*
X174695227Y-70716260D01*
X174698093Y-70702894D01*
X174707672Y-70609399D01*
X174708000Y-70602984D01*
X174708000Y-70584615D01*
X174703525Y-70569376D01*
X174702135Y-70568171D01*
X174694452Y-70566500D01*
X172310116Y-70566500D01*
X172294877Y-70570975D01*
X172293672Y-70572365D01*
X172292001Y-70580048D01*
X172292001Y-70602933D01*
X172292338Y-70609452D01*
X172302166Y-70704170D01*
X172305058Y-70717564D01*
X172356036Y-70870365D01*
X172362210Y-70883543D01*
X172446744Y-71020149D01*
X172455780Y-71031550D01*
X172569479Y-71145051D01*
X172576751Y-71150794D01*
X172617814Y-71208711D01*
X172621046Y-71279634D01*
X172585421Y-71341046D01*
X172578746Y-71346840D01*
X172573311Y-71350203D01*
X172449383Y-71474347D01*
X172357339Y-71623671D01*
X172355034Y-71630619D01*
X172355034Y-71630620D01*
X172323225Y-71726522D01*
X172302115Y-71790165D01*
X172291500Y-71893769D01*
X172291500Y-71896986D01*
X172291501Y-72341839D01*
X172271499Y-72409960D01*
X172254596Y-72430934D01*
X167215095Y-77470435D01*
X167152783Y-77504461D01*
X167081968Y-77499396D01*
X167025132Y-77456849D01*
X167000321Y-77390329D01*
X167000000Y-77381340D01*
X167000000Y-70040385D01*
X172292000Y-70040385D01*
X172296475Y-70055624D01*
X172297865Y-70056829D01*
X172305548Y-70058500D01*
X173227885Y-70058500D01*
X173243124Y-70054025D01*
X173244329Y-70052635D01*
X173246000Y-70044952D01*
X173246000Y-70040385D01*
X173754000Y-70040385D01*
X173758475Y-70055624D01*
X173759865Y-70056829D01*
X173767548Y-70058500D01*
X174689884Y-70058500D01*
X174705123Y-70054025D01*
X174706328Y-70052635D01*
X174707999Y-70044952D01*
X174707999Y-70022067D01*
X174707662Y-70015548D01*
X174697834Y-69920830D01*
X174694942Y-69907436D01*
X174643964Y-69754635D01*
X174637790Y-69741457D01*
X174553256Y-69604851D01*
X174544220Y-69593450D01*
X174430521Y-69479949D01*
X174419110Y-69470937D01*
X174282346Y-69386635D01*
X174269168Y-69380491D01*
X174116260Y-69329773D01*
X174102894Y-69326907D01*
X174009399Y-69317328D01*
X174002984Y-69317000D01*
X173772115Y-69317000D01*
X173756876Y-69321475D01*
X173755671Y-69322865D01*
X173754000Y-69330548D01*
X173754000Y-70040385D01*
X173246000Y-70040385D01*
X173246000Y-69335116D01*
X173241525Y-69319877D01*
X173240135Y-69318672D01*
X173232452Y-69317001D01*
X172997067Y-69317001D01*
X172990548Y-69317338D01*
X172895830Y-69327166D01*
X172882436Y-69330058D01*
X172729635Y-69381036D01*
X172716457Y-69387210D01*
X172579851Y-69471744D01*
X172568450Y-69480780D01*
X172454949Y-69594479D01*
X172445937Y-69605890D01*
X172361635Y-69742654D01*
X172355491Y-69755832D01*
X172304773Y-69908740D01*
X172301907Y-69922106D01*
X172292328Y-70015601D01*
X172292000Y-70022016D01*
X172292000Y-70040385D01*
X167000000Y-70040385D01*
X167000000Y-68000000D01*
X154954500Y-68000000D01*
X154886379Y-67979998D01*
X154839886Y-67926342D01*
X154828500Y-67874000D01*
X154828500Y-67530231D01*
X154827814Y-67523227D01*
X154814681Y-67389301D01*
X154814080Y-67383167D01*
X154795460Y-67321493D01*
X154781616Y-67275641D01*
X154756916Y-67193831D01*
X154664066Y-67019204D01*
X154556238Y-66886994D01*
X154542960Y-66870713D01*
X154542957Y-66870710D01*
X154539065Y-66865938D01*
X154528012Y-66856794D01*
X154391425Y-66743799D01*
X154391421Y-66743797D01*
X154386675Y-66739870D01*
X154212701Y-66645802D01*
X154023768Y-66587318D01*
X154017643Y-66586674D01*
X154017642Y-66586674D01*
X153833204Y-66567289D01*
X153833202Y-66567289D01*
X153827075Y-66566645D01*
X153744576Y-66574153D01*
X153636251Y-66584011D01*
X153636248Y-66584012D01*
X153630112Y-66584570D01*
X153624206Y-66586308D01*
X153624202Y-66586309D01*
X153519076Y-66617249D01*
X153440381Y-66640410D01*
X153434923Y-66643263D01*
X153434919Y-66643265D01*
X153344147Y-66690720D01*
X153265110Y-66732040D01*
X153110975Y-66855968D01*
X153062600Y-66913619D01*
X153003493Y-66952944D01*
X152932506Y-66954070D01*
X152889552Y-66932722D01*
X152829743Y-66886994D01*
X152829739Y-66886991D01*
X152824322Y-66882850D01*
X152719186Y-66833825D01*
X152666369Y-66809195D01*
X152666366Y-66809194D01*
X152660192Y-66806315D01*
X152653544Y-66804829D01*
X152653541Y-66804828D01*
X152488494Y-66767936D01*
X152488495Y-66767936D01*
X152483457Y-66766810D01*
X152477912Y-66766500D01*
X152344756Y-66766500D01*
X152209963Y-66781143D01*
X152126609Y-66809195D01*
X152044796Y-66836728D01*
X152044794Y-66836729D01*
X152038325Y-66838906D01*
X151883095Y-66932177D01*
X151878138Y-66936865D01*
X151878135Y-66936867D01*
X151756473Y-67051918D01*
X151751515Y-67056607D01*
X151747683Y-67062245D01*
X151747680Y-67062249D01*
X151665758Y-67182793D01*
X151649723Y-67206388D01*
X151582470Y-67374534D01*
X151581356Y-67381262D01*
X151581355Y-67381266D01*
X151554007Y-67546461D01*
X151552892Y-67553198D01*
X151553249Y-67560015D01*
X151553249Y-67560019D01*
X151559480Y-67678906D01*
X151543071Y-67747980D01*
X151491922Y-67797217D01*
X151433653Y-67811500D01*
X151051866Y-67811500D01*
X151048471Y-67811869D01*
X151048467Y-67811869D01*
X151022469Y-67814693D01*
X151013606Y-67815656D01*
X150986396Y-67815656D01*
X150976064Y-67814534D01*
X150971341Y-67814021D01*
X150905778Y-67786782D01*
X150863948Y-67723911D01*
X150861356Y-67714988D01*
X150861356Y-67714987D01*
X150859145Y-67707378D01*
X150848225Y-67688913D01*
X150839534Y-67671173D01*
X150831635Y-67651222D01*
X150804482Y-67613849D01*
X150797967Y-67603930D01*
X150778493Y-67571001D01*
X150778490Y-67570997D01*
X150774453Y-67564171D01*
X150759289Y-67549007D01*
X150746448Y-67533973D01*
X150733841Y-67516621D01*
X150698247Y-67487175D01*
X150689468Y-67479186D01*
X150552677Y-67342395D01*
X150544687Y-67333615D01*
X150544685Y-67333613D01*
X150540438Y-67326920D01*
X150488764Y-67278395D01*
X150485923Y-67275641D01*
X150465355Y-67255073D01*
X150461848Y-67252353D01*
X150452826Y-67244647D01*
X150419155Y-67213028D01*
X150407077Y-67206388D01*
X150400364Y-67202697D01*
X150383840Y-67191843D01*
X150373154Y-67183555D01*
X150366890Y-67178696D01*
X150359618Y-67175549D01*
X150359616Y-67175548D01*
X150324487Y-67160346D01*
X150313827Y-67155124D01*
X150280306Y-67136695D01*
X150280304Y-67136694D01*
X150273359Y-67132876D01*
X150252581Y-67127541D01*
X150233891Y-67121142D01*
X150214198Y-67112620D01*
X150168574Y-67105394D01*
X150156951Y-67102987D01*
X150122683Y-67094189D01*
X150112210Y-67091500D01*
X150090763Y-67091500D01*
X150071053Y-67089949D01*
X150057699Y-67087834D01*
X150049870Y-67086594D01*
X150003881Y-67090941D01*
X149992026Y-67091500D01*
X149582056Y-67091500D01*
X149570200Y-67090941D01*
X149570197Y-67090941D01*
X149562463Y-67089212D01*
X149507446Y-67090941D01*
X149491631Y-67091438D01*
X149487673Y-67091500D01*
X149458568Y-67091500D01*
X149454168Y-67092056D01*
X149442336Y-67092988D01*
X149396169Y-67094438D01*
X149375579Y-67100420D01*
X149356218Y-67104430D01*
X149349230Y-67105312D01*
X149342796Y-67106125D01*
X149342795Y-67106125D01*
X149334936Y-67107118D01*
X149327571Y-67110034D01*
X149327567Y-67110035D01*
X149291979Y-67124126D01*
X149280769Y-67127965D01*
X149236400Y-67140855D01*
X149217943Y-67151771D01*
X149200193Y-67160466D01*
X149180244Y-67168365D01*
X149173833Y-67173023D01*
X149173831Y-67173024D01*
X149142864Y-67195523D01*
X149132946Y-67202038D01*
X149093193Y-67225548D01*
X149078032Y-67240709D01*
X149063000Y-67253548D01*
X149045643Y-67266159D01*
X149040589Y-67272268D01*
X149016194Y-67301756D01*
X149008205Y-67310535D01*
X148842397Y-67476343D01*
X148833618Y-67484332D01*
X148833612Y-67484337D01*
X148826920Y-67488584D01*
X148821495Y-67494361D01*
X148778395Y-67540258D01*
X148775640Y-67543100D01*
X148755073Y-67563667D01*
X148752356Y-67567170D01*
X148744648Y-67576195D01*
X148713028Y-67609867D01*
X148709207Y-67616818D01*
X148709206Y-67616819D01*
X148702697Y-67628658D01*
X148691843Y-67645182D01*
X148685360Y-67653541D01*
X148678696Y-67662132D01*
X148675549Y-67669404D01*
X148675548Y-67669406D01*
X148660346Y-67704535D01*
X148655123Y-67715196D01*
X148636973Y-67748210D01*
X148586627Y-67798268D01*
X148540166Y-67812771D01*
X148513606Y-67815656D01*
X148486394Y-67815656D01*
X148477531Y-67814693D01*
X148451533Y-67811869D01*
X148451529Y-67811869D01*
X148448134Y-67811500D01*
X148051866Y-67811500D01*
X148048471Y-67811869D01*
X148048467Y-67811869D01*
X148022469Y-67814693D01*
X148013606Y-67815656D01*
X147986394Y-67815656D01*
X147977531Y-67814693D01*
X147951533Y-67811869D01*
X147951529Y-67811869D01*
X147948134Y-67811500D01*
X147568416Y-67811500D01*
X147500295Y-67791498D01*
X147453802Y-67737842D01*
X147444109Y-67664917D01*
X147445993Y-67653541D01*
X147445993Y-67653535D01*
X147447108Y-67646802D01*
X147445173Y-67609867D01*
X147438487Y-67482314D01*
X147437630Y-67465953D01*
X147414304Y-67381266D01*
X147391352Y-67297941D01*
X147389539Y-67291359D01*
X147305078Y-67131164D01*
X147300673Y-67125951D01*
X147300670Y-67125947D01*
X147192594Y-66998057D01*
X147192590Y-66998053D01*
X147188187Y-66992843D01*
X147182762Y-66988695D01*
X147049743Y-66886994D01*
X147049739Y-66886991D01*
X147044322Y-66882850D01*
X146939186Y-66833825D01*
X146886369Y-66809195D01*
X146886366Y-66809194D01*
X146880192Y-66806315D01*
X146873544Y-66804829D01*
X146873541Y-66804828D01*
X146708494Y-66767936D01*
X146708495Y-66767936D01*
X146703457Y-66766810D01*
X146697912Y-66766500D01*
X146564756Y-66766500D01*
X146429963Y-66781143D01*
X146346609Y-66809195D01*
X146264796Y-66836728D01*
X146264794Y-66836729D01*
X146258325Y-66838906D01*
X146103095Y-66932177D01*
X146102671Y-66931472D01*
X146041480Y-66954762D01*
X145972007Y-66940135D01*
X145934008Y-66908782D01*
X145912858Y-66882850D01*
X145899065Y-66865938D01*
X145888012Y-66856794D01*
X145751425Y-66743799D01*
X145751421Y-66743797D01*
X145746675Y-66739870D01*
X145572701Y-66645802D01*
X145383768Y-66587318D01*
X145377643Y-66586674D01*
X145377642Y-66586674D01*
X145193204Y-66567289D01*
X145193202Y-66567289D01*
X145187075Y-66566645D01*
X145104576Y-66574153D01*
X144996251Y-66584011D01*
X144996248Y-66584012D01*
X144990112Y-66584570D01*
X144984206Y-66586308D01*
X144984202Y-66586309D01*
X144879076Y-66617249D01*
X144800381Y-66640410D01*
X144794923Y-66643263D01*
X144794919Y-66643265D01*
X144704147Y-66690720D01*
X144625110Y-66732040D01*
X144470975Y-66855968D01*
X144343846Y-67007474D01*
X144340879Y-67012872D01*
X144340875Y-67012877D01*
X144275990Y-67130905D01*
X144248567Y-67180787D01*
X144246706Y-67186654D01*
X144246705Y-67186656D01*
X144225485Y-67253551D01*
X144188765Y-67369306D01*
X144171500Y-67523227D01*
X144171500Y-67874000D01*
X144151498Y-67942121D01*
X144097842Y-67988614D01*
X144045500Y-68000000D01*
X144000000Y-68000000D01*
X144000000Y-64299769D01*
X144171500Y-64299769D01*
X144171800Y-64302825D01*
X144171800Y-64302832D01*
X144172530Y-64310273D01*
X144185920Y-64446833D01*
X144243084Y-64636169D01*
X144335934Y-64810796D01*
X144406291Y-64897062D01*
X144457040Y-64959287D01*
X144457043Y-64959290D01*
X144460935Y-64964062D01*
X144465682Y-64967989D01*
X144465684Y-64967991D01*
X144608575Y-65086201D01*
X144608579Y-65086203D01*
X144613325Y-65090130D01*
X144787299Y-65184198D01*
X144976232Y-65242682D01*
X144982357Y-65243326D01*
X144982358Y-65243326D01*
X145166796Y-65262711D01*
X145166798Y-65262711D01*
X145172925Y-65263355D01*
X145255424Y-65255847D01*
X145363749Y-65245989D01*
X145363752Y-65245988D01*
X145369888Y-65245430D01*
X145375794Y-65243692D01*
X145375798Y-65243691D01*
X145480924Y-65212751D01*
X145559619Y-65189590D01*
X145565077Y-65186737D01*
X145565081Y-65186735D01*
X145655853Y-65139280D01*
X145734890Y-65097960D01*
X145889025Y-64974032D01*
X146016154Y-64822526D01*
X146019121Y-64817128D01*
X146019125Y-64817123D01*
X146108467Y-64654608D01*
X146111433Y-64649213D01*
X146113846Y-64641608D01*
X146169373Y-64466564D01*
X146169373Y-64466563D01*
X146171235Y-64460694D01*
X146188500Y-64306773D01*
X146188500Y-64299769D01*
X152811500Y-64299769D01*
X152811800Y-64302825D01*
X152811800Y-64302832D01*
X152812530Y-64310273D01*
X152825920Y-64446833D01*
X152883084Y-64636169D01*
X152975934Y-64810796D01*
X153046291Y-64897062D01*
X153097040Y-64959287D01*
X153097043Y-64959290D01*
X153100935Y-64964062D01*
X153105682Y-64967989D01*
X153105684Y-64967991D01*
X153248575Y-65086201D01*
X153248579Y-65086203D01*
X153253325Y-65090130D01*
X153427299Y-65184198D01*
X153616232Y-65242682D01*
X153622357Y-65243326D01*
X153622358Y-65243326D01*
X153806796Y-65262711D01*
X153806798Y-65262711D01*
X153812925Y-65263355D01*
X153895424Y-65255847D01*
X154003749Y-65245989D01*
X154003752Y-65245988D01*
X154009888Y-65245430D01*
X154015794Y-65243692D01*
X154015798Y-65243691D01*
X154120924Y-65212751D01*
X154199619Y-65189590D01*
X154205077Y-65186737D01*
X154205081Y-65186735D01*
X154295853Y-65139280D01*
X154374890Y-65097960D01*
X154529025Y-64974032D01*
X154656154Y-64822526D01*
X154659121Y-64817128D01*
X154659125Y-64817123D01*
X154748467Y-64654608D01*
X154751433Y-64649213D01*
X154753846Y-64641608D01*
X154809373Y-64466564D01*
X154809373Y-64466563D01*
X154811235Y-64460694D01*
X154828500Y-64306773D01*
X154828500Y-63600231D01*
X154827814Y-63593227D01*
X154822463Y-63538660D01*
X154814080Y-63453167D01*
X154756916Y-63263831D01*
X154664066Y-63089204D01*
X154593709Y-63002938D01*
X154542960Y-62940713D01*
X154542957Y-62940710D01*
X154539065Y-62935938D01*
X154532724Y-62930692D01*
X154391425Y-62813799D01*
X154391421Y-62813797D01*
X154386675Y-62809870D01*
X154212701Y-62715802D01*
X154023768Y-62657318D01*
X154017643Y-62656674D01*
X154017642Y-62656674D01*
X153833204Y-62637289D01*
X153833202Y-62637289D01*
X153827075Y-62636645D01*
X153744576Y-62644153D01*
X153636251Y-62654011D01*
X153636248Y-62654012D01*
X153630112Y-62654570D01*
X153624206Y-62656308D01*
X153624202Y-62656309D01*
X153519076Y-62687249D01*
X153440381Y-62710410D01*
X153434923Y-62713263D01*
X153434919Y-62713265D01*
X153376889Y-62743603D01*
X153265110Y-62802040D01*
X153110975Y-62925968D01*
X152983846Y-63077474D01*
X152980879Y-63082872D01*
X152980875Y-63082877D01*
X152946093Y-63146147D01*
X152888567Y-63250787D01*
X152886706Y-63256654D01*
X152886705Y-63256656D01*
X152830627Y-63433436D01*
X152828765Y-63439306D01*
X152811500Y-63593227D01*
X152811500Y-64299769D01*
X146188500Y-64299769D01*
X146188500Y-63600231D01*
X146187814Y-63593227D01*
X146182463Y-63538660D01*
X146174080Y-63453167D01*
X146116916Y-63263831D01*
X146024066Y-63089204D01*
X145953709Y-63002938D01*
X145902960Y-62940713D01*
X145902957Y-62940710D01*
X145899065Y-62935938D01*
X145892724Y-62930692D01*
X145751425Y-62813799D01*
X145751421Y-62813797D01*
X145746675Y-62809870D01*
X145572701Y-62715802D01*
X145383768Y-62657318D01*
X145377643Y-62656674D01*
X145377642Y-62656674D01*
X145193204Y-62637289D01*
X145193202Y-62637289D01*
X145187075Y-62636645D01*
X145104576Y-62644153D01*
X144996251Y-62654011D01*
X144996248Y-62654012D01*
X144990112Y-62654570D01*
X144984206Y-62656308D01*
X144984202Y-62656309D01*
X144879076Y-62687249D01*
X144800381Y-62710410D01*
X144794923Y-62713263D01*
X144794919Y-62713265D01*
X144736889Y-62743603D01*
X144625110Y-62802040D01*
X144470975Y-62925968D01*
X144343846Y-63077474D01*
X144340879Y-63082872D01*
X144340875Y-63082877D01*
X144306093Y-63146147D01*
X144248567Y-63250787D01*
X144246706Y-63256654D01*
X144246705Y-63256656D01*
X144190627Y-63433436D01*
X144188765Y-63439306D01*
X144171500Y-63593227D01*
X144171500Y-64299769D01*
X144000000Y-64299769D01*
X144000000Y-61508500D01*
X171158955Y-61508500D01*
X171227076Y-61528502D01*
G37*
%TD.AperFunction*%
%TD*%
%TA.AperFunction,Conductor*%
%TO.N,GND*%
G36*
X134329512Y-127831936D02*
G01*
X134336095Y-127838065D01*
X135728550Y-129230520D01*
X135734404Y-129236785D01*
X135772439Y-129280385D01*
X135778657Y-129284755D01*
X135824697Y-129317112D01*
X135829993Y-129321045D01*
X135880282Y-129360477D01*
X135887204Y-129363602D01*
X135889452Y-129364964D01*
X135904185Y-129373368D01*
X135906524Y-129374622D01*
X135912739Y-129378990D01*
X135919815Y-129381749D01*
X135919819Y-129381751D01*
X135972269Y-129402200D01*
X135978334Y-129404749D01*
X136036573Y-129431045D01*
X136044038Y-129432429D01*
X136046582Y-129433226D01*
X136062848Y-129437859D01*
X136065428Y-129438521D01*
X136072509Y-129441282D01*
X136080042Y-129442274D01*
X136080043Y-129442274D01*
X136112699Y-129446573D01*
X136135857Y-129449622D01*
X136142355Y-129450650D01*
X136205187Y-129462296D01*
X136212767Y-129461859D01*
X136212768Y-129461859D01*
X136267398Y-129458709D01*
X136274651Y-129458500D01*
X141154340Y-129458500D01*
X141222461Y-129478502D01*
X141243435Y-129495405D01*
X142709554Y-130961525D01*
X142743580Y-131023837D01*
X142738515Y-131094653D01*
X142695968Y-131151488D01*
X142686763Y-131157764D01*
X142575652Y-131226522D01*
X142450695Y-131351697D01*
X142446855Y-131357927D01*
X142446854Y-131357928D01*
X142400739Y-131432741D01*
X142357885Y-131502262D01*
X142355581Y-131509209D01*
X142304350Y-131663667D01*
X142263920Y-131722027D01*
X142198356Y-131749264D01*
X142184757Y-131750000D01*
X134604160Y-131750000D01*
X134536039Y-131729998D01*
X134515065Y-131713095D01*
X134157905Y-131355935D01*
X134123879Y-131293623D01*
X134121000Y-131266840D01*
X134121000Y-131129002D01*
X134141002Y-131060881D01*
X134157827Y-131039984D01*
X134174188Y-131023595D01*
X134274305Y-130923303D01*
X134367115Y-130772738D01*
X134422797Y-130604861D01*
X134424597Y-130587298D01*
X134433172Y-130503598D01*
X134433500Y-130500400D01*
X134433500Y-129499600D01*
X134432148Y-129486565D01*
X134423238Y-129400692D01*
X134423237Y-129400688D01*
X134422526Y-129393834D01*
X134396930Y-129317112D01*
X134368868Y-129233002D01*
X134366550Y-129226054D01*
X134273478Y-129075652D01*
X134157982Y-128960357D01*
X134123903Y-128898074D01*
X134121000Y-128871184D01*
X134121000Y-127927160D01*
X134141002Y-127859039D01*
X134194658Y-127812546D01*
X134264932Y-127802442D01*
X134329512Y-127831936D01*
G37*
%TD.AperFunction*%
%TA.AperFunction,Conductor*%
G36*
X153372941Y-128878982D02*
G01*
X153393915Y-128895885D01*
X154754595Y-130256566D01*
X154788621Y-130318878D01*
X154791500Y-130345661D01*
X154791500Y-131023613D01*
X154771498Y-131091734D01*
X154725270Y-131132184D01*
X154726054Y-131133450D01*
X154575652Y-131226522D01*
X154450695Y-131351697D01*
X154446855Y-131357927D01*
X154446854Y-131357928D01*
X154400739Y-131432741D01*
X154357885Y-131502262D01*
X154355581Y-131509209D01*
X154304350Y-131663667D01*
X154263920Y-131722027D01*
X154198356Y-131749264D01*
X154184757Y-131750000D01*
X146604160Y-131750000D01*
X146536039Y-131729998D01*
X146515065Y-131713095D01*
X146408950Y-131606980D01*
X146403096Y-131600715D01*
X146391895Y-131587875D01*
X146365061Y-131557115D01*
X146312780Y-131520371D01*
X146307486Y-131516439D01*
X146263193Y-131481709D01*
X146257218Y-131477024D01*
X146250302Y-131473901D01*
X146248016Y-131472517D01*
X146233335Y-131464143D01*
X146230975Y-131462878D01*
X146224761Y-131458510D01*
X146217682Y-131455750D01*
X146217680Y-131455749D01*
X146165225Y-131435298D01*
X146159156Y-131432747D01*
X146100927Y-131406455D01*
X146093460Y-131405071D01*
X146090905Y-131404270D01*
X146074652Y-131399641D01*
X146072072Y-131398978D01*
X146064991Y-131396218D01*
X146057460Y-131395227D01*
X146057458Y-131395226D01*
X146027839Y-131391327D01*
X146001639Y-131387878D01*
X145995141Y-131386848D01*
X145932314Y-131375204D01*
X145924734Y-131375641D01*
X145924733Y-131375641D01*
X145870108Y-131378791D01*
X145862854Y-131379000D01*
X144629002Y-131379000D01*
X144560881Y-131358998D01*
X144539984Y-131342173D01*
X144491350Y-131293623D01*
X144423303Y-131225695D01*
X144272738Y-131132885D01*
X144273774Y-131131205D01*
X144227969Y-131090879D01*
X144208500Y-131023595D01*
X144208500Y-130778912D01*
X144208792Y-130770342D01*
X144212209Y-130720224D01*
X144212209Y-130720220D01*
X144212725Y-130712648D01*
X144201738Y-130649697D01*
X144200776Y-130643175D01*
X144193102Y-130579758D01*
X144190419Y-130572657D01*
X144189778Y-130570048D01*
X144185315Y-130553738D01*
X144184550Y-130551202D01*
X144183243Y-130543716D01*
X144157556Y-130485200D01*
X144155065Y-130479096D01*
X144135173Y-130426452D01*
X144135172Y-130426451D01*
X144132487Y-130419344D01*
X144128183Y-130413081D01*
X144126946Y-130410715D01*
X144118701Y-130395903D01*
X144117368Y-130393649D01*
X144114315Y-130386695D01*
X144075413Y-130335998D01*
X144071541Y-130330668D01*
X144039661Y-130284280D01*
X144039656Y-130284275D01*
X144035357Y-130278019D01*
X143988829Y-130236564D01*
X143983554Y-130231584D01*
X142826045Y-129074075D01*
X142792019Y-129011763D01*
X142797084Y-128940948D01*
X142839631Y-128884112D01*
X142906151Y-128859301D01*
X142915140Y-128858980D01*
X153304820Y-128858980D01*
X153372941Y-128878982D01*
G37*
%TD.AperFunction*%
%TA.AperFunction,Conductor*%
G36*
X164443922Y-128228502D02*
G01*
X164464897Y-128245405D01*
X164989538Y-128770047D01*
X164995391Y-128776313D01*
X165026724Y-128812231D01*
X165056432Y-128876713D01*
X165046063Y-128948110D01*
X164973338Y-129104783D01*
X164969775Y-129114470D01*
X164914389Y-129314183D01*
X164915912Y-129322607D01*
X164928292Y-129326000D01*
X166000000Y-129326000D01*
X166000000Y-129834000D01*
X164933225Y-129834000D01*
X164919694Y-129837973D01*
X164918257Y-129847966D01*
X164948565Y-129982446D01*
X164951645Y-129992275D01*
X165031770Y-130189603D01*
X165036413Y-130198794D01*
X165147694Y-130380388D01*
X165153777Y-130388699D01*
X165293213Y-130549667D01*
X165300580Y-130556883D01*
X165464434Y-130692916D01*
X165472881Y-130698831D01*
X165656756Y-130806279D01*
X165666042Y-130810729D01*
X165865001Y-130886703D01*
X165874906Y-130889581D01*
X165899122Y-130894508D01*
X165961887Y-130927690D01*
X165996748Y-130989538D01*
X166000000Y-131017978D01*
X166000000Y-131624000D01*
X165979998Y-131692121D01*
X165926342Y-131738614D01*
X165874000Y-131750000D01*
X158604160Y-131750000D01*
X158536039Y-131729998D01*
X158515065Y-131713095D01*
X158408950Y-131606980D01*
X158403096Y-131600715D01*
X158391895Y-131587875D01*
X158365061Y-131557115D01*
X158312780Y-131520371D01*
X158307486Y-131516439D01*
X158263193Y-131481709D01*
X158257218Y-131477024D01*
X158250302Y-131473901D01*
X158248016Y-131472517D01*
X158233335Y-131464143D01*
X158230975Y-131462878D01*
X158224761Y-131458510D01*
X158217682Y-131455750D01*
X158217680Y-131455749D01*
X158165225Y-131435298D01*
X158159156Y-131432747D01*
X158100927Y-131406455D01*
X158093460Y-131405071D01*
X158090905Y-131404270D01*
X158074652Y-131399641D01*
X158072072Y-131398978D01*
X158064991Y-131396218D01*
X158057460Y-131395227D01*
X158057458Y-131395226D01*
X158027839Y-131391327D01*
X158001639Y-131387878D01*
X157995141Y-131386848D01*
X157932314Y-131375204D01*
X157924734Y-131375641D01*
X157924733Y-131375641D01*
X157870108Y-131378791D01*
X157862854Y-131379000D01*
X156629002Y-131379000D01*
X156560881Y-131358998D01*
X156539984Y-131342173D01*
X156491350Y-131293623D01*
X156423303Y-131225695D01*
X156272738Y-131132885D01*
X156273774Y-131131205D01*
X156227969Y-131090879D01*
X156208500Y-131023595D01*
X156208500Y-130028912D01*
X156208792Y-130020342D01*
X156212209Y-129970224D01*
X156212209Y-129970220D01*
X156212725Y-129962648D01*
X156201739Y-129899703D01*
X156200777Y-129893182D01*
X156194015Y-129837304D01*
X156193102Y-129829758D01*
X156190416Y-129822650D01*
X156189779Y-129820056D01*
X156185318Y-129803750D01*
X156184548Y-129801199D01*
X156183242Y-129793716D01*
X156157561Y-129735212D01*
X156155069Y-129729105D01*
X156135173Y-129676452D01*
X156135173Y-129676451D01*
X156132487Y-129669344D01*
X156128184Y-129663083D01*
X156126947Y-129660717D01*
X156118720Y-129645937D01*
X156117369Y-129643652D01*
X156114315Y-129636695D01*
X156109695Y-129630675D01*
X156109692Y-129630669D01*
X156075421Y-129586009D01*
X156071541Y-129580668D01*
X156039661Y-129534280D01*
X156039656Y-129534275D01*
X156035357Y-129528019D01*
X155999813Y-129496350D01*
X155988830Y-129486565D01*
X155983554Y-129481584D01*
X154925565Y-128423595D01*
X154891539Y-128361283D01*
X154896604Y-128290468D01*
X154939151Y-128233632D01*
X155005671Y-128208821D01*
X155014660Y-128208500D01*
X164375801Y-128208500D01*
X164443922Y-128228502D01*
G37*
%TD.AperFunction*%
%TA.AperFunction,Conductor*%
G36*
X142969204Y-92133359D02*
G01*
X143022302Y-92180488D01*
X143041500Y-92247341D01*
X143041500Y-98471088D01*
X143041208Y-98479658D01*
X143037275Y-98537352D01*
X143038580Y-98544829D01*
X143038580Y-98544830D01*
X143048261Y-98600299D01*
X143049223Y-98606821D01*
X143056898Y-98670242D01*
X143059581Y-98677343D01*
X143060222Y-98679952D01*
X143064685Y-98696262D01*
X143065450Y-98698798D01*
X143066757Y-98706284D01*
X143069811Y-98713241D01*
X143092442Y-98764795D01*
X143094933Y-98770899D01*
X143117513Y-98830656D01*
X143121817Y-98836919D01*
X143123054Y-98839285D01*
X143131299Y-98854097D01*
X143132632Y-98856351D01*
X143135685Y-98863305D01*
X143140307Y-98869328D01*
X143174579Y-98913991D01*
X143178459Y-98919332D01*
X143210339Y-98965720D01*
X143210344Y-98965725D01*
X143214643Y-98971981D01*
X143220313Y-98977032D01*
X143220314Y-98977034D01*
X143261170Y-99013435D01*
X143266446Y-99018416D01*
X146254595Y-102006565D01*
X146288621Y-102068877D01*
X146291500Y-102095660D01*
X146291500Y-109094394D01*
X146271498Y-109162515D01*
X146231335Y-109201826D01*
X146114807Y-109273235D01*
X146114797Y-109273242D01*
X146110584Y-109275824D01*
X145930031Y-109430031D01*
X145775824Y-109610584D01*
X145773245Y-109614792D01*
X145773241Y-109614798D01*
X145700100Y-109734154D01*
X145651760Y-109813037D01*
X145649867Y-109817607D01*
X145649865Y-109817611D01*
X145582383Y-109980528D01*
X145560895Y-110032406D01*
X145549527Y-110079758D01*
X145513817Y-110228502D01*
X145505465Y-110263289D01*
X145486835Y-110500000D01*
X145505465Y-110736711D01*
X145506619Y-110741518D01*
X145506620Y-110741524D01*
X145535955Y-110863710D01*
X145560895Y-110967594D01*
X145562788Y-110972165D01*
X145562789Y-110972167D01*
X145649772Y-111182163D01*
X145651760Y-111186963D01*
X145654346Y-111191183D01*
X145773241Y-111385202D01*
X145773245Y-111385208D01*
X145775824Y-111389416D01*
X145930031Y-111569969D01*
X146110584Y-111724176D01*
X146114792Y-111726755D01*
X146114798Y-111726759D01*
X146181360Y-111767548D01*
X146313037Y-111848240D01*
X146317607Y-111850133D01*
X146317611Y-111850135D01*
X146527833Y-111937211D01*
X146532406Y-111939105D01*
X146612609Y-111958360D01*
X146758476Y-111993380D01*
X146758482Y-111993381D01*
X146763289Y-111994535D01*
X147000000Y-112013165D01*
X147236711Y-111994535D01*
X147241518Y-111993381D01*
X147241524Y-111993380D01*
X147387391Y-111958360D01*
X147467594Y-111939105D01*
X147472167Y-111937211D01*
X147682389Y-111850135D01*
X147682393Y-111850133D01*
X147686963Y-111848240D01*
X147818640Y-111767548D01*
X147875556Y-111732670D01*
X151132160Y-111732670D01*
X151137887Y-111740320D01*
X151309042Y-111845205D01*
X151317837Y-111849687D01*
X151527988Y-111936734D01*
X151537373Y-111939783D01*
X151758554Y-111992885D01*
X151768301Y-111994428D01*
X151995070Y-112012275D01*
X152004930Y-112012275D01*
X152231699Y-111994428D01*
X152241446Y-111992885D01*
X152462627Y-111939783D01*
X152472012Y-111936734D01*
X152682163Y-111849687D01*
X152690958Y-111845205D01*
X152858445Y-111742568D01*
X152867907Y-111732110D01*
X152864124Y-111723334D01*
X152012812Y-110872022D01*
X151998868Y-110864408D01*
X151997035Y-110864539D01*
X151990420Y-110868790D01*
X151138920Y-111720290D01*
X151132160Y-111732670D01*
X147875556Y-111732670D01*
X147885202Y-111726759D01*
X147885208Y-111726755D01*
X147889416Y-111724176D01*
X148069969Y-111569969D01*
X148224176Y-111389416D01*
X148226755Y-111385208D01*
X148226759Y-111385202D01*
X148345654Y-111191183D01*
X148348240Y-111186963D01*
X148350229Y-111182163D01*
X148437211Y-110972167D01*
X148437212Y-110972165D01*
X148439105Y-110967594D01*
X148464045Y-110863710D01*
X148493380Y-110741524D01*
X148493381Y-110741518D01*
X148494535Y-110736711D01*
X148512777Y-110504930D01*
X150487725Y-110504930D01*
X150505572Y-110731699D01*
X150507115Y-110741446D01*
X150560217Y-110962627D01*
X150563266Y-110972012D01*
X150650313Y-111182163D01*
X150654795Y-111190958D01*
X150757432Y-111358445D01*
X150767890Y-111367907D01*
X150776666Y-111364124D01*
X151627978Y-110512812D01*
X151634356Y-110501132D01*
X152364408Y-110501132D01*
X152364539Y-110502965D01*
X152368790Y-110509580D01*
X153220290Y-111361080D01*
X153232670Y-111367840D01*
X153240320Y-111362113D01*
X153345205Y-111190958D01*
X153349687Y-111182163D01*
X153436734Y-110972012D01*
X153439783Y-110962627D01*
X153492885Y-110741446D01*
X153494428Y-110731699D01*
X153512275Y-110504930D01*
X153512275Y-110495070D01*
X153494428Y-110268301D01*
X153492885Y-110258554D01*
X153439783Y-110037373D01*
X153436734Y-110027988D01*
X153349687Y-109817837D01*
X153345205Y-109809042D01*
X153242568Y-109641555D01*
X153232110Y-109632093D01*
X153223334Y-109635876D01*
X152372022Y-110487188D01*
X152364408Y-110501132D01*
X151634356Y-110501132D01*
X151635592Y-110498868D01*
X151635461Y-110497035D01*
X151631210Y-110490420D01*
X150779710Y-109638920D01*
X150767330Y-109632160D01*
X150759680Y-109637887D01*
X150654795Y-109809042D01*
X150650313Y-109817837D01*
X150563266Y-110027988D01*
X150560217Y-110037373D01*
X150507115Y-110258554D01*
X150505572Y-110268301D01*
X150487725Y-110495070D01*
X150487725Y-110504930D01*
X148512777Y-110504930D01*
X148513165Y-110500000D01*
X148494535Y-110263289D01*
X148486184Y-110228502D01*
X148450473Y-110079758D01*
X148439105Y-110032406D01*
X148417617Y-109980528D01*
X148350135Y-109817611D01*
X148350133Y-109817607D01*
X148348240Y-109813037D01*
X148299900Y-109734154D01*
X148226759Y-109614798D01*
X148226755Y-109614792D01*
X148224176Y-109610584D01*
X148069969Y-109430031D01*
X147889416Y-109275824D01*
X147885203Y-109273242D01*
X147885193Y-109273235D01*
X147876471Y-109267890D01*
X151132093Y-109267890D01*
X151135876Y-109276666D01*
X151987188Y-110127978D01*
X152001132Y-110135592D01*
X152002965Y-110135461D01*
X152009580Y-110131210D01*
X152861080Y-109279710D01*
X152867840Y-109267330D01*
X152862113Y-109259680D01*
X152690958Y-109154795D01*
X152682163Y-109150313D01*
X152472012Y-109063266D01*
X152462627Y-109060217D01*
X152241446Y-109007115D01*
X152231699Y-109005572D01*
X152004930Y-108987725D01*
X151995070Y-108987725D01*
X151768301Y-109005572D01*
X151758554Y-109007115D01*
X151537373Y-109060217D01*
X151527988Y-109063266D01*
X151317837Y-109150313D01*
X151309042Y-109154795D01*
X151141555Y-109257432D01*
X151132093Y-109267890D01*
X147876471Y-109267890D01*
X147768665Y-109201826D01*
X147721034Y-109149179D01*
X147708500Y-109094394D01*
X147708500Y-102514660D01*
X147728502Y-102446539D01*
X147782158Y-102400046D01*
X147852432Y-102389942D01*
X147917012Y-102419436D01*
X147923595Y-102425565D01*
X154504595Y-109006565D01*
X154538621Y-109068877D01*
X154541500Y-109095660D01*
X154541500Y-116471088D01*
X154541208Y-116479658D01*
X154537275Y-116537352D01*
X154538580Y-116544829D01*
X154538580Y-116544830D01*
X154548261Y-116600299D01*
X154549223Y-116606821D01*
X154556898Y-116670242D01*
X154559581Y-116677343D01*
X154560222Y-116679952D01*
X154564685Y-116696262D01*
X154565450Y-116698798D01*
X154566757Y-116706284D01*
X154569811Y-116713241D01*
X154592442Y-116764795D01*
X154594933Y-116770899D01*
X154617513Y-116830656D01*
X154621817Y-116836919D01*
X154623054Y-116839285D01*
X154631299Y-116854097D01*
X154632632Y-116856351D01*
X154635685Y-116863305D01*
X154640307Y-116869328D01*
X154674579Y-116913991D01*
X154678459Y-116919332D01*
X154710339Y-116965720D01*
X154710344Y-116965725D01*
X154714643Y-116971981D01*
X154720313Y-116977032D01*
X154720314Y-116977034D01*
X154761170Y-117013435D01*
X154766446Y-117018416D01*
X156978550Y-119230520D01*
X156984404Y-119236785D01*
X157022439Y-119280385D01*
X157028657Y-119284755D01*
X157074697Y-119317112D01*
X157079993Y-119321045D01*
X157130282Y-119360477D01*
X157137204Y-119363602D01*
X157139452Y-119364964D01*
X157154185Y-119373368D01*
X157156524Y-119374622D01*
X157162739Y-119378990D01*
X157169815Y-119381749D01*
X157169819Y-119381751D01*
X157222274Y-119402202D01*
X157228352Y-119404757D01*
X157286574Y-119431045D01*
X157294045Y-119432429D01*
X157296599Y-119433230D01*
X157312878Y-119437867D01*
X157315433Y-119438523D01*
X157322509Y-119441282D01*
X157343262Y-119444014D01*
X157385851Y-119449621D01*
X157392367Y-119450653D01*
X157445865Y-119460568D01*
X157455187Y-119462296D01*
X157462767Y-119461859D01*
X157462768Y-119461859D01*
X157517398Y-119458709D01*
X157524651Y-119458500D01*
X163221088Y-119458500D01*
X163229658Y-119458792D01*
X163279776Y-119462209D01*
X163279780Y-119462209D01*
X163287352Y-119462725D01*
X163294829Y-119461420D01*
X163294830Y-119461420D01*
X163321308Y-119456799D01*
X163350303Y-119451738D01*
X163356821Y-119450777D01*
X163420242Y-119443102D01*
X163427343Y-119440419D01*
X163429952Y-119439778D01*
X163446262Y-119435315D01*
X163448798Y-119434550D01*
X163456284Y-119433243D01*
X163514800Y-119407556D01*
X163520904Y-119405065D01*
X163521717Y-119404758D01*
X163580656Y-119382487D01*
X163586919Y-119378183D01*
X163589285Y-119376946D01*
X163604097Y-119368701D01*
X163606351Y-119367368D01*
X163613305Y-119364315D01*
X163664002Y-119325413D01*
X163669332Y-119321541D01*
X163715720Y-119289661D01*
X163715725Y-119289656D01*
X163721981Y-119285357D01*
X163763436Y-119238829D01*
X163768416Y-119233554D01*
X164980520Y-118021450D01*
X164986785Y-118015596D01*
X164987238Y-118015201D01*
X165030385Y-117977561D01*
X165067129Y-117925280D01*
X165071061Y-117919986D01*
X165105791Y-117875693D01*
X165110476Y-117869718D01*
X165113599Y-117862802D01*
X165114983Y-117860516D01*
X165123357Y-117845835D01*
X165124622Y-117843475D01*
X165128990Y-117837261D01*
X165152203Y-117777723D01*
X165154759Y-117771642D01*
X165177918Y-117720352D01*
X165181045Y-117713427D01*
X165182429Y-117705960D01*
X165183230Y-117703405D01*
X165187859Y-117687152D01*
X165188522Y-117684572D01*
X165191282Y-117677491D01*
X165199622Y-117614139D01*
X165200653Y-117607632D01*
X165210912Y-117552280D01*
X165212296Y-117544814D01*
X165208709Y-117482608D01*
X165208500Y-117475354D01*
X165208500Y-110278912D01*
X165208792Y-110270342D01*
X165212209Y-110220224D01*
X165212209Y-110220220D01*
X165212725Y-110212648D01*
X165207592Y-110183234D01*
X165202622Y-110154759D01*
X165201738Y-110149697D01*
X165200776Y-110143175D01*
X165199858Y-110135592D01*
X165193102Y-110079758D01*
X165190419Y-110072657D01*
X165189778Y-110070048D01*
X165185315Y-110053738D01*
X165184550Y-110051202D01*
X165183243Y-110043716D01*
X165157556Y-109985200D01*
X165155065Y-109979096D01*
X165135173Y-109926452D01*
X165135172Y-109926451D01*
X165132487Y-109919344D01*
X165128183Y-109913081D01*
X165126946Y-109910715D01*
X165118701Y-109895903D01*
X165117368Y-109893649D01*
X165114315Y-109886695D01*
X165075413Y-109835998D01*
X165071541Y-109830668D01*
X165039661Y-109784280D01*
X165039656Y-109784275D01*
X165035357Y-109778019D01*
X164988829Y-109736564D01*
X164983554Y-109731584D01*
X164271450Y-109019480D01*
X164265596Y-109013215D01*
X164259795Y-109006565D01*
X164227561Y-108969615D01*
X164175280Y-108932871D01*
X164169986Y-108928939D01*
X164125693Y-108894209D01*
X164119718Y-108889524D01*
X164112802Y-108886401D01*
X164110516Y-108885017D01*
X164095835Y-108876643D01*
X164093475Y-108875378D01*
X164087261Y-108871010D01*
X164080182Y-108868250D01*
X164080180Y-108868249D01*
X164027725Y-108847798D01*
X164021656Y-108845247D01*
X163963427Y-108818955D01*
X163955965Y-108817572D01*
X163951662Y-108816223D01*
X163892642Y-108776762D01*
X163869825Y-108735869D01*
X163868869Y-108733005D01*
X163866550Y-108726054D01*
X163773478Y-108575652D01*
X163657982Y-108460357D01*
X163623903Y-108398074D01*
X163621000Y-108371184D01*
X163621000Y-108278268D01*
X163641002Y-108210147D01*
X163646174Y-108202703D01*
X163720229Y-108103891D01*
X163725615Y-108096705D01*
X163776745Y-107960316D01*
X163783500Y-107898134D01*
X163783500Y-107401866D01*
X163776745Y-107339684D01*
X163725615Y-107203295D01*
X163638261Y-107086739D01*
X163637026Y-107085813D01*
X163604792Y-107026783D01*
X163609857Y-106955968D01*
X163636414Y-106914645D01*
X163638261Y-106913261D01*
X163725615Y-106796705D01*
X163776745Y-106660316D01*
X163783500Y-106598134D01*
X163783500Y-106101866D01*
X163776745Y-106039684D01*
X163725615Y-105903295D01*
X163720230Y-105896110D01*
X163720229Y-105896108D01*
X163683674Y-105847333D01*
X163658826Y-105780826D01*
X163658500Y-105771768D01*
X163658500Y-105641480D01*
X163678502Y-105573359D01*
X163695327Y-105552462D01*
X163695624Y-105552165D01*
X163799305Y-105448303D01*
X163867264Y-105338054D01*
X163888275Y-105303968D01*
X163888276Y-105303966D01*
X163892115Y-105297738D01*
X163894419Y-105290791D01*
X163897513Y-105284156D01*
X163899749Y-105285199D01*
X163933523Y-105236462D01*
X163999091Y-105209234D01*
X164012672Y-105208500D01*
X164415500Y-105208500D01*
X164483621Y-105228502D01*
X164530114Y-105282158D01*
X164541500Y-105334500D01*
X164541500Y-105725400D01*
X164541837Y-105728646D01*
X164541837Y-105728650D01*
X164551637Y-105823095D01*
X164552474Y-105831166D01*
X164608450Y-105998946D01*
X164701522Y-106149348D01*
X164826697Y-106274305D01*
X164977262Y-106367115D01*
X165057005Y-106393564D01*
X165138611Y-106420632D01*
X165138613Y-106420632D01*
X165145139Y-106422797D01*
X165151975Y-106423497D01*
X165151978Y-106423498D01*
X165195031Y-106427909D01*
X165249600Y-106433500D01*
X165665500Y-106433500D01*
X165733621Y-106453502D01*
X165780114Y-106507158D01*
X165791500Y-106559500D01*
X165791500Y-120221088D01*
X165791208Y-120229658D01*
X165787275Y-120287352D01*
X165788580Y-120294829D01*
X165788580Y-120294830D01*
X165798261Y-120350299D01*
X165799223Y-120356821D01*
X165806898Y-120420242D01*
X165809581Y-120427343D01*
X165810222Y-120429952D01*
X165814685Y-120446262D01*
X165815450Y-120448798D01*
X165816757Y-120456284D01*
X165819811Y-120463241D01*
X165842442Y-120514795D01*
X165844933Y-120520899D01*
X165867513Y-120580656D01*
X165871817Y-120586919D01*
X165873054Y-120589285D01*
X165881299Y-120604097D01*
X165882632Y-120606351D01*
X165885685Y-120613305D01*
X165890307Y-120619328D01*
X165924579Y-120663991D01*
X165928459Y-120669332D01*
X165960339Y-120715720D01*
X165960344Y-120715725D01*
X165964643Y-120721981D01*
X165968863Y-120725741D01*
X165998559Y-120789317D01*
X166000000Y-120808317D01*
X166000000Y-123015500D01*
X165979998Y-123083621D01*
X165926342Y-123130114D01*
X165874000Y-123141500D01*
X165351866Y-123141500D01*
X165289684Y-123148255D01*
X165153295Y-123199385D01*
X165036739Y-123286739D01*
X164949385Y-123403295D01*
X164898255Y-123539684D01*
X164891500Y-123601866D01*
X164891500Y-124804340D01*
X164871498Y-124872461D01*
X164854595Y-124893435D01*
X164243435Y-125504595D01*
X164181123Y-125538621D01*
X164154340Y-125541500D01*
X139095660Y-125541500D01*
X139027539Y-125521498D01*
X139006565Y-125504595D01*
X137218255Y-123716285D01*
X137184229Y-123653973D01*
X137181350Y-123627190D01*
X137181350Y-105144669D01*
X142392001Y-105144669D01*
X142392371Y-105151490D01*
X142397895Y-105202352D01*
X142401521Y-105217604D01*
X142446676Y-105338054D01*
X142455214Y-105353649D01*
X142531715Y-105455724D01*
X142544276Y-105468285D01*
X142646351Y-105544786D01*
X142661946Y-105553324D01*
X142782394Y-105598478D01*
X142797649Y-105602105D01*
X142848514Y-105607631D01*
X142855328Y-105608000D01*
X143627885Y-105608000D01*
X143643124Y-105603525D01*
X143644329Y-105602135D01*
X143646000Y-105594452D01*
X143646000Y-105589884D01*
X144154000Y-105589884D01*
X144158475Y-105605123D01*
X144159865Y-105606328D01*
X144167548Y-105607999D01*
X144944669Y-105607999D01*
X144951490Y-105607629D01*
X145002352Y-105602105D01*
X145017604Y-105598479D01*
X145138054Y-105553324D01*
X145153649Y-105544786D01*
X145255724Y-105468285D01*
X145268285Y-105455724D01*
X145344786Y-105353649D01*
X145353324Y-105338054D01*
X145398478Y-105217606D01*
X145402105Y-105202351D01*
X145407631Y-105151486D01*
X145408000Y-105144672D01*
X145408000Y-103772115D01*
X145403525Y-103756876D01*
X145402135Y-103755671D01*
X145394452Y-103754000D01*
X144172115Y-103754000D01*
X144156876Y-103758475D01*
X144155671Y-103759865D01*
X144154000Y-103767548D01*
X144154000Y-105589884D01*
X143646000Y-105589884D01*
X143646000Y-103772115D01*
X143641525Y-103756876D01*
X143640135Y-103755671D01*
X143632452Y-103754000D01*
X142410116Y-103754000D01*
X142394877Y-103758475D01*
X142393672Y-103759865D01*
X142392001Y-103767548D01*
X142392001Y-105144669D01*
X137181350Y-105144669D01*
X137181350Y-103227885D01*
X142392000Y-103227885D01*
X142396475Y-103243124D01*
X142397865Y-103244329D01*
X142405548Y-103246000D01*
X143627885Y-103246000D01*
X143643124Y-103241525D01*
X143644329Y-103240135D01*
X143646000Y-103232452D01*
X143646000Y-103227885D01*
X144154000Y-103227885D01*
X144158475Y-103243124D01*
X144159865Y-103244329D01*
X144167548Y-103246000D01*
X145389884Y-103246000D01*
X145405123Y-103241525D01*
X145406328Y-103240135D01*
X145407999Y-103232452D01*
X145407999Y-101855331D01*
X145407629Y-101848510D01*
X145402105Y-101797648D01*
X145398479Y-101782396D01*
X145353324Y-101661946D01*
X145344786Y-101646351D01*
X145268285Y-101544276D01*
X145255724Y-101531715D01*
X145153649Y-101455214D01*
X145138054Y-101446676D01*
X145017606Y-101401522D01*
X145002351Y-101397895D01*
X144951486Y-101392369D01*
X144944672Y-101392000D01*
X144172115Y-101392000D01*
X144156876Y-101396475D01*
X144155671Y-101397865D01*
X144154000Y-101405548D01*
X144154000Y-103227885D01*
X143646000Y-103227885D01*
X143646000Y-101410116D01*
X143641525Y-101394877D01*
X143640135Y-101393672D01*
X143632452Y-101392001D01*
X142855331Y-101392001D01*
X142848510Y-101392371D01*
X142797648Y-101397895D01*
X142782396Y-101401521D01*
X142661946Y-101446676D01*
X142646351Y-101455214D01*
X142544276Y-101531715D01*
X142531715Y-101544276D01*
X142455214Y-101646351D01*
X142446676Y-101661946D01*
X142401522Y-101782394D01*
X142397895Y-101797649D01*
X142392369Y-101848514D01*
X142392000Y-101855328D01*
X142392000Y-103227885D01*
X137181350Y-103227885D01*
X137181350Y-93068510D01*
X137201352Y-93000389D01*
X137218255Y-92979415D01*
X138027265Y-92170405D01*
X138089577Y-92136379D01*
X138116360Y-92133500D01*
X142180503Y-92133500D01*
X142180506Y-92133499D01*
X142814884Y-92133499D01*
X142845981Y-92129405D01*
X142899056Y-92122419D01*
X142969204Y-92133359D01*
G37*
%TD.AperFunction*%
%TA.AperFunction,Conductor*%
G36*
X148770746Y-99673899D02*
G01*
X148786573Y-99681045D01*
X148794045Y-99682430D01*
X148796612Y-99683234D01*
X148812835Y-99687855D01*
X148815427Y-99688520D01*
X148822509Y-99691282D01*
X148830044Y-99692274D01*
X148885861Y-99699622D01*
X148892377Y-99700654D01*
X148930770Y-99707770D01*
X148955186Y-99712295D01*
X148962766Y-99711858D01*
X148962767Y-99711858D01*
X149017380Y-99708709D01*
X149024633Y-99708500D01*
X156773613Y-99708500D01*
X156841734Y-99728502D01*
X156882184Y-99774730D01*
X156883450Y-99773946D01*
X156963647Y-99903543D01*
X156982485Y-99971995D01*
X156961324Y-100039765D01*
X156955385Y-100047938D01*
X156947250Y-100058239D01*
X156862184Y-100196243D01*
X156856037Y-100209424D01*
X156804862Y-100363710D01*
X156801995Y-100377086D01*
X156792328Y-100471438D01*
X156792000Y-100477855D01*
X156792000Y-100727885D01*
X156796475Y-100743124D01*
X156797865Y-100744329D01*
X156805548Y-100746000D01*
X157928000Y-100746000D01*
X157996121Y-100766002D01*
X158042614Y-100819658D01*
X158054000Y-100872000D01*
X158054000Y-102214884D01*
X158058475Y-102230123D01*
X158068402Y-102238725D01*
X158106786Y-102298451D01*
X158106786Y-102369448D01*
X158074985Y-102423045D01*
X157519480Y-102978550D01*
X157513215Y-102984404D01*
X157469615Y-103022439D01*
X157465248Y-103028653D01*
X157432872Y-103074719D01*
X157428939Y-103080014D01*
X157389524Y-103130282D01*
X157386401Y-103137198D01*
X157385017Y-103139484D01*
X157376643Y-103154165D01*
X157375378Y-103156525D01*
X157371010Y-103162739D01*
X157368250Y-103169818D01*
X157368249Y-103169820D01*
X157347798Y-103222275D01*
X157345247Y-103228344D01*
X157318955Y-103286573D01*
X157317571Y-103294040D01*
X157316770Y-103296595D01*
X157312141Y-103312848D01*
X157311478Y-103315428D01*
X157308718Y-103322509D01*
X157307727Y-103330040D01*
X157307726Y-103330042D01*
X157306846Y-103336725D01*
X157301022Y-103380970D01*
X157300379Y-103385852D01*
X157299348Y-103392359D01*
X157287704Y-103455186D01*
X157288141Y-103462766D01*
X157288141Y-103462767D01*
X157291291Y-103517392D01*
X157291500Y-103524646D01*
X157291500Y-113741238D01*
X157291498Y-113741898D01*
X157291026Y-113832031D01*
X157291390Y-113833548D01*
X157291500Y-113835450D01*
X157291500Y-115471088D01*
X157291208Y-115479658D01*
X157287275Y-115537352D01*
X157288580Y-115544829D01*
X157288580Y-115544830D01*
X157298261Y-115600299D01*
X157299223Y-115606821D01*
X157306898Y-115670242D01*
X157309581Y-115677343D01*
X157310222Y-115679952D01*
X157314685Y-115696262D01*
X157315450Y-115698798D01*
X157316757Y-115706284D01*
X157319811Y-115713241D01*
X157342442Y-115764795D01*
X157344933Y-115770899D01*
X157367513Y-115830656D01*
X157371817Y-115836919D01*
X157373054Y-115839285D01*
X157381299Y-115854097D01*
X157382632Y-115856351D01*
X157385685Y-115863305D01*
X157390307Y-115869328D01*
X157424579Y-115913991D01*
X157428459Y-115919332D01*
X157460339Y-115965720D01*
X157460344Y-115965725D01*
X157464643Y-115971981D01*
X157470313Y-115977032D01*
X157470314Y-115977034D01*
X157511170Y-116013435D01*
X157516446Y-116018416D01*
X158478550Y-116980520D01*
X158484404Y-116986785D01*
X158522439Y-117030385D01*
X158528657Y-117034755D01*
X158568011Y-117062413D01*
X158612243Y-117117947D01*
X158619429Y-117188579D01*
X158587288Y-117251883D01*
X158526025Y-117287762D01*
X158495561Y-117291500D01*
X158345660Y-117291500D01*
X158277539Y-117271498D01*
X158256565Y-117254595D01*
X156745405Y-115743435D01*
X156711379Y-115681123D01*
X156708500Y-115654340D01*
X156708500Y-108278927D01*
X156708792Y-108270358D01*
X156712210Y-108220225D01*
X156712210Y-108220221D01*
X156712726Y-108212648D01*
X156701736Y-108149681D01*
X156700775Y-108143165D01*
X156695993Y-108103649D01*
X156693102Y-108079758D01*
X156690419Y-108072657D01*
X156689778Y-108070048D01*
X156685309Y-108053715D01*
X156684548Y-108051195D01*
X156683243Y-108043717D01*
X156680191Y-108036764D01*
X156657559Y-107985204D01*
X156655068Y-107979099D01*
X156635175Y-107926456D01*
X156635173Y-107926452D01*
X156632487Y-107919344D01*
X156628184Y-107913083D01*
X156626947Y-107910717D01*
X156618720Y-107895937D01*
X156617369Y-107893652D01*
X156614315Y-107886695D01*
X156609695Y-107880675D01*
X156609692Y-107880669D01*
X156575421Y-107836009D01*
X156571541Y-107830668D01*
X156539661Y-107784280D01*
X156539656Y-107784275D01*
X156535357Y-107778019D01*
X156488829Y-107736564D01*
X156483554Y-107731584D01*
X154575065Y-105823095D01*
X154541039Y-105760783D01*
X154546104Y-105689968D01*
X154588651Y-105633132D01*
X154655171Y-105608321D01*
X154664160Y-105608000D01*
X154827885Y-105608000D01*
X154843124Y-105603525D01*
X154844329Y-105602135D01*
X154846000Y-105594452D01*
X154846000Y-105589884D01*
X155354000Y-105589884D01*
X155358475Y-105605123D01*
X155359865Y-105606328D01*
X155367548Y-105607999D01*
X156144669Y-105607999D01*
X156151490Y-105607629D01*
X156202352Y-105602105D01*
X156217604Y-105598479D01*
X156338054Y-105553324D01*
X156353649Y-105544786D01*
X156455724Y-105468285D01*
X156468285Y-105455724D01*
X156544786Y-105353649D01*
X156553324Y-105338054D01*
X156598478Y-105217606D01*
X156602105Y-105202351D01*
X156607631Y-105151486D01*
X156608000Y-105144672D01*
X156608000Y-103772115D01*
X156603525Y-103756876D01*
X156602135Y-103755671D01*
X156594452Y-103754000D01*
X155372115Y-103754000D01*
X155356876Y-103758475D01*
X155355671Y-103759865D01*
X155354000Y-103767548D01*
X155354000Y-105589884D01*
X154846000Y-105589884D01*
X154846000Y-103772115D01*
X154841525Y-103756876D01*
X154840135Y-103755671D01*
X154832452Y-103754000D01*
X153610116Y-103754000D01*
X153594877Y-103758475D01*
X153593672Y-103759865D01*
X153592001Y-103767548D01*
X153592001Y-104535841D01*
X153571999Y-104603962D01*
X153518343Y-104650455D01*
X153448069Y-104660559D01*
X153383489Y-104631065D01*
X153376906Y-104624936D01*
X151979855Y-103227885D01*
X153592000Y-103227885D01*
X153596475Y-103243124D01*
X153597865Y-103244329D01*
X153605548Y-103246000D01*
X154827885Y-103246000D01*
X154843124Y-103241525D01*
X154844329Y-103240135D01*
X154846000Y-103232452D01*
X154846000Y-103227885D01*
X155354000Y-103227885D01*
X155358475Y-103243124D01*
X155359865Y-103244329D01*
X155367548Y-103246000D01*
X156589884Y-103246000D01*
X156605123Y-103241525D01*
X156606328Y-103240135D01*
X156607999Y-103232452D01*
X156607999Y-101855331D01*
X156607630Y-101848514D01*
X156605093Y-101825161D01*
X156617622Y-101755278D01*
X156629276Y-101742733D01*
X156604040Y-101734229D01*
X156577364Y-101699815D01*
X156777492Y-101699815D01*
X156802103Y-101707976D01*
X156846712Y-101763208D01*
X156849879Y-101771677D01*
X156856586Y-101791779D01*
X156862761Y-101804962D01*
X156948063Y-101942807D01*
X156957099Y-101954208D01*
X157071829Y-102068739D01*
X157083240Y-102077751D01*
X157221243Y-102162816D01*
X157234424Y-102168963D01*
X157388710Y-102220138D01*
X157402086Y-102223005D01*
X157496438Y-102232672D01*
X157502854Y-102233000D01*
X157527885Y-102233000D01*
X157543124Y-102228525D01*
X157544329Y-102227135D01*
X157546000Y-102219452D01*
X157546000Y-101272115D01*
X157541525Y-101256876D01*
X157540135Y-101255671D01*
X157532452Y-101254000D01*
X156810116Y-101254000D01*
X156794877Y-101258475D01*
X156793672Y-101259865D01*
X156792001Y-101267548D01*
X156792001Y-101522095D01*
X156792338Y-101528614D01*
X156801612Y-101617995D01*
X156788747Y-101687816D01*
X156777492Y-101699815D01*
X156577364Y-101699815D01*
X156558303Y-101675226D01*
X156553326Y-101661950D01*
X156544786Y-101646351D01*
X156468285Y-101544276D01*
X156455724Y-101531715D01*
X156353649Y-101455214D01*
X156338054Y-101446676D01*
X156217606Y-101401522D01*
X156202351Y-101397895D01*
X156151486Y-101392369D01*
X156144672Y-101392000D01*
X155372115Y-101392000D01*
X155356876Y-101396475D01*
X155355671Y-101397865D01*
X155354000Y-101405548D01*
X155354000Y-103227885D01*
X154846000Y-103227885D01*
X154846000Y-101410116D01*
X154841525Y-101394877D01*
X154840135Y-101393672D01*
X154832452Y-101392001D01*
X154055331Y-101392001D01*
X154048510Y-101392371D01*
X153997648Y-101397895D01*
X153982396Y-101401521D01*
X153861946Y-101446676D01*
X153846351Y-101455214D01*
X153744276Y-101531715D01*
X153731715Y-101544276D01*
X153655214Y-101646351D01*
X153646676Y-101661946D01*
X153601522Y-101782394D01*
X153597895Y-101797649D01*
X153592369Y-101848514D01*
X153592000Y-101855328D01*
X153592000Y-103227885D01*
X151979855Y-103227885D01*
X148629800Y-99877830D01*
X148595774Y-99815518D01*
X148600839Y-99744703D01*
X148643386Y-99687867D01*
X148709906Y-99663056D01*
X148770746Y-99673899D01*
G37*
%TD.AperFunction*%
%TA.AperFunction,Conductor*%
G36*
X160045561Y-114478502D02*
G01*
X160072388Y-114501670D01*
X160092444Y-114524660D01*
X160092447Y-114524663D01*
X160097439Y-114530385D01*
X160149729Y-114567136D01*
X160154971Y-114571028D01*
X160205282Y-114610476D01*
X160212201Y-114613600D01*
X160214493Y-114614988D01*
X160229164Y-114623356D01*
X160231522Y-114624620D01*
X160237739Y-114628990D01*
X160237740Y-114628991D01*
X160237741Y-114628991D01*
X160237361Y-114629531D01*
X160283978Y-114675442D01*
X160299598Y-114744699D01*
X160275295Y-114811406D01*
X160222214Y-114851778D01*
X160218672Y-114855865D01*
X160217001Y-114863548D01*
X160217001Y-114894669D01*
X160217371Y-114901490D01*
X160222895Y-114952352D01*
X160226521Y-114967604D01*
X160271676Y-115088054D01*
X160280214Y-115103649D01*
X160356715Y-115205724D01*
X160369275Y-115218284D01*
X160383507Y-115228950D01*
X160426023Y-115285809D01*
X160431049Y-115356627D01*
X160396990Y-115418921D01*
X160374248Y-115436920D01*
X160350652Y-115451522D01*
X160225695Y-115576697D01*
X160221855Y-115582927D01*
X160221854Y-115582928D01*
X160168033Y-115670242D01*
X160132885Y-115727262D01*
X160131205Y-115726226D01*
X160090879Y-115772031D01*
X160023595Y-115791500D01*
X159345662Y-115791500D01*
X159277541Y-115771498D01*
X159256567Y-115754596D01*
X158745405Y-115243435D01*
X158711380Y-115181122D01*
X158708500Y-115154339D01*
X158708500Y-114584500D01*
X158728502Y-114516379D01*
X158782158Y-114469886D01*
X158834500Y-114458500D01*
X159977440Y-114458500D01*
X160045561Y-114478502D01*
G37*
%TD.AperFunction*%
%TA.AperFunction,Conductor*%
G36*
X158917012Y-109919437D02*
G01*
X158923595Y-109925566D01*
X158978557Y-109980528D01*
X158984411Y-109986793D01*
X159022439Y-110030385D01*
X159074729Y-110067136D01*
X159079971Y-110071028D01*
X159130282Y-110110476D01*
X159137201Y-110113600D01*
X159139493Y-110114988D01*
X159154165Y-110123357D01*
X159156525Y-110124622D01*
X159162739Y-110128990D01*
X159169818Y-110131750D01*
X159169820Y-110131751D01*
X159222275Y-110152202D01*
X159228344Y-110154753D01*
X159286573Y-110181045D01*
X159294046Y-110182430D01*
X159296612Y-110183234D01*
X159312835Y-110187855D01*
X159315427Y-110188520D01*
X159322509Y-110191282D01*
X159330044Y-110192274D01*
X159385861Y-110199622D01*
X159392377Y-110200654D01*
X159416743Y-110205170D01*
X159455186Y-110212295D01*
X159462766Y-110211858D01*
X159462767Y-110211858D01*
X159517380Y-110208709D01*
X159524633Y-110208500D01*
X160023613Y-110208500D01*
X160091734Y-110228502D01*
X160132184Y-110274730D01*
X160133450Y-110273946D01*
X160213647Y-110403543D01*
X160232485Y-110471995D01*
X160211324Y-110539765D01*
X160205385Y-110547938D01*
X160197250Y-110558239D01*
X160112184Y-110696243D01*
X160106037Y-110709424D01*
X160054862Y-110863710D01*
X160051995Y-110877086D01*
X160042328Y-110971438D01*
X160042000Y-110977855D01*
X160042000Y-111227885D01*
X160046475Y-111243124D01*
X160047865Y-111244329D01*
X160055548Y-111246000D01*
X161178000Y-111246000D01*
X161246121Y-111266002D01*
X161292614Y-111319658D01*
X161304000Y-111372000D01*
X161304000Y-111628000D01*
X161283998Y-111696121D01*
X161230342Y-111742614D01*
X161178000Y-111754000D01*
X160060116Y-111754000D01*
X160044877Y-111758475D01*
X160043672Y-111759865D01*
X160042001Y-111767548D01*
X160042001Y-112022095D01*
X160042338Y-112028614D01*
X160052257Y-112124206D01*
X160055149Y-112137600D01*
X160106588Y-112291784D01*
X160112761Y-112304962D01*
X160198063Y-112442807D01*
X160207099Y-112454208D01*
X160321829Y-112568739D01*
X160333238Y-112577749D01*
X160345581Y-112585357D01*
X160393076Y-112638128D01*
X160404501Y-112708199D01*
X160376229Y-112773324D01*
X160368822Y-112781431D01*
X160361739Y-112786739D01*
X160274385Y-112903295D01*
X160271233Y-112911703D01*
X160253228Y-112959730D01*
X160210586Y-113016495D01*
X160144024Y-113041194D01*
X160135246Y-113041500D01*
X158834500Y-113041500D01*
X158766379Y-113021498D01*
X158719886Y-112967842D01*
X158708500Y-112915500D01*
X158708500Y-110014661D01*
X158728502Y-109946540D01*
X158782158Y-109900047D01*
X158852432Y-109889943D01*
X158917012Y-109919437D01*
G37*
%TD.AperFunction*%
%TA.AperFunction,Conductor*%
G36*
X159970561Y-107478502D02*
G01*
X159997388Y-107501670D01*
X160017444Y-107524660D01*
X160017447Y-107524663D01*
X160022439Y-107530385D01*
X160074729Y-107567136D01*
X160079971Y-107571028D01*
X160130282Y-107610476D01*
X160137201Y-107613600D01*
X160139493Y-107614988D01*
X160154165Y-107623357D01*
X160156525Y-107624622D01*
X160162739Y-107628990D01*
X160185051Y-107637689D01*
X160241252Y-107681071D01*
X160265078Y-107747950D01*
X160248964Y-107817094D01*
X160234504Y-107837595D01*
X160218672Y-107855866D01*
X160217001Y-107863548D01*
X160217001Y-107894669D01*
X160217371Y-107901490D01*
X160222895Y-107952352D01*
X160226521Y-107967604D01*
X160271676Y-108088054D01*
X160280214Y-108103649D01*
X160356715Y-108205724D01*
X160369275Y-108218284D01*
X160383507Y-108228950D01*
X160426023Y-108285809D01*
X160431049Y-108356627D01*
X160396990Y-108418921D01*
X160374248Y-108436920D01*
X160350652Y-108451522D01*
X160225695Y-108576697D01*
X160132885Y-108727262D01*
X160131205Y-108726226D01*
X160090879Y-108772031D01*
X160023595Y-108791500D01*
X159845660Y-108791500D01*
X159777539Y-108771498D01*
X159756565Y-108754595D01*
X159495405Y-108493435D01*
X159461379Y-108431123D01*
X159458500Y-108404340D01*
X159458500Y-107584500D01*
X159478502Y-107516379D01*
X159532158Y-107469886D01*
X159584500Y-107458500D01*
X159902440Y-107458500D01*
X159970561Y-107478502D01*
G37*
%TD.AperFunction*%
%TA.AperFunction,Conductor*%
G36*
X159984121Y-103978502D02*
G01*
X160030614Y-104032158D01*
X160042000Y-104084500D01*
X160042000Y-104227885D01*
X160046475Y-104243124D01*
X160047865Y-104244329D01*
X160055548Y-104246000D01*
X161178000Y-104246000D01*
X161246121Y-104266002D01*
X161292614Y-104319658D01*
X161304000Y-104372000D01*
X161304000Y-104628000D01*
X161283998Y-104696121D01*
X161230342Y-104742614D01*
X161178000Y-104754000D01*
X160060116Y-104754000D01*
X160044877Y-104758475D01*
X160043672Y-104759865D01*
X160042001Y-104767548D01*
X160042001Y-105022095D01*
X160042338Y-105028614D01*
X160052257Y-105124206D01*
X160055149Y-105137600D01*
X160106588Y-105291784D01*
X160112761Y-105304962D01*
X160198063Y-105442807D01*
X160207099Y-105454208D01*
X160321829Y-105568739D01*
X160333238Y-105577749D01*
X160345581Y-105585357D01*
X160393076Y-105638128D01*
X160404501Y-105708199D01*
X160376229Y-105773324D01*
X160368822Y-105781431D01*
X160361739Y-105786739D01*
X160274385Y-105903295D01*
X160271233Y-105911703D01*
X160253228Y-105959730D01*
X160210586Y-106016495D01*
X160144024Y-106041194D01*
X160135246Y-106041500D01*
X159584500Y-106041500D01*
X159516379Y-106021498D01*
X159469886Y-105967842D01*
X159458500Y-105915500D01*
X159458500Y-104095660D01*
X159478502Y-104027539D01*
X159495405Y-104006565D01*
X159506565Y-103995405D01*
X159568877Y-103961379D01*
X159595660Y-103958500D01*
X159916000Y-103958500D01*
X159984121Y-103978502D01*
G37*
%TD.AperFunction*%
%TA.AperFunction,Conductor*%
G36*
X164591734Y-93978502D02*
G01*
X164632184Y-94024730D01*
X164633450Y-94023946D01*
X164726522Y-94174348D01*
X164851697Y-94299305D01*
X164857927Y-94303145D01*
X164857928Y-94303146D01*
X164977881Y-94377086D01*
X165002262Y-94392115D01*
X165018145Y-94397383D01*
X165163611Y-94445632D01*
X165163613Y-94445632D01*
X165170139Y-94447797D01*
X165176975Y-94448497D01*
X165176978Y-94448498D01*
X165220031Y-94452909D01*
X165274600Y-94458500D01*
X165665980Y-94458500D01*
X165734101Y-94478502D01*
X165780594Y-94532158D01*
X165791980Y-94584500D01*
X165791980Y-102440500D01*
X165771978Y-102508621D01*
X165718322Y-102555114D01*
X165665980Y-102566500D01*
X165249600Y-102566500D01*
X165246354Y-102566837D01*
X165246350Y-102566837D01*
X165150692Y-102576762D01*
X165150688Y-102576763D01*
X165143834Y-102577474D01*
X165137298Y-102579655D01*
X165137296Y-102579655D01*
X165043749Y-102610865D01*
X164976054Y-102633450D01*
X164825652Y-102726522D01*
X164700695Y-102851697D01*
X164696855Y-102857927D01*
X164696854Y-102857928D01*
X164689587Y-102869718D01*
X164607885Y-103002262D01*
X164591903Y-103050447D01*
X164571595Y-103111675D01*
X164552203Y-103170139D01*
X164541500Y-103274600D01*
X164541500Y-103665500D01*
X164521498Y-103733621D01*
X164467842Y-103780114D01*
X164415500Y-103791500D01*
X164012516Y-103791500D01*
X163944395Y-103771498D01*
X163897902Y-103717842D01*
X163894863Y-103710126D01*
X163893868Y-103708003D01*
X163891550Y-103701054D01*
X163798478Y-103550652D01*
X163673303Y-103425695D01*
X163600746Y-103380970D01*
X163528968Y-103336725D01*
X163528966Y-103336724D01*
X163522738Y-103332885D01*
X163438736Y-103305023D01*
X163361389Y-103279368D01*
X163361387Y-103279368D01*
X163354861Y-103277203D01*
X163348025Y-103276503D01*
X163348022Y-103276502D01*
X163298243Y-103271402D01*
X163250400Y-103266500D01*
X162649600Y-103266500D01*
X162646354Y-103266837D01*
X162646350Y-103266837D01*
X162550692Y-103276762D01*
X162550688Y-103276763D01*
X162543834Y-103277474D01*
X162537298Y-103279655D01*
X162537296Y-103279655D01*
X162432611Y-103314581D01*
X162376054Y-103333450D01*
X162225652Y-103426522D01*
X162100695Y-103551697D01*
X162097898Y-103556235D01*
X162040647Y-103596824D01*
X161969724Y-103600054D01*
X161908313Y-103564428D01*
X161900938Y-103555932D01*
X161892902Y-103545793D01*
X161778171Y-103431261D01*
X161766760Y-103422249D01*
X161628757Y-103337184D01*
X161615576Y-103331037D01*
X161475508Y-103284578D01*
X161417149Y-103244147D01*
X161389912Y-103178583D01*
X161402446Y-103108701D01*
X161426079Y-103075892D01*
X161480536Y-103021435D01*
X161486801Y-103015582D01*
X161524664Y-102982552D01*
X161524665Y-102982551D01*
X161530385Y-102977561D01*
X161567136Y-102925271D01*
X161571028Y-102920029D01*
X161610476Y-102869718D01*
X161613600Y-102862799D01*
X161614988Y-102860507D01*
X161623357Y-102845835D01*
X161624622Y-102843475D01*
X161628990Y-102837261D01*
X161652203Y-102777723D01*
X161654759Y-102771642D01*
X161677918Y-102720352D01*
X161681045Y-102713427D01*
X161682430Y-102705954D01*
X161683234Y-102703388D01*
X161687855Y-102687165D01*
X161688520Y-102684573D01*
X161691282Y-102677491D01*
X161699622Y-102614139D01*
X161700654Y-102607623D01*
X161710911Y-102552281D01*
X161712295Y-102544814D01*
X161708709Y-102482620D01*
X161708500Y-102475367D01*
X161708500Y-97778912D01*
X161708792Y-97770342D01*
X161712209Y-97720224D01*
X161712209Y-97720220D01*
X161712725Y-97712648D01*
X161710452Y-97699621D01*
X161702622Y-97654758D01*
X161701738Y-97649697D01*
X161700776Y-97643175D01*
X161699394Y-97631751D01*
X161693102Y-97579758D01*
X161690419Y-97572657D01*
X161689778Y-97570048D01*
X161685315Y-97553738D01*
X161684550Y-97551202D01*
X161683243Y-97543716D01*
X161657556Y-97485200D01*
X161655065Y-97479096D01*
X161635173Y-97426452D01*
X161635172Y-97426451D01*
X161632487Y-97419344D01*
X161628183Y-97413081D01*
X161626946Y-97410715D01*
X161618701Y-97395903D01*
X161617368Y-97393649D01*
X161614315Y-97386695D01*
X161575413Y-97335998D01*
X161571541Y-97330668D01*
X161539661Y-97284280D01*
X161539656Y-97284275D01*
X161535357Y-97278019D01*
X161488829Y-97236564D01*
X161483554Y-97231584D01*
X160771450Y-96519480D01*
X160765596Y-96513215D01*
X160732555Y-96475340D01*
X160727561Y-96469615D01*
X160721342Y-96465244D01*
X160715703Y-96460167D01*
X160716557Y-96459219D01*
X160677143Y-96409732D01*
X160672676Y-96395284D01*
X160672526Y-96393834D01*
X160616550Y-96226054D01*
X160536634Y-96096912D01*
X160517796Y-96028460D01*
X160538957Y-95960691D01*
X160544355Y-95953262D01*
X160549305Y-95948303D01*
X160604692Y-95858450D01*
X160638275Y-95803968D01*
X160638276Y-95803966D01*
X160642115Y-95797738D01*
X160697797Y-95629861D01*
X160708500Y-95525400D01*
X160708500Y-94474600D01*
X160706830Y-94458500D01*
X160698238Y-94375692D01*
X160698237Y-94375688D01*
X160697526Y-94368834D01*
X160641550Y-94201054D01*
X160610453Y-94150801D01*
X160591616Y-94082350D01*
X160612778Y-94014581D01*
X160667219Y-93969010D01*
X160717598Y-93958500D01*
X164523613Y-93958500D01*
X164591734Y-93978502D01*
G37*
%TD.AperFunction*%
%TA.AperFunction,Conductor*%
G36*
X154313044Y-92478502D02*
G01*
X154359537Y-92532158D01*
X154369641Y-92602432D01*
X154340147Y-92667012D01*
X154316290Y-92688340D01*
X154284279Y-92710340D01*
X154284275Y-92710343D01*
X154278019Y-92714643D01*
X154272968Y-92720313D01*
X154272966Y-92720314D01*
X154236565Y-92761170D01*
X154231584Y-92766446D01*
X152543435Y-94454595D01*
X152481123Y-94488621D01*
X152454340Y-94491500D01*
X150951866Y-94491500D01*
X150889684Y-94498255D01*
X150753295Y-94549385D01*
X150636739Y-94636739D01*
X150631358Y-94643919D01*
X150631357Y-94643920D01*
X150555974Y-94744503D01*
X150499115Y-94787018D01*
X150428296Y-94792044D01*
X150389983Y-94774824D01*
X150389121Y-94776230D01*
X150190958Y-94654795D01*
X150182163Y-94650313D01*
X149972012Y-94563266D01*
X149962627Y-94560217D01*
X149741446Y-94507115D01*
X149731699Y-94505572D01*
X149504930Y-94487725D01*
X149495070Y-94487725D01*
X149268301Y-94505572D01*
X149258554Y-94507115D01*
X149037373Y-94560217D01*
X149027988Y-94563266D01*
X148817837Y-94650313D01*
X148809042Y-94654795D01*
X148641555Y-94757432D01*
X148632093Y-94767890D01*
X148635876Y-94776666D01*
X149770115Y-95910905D01*
X149804141Y-95973217D01*
X149799076Y-96044032D01*
X149770115Y-96089095D01*
X148638920Y-97220290D01*
X148632160Y-97232670D01*
X148637887Y-97240320D01*
X148809042Y-97345205D01*
X148817837Y-97349687D01*
X149027988Y-97436734D01*
X149037373Y-97439783D01*
X149258554Y-97492885D01*
X149268301Y-97494428D01*
X149495070Y-97512275D01*
X149504930Y-97512275D01*
X149731699Y-97494428D01*
X149741446Y-97492885D01*
X149962627Y-97439783D01*
X149972012Y-97436734D01*
X150182163Y-97349687D01*
X150190958Y-97345205D01*
X150389121Y-97223770D01*
X150390396Y-97225851D01*
X150447739Y-97205280D01*
X150516918Y-97221242D01*
X150555974Y-97255497D01*
X150577546Y-97284280D01*
X150636739Y-97363261D01*
X150753295Y-97450615D01*
X150889684Y-97501745D01*
X150951866Y-97508500D01*
X152451452Y-97508500D01*
X152523901Y-97531413D01*
X152567718Y-97562207D01*
X152574697Y-97567112D01*
X152579993Y-97571045D01*
X152630282Y-97610477D01*
X152637204Y-97613602D01*
X152639452Y-97614964D01*
X152654185Y-97623368D01*
X152656524Y-97624622D01*
X152662739Y-97628990D01*
X152669815Y-97631749D01*
X152669819Y-97631751D01*
X152722274Y-97652202D01*
X152728352Y-97654757D01*
X152786574Y-97681045D01*
X152794045Y-97682429D01*
X152796599Y-97683230D01*
X152812878Y-97687867D01*
X152815433Y-97688523D01*
X152822509Y-97691282D01*
X152850962Y-97695028D01*
X152885851Y-97699621D01*
X152892367Y-97700653D01*
X152934706Y-97708500D01*
X152955187Y-97712296D01*
X152962767Y-97711859D01*
X152962768Y-97711859D01*
X153017398Y-97708709D01*
X153024651Y-97708500D01*
X156773613Y-97708500D01*
X156841734Y-97728502D01*
X156882184Y-97774730D01*
X156883450Y-97773946D01*
X156976522Y-97924348D01*
X156976638Y-97924464D01*
X157002173Y-97987543D01*
X156989004Y-98057308D01*
X156978136Y-98074251D01*
X156975695Y-98076697D01*
X156882885Y-98227262D01*
X156881205Y-98226226D01*
X156840879Y-98272031D01*
X156773595Y-98291500D01*
X149345660Y-98291500D01*
X149277539Y-98271498D01*
X149256565Y-98254595D01*
X148153235Y-97151265D01*
X148119209Y-97088953D01*
X148124274Y-97018138D01*
X148146517Y-96980342D01*
X148208754Y-96907472D01*
X148254686Y-96873597D01*
X148276669Y-96864121D01*
X149127978Y-96012812D01*
X149135592Y-95998868D01*
X149135461Y-95997035D01*
X149131210Y-95990420D01*
X148279710Y-95138920D01*
X148241352Y-95117974D01*
X148205928Y-95089218D01*
X148073177Y-94933787D01*
X148069969Y-94930031D01*
X148039841Y-94904299D01*
X148001032Y-94844848D01*
X148000526Y-94773853D01*
X148032577Y-94719393D01*
X150256565Y-92495405D01*
X150318877Y-92461379D01*
X150345660Y-92458500D01*
X154244923Y-92458500D01*
X154313044Y-92478502D01*
G37*
%TD.AperFunction*%
%TA.AperFunction,Conductor*%
G36*
X156851169Y-93978502D02*
G01*
X156897662Y-94032158D01*
X156907766Y-94102432D01*
X156890308Y-94150615D01*
X156862186Y-94196238D01*
X156856037Y-94209424D01*
X156804862Y-94363710D01*
X156801995Y-94377086D01*
X156792328Y-94471438D01*
X156792000Y-94477855D01*
X156792000Y-94727885D01*
X156796475Y-94743124D01*
X156797865Y-94744329D01*
X156805548Y-94746000D01*
X157928000Y-94746000D01*
X157996121Y-94766002D01*
X158042614Y-94819658D01*
X158054000Y-94872000D01*
X158054000Y-95128000D01*
X158033998Y-95196121D01*
X157980342Y-95242614D01*
X157928000Y-95254000D01*
X156810116Y-95254000D01*
X156794877Y-95258475D01*
X156793672Y-95259865D01*
X156792001Y-95267548D01*
X156792001Y-95522095D01*
X156792338Y-95528614D01*
X156802257Y-95624206D01*
X156805149Y-95637600D01*
X156856588Y-95791784D01*
X156862761Y-95804962D01*
X156948063Y-95942807D01*
X156955181Y-95951788D01*
X156981817Y-96017598D01*
X156968645Y-96087362D01*
X156963700Y-96096157D01*
X156882885Y-96227262D01*
X156881205Y-96226226D01*
X156840879Y-96272031D01*
X156773595Y-96291500D01*
X153634500Y-96291500D01*
X153566379Y-96271498D01*
X153519886Y-96217842D01*
X153508500Y-96165500D01*
X153508500Y-95545660D01*
X153528502Y-95477539D01*
X153545405Y-95456565D01*
X155006566Y-93995405D01*
X155068878Y-93961379D01*
X155095661Y-93958500D01*
X156783048Y-93958500D01*
X156851169Y-93978502D01*
G37*
%TD.AperFunction*%
%TA.AperFunction,Conductor*%
G36*
X165758137Y-79699473D02*
G01*
X165789962Y-79762937D01*
X165791980Y-79785398D01*
X165791980Y-89915500D01*
X165771978Y-89983621D01*
X165718322Y-90030114D01*
X165665980Y-90041500D01*
X165274600Y-90041500D01*
X165271354Y-90041837D01*
X165271350Y-90041837D01*
X165175692Y-90051762D01*
X165175688Y-90051763D01*
X165168834Y-90052474D01*
X165162298Y-90054655D01*
X165162296Y-90054655D01*
X165037766Y-90096202D01*
X165001054Y-90108450D01*
X164850652Y-90201522D01*
X164725695Y-90326697D01*
X164721855Y-90332927D01*
X164721854Y-90332928D01*
X164649690Y-90450000D01*
X164632885Y-90477262D01*
X164577203Y-90645139D01*
X164566500Y-90749600D01*
X164566500Y-90915500D01*
X164546498Y-90983621D01*
X164492842Y-91030114D01*
X164440500Y-91041500D01*
X161014660Y-91041500D01*
X160946539Y-91021498D01*
X160900046Y-90967842D01*
X160889942Y-90897568D01*
X160919436Y-90832988D01*
X160925565Y-90826405D01*
X161848464Y-89903507D01*
X162980528Y-88771443D01*
X162986793Y-88765589D01*
X163024664Y-88732552D01*
X163024665Y-88732551D01*
X163030385Y-88727561D01*
X163067136Y-88675271D01*
X163071028Y-88670029D01*
X163110476Y-88619718D01*
X163113600Y-88612799D01*
X163114988Y-88610507D01*
X163123357Y-88595835D01*
X163124622Y-88593475D01*
X163128990Y-88587261D01*
X163152203Y-88527723D01*
X163154759Y-88521642D01*
X163159862Y-88510342D01*
X163181045Y-88463427D01*
X163182430Y-88455954D01*
X163183234Y-88453388D01*
X163187855Y-88437165D01*
X163188520Y-88434573D01*
X163191282Y-88427491D01*
X163199622Y-88364139D01*
X163200654Y-88357623D01*
X163210911Y-88302281D01*
X163212295Y-88294814D01*
X163208709Y-88232620D01*
X163208500Y-88225367D01*
X163208500Y-80845660D01*
X163228502Y-80777539D01*
X163245405Y-80756565D01*
X164292974Y-79708997D01*
X164355286Y-79674971D01*
X164394919Y-79674940D01*
X164395139Y-79672797D01*
X164499600Y-79683500D01*
X165500400Y-79683500D01*
X165503646Y-79683163D01*
X165503650Y-79683163D01*
X165599308Y-79673238D01*
X165599312Y-79673237D01*
X165606166Y-79672526D01*
X165612699Y-79670346D01*
X165612710Y-79670344D01*
X165626103Y-79665875D01*
X165697052Y-79663289D01*
X165758137Y-79699473D01*
G37*
%TD.AperFunction*%
%TA.AperFunction,Conductor*%
G36*
X160396121Y-86116002D02*
G01*
X160442614Y-86169658D01*
X160454000Y-86222000D01*
X160454000Y-87439884D01*
X160458475Y-87455123D01*
X160459865Y-87456328D01*
X160467548Y-87457999D01*
X160915500Y-87457999D01*
X160983621Y-87478001D01*
X161030114Y-87531657D01*
X161041500Y-87583999D01*
X161041500Y-87654340D01*
X161021498Y-87722461D01*
X161004595Y-87743435D01*
X159368435Y-89379595D01*
X159306123Y-89413621D01*
X159279340Y-89416500D01*
X149229712Y-89416500D01*
X149161591Y-89396498D01*
X149115098Y-89342842D01*
X149104790Y-89306944D01*
X149101862Y-89284697D01*
X149092838Y-89216150D01*
X149085411Y-89198219D01*
X149077821Y-89127630D01*
X149085411Y-89101780D01*
X149089678Y-89091480D01*
X149089679Y-89091477D01*
X149092838Y-89083850D01*
X149104792Y-88993052D01*
X149133513Y-88928127D01*
X149192778Y-88889035D01*
X149229713Y-88883500D01*
X158245110Y-88883500D01*
X158253680Y-88883792D01*
X158303798Y-88887209D01*
X158303802Y-88887209D01*
X158311374Y-88887725D01*
X158318851Y-88886420D01*
X158318852Y-88886420D01*
X158345330Y-88881799D01*
X158374325Y-88876738D01*
X158380843Y-88875777D01*
X158444264Y-88868102D01*
X158451365Y-88865419D01*
X158453974Y-88864778D01*
X158470284Y-88860315D01*
X158472820Y-88859550D01*
X158480306Y-88858243D01*
X158538822Y-88832556D01*
X158544926Y-88830065D01*
X158597570Y-88810173D01*
X158597571Y-88810172D01*
X158604678Y-88807487D01*
X158610941Y-88803183D01*
X158613307Y-88801946D01*
X158628119Y-88793701D01*
X158630373Y-88792368D01*
X158637327Y-88789315D01*
X158688024Y-88750413D01*
X158693354Y-88746541D01*
X158739742Y-88714661D01*
X158739747Y-88714656D01*
X158746003Y-88710357D01*
X158787449Y-88663839D01*
X158792430Y-88658562D01*
X159580536Y-87870457D01*
X159586801Y-87864604D01*
X159624664Y-87831574D01*
X159624665Y-87831573D01*
X159630385Y-87826583D01*
X159667136Y-87774293D01*
X159671028Y-87769051D01*
X159710476Y-87718740D01*
X159713600Y-87711821D01*
X159714988Y-87709529D01*
X159723357Y-87694857D01*
X159724622Y-87692497D01*
X159728990Y-87686283D01*
X159752203Y-87626745D01*
X159754759Y-87620664D01*
X159771315Y-87583999D01*
X159781045Y-87562449D01*
X159782429Y-87554979D01*
X159784702Y-87547727D01*
X159787587Y-87548631D01*
X159813402Y-87497689D01*
X159874637Y-87461762D01*
X159905197Y-87458000D01*
X159927885Y-87458000D01*
X159943124Y-87453525D01*
X159944329Y-87452135D01*
X159946000Y-87444452D01*
X159946000Y-86222000D01*
X159966002Y-86153879D01*
X160019658Y-86107386D01*
X160072000Y-86096000D01*
X160328000Y-86096000D01*
X160396121Y-86116002D01*
G37*
%TD.AperFunction*%
%TA.AperFunction,Conductor*%
G36*
X155250535Y-69770002D02*
G01*
X155297028Y-69823658D01*
X155307132Y-69893932D01*
X155305615Y-69902411D01*
X155304280Y-69908636D01*
X155302115Y-69915165D01*
X155291500Y-70018769D01*
X155291501Y-70606230D01*
X155302384Y-70711129D01*
X155304563Y-70717660D01*
X155304564Y-70717665D01*
X155349903Y-70853562D01*
X155357898Y-70877526D01*
X155450203Y-71026689D01*
X155574347Y-71150617D01*
X155577270Y-71152419D01*
X155617408Y-71209029D01*
X155620642Y-71279952D01*
X155585018Y-71341364D01*
X155578622Y-71346916D01*
X155573311Y-71350203D01*
X155449383Y-71474347D01*
X155445543Y-71480577D01*
X155445542Y-71480578D01*
X155431017Y-71504143D01*
X155357339Y-71623671D01*
X155355034Y-71630619D01*
X155355034Y-71630620D01*
X155323225Y-71726522D01*
X155302115Y-71790165D01*
X155291500Y-71893769D01*
X155291501Y-72481230D01*
X155302384Y-72586129D01*
X155304563Y-72592660D01*
X155304564Y-72592665D01*
X155326388Y-72658078D01*
X155357898Y-72752526D01*
X155450203Y-72901689D01*
X155574347Y-73025617D01*
X155722763Y-73117101D01*
X155723671Y-73117661D01*
X155723231Y-73118376D01*
X155772036Y-73161350D01*
X155791500Y-73228626D01*
X155791500Y-75773613D01*
X155771498Y-75841734D01*
X155725270Y-75882184D01*
X155726054Y-75883450D01*
X155575652Y-75976522D01*
X155570479Y-75981704D01*
X155512267Y-76040018D01*
X155450695Y-76101697D01*
X155446855Y-76107927D01*
X155446854Y-76107928D01*
X155396794Y-76189141D01*
X155357885Y-76252262D01*
X155302203Y-76420139D01*
X155291500Y-76524600D01*
X155291500Y-77150400D01*
X155302474Y-77256166D01*
X155304655Y-77262702D01*
X155304655Y-77262704D01*
X155333045Y-77347799D01*
X155358450Y-77423946D01*
X155451522Y-77574348D01*
X155456704Y-77579521D01*
X155538109Y-77660784D01*
X155572188Y-77723066D01*
X155567185Y-77793886D01*
X155538264Y-77838975D01*
X155462940Y-77914431D01*
X155450695Y-77926697D01*
X155446855Y-77932927D01*
X155446854Y-77932928D01*
X155363006Y-78068955D01*
X155357885Y-78077262D01*
X155344765Y-78116819D01*
X155308771Y-78225338D01*
X155302203Y-78245139D01*
X155301503Y-78251975D01*
X155301502Y-78251978D01*
X155300351Y-78263215D01*
X155291500Y-78349600D01*
X155291500Y-78975400D01*
X155291837Y-78978646D01*
X155291837Y-78978650D01*
X155296656Y-79025090D01*
X155302474Y-79081166D01*
X155304655Y-79087702D01*
X155304655Y-79087704D01*
X155330944Y-79166500D01*
X155358450Y-79248946D01*
X155451522Y-79399348D01*
X155456704Y-79404521D01*
X155488942Y-79436703D01*
X155576697Y-79524305D01*
X155582927Y-79528145D01*
X155582928Y-79528146D01*
X155720090Y-79612694D01*
X155727262Y-79617115D01*
X155746419Y-79623469D01*
X155888611Y-79670632D01*
X155888613Y-79670632D01*
X155895139Y-79672797D01*
X155901975Y-79673497D01*
X155901978Y-79673498D01*
X155945031Y-79677909D01*
X155999600Y-79683500D01*
X157000400Y-79683500D01*
X157003646Y-79683163D01*
X157003650Y-79683163D01*
X157099308Y-79673238D01*
X157099312Y-79673237D01*
X157106166Y-79672526D01*
X157112702Y-79670345D01*
X157112704Y-79670345D01*
X157253207Y-79623469D01*
X157273946Y-79616550D01*
X157424348Y-79523478D01*
X157429521Y-79518296D01*
X157429526Y-79518292D01*
X157452295Y-79495483D01*
X157514577Y-79461403D01*
X157541468Y-79458500D01*
X159654340Y-79458500D01*
X159722461Y-79478502D01*
X159743435Y-79495405D01*
X161004595Y-80756565D01*
X161038621Y-80818877D01*
X161041500Y-80845660D01*
X161041500Y-81639608D01*
X161021498Y-81707729D01*
X160967842Y-81754222D01*
X160897568Y-81764326D01*
X160832988Y-81734832D01*
X160826483Y-81728781D01*
X160778488Y-81680870D01*
X160778483Y-81680866D01*
X160773303Y-81675695D01*
X160767072Y-81671854D01*
X160628968Y-81586725D01*
X160628966Y-81586724D01*
X160622738Y-81582885D01*
X160542995Y-81556436D01*
X160461389Y-81529368D01*
X160461387Y-81529368D01*
X160454861Y-81527203D01*
X160448025Y-81526503D01*
X160448022Y-81526502D01*
X160404969Y-81522091D01*
X160350400Y-81516500D01*
X159749600Y-81516500D01*
X159746354Y-81516837D01*
X159746350Y-81516837D01*
X159650692Y-81526762D01*
X159650688Y-81526763D01*
X159643834Y-81527474D01*
X159637298Y-81529655D01*
X159637296Y-81529655D01*
X159620928Y-81535116D01*
X159476054Y-81583450D01*
X159325652Y-81676522D01*
X159200695Y-81801697D01*
X159197898Y-81806235D01*
X159140647Y-81846824D01*
X159069724Y-81850054D01*
X159008313Y-81814428D01*
X159000938Y-81805932D01*
X158992902Y-81795793D01*
X158878171Y-81681261D01*
X158866760Y-81672249D01*
X158728757Y-81587184D01*
X158715576Y-81581037D01*
X158561290Y-81529862D01*
X158547914Y-81526995D01*
X158453562Y-81517328D01*
X158447145Y-81517000D01*
X158422115Y-81517000D01*
X158406876Y-81521475D01*
X158405671Y-81522865D01*
X158404000Y-81530548D01*
X158404000Y-83897000D01*
X158383998Y-83965121D01*
X158330342Y-84011614D01*
X158278000Y-84023000D01*
X158272115Y-84023000D01*
X158256876Y-84027475D01*
X158255671Y-84028865D01*
X158254000Y-84036548D01*
X158254000Y-84778000D01*
X158233998Y-84846121D01*
X158180342Y-84892614D01*
X158128000Y-84904000D01*
X156870366Y-84904000D01*
X156802245Y-84883998D01*
X156755752Y-84830342D01*
X156749470Y-84813499D01*
X156747525Y-84806876D01*
X156746135Y-84805671D01*
X156738452Y-84804000D01*
X154635116Y-84804000D01*
X154619877Y-84808475D01*
X154618672Y-84809865D01*
X154617001Y-84817548D01*
X154617001Y-84847095D01*
X154617338Y-84853614D01*
X154627257Y-84949206D01*
X154630149Y-84962600D01*
X154681588Y-85116784D01*
X154687761Y-85129962D01*
X154773063Y-85267807D01*
X154782099Y-85279208D01*
X154896828Y-85393738D01*
X154905762Y-85400794D01*
X154946823Y-85458712D01*
X154950053Y-85529635D01*
X154914426Y-85591046D01*
X154906593Y-85597846D01*
X154900652Y-85601522D01*
X154775695Y-85726697D01*
X154771855Y-85732927D01*
X154771854Y-85732928D01*
X154730939Y-85799305D01*
X154682885Y-85877262D01*
X154680581Y-85884209D01*
X154634840Y-86022115D01*
X154627203Y-86045139D01*
X154626503Y-86051975D01*
X154626502Y-86051978D01*
X154623285Y-86083376D01*
X154616500Y-86149600D01*
X154616500Y-86690500D01*
X154596498Y-86758621D01*
X154542842Y-86805114D01*
X154490500Y-86816500D01*
X153701542Y-86816500D01*
X153633421Y-86796498D01*
X153586928Y-86742842D01*
X153576824Y-86672568D01*
X153594282Y-86624385D01*
X153637814Y-86553762D01*
X153643963Y-86540576D01*
X153695138Y-86386290D01*
X153698005Y-86372914D01*
X153707672Y-86278562D01*
X153708000Y-86272146D01*
X153708000Y-86022115D01*
X153703525Y-86006876D01*
X153702135Y-86005671D01*
X153694452Y-86004000D01*
X152572000Y-86004000D01*
X152503879Y-85983998D01*
X152457386Y-85930342D01*
X152446000Y-85878000D01*
X152446000Y-85477885D01*
X152954000Y-85477885D01*
X152958475Y-85493124D01*
X152959865Y-85494329D01*
X152967548Y-85496000D01*
X153689884Y-85496000D01*
X153705123Y-85491525D01*
X153706328Y-85490135D01*
X153707999Y-85482452D01*
X153707999Y-85227905D01*
X153707662Y-85221386D01*
X153697743Y-85125794D01*
X153694851Y-85112400D01*
X153643412Y-84958216D01*
X153637239Y-84945038D01*
X153551937Y-84807193D01*
X153542901Y-84795792D01*
X153461183Y-84714216D01*
X153427104Y-84651933D01*
X153432107Y-84581113D01*
X153461029Y-84536025D01*
X153543735Y-84453176D01*
X153552751Y-84441760D01*
X153637816Y-84303757D01*
X153643963Y-84290576D01*
X153648172Y-84277885D01*
X154617000Y-84277885D01*
X154621475Y-84293124D01*
X154622865Y-84294329D01*
X154630548Y-84296000D01*
X155577885Y-84296000D01*
X155593124Y-84291525D01*
X155594329Y-84290135D01*
X155596000Y-84282452D01*
X155596000Y-84277885D01*
X156104000Y-84277885D01*
X156108475Y-84293124D01*
X156109865Y-84294329D01*
X156117548Y-84296000D01*
X157004634Y-84296000D01*
X157072755Y-84316002D01*
X157119248Y-84369658D01*
X157125530Y-84386501D01*
X157127475Y-84393124D01*
X157128865Y-84394329D01*
X157136548Y-84396000D01*
X157727885Y-84396000D01*
X157743124Y-84391525D01*
X157744329Y-84390135D01*
X157746000Y-84382452D01*
X157746000Y-83628000D01*
X157766002Y-83559879D01*
X157819658Y-83513386D01*
X157872000Y-83502000D01*
X157877885Y-83502000D01*
X157893124Y-83497525D01*
X157894329Y-83496135D01*
X157896000Y-83488452D01*
X157896000Y-83022115D01*
X157891525Y-83006876D01*
X157890135Y-83005671D01*
X157882452Y-83004000D01*
X157160116Y-83004000D01*
X157144877Y-83008475D01*
X157143672Y-83009865D01*
X157142001Y-83017548D01*
X157142001Y-83272095D01*
X157142338Y-83278614D01*
X157152257Y-83374206D01*
X157155149Y-83387600D01*
X157168346Y-83427157D01*
X157170930Y-83498107D01*
X157134746Y-83559191D01*
X157093051Y-83585015D01*
X157061948Y-83596675D01*
X157046351Y-83605214D01*
X156937096Y-83687096D01*
X156935678Y-83685205D01*
X156884619Y-83713086D01*
X156813804Y-83708021D01*
X156791720Y-83697225D01*
X156653757Y-83612184D01*
X156640576Y-83606037D01*
X156486290Y-83554862D01*
X156472914Y-83551995D01*
X156378562Y-83542328D01*
X156372145Y-83542000D01*
X156122115Y-83542000D01*
X156106876Y-83546475D01*
X156105671Y-83547865D01*
X156104000Y-83555548D01*
X156104000Y-84277885D01*
X155596000Y-84277885D01*
X155596000Y-83560116D01*
X155591525Y-83544877D01*
X155590135Y-83543672D01*
X155582452Y-83542001D01*
X155327905Y-83542001D01*
X155321386Y-83542338D01*
X155225794Y-83552257D01*
X155212400Y-83555149D01*
X155058216Y-83606588D01*
X155045038Y-83612761D01*
X154907193Y-83698063D01*
X154895792Y-83707099D01*
X154781261Y-83821829D01*
X154772249Y-83833240D01*
X154687184Y-83971243D01*
X154681037Y-83984424D01*
X154629862Y-84138710D01*
X154626995Y-84152086D01*
X154617328Y-84246438D01*
X154617000Y-84252855D01*
X154617000Y-84277885D01*
X153648172Y-84277885D01*
X153695138Y-84136290D01*
X153698005Y-84122914D01*
X153707672Y-84028562D01*
X153708000Y-84022146D01*
X153708000Y-83772115D01*
X153703525Y-83756876D01*
X153702135Y-83755671D01*
X153694452Y-83754000D01*
X152972115Y-83754000D01*
X152956876Y-83758475D01*
X152955671Y-83759865D01*
X152954000Y-83767548D01*
X152954000Y-85477885D01*
X152446000Y-85477885D01*
X152446000Y-84949912D01*
X152447078Y-84933467D01*
X152449621Y-84914149D01*
X152450653Y-84907632D01*
X152452609Y-84897082D01*
X152462296Y-84844814D01*
X152461462Y-84830342D01*
X152458709Y-84782608D01*
X152458500Y-84775354D01*
X152458500Y-83227885D01*
X152954000Y-83227885D01*
X152958475Y-83243124D01*
X152959865Y-83244329D01*
X152967548Y-83246000D01*
X153689884Y-83246000D01*
X153705123Y-83241525D01*
X153706328Y-83240135D01*
X153707999Y-83232452D01*
X153707999Y-82977905D01*
X153707661Y-82971377D01*
X153697743Y-82875794D01*
X153694851Y-82862400D01*
X153643412Y-82708216D01*
X153637239Y-82695038D01*
X153551937Y-82557193D01*
X153542901Y-82545792D01*
X153474876Y-82477885D01*
X157142000Y-82477885D01*
X157146475Y-82493124D01*
X157147865Y-82494329D01*
X157155548Y-82496000D01*
X157877885Y-82496000D01*
X157893124Y-82491525D01*
X157894329Y-82490135D01*
X157896000Y-82482452D01*
X157896000Y-81535116D01*
X157891525Y-81519877D01*
X157890135Y-81518672D01*
X157882452Y-81517001D01*
X157852905Y-81517001D01*
X157846386Y-81517338D01*
X157750794Y-81527257D01*
X157737400Y-81530149D01*
X157583216Y-81581588D01*
X157570038Y-81587761D01*
X157432193Y-81673063D01*
X157420792Y-81682099D01*
X157306261Y-81796829D01*
X157297249Y-81808240D01*
X157212184Y-81946243D01*
X157206037Y-81959424D01*
X157154862Y-82113710D01*
X157151995Y-82127086D01*
X157142328Y-82221438D01*
X157142000Y-82227855D01*
X157142000Y-82477885D01*
X153474876Y-82477885D01*
X153428171Y-82431261D01*
X153416760Y-82422249D01*
X153278757Y-82337184D01*
X153265576Y-82331037D01*
X153111290Y-82279862D01*
X153097914Y-82276995D01*
X153003562Y-82267328D01*
X152997145Y-82267000D01*
X152972115Y-82267000D01*
X152956876Y-82271475D01*
X152955671Y-82272865D01*
X152954000Y-82280548D01*
X152954000Y-83227885D01*
X152458500Y-83227885D01*
X152458500Y-82848548D01*
X152481413Y-82776098D01*
X152517112Y-82725303D01*
X152521046Y-82720005D01*
X152555791Y-82675694D01*
X152560477Y-82669718D01*
X152563602Y-82662796D01*
X152564964Y-82660548D01*
X152573368Y-82645815D01*
X152574622Y-82643476D01*
X152578990Y-82637261D01*
X152581749Y-82630185D01*
X152581751Y-82630181D01*
X152602200Y-82577731D01*
X152604749Y-82571666D01*
X152631045Y-82513427D01*
X152632429Y-82505962D01*
X152633226Y-82503418D01*
X152637859Y-82487152D01*
X152638521Y-82484572D01*
X152641282Y-82477491D01*
X152649622Y-82414143D01*
X152650653Y-82407629D01*
X152658462Y-82365500D01*
X152662296Y-82344813D01*
X152658709Y-82282602D01*
X152658500Y-82275349D01*
X152658500Y-70114874D01*
X152678502Y-70046753D01*
X152683661Y-70039327D01*
X152700615Y-70016705D01*
X152751745Y-69880316D01*
X152752598Y-69872464D01*
X152752599Y-69872460D01*
X152752737Y-69871185D01*
X152753122Y-69870259D01*
X152754425Y-69864778D01*
X152755312Y-69864989D01*
X152779979Y-69805623D01*
X152838341Y-69765196D01*
X152909296Y-69762740D01*
X152970314Y-69799035D01*
X153002023Y-69862557D01*
X153004000Y-69884792D01*
X153004000Y-70259884D01*
X153008475Y-70275123D01*
X153009865Y-70276328D01*
X153017548Y-70277999D01*
X153094669Y-70277999D01*
X153101490Y-70277629D01*
X153152352Y-70272105D01*
X153167604Y-70268479D01*
X153288054Y-70223324D01*
X153303649Y-70214786D01*
X153405724Y-70138285D01*
X153418285Y-70125724D01*
X153494786Y-70023649D01*
X153503324Y-70008054D01*
X153548478Y-69887606D01*
X153552106Y-69872351D01*
X153553187Y-69862394D01*
X153580428Y-69796832D01*
X153638790Y-69756405D01*
X153678450Y-69750000D01*
X155182414Y-69750000D01*
X155250535Y-69770002D01*
G37*
%TD.AperFunction*%
%TA.AperFunction,Conductor*%
G36*
X137327617Y-69770002D02*
G01*
X137374110Y-69823658D01*
X137384214Y-69893932D01*
X137379089Y-69915667D01*
X137354863Y-69988707D01*
X137351995Y-70002086D01*
X137342328Y-70096438D01*
X137342000Y-70102855D01*
X137342000Y-70202885D01*
X137346475Y-70218124D01*
X137347865Y-70219329D01*
X137355548Y-70221000D01*
X140139884Y-70221000D01*
X140155123Y-70216525D01*
X140156328Y-70215135D01*
X140157999Y-70207452D01*
X140157999Y-70102905D01*
X140157662Y-70096386D01*
X140147743Y-70000794D01*
X140144851Y-69987400D01*
X140120989Y-69915876D01*
X140118405Y-69844926D01*
X140154589Y-69783842D01*
X140218053Y-69752018D01*
X140240513Y-69750000D01*
X145321550Y-69750000D01*
X145389671Y-69770002D01*
X145436164Y-69823658D01*
X145446813Y-69862392D01*
X145447895Y-69872353D01*
X145451521Y-69887604D01*
X145496676Y-70008054D01*
X145505214Y-70023649D01*
X145581715Y-70125724D01*
X145594276Y-70138285D01*
X145696351Y-70214786D01*
X145711946Y-70223324D01*
X145832394Y-70268478D01*
X145847649Y-70272105D01*
X145898514Y-70277631D01*
X145905328Y-70278000D01*
X145977885Y-70278000D01*
X145993124Y-70273525D01*
X145994329Y-70272135D01*
X145996000Y-70264452D01*
X145996000Y-69884792D01*
X146016002Y-69816671D01*
X146069658Y-69770178D01*
X146139932Y-69760074D01*
X146204512Y-69789568D01*
X146242896Y-69849294D01*
X146247263Y-69871185D01*
X146247401Y-69872460D01*
X146247402Y-69872464D01*
X146248255Y-69880316D01*
X146299385Y-70016705D01*
X146386739Y-70133261D01*
X146455889Y-70185086D01*
X146498403Y-70241946D01*
X146501219Y-70250413D01*
X146508475Y-70275123D01*
X146509865Y-70276328D01*
X146517548Y-70277999D01*
X146594670Y-70277999D01*
X146601488Y-70277630D01*
X146634067Y-70274091D01*
X146661280Y-70274091D01*
X146701866Y-70278500D01*
X146965500Y-70278500D01*
X147033621Y-70298502D01*
X147080114Y-70352158D01*
X147091500Y-70404500D01*
X147091500Y-71504143D01*
X147071498Y-71572264D01*
X147017842Y-71618757D01*
X147005378Y-71623666D01*
X146983005Y-71631130D01*
X146982998Y-71631133D01*
X146976054Y-71633450D01*
X146825652Y-71726522D01*
X146700695Y-71851697D01*
X146696855Y-71857927D01*
X146696854Y-71857928D01*
X146672640Y-71897211D01*
X146607885Y-72002262D01*
X146552203Y-72170139D01*
X146541500Y-72274600D01*
X146541500Y-72900400D01*
X146541837Y-72903646D01*
X146541837Y-72903650D01*
X146542064Y-72905833D01*
X146552474Y-73006166D01*
X146554655Y-73012702D01*
X146554655Y-73012704D01*
X146588622Y-73114514D01*
X146608450Y-73173946D01*
X146701522Y-73324348D01*
X146706704Y-73329521D01*
X146788463Y-73411138D01*
X146822542Y-73473421D01*
X146817539Y-73544241D01*
X146788618Y-73589329D01*
X146706261Y-73671829D01*
X146697249Y-73683240D01*
X146612184Y-73821243D01*
X146606037Y-73834424D01*
X146554862Y-73988710D01*
X146551995Y-74002086D01*
X146542328Y-74096438D01*
X146542000Y-74102855D01*
X146542000Y-74140385D01*
X146546475Y-74155624D01*
X146547865Y-74156829D01*
X146555548Y-74158500D01*
X147878000Y-74158500D01*
X147946121Y-74178502D01*
X147992614Y-74232158D01*
X148004000Y-74284500D01*
X148004000Y-75414885D01*
X148016952Y-75458997D01*
X148016952Y-75529993D01*
X147985151Y-75583589D01*
X145592395Y-77976345D01*
X145583615Y-77984335D01*
X145583613Y-77984337D01*
X145576920Y-77988584D01*
X145571494Y-77994362D01*
X145571493Y-77994363D01*
X145528396Y-78040257D01*
X145525641Y-78043099D01*
X145505073Y-78063667D01*
X145502356Y-78067170D01*
X145494648Y-78076195D01*
X145463028Y-78109867D01*
X145459207Y-78116818D01*
X145459206Y-78116819D01*
X145452697Y-78128658D01*
X145441843Y-78145182D01*
X145434018Y-78155271D01*
X145428696Y-78162132D01*
X145425549Y-78169404D01*
X145425548Y-78169406D01*
X145410346Y-78204535D01*
X145405124Y-78215195D01*
X145392251Y-78238611D01*
X145382876Y-78255663D01*
X145377541Y-78276441D01*
X145371142Y-78295131D01*
X145362620Y-78314824D01*
X145361380Y-78322655D01*
X145355394Y-78360448D01*
X145352987Y-78372071D01*
X145346478Y-78397425D01*
X145341500Y-78416812D01*
X145341500Y-78438259D01*
X145339949Y-78457969D01*
X145336594Y-78479152D01*
X145337340Y-78487043D01*
X145340941Y-78525138D01*
X145341500Y-78536996D01*
X145341500Y-82369659D01*
X145321498Y-82437780D01*
X145267842Y-82484273D01*
X145228503Y-82494986D01*
X145218730Y-82496000D01*
X145163193Y-82501762D01*
X145163190Y-82501763D01*
X145156334Y-82502474D01*
X145149798Y-82504655D01*
X145149796Y-82504655D01*
X145023911Y-82546654D01*
X144988554Y-82558450D01*
X144838152Y-82651522D01*
X144713195Y-82776697D01*
X144709355Y-82782927D01*
X144709354Y-82782928D01*
X144660367Y-82862400D01*
X144620385Y-82927262D01*
X144564703Y-83095139D01*
X144554000Y-83199600D01*
X144554000Y-84200400D01*
X144554337Y-84203646D01*
X144554337Y-84203650D01*
X144563746Y-84294329D01*
X144564974Y-84306166D01*
X144567155Y-84312702D01*
X144567155Y-84312704D01*
X144594945Y-84396000D01*
X144620950Y-84473946D01*
X144714022Y-84624348D01*
X144839197Y-84749305D01*
X144845427Y-84753145D01*
X144845428Y-84753146D01*
X144974284Y-84832574D01*
X144989762Y-84842115D01*
X145020409Y-84852280D01*
X145151111Y-84895632D01*
X145151113Y-84895632D01*
X145157639Y-84897797D01*
X145164477Y-84898498D01*
X145164479Y-84898498D01*
X145196339Y-84901762D01*
X145228343Y-84905041D01*
X145294069Y-84931882D01*
X145334852Y-84989997D01*
X145341500Y-85030385D01*
X145341500Y-86062056D01*
X145321498Y-86130177D01*
X145267842Y-86176670D01*
X145197568Y-86186774D01*
X145132988Y-86157280D01*
X145115227Y-86135996D01*
X145114317Y-86136695D01*
X145075407Y-86085987D01*
X145071529Y-86080650D01*
X145039659Y-86034278D01*
X145039658Y-86034277D01*
X145035357Y-86028019D01*
X144988847Y-85986580D01*
X144983571Y-85981600D01*
X144096435Y-85094465D01*
X144090581Y-85088198D01*
X144057556Y-85050340D01*
X144057553Y-85050337D01*
X144052561Y-85044615D01*
X144000280Y-85007871D01*
X143994986Y-85003939D01*
X143950693Y-84969209D01*
X143944718Y-84964524D01*
X143937802Y-84961401D01*
X143935516Y-84960017D01*
X143920835Y-84951643D01*
X143918475Y-84950378D01*
X143912261Y-84946010D01*
X143905182Y-84943250D01*
X143905180Y-84943249D01*
X143852725Y-84922798D01*
X143846656Y-84920247D01*
X143788427Y-84893955D01*
X143780960Y-84892571D01*
X143778405Y-84891770D01*
X143762152Y-84887141D01*
X143759572Y-84886478D01*
X143752491Y-84883718D01*
X143744960Y-84882727D01*
X143744958Y-84882726D01*
X143715339Y-84878827D01*
X143689139Y-84875378D01*
X143682641Y-84874348D01*
X143619814Y-84862704D01*
X143612234Y-84863141D01*
X143612233Y-84863141D01*
X143557608Y-84866291D01*
X143550354Y-84866500D01*
X142094497Y-84866500D01*
X142094494Y-84866501D01*
X141460116Y-84866501D01*
X141456031Y-84867039D01*
X141456027Y-84867039D01*
X141349337Y-84881084D01*
X141349335Y-84881084D01*
X141341150Y-84882162D01*
X141288428Y-84904000D01*
X141200752Y-84940316D01*
X141200750Y-84940317D01*
X141193124Y-84943476D01*
X141186574Y-84948502D01*
X141109203Y-85007872D01*
X141066013Y-85041013D01*
X141060987Y-85047563D01*
X141060984Y-85047566D01*
X141017245Y-85104569D01*
X140968476Y-85168125D01*
X140907162Y-85316150D01*
X140896019Y-85400794D01*
X140895209Y-85406946D01*
X140866487Y-85471873D01*
X140807222Y-85510965D01*
X140770287Y-85516500D01*
X135233160Y-85516500D01*
X135165039Y-85496498D01*
X135144065Y-85479595D01*
X134470405Y-84805935D01*
X134436379Y-84743623D01*
X134433500Y-84716840D01*
X134433500Y-84249600D01*
X134433163Y-84246350D01*
X134423238Y-84150692D01*
X134423237Y-84150688D01*
X134422526Y-84143834D01*
X134386733Y-84036548D01*
X134368868Y-83983002D01*
X134366550Y-83976054D01*
X134273478Y-83825652D01*
X134148303Y-83700695D01*
X134142072Y-83696854D01*
X134003968Y-83611725D01*
X134003966Y-83611724D01*
X133997738Y-83607885D01*
X133890871Y-83572439D01*
X133836389Y-83554368D01*
X133836387Y-83554368D01*
X133829861Y-83552203D01*
X133823025Y-83551503D01*
X133823022Y-83551502D01*
X133779969Y-83547091D01*
X133725400Y-83541500D01*
X133376000Y-83541500D01*
X133307879Y-83521498D01*
X133261386Y-83467842D01*
X133250000Y-83415500D01*
X133250000Y-74722095D01*
X146542001Y-74722095D01*
X146542338Y-74728614D01*
X146552257Y-74824206D01*
X146555149Y-74837600D01*
X146606588Y-74991784D01*
X146612761Y-75004962D01*
X146698063Y-75142807D01*
X146707099Y-75154208D01*
X146821829Y-75268739D01*
X146833240Y-75277751D01*
X146971243Y-75362816D01*
X146984424Y-75368963D01*
X147138710Y-75420138D01*
X147152086Y-75423005D01*
X147246438Y-75432672D01*
X147252854Y-75433000D01*
X147477885Y-75433000D01*
X147493124Y-75428525D01*
X147494329Y-75427135D01*
X147496000Y-75419452D01*
X147496000Y-74684615D01*
X147491525Y-74669376D01*
X147490135Y-74668171D01*
X147482452Y-74666500D01*
X146560116Y-74666500D01*
X146544877Y-74670975D01*
X146543672Y-74672365D01*
X146542001Y-74680048D01*
X146542001Y-74722095D01*
X133250000Y-74722095D01*
X133250000Y-70847095D01*
X137342001Y-70847095D01*
X137342338Y-70853614D01*
X137352257Y-70949206D01*
X137355149Y-70962600D01*
X137406588Y-71116784D01*
X137412761Y-71129962D01*
X137498063Y-71267807D01*
X137507099Y-71279208D01*
X137621829Y-71393739D01*
X137633240Y-71402751D01*
X137771243Y-71487816D01*
X137784424Y-71493963D01*
X137938710Y-71545138D01*
X137952086Y-71548005D01*
X138046438Y-71557672D01*
X138052854Y-71558000D01*
X138477885Y-71558000D01*
X138493124Y-71553525D01*
X138494329Y-71552135D01*
X138496000Y-71544452D01*
X138496000Y-71539884D01*
X139004000Y-71539884D01*
X139008475Y-71555123D01*
X139009865Y-71556328D01*
X139017548Y-71557999D01*
X139447095Y-71557999D01*
X139453614Y-71557662D01*
X139549206Y-71547743D01*
X139562600Y-71544851D01*
X139716784Y-71493412D01*
X139729962Y-71487239D01*
X139867807Y-71401937D01*
X139879208Y-71392901D01*
X139993739Y-71278171D01*
X140002751Y-71266760D01*
X140087816Y-71128757D01*
X140093963Y-71115576D01*
X140145138Y-70961290D01*
X140148005Y-70947914D01*
X140157672Y-70853562D01*
X140158000Y-70847146D01*
X140158000Y-70747115D01*
X140153525Y-70731876D01*
X140152135Y-70730671D01*
X140144452Y-70729000D01*
X139022115Y-70729000D01*
X139006876Y-70733475D01*
X139005671Y-70734865D01*
X139004000Y-70742548D01*
X139004000Y-71539884D01*
X138496000Y-71539884D01*
X138496000Y-70747115D01*
X138491525Y-70731876D01*
X138490135Y-70730671D01*
X138482452Y-70729000D01*
X137360116Y-70729000D01*
X137344877Y-70733475D01*
X137343672Y-70734865D01*
X137342001Y-70742548D01*
X137342001Y-70847095D01*
X133250000Y-70847095D01*
X133250000Y-69876000D01*
X133270002Y-69807879D01*
X133323658Y-69761386D01*
X133376000Y-69750000D01*
X137259496Y-69750000D01*
X137327617Y-69770002D01*
G37*
%TD.AperFunction*%
%TA.AperFunction,Conductor*%
G36*
X163750535Y-69770002D02*
G01*
X163797028Y-69823658D01*
X163807132Y-69893932D01*
X163805615Y-69902411D01*
X163804280Y-69908636D01*
X163802115Y-69915165D01*
X163791500Y-70018769D01*
X163791501Y-70606230D01*
X163802384Y-70711129D01*
X163804563Y-70717660D01*
X163804564Y-70717665D01*
X163849903Y-70853562D01*
X163857898Y-70877526D01*
X163950203Y-71026689D01*
X164074347Y-71150617D01*
X164077270Y-71152419D01*
X164117408Y-71209029D01*
X164120642Y-71279952D01*
X164085018Y-71341364D01*
X164078622Y-71346916D01*
X164073311Y-71350203D01*
X163949383Y-71474347D01*
X163945543Y-71480577D01*
X163945542Y-71480578D01*
X163931017Y-71504143D01*
X163857339Y-71623671D01*
X163855034Y-71630619D01*
X163855034Y-71630620D01*
X163823225Y-71726522D01*
X163802115Y-71790165D01*
X163791500Y-71893769D01*
X163791501Y-72481230D01*
X163802384Y-72586129D01*
X163804563Y-72592660D01*
X163804564Y-72592665D01*
X163826388Y-72658078D01*
X163857898Y-72752526D01*
X163950203Y-72901689D01*
X164074347Y-73025617D01*
X164222763Y-73117101D01*
X164223671Y-73117661D01*
X164223231Y-73118376D01*
X164272036Y-73161350D01*
X164291500Y-73228626D01*
X164291500Y-75773613D01*
X164271498Y-75841734D01*
X164225270Y-75882184D01*
X164226054Y-75883450D01*
X164075652Y-75976522D01*
X164070479Y-75981704D01*
X164012267Y-76040018D01*
X163950695Y-76101697D01*
X163946855Y-76107927D01*
X163946854Y-76107928D01*
X163896794Y-76189141D01*
X163857885Y-76252262D01*
X163802203Y-76420139D01*
X163791500Y-76524600D01*
X163791500Y-77150400D01*
X163802474Y-77256166D01*
X163804655Y-77262702D01*
X163804655Y-77262704D01*
X163833045Y-77347799D01*
X163858450Y-77423946D01*
X163951522Y-77574348D01*
X163956704Y-77579521D01*
X164038109Y-77660784D01*
X164072188Y-77723066D01*
X164067185Y-77793886D01*
X164038264Y-77838975D01*
X163962940Y-77914431D01*
X163950695Y-77926697D01*
X163946855Y-77932927D01*
X163946854Y-77932928D01*
X163863006Y-78068955D01*
X163857885Y-78077262D01*
X163837955Y-78137349D01*
X163836071Y-78143029D01*
X163805573Y-78192457D01*
X162214095Y-79783935D01*
X162151783Y-79817961D01*
X162080968Y-79812896D01*
X162035905Y-79783935D01*
X160521450Y-78269480D01*
X160515596Y-78263215D01*
X160505793Y-78251978D01*
X160477561Y-78219615D01*
X160425280Y-78182871D01*
X160419986Y-78178939D01*
X160375693Y-78144209D01*
X160369718Y-78139524D01*
X160362802Y-78136401D01*
X160360516Y-78135017D01*
X160345835Y-78126643D01*
X160343475Y-78125378D01*
X160337261Y-78121010D01*
X160330182Y-78118250D01*
X160330180Y-78118249D01*
X160277725Y-78097798D01*
X160271656Y-78095247D01*
X160213427Y-78068955D01*
X160205960Y-78067571D01*
X160203405Y-78066770D01*
X160187152Y-78062141D01*
X160184572Y-78061478D01*
X160177491Y-78058718D01*
X160169960Y-78057727D01*
X160169958Y-78057726D01*
X160140339Y-78053827D01*
X160114139Y-78050378D01*
X160107641Y-78049348D01*
X160044814Y-78037704D01*
X160037234Y-78038141D01*
X160037233Y-78038141D01*
X159982608Y-78041291D01*
X159975354Y-78041500D01*
X157690369Y-78041500D01*
X157622248Y-78021498D01*
X157583228Y-77981807D01*
X157548478Y-77925652D01*
X157461891Y-77839216D01*
X157427812Y-77776934D01*
X157432815Y-77706114D01*
X157461736Y-77661025D01*
X157544134Y-77578483D01*
X157549305Y-77573303D01*
X157553146Y-77567072D01*
X157638275Y-77428968D01*
X157638276Y-77428966D01*
X157642115Y-77422738D01*
X157677263Y-77316770D01*
X157695632Y-77261389D01*
X157695632Y-77261387D01*
X157697797Y-77254861D01*
X157708500Y-77150400D01*
X157708500Y-76524600D01*
X157708163Y-76521350D01*
X157698238Y-76425692D01*
X157698237Y-76425688D01*
X157697526Y-76418834D01*
X157641550Y-76251054D01*
X157548478Y-76100652D01*
X157423303Y-75975695D01*
X157272738Y-75882885D01*
X157273774Y-75881205D01*
X157227969Y-75840879D01*
X157208500Y-75773595D01*
X157208500Y-73228616D01*
X157228502Y-73160495D01*
X157277725Y-73117424D01*
X157277526Y-73117102D01*
X157279464Y-73115903D01*
X157279465Y-73115902D01*
X157426689Y-73024797D01*
X157550617Y-72900653D01*
X157642661Y-72751329D01*
X157697885Y-72584835D01*
X157708500Y-72481231D01*
X157708499Y-71893770D01*
X157697616Y-71788871D01*
X157695437Y-71782340D01*
X157695436Y-71782335D01*
X157644420Y-71629422D01*
X157642102Y-71622474D01*
X157549797Y-71473311D01*
X157425653Y-71349383D01*
X157422730Y-71347581D01*
X157382592Y-71290971D01*
X157379358Y-71220048D01*
X157414982Y-71158636D01*
X157421378Y-71153084D01*
X157426689Y-71149797D01*
X157550617Y-71025653D01*
X157642661Y-70876329D01*
X157690044Y-70733475D01*
X157695719Y-70716366D01*
X157695719Y-70716364D01*
X157697885Y-70709835D01*
X157708500Y-70606231D01*
X157708499Y-70018770D01*
X157697616Y-69913871D01*
X157695436Y-69907337D01*
X157694412Y-69902594D01*
X157699585Y-69831787D01*
X157742219Y-69775016D01*
X157808777Y-69750307D01*
X157817573Y-69750000D01*
X163682414Y-69750000D01*
X163750535Y-69770002D01*
G37*
%TD.AperFunction*%
%TA.AperFunction,Conductor*%
G36*
X150946121Y-74178502D02*
G01*
X150992614Y-74232158D01*
X151004000Y-74284500D01*
X151004000Y-75414884D01*
X151008475Y-75430123D01*
X151009865Y-75431328D01*
X151017548Y-75432999D01*
X151115500Y-75432999D01*
X151183621Y-75453001D01*
X151230114Y-75506657D01*
X151241500Y-75558999D01*
X151241500Y-77246782D01*
X151221498Y-77314903D01*
X151167842Y-77361396D01*
X151097568Y-77371500D01*
X151069736Y-77364177D01*
X151027690Y-77347784D01*
X151021656Y-77345247D01*
X150963427Y-77318955D01*
X150955960Y-77317571D01*
X150953405Y-77316770D01*
X150937152Y-77312141D01*
X150934572Y-77311478D01*
X150927491Y-77308718D01*
X150919960Y-77307727D01*
X150919958Y-77307726D01*
X150890339Y-77303827D01*
X150864139Y-77300378D01*
X150857647Y-77299350D01*
X150844946Y-77296996D01*
X150781612Y-77264914D01*
X150762118Y-77241546D01*
X150707822Y-77157617D01*
X150707820Y-77157614D01*
X150705014Y-77153277D01*
X150554670Y-76988051D01*
X150550619Y-76984852D01*
X150550615Y-76984848D01*
X150383414Y-76852800D01*
X150383410Y-76852798D01*
X150379359Y-76849598D01*
X150183789Y-76741638D01*
X150178920Y-76739914D01*
X150178916Y-76739912D01*
X149978087Y-76668795D01*
X149978083Y-76668794D01*
X149973212Y-76667069D01*
X149968119Y-76666162D01*
X149968116Y-76666161D01*
X149821378Y-76640023D01*
X149757820Y-76608385D01*
X149721457Y-76547408D01*
X149723834Y-76476451D01*
X149754379Y-76426881D01*
X149907605Y-76273655D01*
X149916385Y-76265665D01*
X149916387Y-76265663D01*
X149923080Y-76261416D01*
X149937527Y-76246032D01*
X149971604Y-76209743D01*
X149974359Y-76206901D01*
X149994927Y-76186333D01*
X149997647Y-76182826D01*
X150005353Y-76173804D01*
X150031544Y-76145913D01*
X150036972Y-76140133D01*
X150040794Y-76133181D01*
X150047303Y-76121342D01*
X150058157Y-76104818D01*
X150066445Y-76094132D01*
X150071304Y-76087868D01*
X150074452Y-76080594D01*
X150089654Y-76045465D01*
X150094876Y-76034805D01*
X150113305Y-76001284D01*
X150113306Y-76001282D01*
X150117124Y-75994337D01*
X150122459Y-75973559D01*
X150128858Y-75954869D01*
X150137380Y-75935176D01*
X150144606Y-75889552D01*
X150147013Y-75877929D01*
X150156528Y-75840868D01*
X150158500Y-75833188D01*
X150158500Y-75811741D01*
X150160051Y-75792031D01*
X150162166Y-75778677D01*
X150163406Y-75770848D01*
X150159059Y-75724859D01*
X150158500Y-75713004D01*
X150158500Y-75559000D01*
X150178502Y-75490879D01*
X150232158Y-75444386D01*
X150284500Y-75433000D01*
X150477885Y-75433000D01*
X150493124Y-75428525D01*
X150494329Y-75427135D01*
X150496000Y-75419452D01*
X150496000Y-74284500D01*
X150516002Y-74216379D01*
X150569658Y-74169886D01*
X150622000Y-74158500D01*
X150878000Y-74158500D01*
X150946121Y-74178502D01*
G37*
%TD.AperFunction*%
%TD*%
%TA.AperFunction,Conductor*%
%TO.N,VCC*%
G36*
X144000000Y-68000000D02*
G01*
X140284000Y-68000000D01*
X140215879Y-67979998D01*
X140169386Y-67926342D01*
X140158000Y-67874000D01*
X140158000Y-67797115D01*
X140153525Y-67781876D01*
X140152135Y-67780671D01*
X140144452Y-67779000D01*
X137360116Y-67779000D01*
X137344877Y-67783475D01*
X137343672Y-67784865D01*
X137342001Y-67792548D01*
X137342001Y-67874000D01*
X137321999Y-67942121D01*
X137268343Y-67988614D01*
X137216001Y-68000000D01*
X132250000Y-68000000D01*
X132250000Y-71250000D01*
X122508500Y-71250000D01*
X122508500Y-66841045D01*
X122528502Y-66772924D01*
X122582158Y-66726431D01*
X122652432Y-66716327D01*
X122717012Y-66745821D01*
X122746767Y-66783842D01*
X122783938Y-66856794D01*
X122785734Y-66859560D01*
X122785736Y-66859563D01*
X122801881Y-66884424D01*
X122995643Y-67182793D01*
X123240266Y-67484876D01*
X123515124Y-67759734D01*
X123517682Y-67761806D01*
X123517686Y-67761809D01*
X123656230Y-67874000D01*
X123817207Y-68004357D01*
X124143205Y-68216062D01*
X124146139Y-68217557D01*
X124146146Y-68217561D01*
X124486607Y-68391034D01*
X124489547Y-68392532D01*
X124852438Y-68531833D01*
X125227901Y-68632438D01*
X125431793Y-68664732D01*
X125608576Y-68692732D01*
X125608584Y-68692733D01*
X125611824Y-68693246D01*
X126000000Y-68713589D01*
X126388176Y-68693246D01*
X126391416Y-68692733D01*
X126391424Y-68692732D01*
X126568207Y-68664732D01*
X126772099Y-68632438D01*
X127147562Y-68531833D01*
X127510453Y-68392532D01*
X127513393Y-68391034D01*
X127853854Y-68217561D01*
X127853861Y-68217557D01*
X127856795Y-68216062D01*
X128182793Y-68004357D01*
X128343770Y-67874000D01*
X128482314Y-67761809D01*
X128482318Y-67761806D01*
X128484876Y-67759734D01*
X128759734Y-67484876D01*
X128947597Y-67252885D01*
X137342000Y-67252885D01*
X137346475Y-67268124D01*
X137347865Y-67269329D01*
X137355548Y-67271000D01*
X138477885Y-67271000D01*
X138493124Y-67266525D01*
X138494329Y-67265135D01*
X138496000Y-67257452D01*
X138496000Y-67252885D01*
X139004000Y-67252885D01*
X139008475Y-67268124D01*
X139009865Y-67269329D01*
X139017548Y-67271000D01*
X140139884Y-67271000D01*
X140155123Y-67266525D01*
X140156328Y-67265135D01*
X140157999Y-67257452D01*
X140157999Y-67152905D01*
X140157662Y-67146386D01*
X140147743Y-67050794D01*
X140144851Y-67037400D01*
X140093412Y-66883216D01*
X140087239Y-66870038D01*
X140001937Y-66732193D01*
X139992901Y-66720792D01*
X139878171Y-66606261D01*
X139866760Y-66597249D01*
X139728757Y-66512184D01*
X139715576Y-66506037D01*
X139561290Y-66454862D01*
X139547914Y-66451995D01*
X139453562Y-66442328D01*
X139447145Y-66442000D01*
X139022115Y-66442000D01*
X139006876Y-66446475D01*
X139005671Y-66447865D01*
X139004000Y-66455548D01*
X139004000Y-67252885D01*
X138496000Y-67252885D01*
X138496000Y-66460116D01*
X138491525Y-66444877D01*
X138490135Y-66443672D01*
X138482452Y-66442001D01*
X138052905Y-66442001D01*
X138046386Y-66442338D01*
X137950794Y-66452257D01*
X137937400Y-66455149D01*
X137783216Y-66506588D01*
X137770038Y-66512761D01*
X137632193Y-66598063D01*
X137620792Y-66607099D01*
X137506261Y-66721829D01*
X137497249Y-66733240D01*
X137412184Y-66871243D01*
X137406037Y-66884424D01*
X137354862Y-67038710D01*
X137351995Y-67052086D01*
X137342328Y-67146438D01*
X137342000Y-67152855D01*
X137342000Y-67252885D01*
X128947597Y-67252885D01*
X129004357Y-67182793D01*
X129198119Y-66884424D01*
X129214264Y-66859563D01*
X129214266Y-66859560D01*
X129216062Y-66856794D01*
X129282486Y-66726431D01*
X129391034Y-66513393D01*
X129392532Y-66510453D01*
X129531833Y-66147562D01*
X129632438Y-65772099D01*
X129693246Y-65388176D01*
X129713589Y-65000000D01*
X129693246Y-64611824D01*
X129632438Y-64227901D01*
X129531833Y-63852438D01*
X129392532Y-63489547D01*
X129391034Y-63486607D01*
X129217561Y-63146147D01*
X129217557Y-63146140D01*
X129216062Y-63143206D01*
X129004357Y-62817207D01*
X128759734Y-62515124D01*
X128484876Y-62240266D01*
X128182793Y-61995643D01*
X127856795Y-61783938D01*
X127853861Y-61782443D01*
X127853854Y-61782439D01*
X127783843Y-61746767D01*
X127732228Y-61698019D01*
X127715162Y-61629104D01*
X127738063Y-61561902D01*
X127793660Y-61517750D01*
X127841046Y-61508500D01*
X144000000Y-61508500D01*
X144000000Y-68000000D01*
G37*
%TD.AperFunction*%
%TD*%
M02*
