%TF.GenerationSoftware,KiCad,Pcbnew,(6.0.5)*%
%TF.CreationDate,2024-07-23T11:02:46+02:00*%
%TF.ProjectId,USB_Knob,5553425f-4b6e-46f6-922e-6b696361645f,rev?*%
%TF.SameCoordinates,Original*%
%TF.FileFunction,Legend,Top*%
%TF.FilePolarity,Positive*%
%FSLAX46Y46*%
G04 Gerber Fmt 4.6, Leading zero omitted, Abs format (unit mm)*
G04 Created by KiCad (PCBNEW (6.0.5)) date 2024-07-23 11:02:46*
%MOMM*%
%LPD*%
G01*
G04 APERTURE LIST*
G04 Aperture macros list*
%AMRoundRect*
0 Rectangle with rounded corners*
0 $1 Rounding radius*
0 $2 $3 $4 $5 $6 $7 $8 $9 X,Y pos of 4 corners*
0 Add a 4 corners polygon primitive as box body*
4,1,4,$2,$3,$4,$5,$6,$7,$8,$9,$2,$3,0*
0 Add four circle primitives for the rounded corners*
1,1,$1+$1,$2,$3*
1,1,$1+$1,$4,$5*
1,1,$1+$1,$6,$7*
1,1,$1+$1,$8,$9*
0 Add four rect primitives between the rounded corners*
20,1,$1+$1,$2,$3,$4,$5,0*
20,1,$1+$1,$4,$5,$6,$7,0*
20,1,$1+$1,$6,$7,$8,$9,0*
20,1,$1+$1,$8,$9,$2,$3,0*%
G04 Aperture macros list end*
%ADD10C,0.150000*%
%ADD11C,0.254000*%
%ADD12C,0.120000*%
%ADD13C,0.200000*%
%ADD14C,0.100000*%
%ADD15RoundRect,0.250000X0.262500X0.450000X-0.262500X0.450000X-0.262500X-0.450000X0.262500X-0.450000X0*%
%ADD16RoundRect,0.250000X-0.262500X-0.450000X0.262500X-0.450000X0.262500X0.450000X-0.262500X0.450000X0*%
%ADD17R,1.400000X1.200000*%
%ADD18R,1.400000X2.100000*%
%ADD19RoundRect,0.250000X-0.250000X-0.475000X0.250000X-0.475000X0.250000X0.475000X-0.250000X0.475000X0*%
%ADD20R,1.700000X1.700000*%
%ADD21O,1.700000X1.700000*%
%ADD22RoundRect,0.250000X-0.450000X0.262500X-0.450000X-0.262500X0.450000X-0.262500X0.450000X0.262500X0*%
%ADD23R,0.650000X0.400000*%
%ADD24RoundRect,0.250000X0.450000X-0.262500X0.450000X0.262500X-0.450000X0.262500X-0.450000X-0.262500X0*%
%ADD25C,6.400000*%
%ADD26RoundRect,0.250000X0.250000X0.475000X-0.250000X0.475000X-0.250000X-0.475000X0.250000X-0.475000X0*%
%ADD27RoundRect,0.243750X0.456250X-0.243750X0.456250X0.243750X-0.456250X0.243750X-0.456250X-0.243750X0*%
%ADD28C,0.650000*%
%ADD29R,0.600000X1.450000*%
%ADD30R,0.300000X1.450000*%
%ADD31O,1.000000X2.100000*%
%ADD32O,1.000000X1.600000*%
%ADD33RoundRect,0.250000X-0.650000X0.325000X-0.650000X-0.325000X0.650000X-0.325000X0.650000X0.325000X0*%
%ADD34RoundRect,0.100000X-0.637500X-0.100000X0.637500X-0.100000X0.637500X0.100000X-0.637500X0.100000X0*%
%ADD35R,2.000000X2.000000*%
%ADD36C,2.000000*%
%ADD37R,2.000000X3.200000*%
%ADD38RoundRect,0.250000X-0.475000X0.250000X-0.475000X-0.250000X0.475000X-0.250000X0.475000X0.250000X0*%
G04 APERTURE END LIST*
D10*
X124797619Y-71178571D02*
X123988095Y-71178571D01*
X123892857Y-71226190D01*
X123845238Y-71273809D01*
X123797619Y-71369047D01*
X123797619Y-71559523D01*
X123845238Y-71654761D01*
X123892857Y-71702380D01*
X123988095Y-71750000D01*
X124797619Y-71750000D01*
X123845238Y-72178571D02*
X123797619Y-72321428D01*
X123797619Y-72559523D01*
X123845238Y-72654761D01*
X123892857Y-72702380D01*
X123988095Y-72750000D01*
X124083333Y-72750000D01*
X124178571Y-72702380D01*
X124226190Y-72654761D01*
X124273809Y-72559523D01*
X124321428Y-72369047D01*
X124369047Y-72273809D01*
X124416666Y-72226190D01*
X124511904Y-72178571D01*
X124607142Y-72178571D01*
X124702380Y-72226190D01*
X124750000Y-72273809D01*
X124797619Y-72369047D01*
X124797619Y-72607142D01*
X124750000Y-72750000D01*
X124321428Y-73511904D02*
X124273809Y-73654761D01*
X124226190Y-73702380D01*
X124130952Y-73750000D01*
X123988095Y-73750000D01*
X123892857Y-73702380D01*
X123845238Y-73654761D01*
X123797619Y-73559523D01*
X123797619Y-73178571D01*
X124797619Y-73178571D01*
X124797619Y-73511904D01*
X124750000Y-73607142D01*
X124702380Y-73654761D01*
X124607142Y-73702380D01*
X124511904Y-73702380D01*
X124416666Y-73654761D01*
X124369047Y-73607142D01*
X124321428Y-73511904D01*
X124321428Y-73178571D01*
X123797619Y-74940476D02*
X124797619Y-74940476D01*
X123797619Y-75511904D02*
X124369047Y-75083333D01*
X124797619Y-75511904D02*
X124226190Y-74940476D01*
X124464285Y-75940476D02*
X123797619Y-75940476D01*
X124369047Y-75940476D02*
X124416666Y-75988095D01*
X124464285Y-76083333D01*
X124464285Y-76226190D01*
X124416666Y-76321428D01*
X124321428Y-76369047D01*
X123797619Y-76369047D01*
X123797619Y-76988095D02*
X123845238Y-76892857D01*
X123892857Y-76845238D01*
X123988095Y-76797619D01*
X124273809Y-76797619D01*
X124369047Y-76845238D01*
X124416666Y-76892857D01*
X124464285Y-76988095D01*
X124464285Y-77130952D01*
X124416666Y-77226190D01*
X124369047Y-77273809D01*
X124273809Y-77321428D01*
X123988095Y-77321428D01*
X123892857Y-77273809D01*
X123845238Y-77226190D01*
X123797619Y-77130952D01*
X123797619Y-76988095D01*
X123797619Y-77750000D02*
X124797619Y-77750000D01*
X124416666Y-77750000D02*
X124464285Y-77845238D01*
X124464285Y-78035714D01*
X124416666Y-78130952D01*
X124369047Y-78178571D01*
X124273809Y-78226190D01*
X123988095Y-78226190D01*
X123892857Y-78178571D01*
X123845238Y-78130952D01*
X123797619Y-78035714D01*
X123797619Y-77845238D01*
X123845238Y-77750000D01*
X124797619Y-79273809D02*
X123797619Y-79607142D01*
X124797619Y-79940476D01*
X123797619Y-80797619D02*
X123797619Y-80226190D01*
X123797619Y-80511904D02*
X124797619Y-80511904D01*
X124654761Y-80416666D01*
X124559523Y-80321428D01*
X124511904Y-80226190D01*
X123892857Y-81226190D02*
X123845238Y-81273809D01*
X123797619Y-81226190D01*
X123845238Y-81178571D01*
X123892857Y-81226190D01*
X123797619Y-81226190D01*
X123797619Y-82226190D02*
X123797619Y-81654761D01*
X123797619Y-81940476D02*
X124797619Y-81940476D01*
X124654761Y-81845238D01*
X124559523Y-81750000D01*
X124511904Y-81654761D01*
X124178571Y-83416666D02*
X124178571Y-84178571D01*
X124321428Y-85416666D02*
X124321428Y-85750000D01*
X123797619Y-85892857D02*
X123797619Y-85416666D01*
X124797619Y-85416666D01*
X124797619Y-85892857D01*
X123797619Y-86797619D02*
X123797619Y-86321428D01*
X124797619Y-86321428D01*
X123797619Y-87702380D02*
X124273809Y-87369047D01*
X123797619Y-87130952D02*
X124797619Y-87130952D01*
X124797619Y-87511904D01*
X124750000Y-87607142D01*
X124702380Y-87654761D01*
X124607142Y-87702380D01*
X124464285Y-87702380D01*
X124369047Y-87654761D01*
X124321428Y-87607142D01*
X124273809Y-87511904D01*
X124273809Y-87130952D01*
X123797619Y-89702380D02*
X123797619Y-89654761D01*
X123845238Y-89559523D01*
X123988095Y-89416666D01*
X124273809Y-89178571D01*
X124416666Y-89083333D01*
X124559523Y-89035714D01*
X124654761Y-89035714D01*
X124750000Y-89083333D01*
X124797619Y-89178571D01*
X124797619Y-89226190D01*
X124750000Y-89321428D01*
X124654761Y-89369047D01*
X124607142Y-89369047D01*
X124511904Y-89321428D01*
X124464285Y-89273809D01*
X124273809Y-88988095D01*
X124226190Y-88940476D01*
X124130952Y-88892857D01*
X123988095Y-88892857D01*
X123892857Y-88940476D01*
X123845238Y-88988095D01*
X123797619Y-89083333D01*
X123797619Y-89226190D01*
X123845238Y-89321428D01*
X123892857Y-89369047D01*
X124083333Y-89511904D01*
X124226190Y-89559523D01*
X124321428Y-89559523D01*
X124797619Y-91178571D02*
X124083333Y-91178571D01*
X123940476Y-91130952D01*
X123845238Y-91035714D01*
X123797619Y-90892857D01*
X123797619Y-90797619D01*
X124797619Y-91559523D02*
X123797619Y-91797619D01*
X124511904Y-91988095D01*
X123797619Y-92178571D01*
X124797619Y-92416666D01*
X124750000Y-93321428D02*
X124797619Y-93226190D01*
X124797619Y-93083333D01*
X124750000Y-92940476D01*
X124654761Y-92845238D01*
X124559523Y-92797619D01*
X124369047Y-92750000D01*
X124226190Y-92750000D01*
X124035714Y-92797619D01*
X123940476Y-92845238D01*
X123845238Y-92940476D01*
X123797619Y-93083333D01*
X123797619Y-93178571D01*
X123845238Y-93321428D01*
X123892857Y-93369047D01*
X124226190Y-93369047D01*
X124226190Y-93178571D01*
%TO.C,R13*%
X161357142Y-97452380D02*
X161023809Y-96976190D01*
X160785714Y-97452380D02*
X160785714Y-96452380D01*
X161166666Y-96452380D01*
X161261904Y-96500000D01*
X161309523Y-96547619D01*
X161357142Y-96642857D01*
X161357142Y-96785714D01*
X161309523Y-96880952D01*
X161261904Y-96928571D01*
X161166666Y-96976190D01*
X160785714Y-96976190D01*
X162309523Y-97452380D02*
X161738095Y-97452380D01*
X162023809Y-97452380D02*
X162023809Y-96452380D01*
X161928571Y-96595238D01*
X161833333Y-96690476D01*
X161738095Y-96738095D01*
X162642857Y-96452380D02*
X163261904Y-96452380D01*
X162928571Y-96833333D01*
X163071428Y-96833333D01*
X163166666Y-96880952D01*
X163214285Y-96928571D01*
X163261904Y-97023809D01*
X163261904Y-97261904D01*
X163214285Y-97357142D01*
X163166666Y-97404761D01*
X163071428Y-97452380D01*
X162785714Y-97452380D01*
X162690476Y-97404761D01*
X162642857Y-97357142D01*
%TO.C,R6*%
X163583333Y-93702380D02*
X163250000Y-93226190D01*
X163011904Y-93702380D02*
X163011904Y-92702380D01*
X163392857Y-92702380D01*
X163488095Y-92750000D01*
X163535714Y-92797619D01*
X163583333Y-92892857D01*
X163583333Y-93035714D01*
X163535714Y-93130952D01*
X163488095Y-93178571D01*
X163392857Y-93226190D01*
X163011904Y-93226190D01*
X164440476Y-92702380D02*
X164250000Y-92702380D01*
X164154761Y-92750000D01*
X164107142Y-92797619D01*
X164011904Y-92940476D01*
X163964285Y-93130952D01*
X163964285Y-93511904D01*
X164011904Y-93607142D01*
X164059523Y-93654761D01*
X164154761Y-93702380D01*
X164345238Y-93702380D01*
X164440476Y-93654761D01*
X164488095Y-93607142D01*
X164535714Y-93511904D01*
X164535714Y-93273809D01*
X164488095Y-93178571D01*
X164440476Y-93130952D01*
X164345238Y-93083333D01*
X164154761Y-93083333D01*
X164059523Y-93130952D01*
X164011904Y-93178571D01*
X163964285Y-93273809D01*
%TO.C,Y1*%
X158623809Y-87976190D02*
X158623809Y-88452380D01*
X158290476Y-87452380D02*
X158623809Y-87976190D01*
X158957142Y-87452380D01*
X159814285Y-88452380D02*
X159242857Y-88452380D01*
X159528571Y-88452380D02*
X159528571Y-87452380D01*
X159433333Y-87595238D01*
X159338095Y-87690476D01*
X159242857Y-87738095D01*
D11*
%TO.C,S1*%
X136532380Y-138814047D02*
X136713809Y-138874523D01*
X137016190Y-138874523D01*
X137137142Y-138814047D01*
X137197619Y-138753571D01*
X137258095Y-138632619D01*
X137258095Y-138511666D01*
X137197619Y-138390714D01*
X137137142Y-138330238D01*
X137016190Y-138269761D01*
X136774285Y-138209285D01*
X136653333Y-138148809D01*
X136592857Y-138088333D01*
X136532380Y-137967380D01*
X136532380Y-137846428D01*
X136592857Y-137725476D01*
X136653333Y-137665000D01*
X136774285Y-137604523D01*
X137076666Y-137604523D01*
X137258095Y-137665000D01*
X138467619Y-138874523D02*
X137741904Y-138874523D01*
X138104761Y-138874523D02*
X138104761Y-137604523D01*
X137983809Y-137785952D01*
X137862857Y-137906904D01*
X137741904Y-137967380D01*
D10*
%TO.C,C7*%
X161333333Y-101357142D02*
X161285714Y-101404761D01*
X161142857Y-101452380D01*
X161047619Y-101452380D01*
X160904761Y-101404761D01*
X160809523Y-101309523D01*
X160761904Y-101214285D01*
X160714285Y-101023809D01*
X160714285Y-100880952D01*
X160761904Y-100690476D01*
X160809523Y-100595238D01*
X160904761Y-100500000D01*
X161047619Y-100452380D01*
X161142857Y-100452380D01*
X161285714Y-100500000D01*
X161333333Y-100547619D01*
X161666666Y-100452380D02*
X162333333Y-100452380D01*
X161904761Y-101452380D01*
%TO.C,R9*%
X132333333Y-86952380D02*
X132000000Y-86476190D01*
X131761904Y-86952380D02*
X131761904Y-85952380D01*
X132142857Y-85952380D01*
X132238095Y-86000000D01*
X132285714Y-86047619D01*
X132333333Y-86142857D01*
X132333333Y-86285714D01*
X132285714Y-86380952D01*
X132238095Y-86428571D01*
X132142857Y-86476190D01*
X131761904Y-86476190D01*
X132809523Y-86952380D02*
X133000000Y-86952380D01*
X133095238Y-86904761D01*
X133142857Y-86857142D01*
X133238095Y-86714285D01*
X133285714Y-86523809D01*
X133285714Y-86142857D01*
X133238095Y-86047619D01*
X133190476Y-86000000D01*
X133095238Y-85952380D01*
X132904761Y-85952380D01*
X132809523Y-86000000D01*
X132761904Y-86047619D01*
X132714285Y-86142857D01*
X132714285Y-86380952D01*
X132761904Y-86476190D01*
X132809523Y-86523809D01*
X132904761Y-86571428D01*
X133095238Y-86571428D01*
X133190476Y-86523809D01*
X133238095Y-86476190D01*
X133285714Y-86380952D01*
D11*
%TO.C,S2*%
X148532380Y-138814047D02*
X148713809Y-138874523D01*
X149016190Y-138874523D01*
X149137142Y-138814047D01*
X149197619Y-138753571D01*
X149258095Y-138632619D01*
X149258095Y-138511666D01*
X149197619Y-138390714D01*
X149137142Y-138330238D01*
X149016190Y-138269761D01*
X148774285Y-138209285D01*
X148653333Y-138148809D01*
X148592857Y-138088333D01*
X148532380Y-137967380D01*
X148532380Y-137846428D01*
X148592857Y-137725476D01*
X148653333Y-137665000D01*
X148774285Y-137604523D01*
X149076666Y-137604523D01*
X149258095Y-137665000D01*
X149741904Y-137725476D02*
X149802380Y-137665000D01*
X149923333Y-137604523D01*
X150225714Y-137604523D01*
X150346666Y-137665000D01*
X150407142Y-137725476D01*
X150467619Y-137846428D01*
X150467619Y-137967380D01*
X150407142Y-138148809D01*
X149681428Y-138874523D01*
X150467619Y-138874523D01*
D10*
%TO.C,J3*%
X151166666Y-79202380D02*
X151166666Y-79916666D01*
X151119047Y-80059523D01*
X151023809Y-80154761D01*
X150880952Y-80202380D01*
X150785714Y-80202380D01*
X151547619Y-79202380D02*
X152166666Y-79202380D01*
X151833333Y-79583333D01*
X151976190Y-79583333D01*
X152071428Y-79630952D01*
X152119047Y-79678571D01*
X152166666Y-79773809D01*
X152166666Y-80011904D01*
X152119047Y-80107142D01*
X152071428Y-80154761D01*
X151976190Y-80202380D01*
X151690476Y-80202380D01*
X151595238Y-80154761D01*
X151547619Y-80107142D01*
%TO.C,R2*%
X145583333Y-73952380D02*
X145250000Y-73476190D01*
X145011904Y-73952380D02*
X145011904Y-72952380D01*
X145392857Y-72952380D01*
X145488095Y-73000000D01*
X145535714Y-73047619D01*
X145583333Y-73142857D01*
X145583333Y-73285714D01*
X145535714Y-73380952D01*
X145488095Y-73428571D01*
X145392857Y-73476190D01*
X145011904Y-73476190D01*
X145964285Y-73047619D02*
X146011904Y-73000000D01*
X146107142Y-72952380D01*
X146345238Y-72952380D01*
X146440476Y-73000000D01*
X146488095Y-73047619D01*
X146535714Y-73142857D01*
X146535714Y-73238095D01*
X146488095Y-73380952D01*
X145916666Y-73952380D01*
X146535714Y-73952380D01*
%TO.C,U3*%
X163738095Y-113452380D02*
X163738095Y-114261904D01*
X163785714Y-114357142D01*
X163833333Y-114404761D01*
X163928571Y-114452380D01*
X164119047Y-114452380D01*
X164214285Y-114404761D01*
X164261904Y-114357142D01*
X164309523Y-114261904D01*
X164309523Y-113452380D01*
X164690476Y-113452380D02*
X165309523Y-113452380D01*
X164976190Y-113833333D01*
X165119047Y-113833333D01*
X165214285Y-113880952D01*
X165261904Y-113928571D01*
X165309523Y-114023809D01*
X165309523Y-114261904D01*
X165261904Y-114357142D01*
X165214285Y-114404761D01*
X165119047Y-114452380D01*
X164833333Y-114452380D01*
X164738095Y-114404761D01*
X164690476Y-114357142D01*
%TO.C,C9*%
X158333333Y-111857142D02*
X158285714Y-111904761D01*
X158142857Y-111952380D01*
X158047619Y-111952380D01*
X157904761Y-111904761D01*
X157809523Y-111809523D01*
X157761904Y-111714285D01*
X157714285Y-111523809D01*
X157714285Y-111380952D01*
X157761904Y-111190476D01*
X157809523Y-111095238D01*
X157904761Y-111000000D01*
X158047619Y-110952380D01*
X158142857Y-110952380D01*
X158285714Y-111000000D01*
X158333333Y-111047619D01*
X158809523Y-111952380D02*
X159000000Y-111952380D01*
X159095238Y-111904761D01*
X159142857Y-111857142D01*
X159238095Y-111714285D01*
X159285714Y-111523809D01*
X159285714Y-111142857D01*
X159238095Y-111047619D01*
X159190476Y-111000000D01*
X159095238Y-110952380D01*
X158904761Y-110952380D01*
X158809523Y-111000000D01*
X158761904Y-111047619D01*
X158714285Y-111142857D01*
X158714285Y-111380952D01*
X158761904Y-111476190D01*
X158809523Y-111523809D01*
X158904761Y-111571428D01*
X159095238Y-111571428D01*
X159190476Y-111523809D01*
X159238095Y-111476190D01*
X159285714Y-111380952D01*
%TO.C,C8*%
X158333333Y-104857142D02*
X158285714Y-104904761D01*
X158142857Y-104952380D01*
X158047619Y-104952380D01*
X157904761Y-104904761D01*
X157809523Y-104809523D01*
X157761904Y-104714285D01*
X157714285Y-104523809D01*
X157714285Y-104380952D01*
X157761904Y-104190476D01*
X157809523Y-104095238D01*
X157904761Y-104000000D01*
X158047619Y-103952380D01*
X158142857Y-103952380D01*
X158285714Y-104000000D01*
X158333333Y-104047619D01*
X158904761Y-104380952D02*
X158809523Y-104333333D01*
X158761904Y-104285714D01*
X158714285Y-104190476D01*
X158714285Y-104142857D01*
X158761904Y-104047619D01*
X158809523Y-104000000D01*
X158904761Y-103952380D01*
X159095238Y-103952380D01*
X159190476Y-104000000D01*
X159238095Y-104047619D01*
X159285714Y-104142857D01*
X159285714Y-104190476D01*
X159238095Y-104285714D01*
X159190476Y-104333333D01*
X159095238Y-104380952D01*
X158904761Y-104380952D01*
X158809523Y-104428571D01*
X158761904Y-104476190D01*
X158714285Y-104571428D01*
X158714285Y-104761904D01*
X158761904Y-104857142D01*
X158809523Y-104904761D01*
X158904761Y-104952380D01*
X159095238Y-104952380D01*
X159190476Y-104904761D01*
X159238095Y-104857142D01*
X159285714Y-104761904D01*
X159285714Y-104571428D01*
X159238095Y-104476190D01*
X159190476Y-104428571D01*
X159095238Y-104380952D01*
%TO.C,R11*%
X165107142Y-102452380D02*
X164773809Y-101976190D01*
X164535714Y-102452380D02*
X164535714Y-101452380D01*
X164916666Y-101452380D01*
X165011904Y-101500000D01*
X165059523Y-101547619D01*
X165107142Y-101642857D01*
X165107142Y-101785714D01*
X165059523Y-101880952D01*
X165011904Y-101928571D01*
X164916666Y-101976190D01*
X164535714Y-101976190D01*
X166059523Y-102452380D02*
X165488095Y-102452380D01*
X165773809Y-102452380D02*
X165773809Y-101452380D01*
X165678571Y-101595238D01*
X165583333Y-101690476D01*
X165488095Y-101738095D01*
X167011904Y-102452380D02*
X166440476Y-102452380D01*
X166726190Y-102452380D02*
X166726190Y-101452380D01*
X166630952Y-101595238D01*
X166535714Y-101690476D01*
X166440476Y-101738095D01*
%TO.C,J2*%
X170301666Y-121682380D02*
X170301666Y-122396666D01*
X170254047Y-122539523D01*
X170158809Y-122634761D01*
X170015952Y-122682380D01*
X169920714Y-122682380D01*
X170730238Y-121777619D02*
X170777857Y-121730000D01*
X170873095Y-121682380D01*
X171111190Y-121682380D01*
X171206428Y-121730000D01*
X171254047Y-121777619D01*
X171301666Y-121872857D01*
X171301666Y-121968095D01*
X171254047Y-122110952D01*
X170682619Y-122682380D01*
X171301666Y-122682380D01*
%TO.C,H2*%
X167238095Y-65452380D02*
X167238095Y-64452380D01*
X167238095Y-64928571D02*
X167809523Y-64928571D01*
X167809523Y-65452380D02*
X167809523Y-64452380D01*
X168238095Y-64547619D02*
X168285714Y-64500000D01*
X168380952Y-64452380D01*
X168619047Y-64452380D01*
X168714285Y-64500000D01*
X168761904Y-64547619D01*
X168809523Y-64642857D01*
X168809523Y-64738095D01*
X168761904Y-64880952D01*
X168190476Y-65452380D01*
X168809523Y-65452380D01*
%TO.C,R10*%
X164357142Y-80702380D02*
X164023809Y-80226190D01*
X163785714Y-80702380D02*
X163785714Y-79702380D01*
X164166666Y-79702380D01*
X164261904Y-79750000D01*
X164309523Y-79797619D01*
X164357142Y-79892857D01*
X164357142Y-80035714D01*
X164309523Y-80130952D01*
X164261904Y-80178571D01*
X164166666Y-80226190D01*
X163785714Y-80226190D01*
X165309523Y-80702380D02*
X164738095Y-80702380D01*
X165023809Y-80702380D02*
X165023809Y-79702380D01*
X164928571Y-79845238D01*
X164833333Y-79940476D01*
X164738095Y-79988095D01*
X165928571Y-79702380D02*
X166023809Y-79702380D01*
X166119047Y-79750000D01*
X166166666Y-79797619D01*
X166214285Y-79892857D01*
X166261904Y-80083333D01*
X166261904Y-80321428D01*
X166214285Y-80511904D01*
X166166666Y-80607142D01*
X166119047Y-80654761D01*
X166023809Y-80702380D01*
X165928571Y-80702380D01*
X165833333Y-80654761D01*
X165785714Y-80607142D01*
X165738095Y-80511904D01*
X165690476Y-80321428D01*
X165690476Y-80083333D01*
X165738095Y-79892857D01*
X165785714Y-79797619D01*
X165833333Y-79750000D01*
X165928571Y-79702380D01*
%TO.C,H1*%
X130238095Y-65452380D02*
X130238095Y-64452380D01*
X130238095Y-64928571D02*
X130809523Y-64928571D01*
X130809523Y-65452380D02*
X130809523Y-64452380D01*
X131809523Y-65452380D02*
X131238095Y-65452380D01*
X131523809Y-65452380D02*
X131523809Y-64452380D01*
X131428571Y-64595238D01*
X131333333Y-64690476D01*
X131238095Y-64738095D01*
%TO.C,H4*%
X167238095Y-142452380D02*
X167238095Y-141452380D01*
X167238095Y-141928571D02*
X167809523Y-141928571D01*
X167809523Y-142452380D02*
X167809523Y-141452380D01*
X168714285Y-141785714D02*
X168714285Y-142452380D01*
X168476190Y-141404761D02*
X168238095Y-142119047D01*
X168857142Y-142119047D01*
%TO.C,C3*%
X152833333Y-87857142D02*
X152785714Y-87904761D01*
X152642857Y-87952380D01*
X152547619Y-87952380D01*
X152404761Y-87904761D01*
X152309523Y-87809523D01*
X152261904Y-87714285D01*
X152214285Y-87523809D01*
X152214285Y-87380952D01*
X152261904Y-87190476D01*
X152309523Y-87095238D01*
X152404761Y-87000000D01*
X152547619Y-86952380D01*
X152642857Y-86952380D01*
X152785714Y-87000000D01*
X152833333Y-87047619D01*
X153166666Y-86952380D02*
X153785714Y-86952380D01*
X153452380Y-87333333D01*
X153595238Y-87333333D01*
X153690476Y-87380952D01*
X153738095Y-87428571D01*
X153785714Y-87523809D01*
X153785714Y-87761904D01*
X153738095Y-87857142D01*
X153690476Y-87904761D01*
X153595238Y-87952380D01*
X153309523Y-87952380D01*
X153214285Y-87904761D01*
X153166666Y-87857142D01*
%TO.C,C6*%
X161333333Y-95357142D02*
X161285714Y-95404761D01*
X161142857Y-95452380D01*
X161047619Y-95452380D01*
X160904761Y-95404761D01*
X160809523Y-95309523D01*
X160761904Y-95214285D01*
X160714285Y-95023809D01*
X160714285Y-94880952D01*
X160761904Y-94690476D01*
X160809523Y-94595238D01*
X160904761Y-94500000D01*
X161047619Y-94452380D01*
X161142857Y-94452380D01*
X161285714Y-94500000D01*
X161333333Y-94547619D01*
X162190476Y-94452380D02*
X162000000Y-94452380D01*
X161904761Y-94500000D01*
X161857142Y-94547619D01*
X161761904Y-94690476D01*
X161714285Y-94880952D01*
X161714285Y-95261904D01*
X161761904Y-95357142D01*
X161809523Y-95404761D01*
X161904761Y-95452380D01*
X162095238Y-95452380D01*
X162190476Y-95404761D01*
X162238095Y-95357142D01*
X162285714Y-95261904D01*
X162285714Y-95023809D01*
X162238095Y-94928571D01*
X162190476Y-94880952D01*
X162095238Y-94833333D01*
X161904761Y-94833333D01*
X161809523Y-94880952D01*
X161761904Y-94928571D01*
X161714285Y-95023809D01*
%TO.C,R8*%
X156333333Y-80702380D02*
X156000000Y-80226190D01*
X155761904Y-80702380D02*
X155761904Y-79702380D01*
X156142857Y-79702380D01*
X156238095Y-79750000D01*
X156285714Y-79797619D01*
X156333333Y-79892857D01*
X156333333Y-80035714D01*
X156285714Y-80130952D01*
X156238095Y-80178571D01*
X156142857Y-80226190D01*
X155761904Y-80226190D01*
X156904761Y-80130952D02*
X156809523Y-80083333D01*
X156761904Y-80035714D01*
X156714285Y-79940476D01*
X156714285Y-79892857D01*
X156761904Y-79797619D01*
X156809523Y-79750000D01*
X156904761Y-79702380D01*
X157095238Y-79702380D01*
X157190476Y-79750000D01*
X157238095Y-79797619D01*
X157285714Y-79892857D01*
X157285714Y-79940476D01*
X157238095Y-80035714D01*
X157190476Y-80083333D01*
X157095238Y-80130952D01*
X156904761Y-80130952D01*
X156809523Y-80178571D01*
X156761904Y-80226190D01*
X156714285Y-80321428D01*
X156714285Y-80511904D01*
X156761904Y-80607142D01*
X156809523Y-80654761D01*
X156904761Y-80702380D01*
X157095238Y-80702380D01*
X157190476Y-80654761D01*
X157238095Y-80607142D01*
X157285714Y-80511904D01*
X157285714Y-80321428D01*
X157238095Y-80226190D01*
X157190476Y-80178571D01*
X157095238Y-80130952D01*
%TO.C,D2*%
X164261904Y-74202380D02*
X164261904Y-73202380D01*
X164500000Y-73202380D01*
X164642857Y-73250000D01*
X164738095Y-73345238D01*
X164785714Y-73440476D01*
X164833333Y-73630952D01*
X164833333Y-73773809D01*
X164785714Y-73964285D01*
X164738095Y-74059523D01*
X164642857Y-74154761D01*
X164500000Y-74202380D01*
X164261904Y-74202380D01*
X165214285Y-73297619D02*
X165261904Y-73250000D01*
X165357142Y-73202380D01*
X165595238Y-73202380D01*
X165690476Y-73250000D01*
X165738095Y-73297619D01*
X165785714Y-73392857D01*
X165785714Y-73488095D01*
X165738095Y-73630952D01*
X165166666Y-74202380D01*
X165785714Y-74202380D01*
%TO.C,D3*%
X172761904Y-74202380D02*
X172761904Y-73202380D01*
X173000000Y-73202380D01*
X173142857Y-73250000D01*
X173238095Y-73345238D01*
X173285714Y-73440476D01*
X173333333Y-73630952D01*
X173333333Y-73773809D01*
X173285714Y-73964285D01*
X173238095Y-74059523D01*
X173142857Y-74154761D01*
X173000000Y-74202380D01*
X172761904Y-74202380D01*
X173666666Y-73202380D02*
X174285714Y-73202380D01*
X173952380Y-73583333D01*
X174095238Y-73583333D01*
X174190476Y-73630952D01*
X174238095Y-73678571D01*
X174285714Y-73773809D01*
X174285714Y-74011904D01*
X174238095Y-74107142D01*
X174190476Y-74154761D01*
X174095238Y-74202380D01*
X173809523Y-74202380D01*
X173714285Y-74154761D01*
X173666666Y-74107142D01*
%TO.C,J1*%
X149166666Y-70452380D02*
X149166666Y-71166666D01*
X149119047Y-71309523D01*
X149023809Y-71404761D01*
X148880952Y-71452380D01*
X148785714Y-71452380D01*
X150166666Y-71452380D02*
X149595238Y-71452380D01*
X149880952Y-71452380D02*
X149880952Y-70452380D01*
X149785714Y-70595238D01*
X149690476Y-70690476D01*
X149595238Y-70738095D01*
%TO.C,R15*%
X158107142Y-109952380D02*
X157773809Y-109476190D01*
X157535714Y-109952380D02*
X157535714Y-108952380D01*
X157916666Y-108952380D01*
X158011904Y-109000000D01*
X158059523Y-109047619D01*
X158107142Y-109142857D01*
X158107142Y-109285714D01*
X158059523Y-109380952D01*
X158011904Y-109428571D01*
X157916666Y-109476190D01*
X157535714Y-109476190D01*
X159059523Y-109952380D02*
X158488095Y-109952380D01*
X158773809Y-109952380D02*
X158773809Y-108952380D01*
X158678571Y-109095238D01*
X158583333Y-109190476D01*
X158488095Y-109238095D01*
X159964285Y-108952380D02*
X159488095Y-108952380D01*
X159440476Y-109428571D01*
X159488095Y-109380952D01*
X159583333Y-109333333D01*
X159821428Y-109333333D01*
X159916666Y-109380952D01*
X159964285Y-109428571D01*
X160011904Y-109523809D01*
X160011904Y-109761904D01*
X159964285Y-109857142D01*
X159916666Y-109904761D01*
X159821428Y-109952380D01*
X159583333Y-109952380D01*
X159488095Y-109904761D01*
X159440476Y-109857142D01*
%TO.C,R16*%
X158107142Y-116952380D02*
X157773809Y-116476190D01*
X157535714Y-116952380D02*
X157535714Y-115952380D01*
X157916666Y-115952380D01*
X158011904Y-116000000D01*
X158059523Y-116047619D01*
X158107142Y-116142857D01*
X158107142Y-116285714D01*
X158059523Y-116380952D01*
X158011904Y-116428571D01*
X157916666Y-116476190D01*
X157535714Y-116476190D01*
X159059523Y-116952380D02*
X158488095Y-116952380D01*
X158773809Y-116952380D02*
X158773809Y-115952380D01*
X158678571Y-116095238D01*
X158583333Y-116190476D01*
X158488095Y-116238095D01*
X159916666Y-115952380D02*
X159726190Y-115952380D01*
X159630952Y-116000000D01*
X159583333Y-116047619D01*
X159488095Y-116190476D01*
X159440476Y-116380952D01*
X159440476Y-116761904D01*
X159488095Y-116857142D01*
X159535714Y-116904761D01*
X159630952Y-116952380D01*
X159821428Y-116952380D01*
X159916666Y-116904761D01*
X159964285Y-116857142D01*
X160011904Y-116761904D01*
X160011904Y-116523809D01*
X159964285Y-116428571D01*
X159916666Y-116380952D01*
X159821428Y-116333333D01*
X159630952Y-116333333D01*
X159535714Y-116380952D01*
X159488095Y-116428571D01*
X159440476Y-116523809D01*
%TO.C,R7*%
X163583333Y-91702380D02*
X163250000Y-91226190D01*
X163011904Y-91702380D02*
X163011904Y-90702380D01*
X163392857Y-90702380D01*
X163488095Y-90750000D01*
X163535714Y-90797619D01*
X163583333Y-90892857D01*
X163583333Y-91035714D01*
X163535714Y-91130952D01*
X163488095Y-91178571D01*
X163392857Y-91226190D01*
X163011904Y-91226190D01*
X163916666Y-90702380D02*
X164583333Y-90702380D01*
X164154761Y-91702380D01*
%TO.C,R12*%
X143107142Y-82452380D02*
X142773809Y-81976190D01*
X142535714Y-82452380D02*
X142535714Y-81452380D01*
X142916666Y-81452380D01*
X143011904Y-81500000D01*
X143059523Y-81547619D01*
X143107142Y-81642857D01*
X143107142Y-81785714D01*
X143059523Y-81880952D01*
X143011904Y-81928571D01*
X142916666Y-81976190D01*
X142535714Y-81976190D01*
X144059523Y-82452380D02*
X143488095Y-82452380D01*
X143773809Y-82452380D02*
X143773809Y-81452380D01*
X143678571Y-81595238D01*
X143583333Y-81690476D01*
X143488095Y-81738095D01*
X144440476Y-81547619D02*
X144488095Y-81500000D01*
X144583333Y-81452380D01*
X144821428Y-81452380D01*
X144916666Y-81500000D01*
X144964285Y-81547619D01*
X145011904Y-81642857D01*
X145011904Y-81738095D01*
X144964285Y-81880952D01*
X144392857Y-82452380D01*
X145011904Y-82452380D01*
%TO.C,R4*%
X143333333Y-130952380D02*
X143000000Y-130476190D01*
X142761904Y-130952380D02*
X142761904Y-129952380D01*
X143142857Y-129952380D01*
X143238095Y-130000000D01*
X143285714Y-130047619D01*
X143333333Y-130142857D01*
X143333333Y-130285714D01*
X143285714Y-130380952D01*
X143238095Y-130428571D01*
X143142857Y-130476190D01*
X142761904Y-130476190D01*
X144190476Y-130285714D02*
X144190476Y-130952380D01*
X143952380Y-129904761D02*
X143714285Y-130619047D01*
X144333333Y-130619047D01*
%TO.C,R1*%
X152583333Y-73952380D02*
X152250000Y-73476190D01*
X152011904Y-73952380D02*
X152011904Y-72952380D01*
X152392857Y-72952380D01*
X152488095Y-73000000D01*
X152535714Y-73047619D01*
X152583333Y-73142857D01*
X152583333Y-73285714D01*
X152535714Y-73380952D01*
X152488095Y-73428571D01*
X152392857Y-73476190D01*
X152011904Y-73476190D01*
X153535714Y-73952380D02*
X152964285Y-73952380D01*
X153250000Y-73952380D02*
X153250000Y-72952380D01*
X153154761Y-73095238D01*
X153059523Y-73190476D01*
X152964285Y-73238095D01*
%TO.C,R14*%
X161357142Y-99452380D02*
X161023809Y-98976190D01*
X160785714Y-99452380D02*
X160785714Y-98452380D01*
X161166666Y-98452380D01*
X161261904Y-98500000D01*
X161309523Y-98547619D01*
X161357142Y-98642857D01*
X161357142Y-98785714D01*
X161309523Y-98880952D01*
X161261904Y-98928571D01*
X161166666Y-98976190D01*
X160785714Y-98976190D01*
X162309523Y-99452380D02*
X161738095Y-99452380D01*
X162023809Y-99452380D02*
X162023809Y-98452380D01*
X161928571Y-98595238D01*
X161833333Y-98690476D01*
X161738095Y-98738095D01*
X163166666Y-98785714D02*
X163166666Y-99452380D01*
X162928571Y-98404761D02*
X162690476Y-99119047D01*
X163309523Y-99119047D01*
%TO.C,R5*%
X155333333Y-130952380D02*
X155000000Y-130476190D01*
X154761904Y-130952380D02*
X154761904Y-129952380D01*
X155142857Y-129952380D01*
X155238095Y-130000000D01*
X155285714Y-130047619D01*
X155333333Y-130142857D01*
X155333333Y-130285714D01*
X155285714Y-130380952D01*
X155238095Y-130428571D01*
X155142857Y-130476190D01*
X154761904Y-130476190D01*
X156238095Y-129952380D02*
X155761904Y-129952380D01*
X155714285Y-130428571D01*
X155761904Y-130380952D01*
X155857142Y-130333333D01*
X156095238Y-130333333D01*
X156190476Y-130380952D01*
X156238095Y-130428571D01*
X156285714Y-130523809D01*
X156285714Y-130761904D01*
X156238095Y-130857142D01*
X156190476Y-130904761D01*
X156095238Y-130952380D01*
X155857142Y-130952380D01*
X155761904Y-130904761D01*
X155714285Y-130857142D01*
%TO.C,H3*%
X130238095Y-142452380D02*
X130238095Y-141452380D01*
X130238095Y-141928571D02*
X130809523Y-141928571D01*
X130809523Y-142452380D02*
X130809523Y-141452380D01*
X131190476Y-141452380D02*
X131809523Y-141452380D01*
X131476190Y-141833333D01*
X131619047Y-141833333D01*
X131714285Y-141880952D01*
X131761904Y-141928571D01*
X131809523Y-142023809D01*
X131809523Y-142261904D01*
X131761904Y-142357142D01*
X131714285Y-142404761D01*
X131619047Y-142452380D01*
X131333333Y-142452380D01*
X131238095Y-142404761D01*
X131190476Y-142357142D01*
%TO.C,C1*%
X138583333Y-66357142D02*
X138535714Y-66404761D01*
X138392857Y-66452380D01*
X138297619Y-66452380D01*
X138154761Y-66404761D01*
X138059523Y-66309523D01*
X138011904Y-66214285D01*
X137964285Y-66023809D01*
X137964285Y-65880952D01*
X138011904Y-65690476D01*
X138059523Y-65595238D01*
X138154761Y-65500000D01*
X138297619Y-65452380D01*
X138392857Y-65452380D01*
X138535714Y-65500000D01*
X138583333Y-65547619D01*
X139535714Y-66452380D02*
X138964285Y-66452380D01*
X139250000Y-66452380D02*
X139250000Y-65452380D01*
X139154761Y-65595238D01*
X139059523Y-65690476D01*
X138964285Y-65738095D01*
%TO.C,C5*%
X158933333Y-81427142D02*
X158885714Y-81474761D01*
X158742857Y-81522380D01*
X158647619Y-81522380D01*
X158504761Y-81474761D01*
X158409523Y-81379523D01*
X158361904Y-81284285D01*
X158314285Y-81093809D01*
X158314285Y-80950952D01*
X158361904Y-80760476D01*
X158409523Y-80665238D01*
X158504761Y-80570000D01*
X158647619Y-80522380D01*
X158742857Y-80522380D01*
X158885714Y-80570000D01*
X158933333Y-80617619D01*
X159838095Y-80522380D02*
X159361904Y-80522380D01*
X159314285Y-80998571D01*
X159361904Y-80950952D01*
X159457142Y-80903333D01*
X159695238Y-80903333D01*
X159790476Y-80950952D01*
X159838095Y-80998571D01*
X159885714Y-81093809D01*
X159885714Y-81331904D01*
X159838095Y-81427142D01*
X159790476Y-81474761D01*
X159695238Y-81522380D01*
X159457142Y-81522380D01*
X159361904Y-81474761D01*
X159314285Y-81427142D01*
%TO.C,D1*%
X155761904Y-74202380D02*
X155761904Y-73202380D01*
X156000000Y-73202380D01*
X156142857Y-73250000D01*
X156238095Y-73345238D01*
X156285714Y-73440476D01*
X156333333Y-73630952D01*
X156333333Y-73773809D01*
X156285714Y-73964285D01*
X156238095Y-74059523D01*
X156142857Y-74154761D01*
X156000000Y-74202380D01*
X155761904Y-74202380D01*
X157285714Y-74202380D02*
X156714285Y-74202380D01*
X157000000Y-74202380D02*
X157000000Y-73202380D01*
X156904761Y-73345238D01*
X156809523Y-73440476D01*
X156714285Y-73488095D01*
%TO.C,R3*%
X132333333Y-128802380D02*
X132000000Y-128326190D01*
X131761904Y-128802380D02*
X131761904Y-127802380D01*
X132142857Y-127802380D01*
X132238095Y-127850000D01*
X132285714Y-127897619D01*
X132333333Y-127992857D01*
X132333333Y-128135714D01*
X132285714Y-128230952D01*
X132238095Y-128278571D01*
X132142857Y-128326190D01*
X131761904Y-128326190D01*
X132666666Y-127802380D02*
X133285714Y-127802380D01*
X132952380Y-128183333D01*
X133095238Y-128183333D01*
X133190476Y-128230952D01*
X133238095Y-128278571D01*
X133285714Y-128373809D01*
X133285714Y-128611904D01*
X133238095Y-128707142D01*
X133190476Y-128754761D01*
X133095238Y-128802380D01*
X132809523Y-128802380D01*
X132714285Y-128754761D01*
X132666666Y-128707142D01*
%TO.C,U1*%
X141488095Y-83752380D02*
X141488095Y-84561904D01*
X141535714Y-84657142D01*
X141583333Y-84704761D01*
X141678571Y-84752380D01*
X141869047Y-84752380D01*
X141964285Y-84704761D01*
X142011904Y-84657142D01*
X142059523Y-84561904D01*
X142059523Y-83752380D01*
X143059523Y-84752380D02*
X142488095Y-84752380D01*
X142773809Y-84752380D02*
X142773809Y-83752380D01*
X142678571Y-83895238D01*
X142583333Y-83990476D01*
X142488095Y-84038095D01*
%TO.C,SW1*%
X148166666Y-113654761D02*
X148309523Y-113702380D01*
X148547619Y-113702380D01*
X148642857Y-113654761D01*
X148690476Y-113607142D01*
X148738095Y-113511904D01*
X148738095Y-113416666D01*
X148690476Y-113321428D01*
X148642857Y-113273809D01*
X148547619Y-113226190D01*
X148357142Y-113178571D01*
X148261904Y-113130952D01*
X148214285Y-113083333D01*
X148166666Y-112988095D01*
X148166666Y-112892857D01*
X148214285Y-112797619D01*
X148261904Y-112750000D01*
X148357142Y-112702380D01*
X148595238Y-112702380D01*
X148738095Y-112750000D01*
X149071428Y-112702380D02*
X149309523Y-113702380D01*
X149500000Y-112988095D01*
X149690476Y-113702380D01*
X149928571Y-112702380D01*
X150833333Y-113702380D02*
X150261904Y-113702380D01*
X150547619Y-113702380D02*
X150547619Y-112702380D01*
X150452380Y-112845238D01*
X150357142Y-112940476D01*
X150261904Y-112988095D01*
D11*
%TO.C,S3*%
X160532380Y-138814047D02*
X160713809Y-138874523D01*
X161016190Y-138874523D01*
X161137142Y-138814047D01*
X161197619Y-138753571D01*
X161258095Y-138632619D01*
X161258095Y-138511666D01*
X161197619Y-138390714D01*
X161137142Y-138330238D01*
X161016190Y-138269761D01*
X160774285Y-138209285D01*
X160653333Y-138148809D01*
X160592857Y-138088333D01*
X160532380Y-137967380D01*
X160532380Y-137846428D01*
X160592857Y-137725476D01*
X160653333Y-137665000D01*
X160774285Y-137604523D01*
X161076666Y-137604523D01*
X161258095Y-137665000D01*
X161681428Y-137604523D02*
X162467619Y-137604523D01*
X162044285Y-138088333D01*
X162225714Y-138088333D01*
X162346666Y-138148809D01*
X162407142Y-138209285D01*
X162467619Y-138330238D01*
X162467619Y-138632619D01*
X162407142Y-138753571D01*
X162346666Y-138814047D01*
X162225714Y-138874523D01*
X161862857Y-138874523D01*
X161741904Y-138814047D01*
X161681428Y-138753571D01*
D10*
%TO.C,U2*%
X163738095Y-106452380D02*
X163738095Y-107261904D01*
X163785714Y-107357142D01*
X163833333Y-107404761D01*
X163928571Y-107452380D01*
X164119047Y-107452380D01*
X164214285Y-107404761D01*
X164261904Y-107357142D01*
X164309523Y-107261904D01*
X164309523Y-106452380D01*
X164738095Y-106547619D02*
X164785714Y-106500000D01*
X164880952Y-106452380D01*
X165119047Y-106452380D01*
X165214285Y-106500000D01*
X165261904Y-106547619D01*
X165309523Y-106642857D01*
X165309523Y-106738095D01*
X165261904Y-106880952D01*
X164690476Y-107452380D01*
X165309523Y-107452380D01*
%TO.C,C4*%
X155683333Y-88357142D02*
X155635714Y-88404761D01*
X155492857Y-88452380D01*
X155397619Y-88452380D01*
X155254761Y-88404761D01*
X155159523Y-88309523D01*
X155111904Y-88214285D01*
X155064285Y-88023809D01*
X155064285Y-87880952D01*
X155111904Y-87690476D01*
X155159523Y-87595238D01*
X155254761Y-87500000D01*
X155397619Y-87452380D01*
X155492857Y-87452380D01*
X155635714Y-87500000D01*
X155683333Y-87547619D01*
X156540476Y-87785714D02*
X156540476Y-88452380D01*
X156302380Y-87404761D02*
X156064285Y-88119047D01*
X156683333Y-88119047D01*
%TO.C,C2*%
X153083333Y-82357142D02*
X153035714Y-82404761D01*
X152892857Y-82452380D01*
X152797619Y-82452380D01*
X152654761Y-82404761D01*
X152559523Y-82309523D01*
X152511904Y-82214285D01*
X152464285Y-82023809D01*
X152464285Y-81880952D01*
X152511904Y-81690476D01*
X152559523Y-81595238D01*
X152654761Y-81500000D01*
X152797619Y-81452380D01*
X152892857Y-81452380D01*
X153035714Y-81500000D01*
X153083333Y-81547619D01*
X153464285Y-81547619D02*
X153511904Y-81500000D01*
X153607142Y-81452380D01*
X153845238Y-81452380D01*
X153940476Y-81500000D01*
X153988095Y-81547619D01*
X154035714Y-81642857D01*
X154035714Y-81738095D01*
X153988095Y-81880952D01*
X153416666Y-82452380D01*
X154035714Y-82452380D01*
D12*
%TO.C,R13*%
X158977064Y-96265000D02*
X158522936Y-96265000D01*
X158977064Y-97735000D02*
X158522936Y-97735000D01*
%TO.C,R6*%
X166272936Y-92515000D02*
X166727064Y-92515000D01*
X166272936Y-93985000D02*
X166727064Y-93985000D01*
%TO.C,Y1*%
X157100000Y-87150000D02*
X161100000Y-87150000D01*
X157100000Y-83850000D02*
X157100000Y-87150000D01*
D13*
%TO.C,S1*%
X135400000Y-144100000D02*
X135400000Y-144100000D01*
D14*
X140500000Y-141000000D02*
X134500000Y-141000000D01*
X140500000Y-135000000D02*
X140500000Y-141000000D01*
D13*
X135200000Y-144100000D02*
X135200000Y-144100000D01*
D14*
X134500000Y-141000000D02*
X134500000Y-135000000D01*
X134500000Y-135000000D02*
X140500000Y-135000000D01*
D13*
X135200000Y-144100000D02*
G75*
G03*
X135400000Y-144100000I100000J0D01*
G01*
X135400000Y-144100000D02*
G75*
G03*
X135200000Y-144100000I-100000J0D01*
G01*
D12*
%TO.C,C7*%
X158488748Y-101735000D02*
X159011252Y-101735000D01*
X158488748Y-100265000D02*
X159011252Y-100265000D01*
%TO.C,R9*%
X132727064Y-85485000D02*
X132272936Y-85485000D01*
X132727064Y-84015000D02*
X132272936Y-84015000D01*
D14*
%TO.C,S2*%
X146500000Y-141000000D02*
X146500000Y-135000000D01*
X152500000Y-135000000D02*
X152500000Y-141000000D01*
X146500000Y-135000000D02*
X152500000Y-135000000D01*
D13*
X147400000Y-144100000D02*
X147400000Y-144100000D01*
X147200000Y-144100000D02*
X147200000Y-144100000D01*
D14*
X152500000Y-141000000D02*
X146500000Y-141000000D01*
D13*
X147200000Y-144100000D02*
G75*
G03*
X147400000Y-144100000I100000J0D01*
G01*
X147400000Y-144100000D02*
G75*
G03*
X147200000Y-144100000I-100000J0D01*
G01*
D12*
%TO.C,J3*%
X150895000Y-81795000D02*
X149625000Y-81795000D01*
X145525000Y-80485000D02*
X139525000Y-80485000D01*
X145525000Y-80905000D02*
X139525000Y-80905000D01*
X145525000Y-80365000D02*
X139525000Y-80365000D01*
X148515000Y-80145000D02*
X148185000Y-80145000D01*
X150895000Y-80525000D02*
X150895000Y-81795000D01*
X145525000Y-81855000D02*
X148185000Y-81855000D01*
X145525000Y-76655000D02*
X145525000Y-81855000D01*
X139525000Y-78365000D02*
X139525000Y-77605000D01*
X139525000Y-80905000D02*
X139525000Y-80145000D01*
X148582071Y-78365000D02*
X148185000Y-78365000D01*
X139525000Y-80145000D02*
X145525000Y-80145000D01*
X148185000Y-79255000D02*
X145525000Y-79255000D01*
X139525000Y-77605000D02*
X145525000Y-77605000D01*
X145525000Y-78365000D02*
X139525000Y-78365000D01*
X148515000Y-80905000D02*
X148185000Y-80905000D01*
X148185000Y-76655000D02*
X145525000Y-76655000D01*
X148185000Y-81855000D02*
X148185000Y-76655000D01*
X145525000Y-80845000D02*
X139525000Y-80845000D01*
X145525000Y-80605000D02*
X139525000Y-80605000D01*
X145525000Y-80245000D02*
X139525000Y-80245000D01*
X148582071Y-77605000D02*
X148185000Y-77605000D01*
X145525000Y-80725000D02*
X139525000Y-80725000D01*
%TO.C,R2*%
X148485000Y-73272936D02*
X148485000Y-73727064D01*
X147015000Y-73272936D02*
X147015000Y-73727064D01*
%TO.C,U3*%
X162700000Y-112840000D02*
X160800000Y-112840000D01*
X161300000Y-115160000D02*
X162700000Y-115160000D01*
%TO.C,C9*%
X161738748Y-110765000D02*
X162261252Y-110765000D01*
X161738748Y-112235000D02*
X162261252Y-112235000D01*
%TO.C,C8*%
X161738748Y-105235000D02*
X162261252Y-105235000D01*
X161738748Y-103765000D02*
X162261252Y-103765000D01*
%TO.C,R11*%
X166485000Y-104727064D02*
X166485000Y-104272936D01*
X165015000Y-104727064D02*
X165015000Y-104272936D01*
%TO.C,J2*%
X170350000Y-123170000D02*
X167690000Y-123170000D01*
X170350000Y-124120000D02*
X176350000Y-124120000D01*
X170350000Y-124300000D02*
X176350000Y-124300000D01*
X170350000Y-124780000D02*
X176350000Y-124780000D01*
X164980000Y-124500000D02*
X164980000Y-123230000D01*
X170350000Y-126660000D02*
X176350000Y-126660000D01*
X167292929Y-126660000D02*
X167690000Y-126660000D01*
X176350000Y-129200000D02*
X176350000Y-129960000D01*
X167690000Y-130910000D02*
X170350000Y-130910000D01*
X176350000Y-124120000D02*
X176350000Y-124880000D01*
X170350000Y-124660000D02*
X176350000Y-124660000D01*
X164980000Y-123230000D02*
X166250000Y-123230000D01*
X167690000Y-123170000D02*
X167690000Y-130910000D01*
X176350000Y-127420000D02*
X170350000Y-127420000D01*
X170350000Y-130910000D02*
X170350000Y-123170000D01*
X176350000Y-126660000D02*
X176350000Y-127420000D01*
X176350000Y-129960000D02*
X170350000Y-129960000D01*
X167292929Y-129200000D02*
X167690000Y-129200000D01*
X167690000Y-128310000D02*
X170350000Y-128310000D01*
X170350000Y-124180000D02*
X176350000Y-124180000D01*
X167292929Y-129960000D02*
X167690000Y-129960000D01*
X167292929Y-127420000D02*
X167690000Y-127420000D01*
X170350000Y-124420000D02*
X176350000Y-124420000D01*
X170350000Y-129200000D02*
X176350000Y-129200000D01*
X167360000Y-124120000D02*
X167690000Y-124120000D01*
X170350000Y-124540000D02*
X176350000Y-124540000D01*
X167690000Y-125770000D02*
X170350000Y-125770000D01*
X176350000Y-124880000D02*
X170350000Y-124880000D01*
X167360000Y-124880000D02*
X167690000Y-124880000D01*
%TO.C,R10*%
X164265000Y-77977064D02*
X164265000Y-77522936D01*
X165735000Y-77977064D02*
X165735000Y-77522936D01*
%TO.C,C3*%
X152011252Y-86485000D02*
X151488748Y-86485000D01*
X152011252Y-85015000D02*
X151488748Y-85015000D01*
%TO.C,C6*%
X158488748Y-94265000D02*
X159011252Y-94265000D01*
X158488748Y-95735000D02*
X159011252Y-95735000D01*
%TO.C,R8*%
X157235000Y-77977064D02*
X157235000Y-77522936D01*
X155765000Y-77977064D02*
X155765000Y-77522936D01*
%TO.C,D2*%
X164040000Y-72935000D02*
X165960000Y-72935000D01*
X165960000Y-72935000D02*
X165960000Y-70250000D01*
X164040000Y-70250000D02*
X164040000Y-72935000D01*
%TO.C,D3*%
X172540000Y-70250000D02*
X172540000Y-72935000D01*
X174460000Y-72935000D02*
X174460000Y-70250000D01*
X172540000Y-72935000D02*
X174460000Y-72935000D01*
%TO.C,J1*%
X154200000Y-63000000D02*
X154200000Y-61100000D01*
X144800000Y-66900000D02*
X144800000Y-64900000D01*
X154200000Y-61100000D02*
X144800000Y-61100000D01*
X144800000Y-63000000D02*
X144800000Y-61100000D01*
X154200000Y-66900000D02*
X154200000Y-64900000D01*
%TO.C,R15*%
X162227064Y-108765000D02*
X161772936Y-108765000D01*
X162227064Y-110235000D02*
X161772936Y-110235000D01*
%TO.C,R16*%
X162227064Y-117235000D02*
X161772936Y-117235000D01*
X162227064Y-115765000D02*
X161772936Y-115765000D01*
%TO.C,R7*%
X166272936Y-91985000D02*
X166727064Y-91985000D01*
X166272936Y-90515000D02*
X166727064Y-90515000D01*
%TO.C,R12*%
X146260436Y-82965000D02*
X146714564Y-82965000D01*
X146260436Y-84435000D02*
X146714564Y-84435000D01*
%TO.C,R4*%
X142765000Y-133227064D02*
X142765000Y-132772936D01*
X144235000Y-133227064D02*
X144235000Y-132772936D01*
%TO.C,R1*%
X151485000Y-73272936D02*
X151485000Y-73727064D01*
X150015000Y-73272936D02*
X150015000Y-73727064D01*
%TO.C,R14*%
X158977064Y-98265000D02*
X158522936Y-98265000D01*
X158977064Y-99735000D02*
X158522936Y-99735000D01*
%TO.C,R5*%
X154765000Y-133227064D02*
X154765000Y-132772936D01*
X156235000Y-133227064D02*
X156235000Y-132772936D01*
%TO.C,C1*%
X137840000Y-68288748D02*
X137840000Y-69711252D01*
X139660000Y-68288748D02*
X139660000Y-69711252D01*
%TO.C,C5*%
X158838748Y-82015000D02*
X159361252Y-82015000D01*
X158838748Y-83485000D02*
X159361252Y-83485000D01*
%TO.C,D1*%
X157460000Y-72935000D02*
X157460000Y-70250000D01*
X155540000Y-70250000D02*
X155540000Y-72935000D01*
X155540000Y-72935000D02*
X157460000Y-72935000D01*
%TO.C,R3*%
X132272936Y-130735000D02*
X132727064Y-130735000D01*
X132272936Y-129265000D02*
X132727064Y-129265000D01*
%TO.C,U1*%
X145000000Y-85115000D02*
X147200000Y-85115000D01*
X145000000Y-85115000D02*
X141400000Y-85115000D01*
X145000000Y-91885000D02*
X147200000Y-91885000D01*
X145000000Y-91885000D02*
X142800000Y-91885000D01*
%TO.C,SW1*%
X155400000Y-109600000D02*
X153000000Y-109600000D01*
X155400000Y-97400000D02*
X143600000Y-97400000D01*
X153600000Y-95700000D02*
X153600000Y-96300000D01*
X146000000Y-109600000D02*
X143600000Y-109600000D01*
X153600000Y-96300000D02*
X153300000Y-96000000D01*
X143600000Y-109600000D02*
X143600000Y-105500000D01*
X155400000Y-101500000D02*
X155400000Y-97400000D01*
X153300000Y-96000000D02*
X153600000Y-95700000D01*
X143600000Y-101500000D02*
X143600000Y-97400000D01*
X155400000Y-105500000D02*
X155400000Y-109600000D01*
X149500000Y-103000000D02*
X149500000Y-104000000D01*
X150000000Y-103500000D02*
X149000000Y-103500000D01*
X150800000Y-109600000D02*
X148200000Y-109600000D01*
X152500000Y-103500000D02*
G75*
G03*
X152500000Y-103500000I-3000000J0D01*
G01*
D14*
%TO.C,S3*%
X158500000Y-141000000D02*
X158500000Y-135000000D01*
X164500000Y-141000000D02*
X158500000Y-141000000D01*
X164500000Y-135000000D02*
X164500000Y-141000000D01*
D13*
X159400000Y-144100000D02*
X159400000Y-144100000D01*
D14*
X158500000Y-135000000D02*
X164500000Y-135000000D01*
D13*
X159200000Y-144100000D02*
X159200000Y-144100000D01*
X159200000Y-144100000D02*
G75*
G03*
X159400000Y-144100000I100000J0D01*
G01*
X159400000Y-144100000D02*
G75*
G03*
X159200000Y-144100000I-100000J0D01*
G01*
D12*
%TO.C,U2*%
X161300000Y-108160000D02*
X162700000Y-108160000D01*
X162700000Y-105840000D02*
X160800000Y-105840000D01*
%TO.C,C4*%
X155115000Y-85238748D02*
X155115000Y-85761252D01*
X156585000Y-85238748D02*
X156585000Y-85761252D01*
%TO.C,C2*%
X151488748Y-84235000D02*
X152011252Y-84235000D01*
X151488748Y-82765000D02*
X152011252Y-82765000D01*
%TD*%
%LPC*%
D15*
%TO.C,R13*%
X159662500Y-97000000D03*
X157837500Y-97000000D03*
%TD*%
D16*
%TO.C,R6*%
X165587500Y-93250000D03*
X167412500Y-93250000D03*
%TD*%
D17*
%TO.C,Y1*%
X158000000Y-86350000D03*
X160200000Y-86350000D03*
X160200000Y-84650000D03*
X158000000Y-84650000D03*
%TD*%
D18*
%TO.C,S1*%
X135250000Y-142550000D03*
X135250000Y-133450000D03*
X139750000Y-142550000D03*
X139750000Y-133450000D03*
%TD*%
D19*
%TO.C,C7*%
X157800000Y-101000000D03*
X159700000Y-101000000D03*
%TD*%
D15*
%TO.C,R9*%
X133412500Y-84750000D03*
X131587500Y-84750000D03*
%TD*%
D18*
%TO.C,S2*%
X147250000Y-142550000D03*
X147250000Y-133450000D03*
X151750000Y-142550000D03*
X151750000Y-133450000D03*
%TD*%
D20*
%TO.C,J3*%
X149625000Y-80525000D03*
D21*
X149625000Y-77985000D03*
%TD*%
D22*
%TO.C,R2*%
X147750000Y-72587500D03*
X147750000Y-74412500D03*
%TD*%
D23*
%TO.C,U3*%
X161050000Y-113350000D03*
X161050000Y-114000000D03*
X161050000Y-114650000D03*
X162950000Y-114650000D03*
X162950000Y-113350000D03*
%TD*%
D19*
%TO.C,C9*%
X161050000Y-111500000D03*
X162950000Y-111500000D03*
%TD*%
%TO.C,C8*%
X161050000Y-104500000D03*
X162950000Y-104500000D03*
%TD*%
D24*
%TO.C,R11*%
X165750000Y-105412500D03*
X165750000Y-103587500D03*
%TD*%
D20*
%TO.C,J2*%
X166250000Y-124500000D03*
D21*
X166250000Y-127040000D03*
X166250000Y-129580000D03*
%TD*%
D25*
%TO.C,H2*%
X173000000Y-65000000D03*
%TD*%
D24*
%TO.C,R10*%
X165000000Y-78662500D03*
X165000000Y-76837500D03*
%TD*%
D25*
%TO.C,H1*%
X126000000Y-65000000D03*
%TD*%
%TO.C,H4*%
X173000000Y-142000000D03*
%TD*%
D26*
%TO.C,C3*%
X152700000Y-85750000D03*
X150800000Y-85750000D03*
%TD*%
D19*
%TO.C,C6*%
X157800000Y-95000000D03*
X159700000Y-95000000D03*
%TD*%
D24*
%TO.C,R8*%
X156500000Y-78662500D03*
X156500000Y-76837500D03*
%TD*%
D27*
%TO.C,D2*%
X165000000Y-72187500D03*
X165000000Y-70312500D03*
%TD*%
%TO.C,D3*%
X173500000Y-72187500D03*
X173500000Y-70312500D03*
%TD*%
D28*
%TO.C,J1*%
X146610000Y-67600000D03*
X152390000Y-67600000D03*
D29*
X152750000Y-69045000D03*
X151950000Y-69045000D03*
D30*
X150750000Y-69045000D03*
X149750000Y-69045000D03*
X149250000Y-69045000D03*
X148250000Y-69045000D03*
D29*
X147050000Y-69045000D03*
X146250000Y-69045000D03*
X146250000Y-69045000D03*
X147050000Y-69045000D03*
D30*
X147750000Y-69045000D03*
X148750000Y-69045000D03*
X150250000Y-69045000D03*
X151250000Y-69045000D03*
D29*
X151950000Y-69045000D03*
X152750000Y-69045000D03*
D31*
X153820000Y-68130000D03*
D32*
X153820000Y-63950000D03*
X145180000Y-63950000D03*
D31*
X145180000Y-68130000D03*
%TD*%
D15*
%TO.C,R15*%
X162912500Y-109500000D03*
X161087500Y-109500000D03*
%TD*%
%TO.C,R16*%
X162912500Y-116500000D03*
X161087500Y-116500000D03*
%TD*%
D16*
%TO.C,R7*%
X165587500Y-91250000D03*
X167412500Y-91250000D03*
%TD*%
%TO.C,R12*%
X145575000Y-83700000D03*
X147400000Y-83700000D03*
%TD*%
D24*
%TO.C,R4*%
X143500000Y-133912500D03*
X143500000Y-132087500D03*
%TD*%
D22*
%TO.C,R1*%
X150750000Y-72587500D03*
X150750000Y-74412500D03*
%TD*%
D15*
%TO.C,R14*%
X159662500Y-99000000D03*
X157837500Y-99000000D03*
%TD*%
D24*
%TO.C,R5*%
X155500000Y-133912500D03*
X155500000Y-132087500D03*
%TD*%
D25*
%TO.C,H3*%
X126000000Y-142000000D03*
%TD*%
D33*
%TO.C,C1*%
X138750000Y-67525000D03*
X138750000Y-70475000D03*
%TD*%
D19*
%TO.C,C5*%
X158150000Y-82750000D03*
X160050000Y-82750000D03*
%TD*%
D27*
%TO.C,D1*%
X156500000Y-72187500D03*
X156500000Y-70312500D03*
%TD*%
D16*
%TO.C,R3*%
X131587500Y-130000000D03*
X133412500Y-130000000D03*
%TD*%
D34*
%TO.C,U1*%
X142137500Y-85575000D03*
X142137500Y-86225000D03*
X142137500Y-86875000D03*
X142137500Y-87525000D03*
X142137500Y-88175000D03*
X142137500Y-88825000D03*
X142137500Y-89475000D03*
X142137500Y-90125000D03*
X142137500Y-90775000D03*
X142137500Y-91425000D03*
X147862500Y-91425000D03*
X147862500Y-90775000D03*
X147862500Y-90125000D03*
X147862500Y-89475000D03*
X147862500Y-88825000D03*
X147862500Y-88175000D03*
X147862500Y-87525000D03*
X147862500Y-86875000D03*
X147862500Y-86225000D03*
X147862500Y-85575000D03*
%TD*%
D35*
%TO.C,SW1*%
X152000000Y-96000000D03*
D36*
X147000000Y-96000000D03*
X149500000Y-96000000D03*
D37*
X155100000Y-103500000D03*
X143900000Y-103500000D03*
D36*
X147000000Y-110500000D03*
X152000000Y-110500000D03*
%TD*%
D18*
%TO.C,S3*%
X159250000Y-142550000D03*
X159250000Y-133450000D03*
X163750000Y-142550000D03*
X163750000Y-133450000D03*
%TD*%
D23*
%TO.C,U2*%
X161050000Y-106350000D03*
X161050000Y-107000000D03*
X161050000Y-107650000D03*
X162950000Y-107650000D03*
X162950000Y-106350000D03*
%TD*%
D38*
%TO.C,C4*%
X155850000Y-84550000D03*
X155850000Y-86450000D03*
%TD*%
D19*
%TO.C,C2*%
X150800000Y-83500000D03*
X152700000Y-83500000D03*
%TD*%
M02*
