%TF.GenerationSoftware,KiCad,Pcbnew,(6.0.5)*%
%TF.CreationDate,2024-07-06T21:19:43+02:00*%
%TF.ProjectId,USB_Knob,5553425f-4b6e-46f6-922e-6b696361645f,rev?*%
%TF.SameCoordinates,Original*%
%TF.FileFunction,Soldermask,Top*%
%TF.FilePolarity,Negative*%
%FSLAX46Y46*%
G04 Gerber Fmt 4.6, Leading zero omitted, Abs format (unit mm)*
G04 Created by KiCad (PCBNEW (6.0.5)) date 2024-07-06 21:19:43*
%MOMM*%
%LPD*%
G01*
G04 APERTURE LIST*
G04 Aperture macros list*
%AMRoundRect*
0 Rectangle with rounded corners*
0 $1 Rounding radius*
0 $2 $3 $4 $5 $6 $7 $8 $9 X,Y pos of 4 corners*
0 Add a 4 corners polygon primitive as box body*
4,1,4,$2,$3,$4,$5,$6,$7,$8,$9,$2,$3,0*
0 Add four circle primitives for the rounded corners*
1,1,$1+$1,$2,$3*
1,1,$1+$1,$4,$5*
1,1,$1+$1,$6,$7*
1,1,$1+$1,$8,$9*
0 Add four rect primitives between the rounded corners*
20,1,$1+$1,$2,$3,$4,$5,0*
20,1,$1+$1,$4,$5,$6,$7,0*
20,1,$1+$1,$6,$7,$8,$9,0*
20,1,$1+$1,$8,$9,$2,$3,0*%
G04 Aperture macros list end*
%ADD10RoundRect,0.250000X-0.262500X-0.450000X0.262500X-0.450000X0.262500X0.450000X-0.262500X0.450000X0*%
%ADD11R,1.400000X1.200000*%
%ADD12R,1.400000X2.100000*%
%ADD13RoundRect,0.250000X0.262500X0.450000X-0.262500X0.450000X-0.262500X-0.450000X0.262500X-0.450000X0*%
%ADD14RoundRect,0.250000X-0.450000X0.262500X-0.450000X-0.262500X0.450000X-0.262500X0.450000X0.262500X0*%
%ADD15RoundRect,0.250000X0.450000X-0.262500X0.450000X0.262500X-0.450000X0.262500X-0.450000X-0.262500X0*%
%ADD16R,1.700000X1.700000*%
%ADD17O,1.700000X1.700000*%
%ADD18C,6.400000*%
%ADD19RoundRect,0.250000X-0.475000X0.250000X-0.475000X-0.250000X0.475000X-0.250000X0.475000X0.250000X0*%
%ADD20RoundRect,0.243750X0.456250X-0.243750X0.456250X0.243750X-0.456250X0.243750X-0.456250X-0.243750X0*%
%ADD21C,0.650000*%
%ADD22R,0.600000X1.450000*%
%ADD23R,0.300000X1.450000*%
%ADD24O,1.000000X2.100000*%
%ADD25O,1.000000X1.600000*%
%ADD26RoundRect,0.250000X-0.650000X0.325000X-0.650000X-0.325000X0.650000X-0.325000X0.650000X0.325000X0*%
%ADD27RoundRect,0.250000X-0.250000X-0.475000X0.250000X-0.475000X0.250000X0.475000X-0.250000X0.475000X0*%
%ADD28RoundRect,0.100000X-0.637500X-0.100000X0.637500X-0.100000X0.637500X0.100000X-0.637500X0.100000X0*%
%ADD29R,2.000000X2.000000*%
%ADD30C,2.000000*%
%ADD31R,2.000000X3.200000*%
%ADD32RoundRect,0.250000X0.475000X-0.250000X0.475000X0.250000X-0.475000X0.250000X-0.475000X-0.250000X0*%
G04 APERTURE END LIST*
D10*
%TO.C,R6*%
X165587500Y-92500000D03*
X167412500Y-92500000D03*
%TD*%
D11*
%TO.C,Y1*%
X160900000Y-78350000D03*
X163100000Y-78350000D03*
X163100000Y-76650000D03*
X160900000Y-76650000D03*
%TD*%
D12*
%TO.C,S1*%
X135250000Y-142550000D03*
X135250000Y-133450000D03*
X139750000Y-142550000D03*
X139750000Y-133450000D03*
%TD*%
D13*
%TO.C,R9*%
X133412500Y-80000000D03*
X131587500Y-80000000D03*
%TD*%
D12*
%TO.C,S2*%
X147250000Y-142550000D03*
X147250000Y-133450000D03*
X151750000Y-142550000D03*
X151750000Y-133450000D03*
%TD*%
D14*
%TO.C,R2*%
X147750000Y-72587500D03*
X147750000Y-74412500D03*
%TD*%
D15*
%TO.C,R11*%
X165750000Y-118912500D03*
X165750000Y-117087500D03*
%TD*%
D16*
%TO.C,J2*%
X166250000Y-124500000D03*
D17*
X166250000Y-127040000D03*
X166250000Y-129580000D03*
%TD*%
D18*
%TO.C,H2*%
X173000000Y-65000000D03*
%TD*%
D10*
%TO.C,R10*%
X156837500Y-85250000D03*
X158662500Y-85250000D03*
%TD*%
D18*
%TO.C,H1*%
X126000000Y-65000000D03*
%TD*%
%TO.C,H4*%
X173000000Y-142000000D03*
%TD*%
D19*
%TO.C,C3*%
X155750000Y-75550000D03*
X155750000Y-77450000D03*
%TD*%
D10*
%TO.C,R8*%
X156837500Y-83250000D03*
X158662500Y-83250000D03*
%TD*%
D20*
%TO.C,D2*%
X165000000Y-72187500D03*
X165000000Y-70312500D03*
%TD*%
%TO.C,D3*%
X173500000Y-72187500D03*
X173500000Y-70312500D03*
%TD*%
D21*
%TO.C,J1*%
X146610000Y-67600000D03*
X152390000Y-67600000D03*
D22*
X152750000Y-69045000D03*
X151950000Y-69045000D03*
D23*
X150750000Y-69045000D03*
X149750000Y-69045000D03*
X149250000Y-69045000D03*
X148250000Y-69045000D03*
D22*
X147050000Y-69045000D03*
X146250000Y-69045000D03*
X146250000Y-69045000D03*
X147050000Y-69045000D03*
D23*
X147750000Y-69045000D03*
X148750000Y-69045000D03*
X150250000Y-69045000D03*
X151250000Y-69045000D03*
D22*
X151950000Y-69045000D03*
X152750000Y-69045000D03*
D24*
X153820000Y-68130000D03*
D25*
X153820000Y-63950000D03*
X145180000Y-63950000D03*
D24*
X145180000Y-68130000D03*
%TD*%
D13*
%TO.C,R7*%
X133412500Y-77750000D03*
X131587500Y-77750000D03*
%TD*%
D15*
%TO.C,R4*%
X143500000Y-133912500D03*
X143500000Y-132087500D03*
%TD*%
D14*
%TO.C,R1*%
X150750000Y-72587500D03*
X150750000Y-74412500D03*
%TD*%
D15*
%TO.C,R5*%
X155500000Y-133912500D03*
X155500000Y-132087500D03*
%TD*%
D18*
%TO.C,H3*%
X126000000Y-142000000D03*
%TD*%
D26*
%TO.C,C1*%
X138750000Y-67525000D03*
X138750000Y-70475000D03*
%TD*%
D27*
%TO.C,C5*%
X161050000Y-74750000D03*
X162950000Y-74750000D03*
%TD*%
D20*
%TO.C,D1*%
X156500000Y-72187500D03*
X156500000Y-70312500D03*
%TD*%
D10*
%TO.C,R3*%
X131587500Y-130000000D03*
X133412500Y-130000000D03*
%TD*%
D28*
%TO.C,U1*%
X146637500Y-79325000D03*
X146637500Y-79975000D03*
X146637500Y-80625000D03*
X146637500Y-81275000D03*
X146637500Y-81925000D03*
X146637500Y-82575000D03*
X146637500Y-83225000D03*
X146637500Y-83875000D03*
X146637500Y-84525000D03*
X146637500Y-85175000D03*
X152362500Y-85175000D03*
X152362500Y-84525000D03*
X152362500Y-83875000D03*
X152362500Y-83225000D03*
X152362500Y-82575000D03*
X152362500Y-81925000D03*
X152362500Y-81275000D03*
X152362500Y-80625000D03*
X152362500Y-79975000D03*
X152362500Y-79325000D03*
%TD*%
D29*
%TO.C,SW1*%
X152000000Y-96000000D03*
D30*
X147000000Y-96000000D03*
X149500000Y-96000000D03*
D31*
X155100000Y-103500000D03*
X143900000Y-103500000D03*
D30*
X147000000Y-110500000D03*
X152000000Y-110500000D03*
%TD*%
D12*
%TO.C,S3*%
X159250000Y-142550000D03*
X159250000Y-133450000D03*
X163750000Y-142550000D03*
X163750000Y-133450000D03*
%TD*%
D19*
%TO.C,C4*%
X158750000Y-76550000D03*
X158750000Y-78450000D03*
%TD*%
D32*
%TO.C,C2*%
X153500000Y-77450000D03*
X153500000Y-75550000D03*
%TD*%
M02*
