M48
; DRILL file {KiCad (6.0.5)} date Sat Jul  6 21:19:57 2024
; FORMAT={-:-/ absolute / metric / decimal}
; #@! TF.CreationDate,2024-07-06T21:19:57+02:00
; #@! TF.GenerationSoftware,Kicad,Pcbnew,(6.0.5)
; #@! TF.FileFunction,Plated,1,2,PTH
FMAT,2
METRIC
; #@! TA.AperFunction,Plated,PTH,ViaDrill
T1C0.400
; #@! TA.AperFunction,Plated,PTH,ComponentDrill
T2C0.600
; #@! TA.AperFunction,Plated,PTH,ComponentDrill
T3C1.000
; #@! TA.AperFunction,Plated,PTH,ComponentDrill
T4C1.500
; #@! TA.AperFunction,Plated,PTH,ComponentDrill
T5C3.200
%
G90
G05
T1
X134.5Y-126.5
X135.5Y-103.5
X138.25Y-128.25
X138.75Y-72.25
X138.75Y-83.0
X139.75Y-139.25
X141.75Y-125.25
X147.75Y-75.75
X148.5Y-129.75
X149.5Y-120.0
X150.25Y-84.75
X150.75Y-75.75
X151.75Y-139.25
X153.5Y-70.75
X154.5Y-74.25
X155.75Y-128.25
X156.0Y-91.25
X159.5Y-75.0
X160.25Y-81.5
X163.75Y-139.25
X164.5Y-97.5
X165.25Y-81.75
T3
X147.0Y-96.0
X147.0Y-110.5
X149.5Y-96.0
X152.0Y-96.0
X152.0Y-110.5
X166.25Y-124.5
X166.25Y-127.04
X166.25Y-129.58
T5
X126.0Y-65.0
X126.0Y-142.0
X173.0Y-65.0
X173.0Y-142.0
T2
X145.18Y-64.25G85X145.18Y-63.65
G05
X145.18Y-68.68G85X145.18Y-67.58
G05
X153.82Y-64.25G85X153.82Y-63.65
G05
X153.82Y-68.68G85X153.82Y-67.58
G05
T4
X143.9Y-102.85G85X143.9Y-104.15
G05
X155.1Y-102.85G85X155.1Y-104.15
G05
T0
M30
